G04 start of page 7 for group -4062 idx -4062 *
G04 Title: (unknown), soldermask *
G04 Creator: pcb 20140316 *
G04 CreationDate: Mon 18 May 2015 09:44:02 PM GMT UTC *
G04 For: ndholmes *
G04 Format: Gerber/RS-274X *
G04 PCB-Dimensions (mil): 2110.00 2710.00 *
G04 PCB-Coordinate-Origin: lower left *
%MOIN*%
%FSLAX25Y25*%
%LNBOTTOMMASK*%
%ADD82C,0.1600*%
%ADD81C,0.0760*%
%ADD80C,0.0860*%
%ADD79C,0.0900*%
%ADD78C,0.1560*%
%ADD77C,0.0001*%
%ADD76C,0.0660*%
G54D76*X10500Y130500D03*
Y120500D03*
Y110500D03*
Y100500D03*
G54D77*G36*
X7200Y163800D02*Y157200D01*
X13800D01*
Y163800D01*
X7200D01*
G37*
G54D76*X10500Y150500D03*
Y140500D03*
G54D78*Y215500D03*
G54D79*X55400Y130400D03*
X45400D03*
G54D77*G36*
X30900Y134900D02*Y125900D01*
X39900D01*
Y134900D01*
X30900D01*
G37*
G54D80*X41500Y200500D03*
Y180500D03*
G54D76*X200500Y176500D03*
Y186500D03*
Y196500D03*
G54D77*G36*
X101200Y252100D02*Y243500D01*
X109800D01*
Y252100D01*
X101200D01*
G37*
G54D80*X95500Y247800D03*
X85500D03*
X75500D03*
X65500D03*
X55500D03*
X45500D03*
X35500D03*
G54D77*G36*
X37200Y224800D02*Y216200D01*
X45800D01*
Y224800D01*
X37200D01*
G37*
G54D81*X163400Y204000D03*
X158400Y214000D03*
X153400Y204000D03*
X148400Y214000D03*
X143400Y204000D03*
X138400Y214000D03*
G54D82*X170900Y239000D03*
X130900D03*
G54D78*X200500Y210500D03*
G54D77*G36*
X189700Y263300D02*Y256700D01*
X196300D01*
Y263300D01*
X189700D01*
G37*
G54D76*X193000Y250000D03*
Y240000D03*
Y230000D03*
G54D77*G36*
X197200Y23800D02*Y17200D01*
X203800D01*
Y23800D01*
X197200D01*
G37*
G54D76*X200500Y30500D03*
Y40500D03*
Y50500D03*
Y60500D03*
Y70500D03*
G54D78*X140500Y10500D03*
G54D76*X120300Y10000D03*
X110300D03*
X100300D03*
G54D77*G36*
X117000Y23300D02*Y16700D01*
X123600D01*
Y23300D01*
X117000D01*
G37*
G54D76*X110300Y20000D03*
X100300D03*
G54D77*G36*
X52300Y26000D02*Y17400D01*
X60900D01*
Y26000D01*
X52300D01*
G37*
G54D80*X76600Y21700D03*
G54D76*X200500Y80500D03*
Y90500D03*
Y106500D03*
Y116500D03*
Y126500D03*
Y136500D03*
Y146500D03*
Y156500D03*
Y166500D03*
X10500Y90500D03*
Y70500D03*
Y60500D03*
Y50500D03*
Y40500D03*
Y30500D03*
Y20500D03*
G54D78*X30500Y10500D03*
M02*
