G04 start of page 9 for group -4078 idx -4078 *
G04 Title: (unknown), bottomsilk *
G04 Creator: pcb 20140316 *
G04 CreationDate: Mon 18 May 2015 09:44:02 PM GMT UTC *
G04 For: ndholmes *
G04 Format: Gerber/RS-274X *
G04 PCB-Dimensions (mil): 2110.00 2710.00 *
G04 PCB-Coordinate-Origin: lower left *
%MOIN*%
%FSLAX25Y25*%
%LNBOTTOMSILK*%
%ADD88C,0.0080*%
%ADD87C,0.0100*%
G54D87*X116000Y151500D02*X189500D01*
G54D88*X117000Y160913D02*Y164913D01*
Y163413D02*X117500Y162913D01*
X118500D01*
X119000Y163413D01*
Y164913D01*
X120700Y160913D02*Y164413D01*
X121200Y164913D01*
X120200Y162413D02*X121200D01*
X122700Y160913D02*Y164413D01*
X123200Y164913D01*
X122200Y162413D02*X123200D01*
X124700Y163413D02*Y166413D01*
X124200Y162913D02*X124700Y163413D01*
X125200Y162913D01*
X126200D01*
X126700Y163413D01*
Y164413D01*
X126200Y164913D02*X126700Y164413D01*
X125200Y164913D02*X126200D01*
X124700Y164413D02*X125200Y164913D01*
X127900Y162413D02*X128400D01*
X127900Y163413D02*X128400D01*
X129600Y164413D02*X132600Y161413D01*
X133800Y164413D02*X136800Y161413D01*
X138000Y162913D02*Y164413D01*
X138500Y164913D01*
X139000D01*
X139500Y164413D01*
Y162913D02*Y164413D01*
X140000Y164913D01*
X140500D01*
X141000Y164413D01*
Y162913D02*Y164413D01*
X142200Y162913D02*Y164413D01*
X142700Y164913D01*
X143200D01*
X143700Y164413D01*
Y162913D02*Y164413D01*
X144200Y164913D01*
X144700D01*
X145200Y164413D01*
Y162913D02*Y164413D01*
X146400Y162913D02*Y164413D01*
X146900Y164913D01*
X147400D01*
X147900Y164413D01*
Y162913D02*Y164413D01*
X148400Y164913D01*
X148900D01*
X149400Y164413D01*
Y162913D02*Y164413D01*
X150600Y164913D02*X151100D01*
X152300Y161913D02*Y162413D01*
Y163413D02*Y164913D01*
X154800Y162913D02*X155300Y163413D01*
X153800Y162913D02*X154800D01*
X153300Y163413D02*X153800Y162913D01*
X153300Y163413D02*Y164413D01*
X153800Y164913D01*
X155300Y162913D02*Y164413D01*
X155800Y164913D01*
X153800D02*X154800D01*
X155300Y164413D01*
X157500Y164913D02*X159000D01*
X159500Y164413D01*
X159000Y163913D02*X159500Y164413D01*
X157500Y163913D02*X159000D01*
X157000Y163413D02*X157500Y163913D01*
X157000Y163413D02*X157500Y162913D01*
X159000D01*
X159500Y163413D01*
X157000Y164413D02*X157500Y164913D01*
X161200Y162913D02*X162700D01*
X160700Y163413D02*X161200Y162913D01*
X160700Y163413D02*Y164413D01*
X161200Y164913D01*
X162700D01*
X165400Y162913D02*X165900Y163413D01*
X164400Y162913D02*X165400D01*
X163900Y163413D02*X164400Y162913D01*
X163900Y163413D02*Y164413D01*
X164400Y164913D01*
X165900Y162913D02*Y164413D01*
X166400Y164913D01*
X164400D02*X165400D01*
X165900Y164413D01*
X167600Y160913D02*Y164413D01*
X168100Y164913D01*
X169600D02*X171100D01*
X169100Y164413D02*X169600Y164913D01*
X169100Y163413D02*Y164413D01*
Y163413D02*X169600Y162913D01*
X170600D01*
X171100Y163413D01*
X169100Y163913D02*X171100D01*
Y163413D02*Y163913D01*
X174300Y160913D02*Y164913D01*
X173800D02*X174300Y164413D01*
X172800Y164913D02*X173800D01*
X172300Y164413D02*X172800Y164913D01*
X172300Y163413D02*Y164413D01*
Y163413D02*X172800Y162913D01*
X173800D01*
X174300Y163413D01*
X175500Y164913D02*X176000D01*
X177700Y162913D02*X179200D01*
X177200Y163413D02*X177700Y162913D01*
X177200Y163413D02*Y164413D01*
X177700Y164913D01*
X179200D01*
X180400Y163413D02*Y164413D01*
Y163413D02*X180900Y162913D01*
X181900D01*
X182400Y163413D01*
Y164413D01*
X181900Y164913D02*X182400Y164413D01*
X180900Y164913D02*X181900D01*
X180400Y164413D02*X180900Y164913D01*
X184100Y163413D02*Y164913D01*
Y163413D02*X184600Y162913D01*
X185100D01*
X185600Y163413D01*
Y164913D01*
Y163413D02*X186100Y162913D01*
X186600D01*
X187100Y163413D01*
Y164913D01*
X183600Y162913D02*X184100Y163413D01*
X116310Y171413D02*X116810Y171913D01*
X116310Y168413D02*X116810Y167913D01*
X116310Y168413D02*Y171413D01*
X118510Y171913D02*X120010D01*
X118010Y171413D02*X118510Y171913D01*
X118010Y168413D02*Y171413D01*
Y168413D02*X118510Y167913D01*
X120010D01*
X121210D02*X121710Y168413D01*
Y171413D01*
X121210Y171913D02*X121710Y171413D01*
X124710Y168413D02*X125210Y167913D01*
X126710D01*
X127210Y168413D01*
Y169413D01*
X124710Y171913D02*X127210Y169413D01*
X124710Y171913D02*X127210D01*
X128410Y171413D02*X128910Y171913D01*
X128410Y168413D02*Y171413D01*
Y168413D02*X128910Y167913D01*
X129910D01*
X130410Y168413D01*
Y171413D01*
X129910Y171913D02*X130410Y171413D01*
X128910Y171913D02*X129910D01*
X128410Y170913D02*X130410Y168913D01*
X132110Y171913D02*X133110D01*
X132610Y167913D02*Y171913D01*
X131610Y168913D02*X132610Y167913D01*
X134310D02*X136310D01*
X134310D02*Y169913D01*
X134810Y169413D01*
X135810D01*
X136310Y169913D01*
Y171413D01*
X135810Y171913D02*X136310Y171413D01*
X134810Y171913D02*X135810D01*
X134310Y171413D02*X134810Y171913D01*
X139810D02*X141310D01*
X139310Y171413D02*X139810Y171913D01*
X139310Y168413D02*Y171413D01*
Y168413D02*X139810Y167913D01*
X141310D01*
X143010Y171913D02*X144510D01*
X142510Y171413D02*X143010Y171913D01*
X142510Y168413D02*Y171413D01*
Y168413D02*X143010Y167913D01*
X144510D01*
X147510Y171913D02*X149510D01*
X150010Y171413D01*
Y170413D02*Y171413D01*
X149510Y169913D02*X150010Y170413D01*
X148010Y169913D02*X149510D01*
X148010Y167913D02*Y171913D01*
X147510Y167913D02*X149510D01*
X150010Y168413D01*
Y169413D01*
X149510Y169913D02*X150010Y169413D01*
X151210Y167913D02*Y168413D01*
X152210Y169413D01*
X153210Y168413D01*
Y167913D02*Y168413D01*
X152210Y169413D02*Y171913D01*
X154410Y169913D02*X156410D01*
X159610Y167913D02*X160110Y168413D01*
X158110Y167913D02*X159610D01*
X157610Y168413D02*X158110Y167913D01*
X157610Y168413D02*Y169413D01*
X158110Y169913D01*
X159610D01*
X160110Y170413D01*
Y171413D01*
X159610Y171913D02*X160110Y171413D01*
X158110Y171913D02*X159610D01*
X157610Y171413D02*X158110Y171913D01*
X161310Y168413D02*Y171913D01*
Y168413D02*X161810Y167913D01*
X163310D01*
X163810Y168413D01*
Y171913D01*
X161310Y169913D02*X163810D01*
X117000Y155000D02*Y158500D01*
Y155000D02*X117500Y154500D01*
X119000D01*
X119500Y155000D01*
Y158500D01*
X117000Y156500D02*X119500D01*
X120700Y154500D02*X122700D01*
X123200Y155000D01*
Y156000D01*
X122700Y156500D02*X123200Y156000D01*
X121200Y156500D02*X122700D01*
X121200Y154500D02*Y158500D01*
Y156500D02*X123200Y158500D01*
X124900Y154500D02*Y158500D01*
X126400Y154500D02*X126900Y155000D01*
Y158000D01*
X126400Y158500D02*X126900Y158000D01*
X124400Y158500D02*X126400D01*
X124400Y154500D02*X126400D01*
X128100Y156500D02*X130100D01*
X131800Y154500D02*Y158500D01*
X133300Y154500D02*X133800Y155000D01*
Y158000D01*
X133300Y158500D02*X133800Y158000D01*
X131300Y158500D02*X133300D01*
X131300Y154500D02*X133300D01*
X135500Y158500D02*X137000D01*
X135000Y158000D02*X135500Y158500D01*
X135000Y155000D02*Y158000D01*
Y155000D02*X135500Y154500D01*
X137000D01*
X138700Y158500D02*X140200D01*
X138200Y158000D02*X138700Y158500D01*
X138200Y155000D02*Y158000D01*
Y155000D02*X138700Y154500D01*
X140200D01*
X143400D02*X143900Y155000D01*
X141900Y154500D02*X143400D01*
X141400Y155000D02*X141900Y154500D01*
X141400Y155000D02*Y156000D01*
X141900Y156500D01*
X143400D01*
X143900Y157000D01*
Y158000D01*
X143400Y158500D02*X143900Y158000D01*
X141900Y158500D02*X143400D01*
X141400Y158000D02*X141900Y158500D01*
X145100Y154500D02*Y158500D01*
X147600Y154500D02*Y158500D01*
X145100Y156500D02*X147600D01*
X148800Y154500D02*X149800D01*
X149300D02*Y158500D01*
X148800D02*X149800D01*
X151000Y156500D02*X152500D01*
X151000Y158500D02*X153000D01*
X151000Y154500D02*Y158500D01*
Y154500D02*X153000D01*
X154200D02*Y158500D01*
X156200D01*
X157900Y154500D02*Y158500D01*
X159400Y154500D02*X159900Y155000D01*
Y158000D01*
X159400Y158500D02*X159900Y158000D01*
X157400Y158500D02*X159400D01*
X157400Y154500D02*X159400D01*
X162900Y156500D02*Y157500D01*
X163900Y158500D01*
X164900Y157500D01*
Y156500D02*Y157500D01*
X166600Y158500D02*X167600D01*
X167100Y154500D02*Y158500D01*
X166100Y155500D02*X167100Y154500D01*
X168800Y158500D02*X169300D01*
X171000D02*X172000D01*
X171500Y154500D02*Y158500D01*
X170500Y155500D02*X171500Y154500D01*
X117000Y143913D02*X118000D01*
X117500D02*Y147913D01*
X117000D02*X118000D01*
X119200Y146413D02*Y147413D01*
Y146413D02*X119700Y145913D01*
X120700D01*
X121200Y146413D01*
Y147413D01*
X120700Y147913D02*X121200Y147413D01*
X119700Y147913D02*X120700D01*
X119200Y147413D02*X119700Y147913D01*
X122400Y145913D02*Y147413D01*
X122900Y147913D01*
X123400D01*
X123900Y147413D01*
Y145913D02*Y147413D01*
X124400Y147913D01*
X124900D01*
X125400Y147413D01*
Y145913D02*Y147413D01*
X128100Y145913D02*X128600Y146413D01*
X127100Y145913D02*X128100D01*
X126600Y146413D02*X127100Y145913D01*
X126600Y146413D02*Y147413D01*
X127100Y147913D01*
X128600Y145913D02*Y147413D01*
X129100Y147913D01*
X127100D02*X128100D01*
X128600Y147413D01*
X134100Y143913D02*X134600Y144413D01*
X132600Y143913D02*X134100D01*
X132100Y144413D02*X132600Y143913D01*
X132100Y144413D02*Y145413D01*
X132600Y145913D01*
X134100D01*
X134600Y146413D01*
Y147413D01*
X134100Y147913D02*X134600Y147413D01*
X132600Y147913D02*X134100D01*
X132100Y147413D02*X132600Y147913D01*
X136300Y145913D02*X137800D01*
X135800Y146413D02*X136300Y145913D01*
X135800Y146413D02*Y147413D01*
X136300Y147913D01*
X137800D01*
X140500Y145913D02*X141000Y146413D01*
X139500Y145913D02*X140500D01*
X139000Y146413D02*X139500Y145913D01*
X139000Y146413D02*Y147413D01*
X139500Y147913D01*
X141000Y145913D02*Y147413D01*
X141500Y147913D01*
X139500D02*X140500D01*
X141000Y147413D01*
X142700Y143913D02*Y147413D01*
X143200Y147913D01*
X144700D02*X146200D01*
X144200Y147413D02*X144700Y147913D01*
X144200Y146413D02*Y147413D01*
Y146413D02*X144700Y145913D01*
X145700D01*
X146200Y146413D01*
X144200Y146913D02*X146200D01*
Y146413D02*Y146913D01*
X149400Y143913D02*Y147913D01*
X148900D02*X149400Y147413D01*
X147900Y147913D02*X148900D01*
X147400Y147413D02*X147900Y147913D01*
X147400Y146413D02*Y147413D01*
Y146413D02*X147900Y145913D01*
X148900D01*
X149400Y146413D01*
X152400Y145913D02*X153900D01*
X152400Y147913D02*X154400D01*
X152400Y143913D02*Y147913D01*
Y143913D02*X154400D01*
X156100Y146413D02*Y147913D01*
Y146413D02*X156600Y145913D01*
X157100D01*
X157600Y146413D01*
Y147913D01*
X155600Y145913D02*X156100Y146413D01*
X160300Y145913D02*X160800Y146413D01*
X159300Y145913D02*X160300D01*
X158800Y146413D02*X159300Y145913D01*
X158800Y146413D02*Y147413D01*
X159300Y147913D01*
X160300D01*
X160800Y147413D01*
X158800Y148913D02*X159300Y149413D01*
X160300D01*
X160800Y148913D01*
Y145913D02*Y148913D01*
X162000Y144913D02*Y145413D01*
Y146413D02*Y147913D01*
X163500Y146413D02*Y147913D01*
Y146413D02*X164000Y145913D01*
X164500D01*
X165000Y146413D01*
Y147913D01*
X163000Y145913D02*X163500Y146413D01*
X166700Y147913D02*X168200D01*
X166200Y147413D02*X166700Y147913D01*
X166200Y146413D02*Y147413D01*
Y146413D02*X166700Y145913D01*
X167700D01*
X168200Y146413D01*
X166200Y146913D02*X168200D01*
Y146413D02*Y146913D01*
X169900Y147913D02*X171400D01*
X169400Y147413D02*X169900Y147913D01*
X169400Y146413D02*Y147413D01*
Y146413D02*X169900Y145913D01*
X170900D01*
X171400Y146413D01*
X169400Y146913D02*X171400D01*
Y146413D02*Y146913D01*
X173100Y146413D02*Y147913D01*
Y146413D02*X173600Y145913D01*
X174600D01*
X172600D02*X173100Y146413D01*
X175800Y144913D02*Y145413D01*
Y146413D02*Y147913D01*
X177300Y146413D02*Y147913D01*
Y146413D02*X177800Y145913D01*
X178300D01*
X178800Y146413D01*
Y147913D01*
X176800Y145913D02*X177300Y146413D01*
X181500Y145913D02*X182000Y146413D01*
X180500Y145913D02*X181500D01*
X180000Y146413D02*X180500Y145913D01*
X180000Y146413D02*Y147413D01*
X180500Y147913D01*
X181500D01*
X182000Y147413D01*
X180000Y148913D02*X180500Y149413D01*
X181500D01*
X182000Y148913D01*
Y145913D02*Y148913D01*
M02*
