G04 start of page 6 for group -4063 idx -4063 *
G04 Title: (unknown), componentmask *
G04 Creator: pcb 4.0.2 *
G04 CreationDate: Sat May 14 18:12:11 2022 UTC *
G04 For: railfan *
G04 Format: Gerber/RS-274X *
G04 PCB-Dimensions (mil): 3110.00 2710.00 *
G04 PCB-Coordinate-Origin: lower left *
%MOIN*%
%FSLAX25Y25*%
%LNTOPMASK*%
%ADD48C,0.0600*%
%ADD47C,0.0900*%
%ADD46C,0.0860*%
%ADD45C,0.1560*%
%ADD44C,0.0660*%
%ADD43C,0.0001*%
G54D43*G36*
X197200Y23800D02*Y17200D01*
X203800D01*
Y23800D01*
X197200D01*
G37*
G54D44*X200500Y30500D03*
Y40500D03*
Y50500D03*
Y60500D03*
Y70500D03*
G54D45*X140500Y10500D03*
G54D44*X120300Y10000D03*
X110300D03*
X100300D03*
G54D43*G36*
X117000Y23300D02*Y16700D01*
X123600D01*
Y23300D01*
X117000D01*
G37*
G54D44*X110300Y20000D03*
X100300D03*
G54D43*G36*
X52200Y25800D02*Y17200D01*
X60800D01*
Y25800D01*
X52200D01*
G37*
G54D46*X76500Y21500D03*
G54D44*X10500Y130500D03*
Y120500D03*
Y110500D03*
Y100500D03*
G54D43*G36*
X7200Y163800D02*Y157200D01*
X13800D01*
Y163800D01*
X7200D01*
G37*
G54D44*X10500Y150500D03*
Y140500D03*
G54D45*Y215500D03*
G54D46*X16500Y247500D03*
G54D44*X10500Y90500D03*
Y70500D03*
Y60500D03*
Y50500D03*
Y40500D03*
Y30500D03*
Y20500D03*
G54D45*X30500Y10500D03*
G54D44*X200500Y80500D03*
Y90500D03*
Y106500D03*
Y116500D03*
Y126500D03*
Y136500D03*
Y146500D03*
Y156500D03*
Y166500D03*
Y176500D03*
Y186500D03*
Y196500D03*
G54D45*Y210500D03*
G54D43*G36*
X157200Y218800D02*Y212200D01*
X163800D01*
Y218800D01*
X157200D01*
G37*
G54D44*X160500Y205500D03*
Y195500D03*
G54D43*G36*
X196700Y251800D02*Y243200D01*
X205300D01*
Y251800D01*
X196700D01*
G37*
G54D46*X191000Y247500D03*
X181000D03*
X171000D03*
G54D44*X160500Y185500D03*
G54D46*X161000Y247500D03*
X151000D03*
X141000D03*
X131000D03*
G54D43*G36*
X52200Y251800D02*Y243200D01*
X60800D01*
Y251800D01*
X52200D01*
G37*
G54D46*X36500Y247500D03*
G54D47*X71373Y202627D03*
Y192627D03*
G54D43*G36*
X66873Y187127D02*Y178127D01*
X75873D01*
Y187127D01*
X66873D01*
G37*
G54D48*X21600Y223000D03*
G54D43*G36*
X24600Y226000D02*X21600D01*
Y220000D01*
X24600D01*
Y226000D01*
G37*
G54D48*X28400Y223000D03*
G54D43*G36*
Y226000D02*X25400D01*
Y220000D01*
X28400D01*
Y226000D01*
G37*
G36*
X121773Y229252D02*X116055D01*
Y222748D01*
X121773D01*
Y229252D01*
G37*
G36*
X101355Y254351D02*X98393D01*
Y247649D01*
X101355D01*
Y254351D01*
G37*
G36*
X107654Y270099D02*X102330D01*
Y262413D01*
X107654D01*
Y270099D01*
G37*
G36*
X97418Y254351D02*X94456D01*
Y247649D01*
X97418D01*
Y254351D01*
G37*
G36*
X98402Y230752D02*X92684D01*
Y224248D01*
X98402D01*
Y230752D01*
G37*
G36*
X91316D02*X85598D01*
Y224248D01*
X91316D01*
Y230752D01*
G37*
G36*
Y220252D02*X85598D01*
Y213748D01*
X91316D01*
Y220252D01*
G37*
G36*
X98402D02*X92684D01*
Y213748D01*
X98402D01*
Y220252D01*
G37*
G36*
X93481Y254351D02*X90519D01*
Y247649D01*
X93481D01*
Y254351D01*
G37*
G36*
X89544D02*X86582D01*
Y247649D01*
X89544D01*
Y254351D01*
G37*
G36*
X85607Y270099D02*X80283D01*
Y262413D01*
X85607D01*
Y270099D01*
G37*
G36*
X47773Y176327D02*Y173327D01*
X52373D01*
Y176327D01*
X47773D01*
G37*
G36*
Y180227D02*Y177227D01*
X52373D01*
Y180227D01*
X47773D01*
G37*
G36*
X58121Y180986D02*Y175268D01*
X64625D01*
Y180986D01*
X58121D01*
G37*
G36*
X47773Y184127D02*Y181127D01*
X52373D01*
Y184127D01*
X47773D01*
G37*
G36*
X58121Y188072D02*Y182354D01*
X64625D01*
Y188072D01*
X58121D01*
G37*
G36*
X56337Y214463D02*X53437D01*
Y190163D01*
X56337D01*
Y214463D01*
G37*
G36*
X47837Y193063D02*Y190163D01*
X56337D01*
Y193063D01*
X47837D01*
G37*
G36*
X56282Y196236D02*X53737Y198782D01*
X47718Y192763D01*
X50264Y190218D01*
X56282Y196236D01*
G37*
G36*
X51937Y194563D02*Y190963D01*
X55537D01*
Y194563D01*
X51937D01*
G37*
G36*
X47837Y214463D02*Y211563D01*
X56337D01*
Y214463D01*
X47837D01*
G37*
G36*
X50264Y214409D02*X47718Y211863D01*
X53737Y205845D01*
X56282Y208390D01*
X50264Y214409D01*
G37*
G36*
X51937Y213663D02*Y210063D01*
X55537D01*
Y213663D01*
X51937D01*
G37*
G36*
X58264Y164614D02*X52546D01*
Y153386D01*
X58264D01*
Y164614D01*
G37*
G36*
X46454D02*X40736D01*
Y153386D01*
X46454D01*
Y164614D01*
G37*
G36*
X39573Y184127D02*Y181127D01*
X44173D01*
Y184127D01*
X39573D01*
G37*
G36*
X32037Y193063D02*Y190163D01*
X40537D01*
Y193063D01*
X32037D01*
G37*
G36*
X39573Y180227D02*Y177227D01*
X44173D01*
Y180227D01*
X39573D01*
G37*
G36*
Y176327D02*Y173327D01*
X44173D01*
Y176327D01*
X39573D01*
G37*
G36*
X27121Y176943D02*Y171225D01*
X33625D01*
Y176943D01*
X27121D01*
G37*
G36*
Y184029D02*Y178311D01*
X33625D01*
Y184029D01*
X27121D01*
G37*
G36*
X34937Y214463D02*X32037D01*
Y190163D01*
X34937D01*
Y214463D01*
G37*
G36*
X32037D02*Y211563D01*
X40537D01*
Y214463D01*
X32037D01*
G37*
G36*
X34637Y198782D02*X32091Y196236D01*
X38110Y190218D01*
X40655Y192763D01*
X34637Y198782D01*
G37*
G36*
X40655Y211863D02*X38110Y214409D01*
X32091Y208390D01*
X34637Y205845D01*
X40655Y211863D01*
G37*
G36*
X32837Y194563D02*Y190963D01*
X36437D01*
Y194563D01*
X32837D01*
G37*
G36*
Y213663D02*Y210063D01*
X36437D01*
Y213663D01*
X32837D01*
G37*
G36*
X128859Y229252D02*X123141D01*
Y222748D01*
X128859D01*
Y229252D01*
G37*
G36*
X123200Y219300D02*Y215300D01*
X127800D01*
Y219300D01*
X123200D01*
G37*
G36*
Y211500D02*Y207500D01*
X127800D01*
Y211500D01*
X123200D01*
G37*
G36*
X131400Y215400D02*Y211400D01*
X136000D01*
Y215400D01*
X131400D01*
G37*
G36*
X123200Y203000D02*Y199000D01*
X127800D01*
Y203000D01*
X123200D01*
G37*
G36*
X131400Y199100D02*Y195100D01*
X136000D01*
Y199100D01*
X131400D01*
G37*
G36*
X121816Y187752D02*X116098D01*
Y181248D01*
X121816D01*
Y187752D01*
G37*
G36*
X128902D02*X123184D01*
Y181248D01*
X128902D01*
Y187752D01*
G37*
G36*
X123200Y195200D02*Y191200D01*
X127800D01*
Y195200D01*
X123200D01*
G37*
G36*
X162371Y176752D02*X156653D01*
Y170248D01*
X162371D01*
Y176752D01*
G37*
G36*
X155285D02*X149567D01*
Y170248D01*
X155285D01*
Y176752D01*
G37*
G36*
X162402Y167752D02*X156684D01*
Y161248D01*
X162402D01*
Y167752D01*
G37*
G36*
X155316D02*X149598D01*
Y161248D01*
X155316D01*
Y167752D01*
G37*
G36*
X87748Y59445D02*Y53727D01*
X94252D01*
Y59445D01*
X87748D01*
G37*
G36*
Y52359D02*Y46641D01*
X94252D01*
Y52359D01*
X87748D01*
G37*
G36*
X78248Y52316D02*Y46598D01*
X84752D01*
Y52316D01*
X78248D01*
G37*
G36*
X36150Y50100D02*X32850D01*
Y44400D01*
X36150D01*
Y50100D01*
G37*
G36*
X46150D02*X42850D01*
Y44400D01*
X46150D01*
Y50100D01*
G37*
G36*
X78248Y59402D02*Y53684D01*
X84752D01*
Y59402D01*
X78248D01*
G37*
G36*
X72596Y77595D02*X68216D01*
Y69121D01*
X72596D01*
Y77595D01*
G37*
G36*
X66690D02*X62310D01*
Y61405D01*
X66690D01*
Y77595D01*
G37*
G36*
X66385Y69850D02*X64541Y68006D01*
X67805Y64742D01*
X69649Y66586D01*
X66385Y69850D01*
G37*
G36*
X80886Y73549D02*Y67831D01*
X92114D01*
Y73549D01*
X80886D01*
G37*
G36*
X69650Y94150D02*Y90850D01*
X73850D01*
Y94150D01*
X69650D01*
G37*
G36*
Y104150D02*Y100850D01*
X73850D01*
Y104150D01*
X69650D01*
G37*
G36*
X80886Y85359D02*Y79641D01*
X92114D01*
Y85359D01*
X80886D01*
G37*
G36*
X108900Y70600D02*Y63400D01*
X124100D01*
Y70600D01*
X108900D01*
G37*
G36*
Y60600D02*Y53400D01*
X124100D01*
Y60600D01*
X108900D01*
G37*
G36*
Y50600D02*Y43400D01*
X124100D01*
Y50600D01*
X108900D01*
G37*
G36*
Y40600D02*Y33400D01*
X124100D01*
Y40600D01*
X108900D01*
G37*
G36*
X97748Y59402D02*Y53684D01*
X104252D01*
Y59402D01*
X97748D01*
G37*
G36*
X110402Y82252D02*X104684D01*
Y75748D01*
X110402D01*
Y82252D01*
G37*
G36*
X103316D02*X97598D01*
Y75748D01*
X103316D01*
Y82252D01*
G37*
G36*
X97748Y52316D02*Y46598D01*
X104252D01*
Y52316D01*
X97748D01*
G37*
G36*
X114350Y135600D02*Y130400D01*
X124750D01*
Y135600D01*
X114350D01*
G37*
G36*
X148250D02*Y130400D01*
X158650D01*
Y135600D01*
X148250D01*
G37*
G36*
X114350Y125600D02*Y120400D01*
X124750D01*
Y125600D01*
X114350D01*
G37*
G36*
X148250D02*Y120400D01*
X158650D01*
Y125600D01*
X148250D01*
G37*
G36*
X114350Y115600D02*Y110400D01*
X124750D01*
Y115600D01*
X114350D01*
G37*
G36*
X148250D02*Y110400D01*
X158650D01*
Y115600D01*
X148250D01*
G37*
G36*
X114350Y105600D02*Y100400D01*
X124750D01*
Y105600D01*
X114350D01*
G37*
G36*
X148250D02*Y100400D01*
X158650D01*
Y105600D01*
X148250D01*
G37*
G36*
Y95600D02*Y90400D01*
X158650D01*
Y95600D01*
X148250D01*
G37*
G36*
X114350D02*Y90400D01*
X124750D01*
Y95600D01*
X114350D01*
G37*
G36*
X69525Y66886D02*X59475D01*
Y54946D01*
X69525D01*
Y66886D01*
G37*
G36*
X57650Y142400D02*Y137200D01*
X68000D01*
Y142400D01*
X57650D01*
G37*
G36*
Y132600D02*Y127400D01*
X68000D01*
Y132600D01*
X57650D01*
G37*
G36*
Y122800D02*Y117600D01*
X68000D01*
Y122800D01*
X57650D01*
G37*
G36*
X64459Y68006D02*X62615Y69850D01*
X59351Y66586D01*
X61195Y64742D01*
X64459Y68006D01*
G37*
G36*
X60784Y77595D02*X56404D01*
Y69121D01*
X60784D01*
Y77595D01*
G37*
G36*
X44150Y94150D02*Y90850D01*
X48350D01*
Y94150D01*
X44150D01*
G37*
G36*
X46150Y72600D02*X42850D01*
Y66900D01*
X46150D01*
Y72600D01*
G37*
G36*
X36150D02*X32850D01*
Y66900D01*
X36150D01*
Y72600D01*
G37*
G36*
X44150Y104150D02*Y100850D01*
X48350D01*
Y104150D01*
X44150D01*
G37*
G36*
X36000Y142400D02*Y137200D01*
X46350D01*
Y142400D01*
X36000D01*
G37*
G36*
Y132600D02*Y127400D01*
X46350D01*
Y132600D01*
X36000D01*
G37*
G36*
Y122800D02*Y117600D01*
X46350D01*
Y122800D01*
X36000D01*
G37*
G36*
X146900Y40600D02*Y33400D01*
X162100D01*
Y40600D01*
X146900D01*
G37*
G36*
X167705Y52316D02*Y46598D01*
X174209D01*
Y52316D01*
X167705D01*
G37*
G36*
Y59402D02*Y53684D01*
X174209D01*
Y59402D01*
X167705D01*
G37*
G36*
X146900Y70600D02*Y63400D01*
X162100D01*
Y70600D01*
X146900D01*
G37*
G36*
Y60600D02*Y53400D01*
X162100D01*
Y60600D01*
X146900D01*
G37*
G36*
X147400Y50100D02*Y43900D01*
X161600D01*
Y50100D01*
X147400D01*
G37*
G36*
X157816Y80752D02*X152098D01*
Y74248D01*
X157816D01*
Y80752D01*
G37*
G36*
X164902D02*X159184D01*
Y74248D01*
X164902D01*
Y80752D01*
G37*
M02*
