M48
INCH
T42C0.020
T41C0.045
T40C0.048
T39C0.129
T38C0.038
%
T42
X003800Y014550
X004187Y018753
X004350Y014550
X006129Y020250
X006137Y017263
X006550Y010250
X009850Y024250
X010050Y022250
X010400Y025100
X010800Y024250
X010900Y025100
X013650Y003700
X014200Y003700
X014500Y014550
X014500Y008600
X016800Y007750
X017100Y022300
T38
X001050Y016050
X001050Y015050
X001050Y014050
X001050Y013050
X001050Y012050
X001050Y011050
X001050Y010050
X001050Y009050
X001050Y007050
X001050Y006050
X001050Y005050
X001050Y004050
X001050Y003050
X001050Y002050
X010030Y002000
X010030Y001000
X011030Y002000
X011030Y001000
X012030Y002000
X012030Y001000
X016050Y021550
X016050Y020550
X016050Y019550
X016050Y018550
X020050Y019650
X020050Y018650
X020050Y017650
X020050Y016650
X020050Y015650
X020050Y014650
X020050Y013650
X020050Y012650
X020050Y011650
X020050Y010650
X020050Y009050
X020050Y008050
X020050Y007050
X020050Y006050
X020050Y005050
X020050Y004050
X020050Y003050
X020050Y002050
T41
X007137Y020263
X007137Y019263
X007137Y018263
T40
X001650Y024750
X003650Y024750
X005650Y024750
X005650Y002150
X007650Y002150
X013100Y024750
X014100Y024750
X015100Y024750
X016100Y024750
X017100Y024750
X018100Y024750
X019100Y024750
X020100Y024750
T39
X001050Y021550
X003050Y001050
X014050Y001050
X020050Y021050
M30
