G04 start of page 8 for group -4079 idx -4079 *
G04 Title: (unknown), topsilk *
G04 Creator: pcb 4.0.2 *
G04 CreationDate: Sat May 14 18:12:11 2022 UTC *
G04 For: railfan *
G04 Format: Gerber/RS-274X *
G04 PCB-Dimensions (mil): 3110.00 2710.00 *
G04 PCB-Coordinate-Origin: lower left *
%MOIN*%
%FSLAX25Y25*%
%LNTOPSILK*%
%ADD55C,0.0080*%
%ADD54C,0.0100*%
G54D54*X209500Y269500D02*Y10500D01*
X101500Y137000D02*X100000Y138500D01*
X96500Y158500D02*X146500D01*
X112000Y123000D02*X110000Y125000D01*
X112000Y123000D02*X110000Y121000D01*
X112000Y113000D02*X107500D01*
X112000D02*X110000Y115000D01*
X112000Y113000D02*X110000Y111000D01*
X1000Y270000D02*X210000D01*
X1000Y11000D02*Y270000D01*
X101500Y141500D02*Y137000D01*
X103000Y138500D01*
X101500Y144000D02*Y141000D01*
X95000Y151000D02*Y109000D01*
Y150500D02*Y157000D01*
X96500Y158500D01*
X81500Y125000D02*Y119000D01*
X83500Y121000D01*
X81500Y119000D02*X79500Y121000D01*
X77000Y107500D02*X93500D01*
X95000Y109000D01*
X81500Y141500D02*Y135500D01*
Y141500D02*X79500Y139500D01*
X81500Y141500D02*X83500Y139500D01*
X150000Y1000D02*X21000D01*
X1000Y11000D02*X11000D01*
X21000Y1000D02*X11000Y11000D01*
X160000D02*X150000Y1000D01*
X210000Y11000D02*X160000D01*
X98000Y99500D02*X101500Y103000D01*
X112000D01*
X110000Y105000D01*
X112000Y103000D02*X110000Y101000D01*
X112000Y133000D02*X107500D01*
X112000D02*X110000Y135000D01*
X112000Y133000D02*X110000Y131000D01*
X112000Y123000D02*X107500D01*
G54D55*X186000Y42500D02*Y38500D01*
X187500Y42500D02*X188000Y42000D01*
Y39000D01*
X187500Y38500D02*X188000Y39000D01*
X185500Y38500D02*X187500D01*
X185500Y42500D02*X187500D01*
X189200Y42000D02*X189700Y42500D01*
X191200D01*
X191700Y42000D01*
Y41000D01*
X189200Y38500D02*X191700Y41000D01*
X189200Y38500D02*X191700D01*
X174500Y22500D02*X176500D01*
X177000Y22000D01*
Y21000D01*
X176500Y20500D02*X177000Y21000D01*
X175000Y20500D02*X176500D01*
X175000Y22500D02*Y18500D01*
Y20500D02*X177000Y18500D01*
X178200Y22500D02*Y22000D01*
X180700Y19500D01*
Y18500D01*
X178200Y19500D02*Y18500D01*
Y19500D02*X180700Y22000D01*
Y22500D02*Y22000D01*
X181900Y19000D02*X184900Y22000D01*
X186600Y22500D02*Y18500D01*
X188100Y22500D02*X188600Y22000D01*
Y19000D01*
X188100Y18500D02*X188600Y19000D01*
X186100Y18500D02*X188100D01*
X186100Y22500D02*X188100D01*
X189800Y19000D02*X190300Y18500D01*
X189800Y22000D02*Y19000D01*
Y22000D02*X190300Y22500D01*
X191300D01*
X191800Y22000D01*
Y19000D01*
X191300Y18500D02*X191800Y19000D01*
X190300Y18500D02*X191300D01*
X189800Y19500D02*X191800Y21500D01*
X112100Y31600D02*X113100D01*
X112600D02*Y27600D01*
X112100D02*X113100D01*
X114800D02*X116300D01*
X114300Y28100D02*X114800Y27600D01*
X114300Y31100D02*Y28100D01*
Y31100D02*X114800Y31600D01*
X116300D01*
X119500D02*X120000Y31100D01*
X118000Y31600D02*X119500D01*
X117500Y31100D02*X118000Y31600D01*
X117500Y31100D02*Y30100D01*
X118000Y29600D01*
X119500D01*
X120000Y29100D01*
Y28100D01*
X119500Y27600D02*X120000Y28100D01*
X118000Y27600D02*X119500D01*
X117500Y28100D02*X118000Y27600D01*
X121700Y31600D02*Y27600D01*
X121200Y31600D02*X123200D01*
X123700Y31100D01*
Y30100D01*
X123200Y29600D02*X123700Y30100D01*
X121700Y29600D02*X123200D01*
X175500Y32500D02*X177500D01*
X176500D02*Y28500D01*
X178700Y32500D02*Y32000D01*
X181200Y29500D01*
Y28500D01*
X178700Y29500D02*Y28500D01*
Y29500D02*X181200Y32000D01*
Y32500D02*Y32000D01*
X182400Y29000D02*X185400Y32000D01*
X187100Y32500D02*Y28500D01*
X188600Y32500D02*X189100Y32000D01*
Y29000D01*
X188600Y28500D02*X189100Y29000D01*
X186600Y28500D02*X188600D01*
X186600Y32500D02*X188600D01*
X190800Y28500D02*X191800D01*
X191300Y32500D02*Y28500D01*
X190300Y31500D02*X191300Y32500D01*
X186000Y52500D02*Y48500D01*
X187500Y52500D02*X188000Y52000D01*
Y49000D01*
X187500Y48500D02*X188000Y49000D01*
X185500Y48500D02*X187500D01*
X185500Y52500D02*X187500D01*
X189200Y52000D02*X189700Y52500D01*
X190700D01*
X191200Y52000D01*
Y49000D01*
X190700Y48500D02*X191200Y49000D01*
X189700Y48500D02*X190700D01*
X189200Y49000D02*X189700Y48500D01*
Y50500D02*X191200D01*
X149500Y88500D02*Y85500D01*
Y88500D02*X150000Y89000D01*
X151000D01*
X151500Y88500D01*
Y85500D01*
X151000Y85000D02*X151500Y85500D01*
X150000Y85000D02*X151000D01*
X149500Y85500D02*X150000Y85000D01*
X152700Y89000D02*Y85000D01*
Y89000D02*X154700D01*
X152700Y87000D02*X154200D01*
X155900Y89000D02*Y85000D01*
Y89000D02*X157900D01*
X155900Y87000D02*X157400D01*
X186000Y108500D02*Y104500D01*
X187500Y108500D02*X188000Y108000D01*
Y105000D01*
X187500Y104500D02*X188000Y105000D01*
X185500Y104500D02*X187500D01*
X185500Y108500D02*X187500D01*
X189200Y105000D02*X189700Y104500D01*
X189200Y106000D02*Y105000D01*
Y106000D02*X189700Y106500D01*
X190700D01*
X191200Y106000D01*
Y105000D01*
X190700Y104500D02*X191200Y105000D01*
X189700Y104500D02*X190700D01*
X189200Y107000D02*X189700Y106500D01*
X189200Y108000D02*Y107000D01*
Y108000D02*X189700Y108500D01*
X190700D01*
X191200Y108000D01*
Y107000D01*
X190700Y106500D02*X191200Y107000D01*
X184000Y158500D02*Y154500D01*
X185500Y158500D02*X186000Y158000D01*
Y155000D01*
X185500Y154500D02*X186000Y155000D01*
X183500Y154500D02*X185500D01*
X183500Y158500D02*X185500D01*
X187700Y154500D02*X188700D01*
X188200Y158500D02*Y154500D01*
X187200Y157500D02*X188200Y158500D01*
X189900Y158000D02*X190400Y158500D01*
X191400D01*
X191900Y158000D01*
Y155000D01*
X191400Y154500D02*X191900Y155000D01*
X190400Y154500D02*X191400D01*
X189900Y155000D02*X190400Y154500D01*
Y156500D02*X191900D01*
X184000Y148500D02*Y144500D01*
X185500Y148500D02*X186000Y148000D01*
Y145000D01*
X185500Y144500D02*X186000Y145000D01*
X183500Y144500D02*X185500D01*
X183500Y148500D02*X185500D01*
X187700Y144500D02*X188700D01*
X188200Y148500D02*Y144500D01*
X187200Y147500D02*X188200Y148500D01*
X189900Y148000D02*X190400Y148500D01*
X191900D01*
X192400Y148000D01*
Y147000D01*
X189900Y144500D02*X192400Y147000D01*
X189900Y144500D02*X192400D01*
X184000Y138500D02*Y134500D01*
X185500Y138500D02*X186000Y138000D01*
Y135000D01*
X185500Y134500D02*X186000Y135000D01*
X183500Y134500D02*X185500D01*
X183500Y138500D02*X185500D01*
X187700Y134500D02*X188700D01*
X188200Y138500D02*Y134500D01*
X187200Y137500D02*X188200Y138500D01*
X190400Y134500D02*X191400D01*
X190900Y138500D02*Y134500D01*
X189900Y137500D02*X190900Y138500D01*
X184000Y128500D02*Y124500D01*
X185500Y128500D02*X186000Y128000D01*
Y125000D01*
X185500Y124500D02*X186000Y125000D01*
X183500Y124500D02*X185500D01*
X183500Y128500D02*X185500D01*
X187700Y124500D02*X188700D01*
X188200Y128500D02*Y124500D01*
X187200Y127500D02*X188200Y128500D01*
X189900Y125000D02*X190400Y124500D01*
X189900Y128000D02*Y125000D01*
Y128000D02*X190400Y128500D01*
X191400D01*
X191900Y128000D01*
Y125000D01*
X191400Y124500D02*X191900Y125000D01*
X190400Y124500D02*X191400D01*
X189900Y125500D02*X191900Y127500D01*
X186000Y118500D02*Y114500D01*
X187500Y118500D02*X188000Y118000D01*
Y115000D01*
X187500Y114500D02*X188000Y115000D01*
X185500Y114500D02*X187500D01*
X185500Y118500D02*X187500D01*
X189200Y114500D02*X191200Y116500D01*
Y118000D02*Y116500D01*
X190700Y118500D02*X191200Y118000D01*
X189700Y118500D02*X190700D01*
X189200Y118000D02*X189700Y118500D01*
X189200Y118000D02*Y117000D01*
X189700Y116500D01*
X191200D01*
X180500Y178000D02*Y174500D01*
Y178000D02*X181000Y178500D01*
X182500D01*
X183000Y178000D01*
Y174500D01*
X180500Y176500D02*X183000D01*
X184200Y178500D02*X186200D01*
X186700Y178000D01*
Y177000D01*
X186200Y176500D02*X186700Y177000D01*
X184700Y176500D02*X186200D01*
X184700Y178500D02*Y174500D01*
Y176500D02*X186700Y174500D01*
X187900Y176500D02*X189400D01*
X187900Y174500D02*X189900D01*
X187900Y178500D02*Y174500D01*
Y178500D02*X189900D01*
X191100D02*Y174500D01*
Y178500D02*X193100D01*
X191100Y176500D02*X192600D01*
X185500Y198500D02*X186000Y198000D01*
X184000Y198500D02*X185500D01*
X183500Y198000D02*X184000Y198500D01*
X183500Y198000D02*Y197000D01*
X184000Y196500D01*
X185500D01*
X186000Y196000D01*
Y195000D01*
X185500Y194500D02*X186000Y195000D01*
X184000Y194500D02*X185500D01*
X183500Y195000D02*X184000Y194500D01*
X187700D02*X189200D01*
X187200Y195000D02*X187700Y194500D01*
X187200Y198000D02*Y195000D01*
Y198000D02*X187700Y198500D01*
X189200D01*
X190400D02*Y194500D01*
X192400D01*
X184500Y168500D02*X185000Y168000D01*
X183000Y168500D02*X184500D01*
X182500Y168000D02*X183000Y168500D01*
X182500Y168000D02*Y165000D01*
X183000Y164500D01*
X184500D01*
X185000Y165000D01*
Y166000D02*Y165000D01*
X184500Y166500D02*X185000Y166000D01*
X183500Y166500D02*X184500D01*
X186200Y168500D02*Y164500D01*
Y168500D02*Y168000D01*
X188700Y165500D01*
Y168500D02*Y164500D01*
X190400Y168500D02*Y164500D01*
X191900Y168500D02*X192400Y168000D01*
Y165000D01*
X191900Y164500D02*X192400Y165000D01*
X189900Y164500D02*X191900D01*
X189900Y168500D02*X191900D01*
X184500Y188500D02*X185000Y188000D01*
X183000Y188500D02*X184500D01*
X182500Y188000D02*X183000Y188500D01*
X182500Y188000D02*Y187000D01*
X183000Y186500D01*
X184500D01*
X185000Y186000D01*
Y185000D01*
X184500Y184500D02*X185000Y185000D01*
X183000Y184500D02*X184500D01*
X182500Y185000D02*X183000Y184500D01*
X186700Y188500D02*Y184500D01*
X188200Y188500D02*X188700Y188000D01*
Y185000D01*
X188200Y184500D02*X188700Y185000D01*
X186200Y184500D02*X188200D01*
X186200Y188500D02*X188200D01*
X189900Y188000D02*Y184500D01*
Y188000D02*X190400Y188500D01*
X191900D01*
X192400Y188000D01*
Y184500D01*
X189900Y186500D02*X192400D01*
X186000Y92500D02*Y88500D01*
X187500Y92500D02*X188000Y92000D01*
Y89000D01*
X187500Y88500D02*X188000Y89000D01*
X185500Y88500D02*X187500D01*
X185500Y92500D02*X187500D01*
X189200Y88500D02*X191700Y91000D01*
Y92500D02*Y91000D01*
X189200Y92500D02*X191700D01*
X186000Y82500D02*Y78500D01*
X187500Y82500D02*X188000Y82000D01*
Y79000D01*
X187500Y78500D02*X188000Y79000D01*
X185500Y78500D02*X187500D01*
X185500Y82500D02*X187500D01*
X190700D02*X191200Y82000D01*
X189700Y82500D02*X190700D01*
X189200Y82000D02*X189700Y82500D01*
X189200Y82000D02*Y79000D01*
X189700Y78500D01*
X190700Y80500D02*X191200Y80000D01*
X189200Y80500D02*X190700D01*
X189700Y78500D02*X190700D01*
X191200Y79000D01*
Y80000D02*Y79000D01*
X176000Y84500D02*X180000D01*
X178500D02*X178000Y85000D01*
Y86000D02*Y85000D01*
Y86000D02*X178500Y86500D01*
X180000D01*
X176000Y88200D02*X179500D01*
X180000Y88700D01*
X177500D02*Y87700D01*
X176000Y90200D02*X179500D01*
X180000Y90700D01*
X177500D02*Y89700D01*
X178500Y92200D02*X181500D01*
X178000Y91700D02*X178500Y92200D01*
X178000Y92700D01*
Y93700D02*Y92700D01*
Y93700D02*X178500Y94200D01*
X179500D01*
X180000Y93700D02*X179500Y94200D01*
X180000Y93700D02*Y92700D01*
X179500Y92200D02*X180000Y92700D01*
X177500Y95900D02*Y95400D01*
X178500Y95900D02*Y95400D01*
X179500Y97100D02*X176500Y100100D01*
X179500Y101300D02*X176500Y104300D01*
X178000Y105500D02*X179500D01*
X180000Y106000D01*
Y106500D02*Y106000D01*
Y106500D02*X179500Y107000D01*
X178000D02*X179500D01*
X180000Y107500D01*
Y108000D02*Y107500D01*
Y108000D02*X179500Y108500D01*
X178000D02*X179500D01*
X178000Y109700D02*X179500D01*
X180000Y110200D01*
Y110700D02*Y110200D01*
Y110700D02*X179500Y111200D01*
X178000D02*X179500D01*
X180000Y111700D01*
Y112200D02*Y111700D01*
Y112200D02*X179500Y112700D01*
X178000D02*X179500D01*
X178000Y113900D02*X179500D01*
X180000Y114400D01*
Y114900D02*Y114400D01*
Y114900D02*X179500Y115400D01*
X178000D02*X179500D01*
X180000Y115900D01*
Y116400D02*Y115900D01*
Y116400D02*X179500Y116900D01*
X178000D02*X179500D01*
X180000Y118600D02*Y118100D01*
X177000Y119800D02*X177500D01*
X178500D02*X180000D01*
X178000Y122300D02*X178500Y122800D01*
X178000Y122300D02*Y121300D01*
X178500Y120800D02*X178000Y121300D01*
X178500Y120800D02*X179500D01*
X180000Y121300D01*
X178000Y122800D02*X179500D01*
X180000Y123300D01*
Y122300D02*Y121300D01*
Y122300D02*X179500Y122800D01*
X180000Y126500D02*Y125000D01*
Y126500D02*X179500Y127000D01*
X179000Y126500D02*X179500Y127000D01*
X179000Y126500D02*Y125000D01*
X178500Y124500D02*X179000Y125000D01*
X178500Y124500D02*X178000Y125000D01*
Y126500D02*Y125000D01*
Y126500D02*X178500Y127000D01*
X179500Y124500D02*X180000Y125000D01*
X178000Y130200D02*Y128700D01*
X178500Y128200D02*X178000Y128700D01*
X178500Y128200D02*X179500D01*
X180000Y128700D01*
Y130200D02*Y128700D01*
X178000Y132900D02*X178500Y133400D01*
X178000Y132900D02*Y131900D01*
X178500Y131400D02*X178000Y131900D01*
X178500Y131400D02*X179500D01*
X180000Y131900D01*
X178000Y133400D02*X179500D01*
X180000Y133900D01*
Y132900D02*Y131900D01*
Y132900D02*X179500Y133400D01*
X176000Y135100D02*X179500D01*
X180000Y135600D01*
Y138600D02*Y137100D01*
X179500Y136600D02*X180000Y137100D01*
X178500Y136600D02*X179500D01*
X178500D02*X178000Y137100D01*
Y138100D02*Y137100D01*
Y138100D02*X178500Y138600D01*
X179000D02*Y136600D01*
X178500Y138600D02*X179000D01*
X176000Y141800D02*X180000D01*
Y141300D02*X179500Y141800D01*
X180000Y141300D02*Y140300D01*
X179500Y139800D02*X180000Y140300D01*
X178500Y139800D02*X179500D01*
X178500D02*X178000Y140300D01*
Y141300D02*Y140300D01*
Y141300D02*X178500Y141800D01*
X180000Y143500D02*Y143000D01*
X178000Y146700D02*Y145200D01*
X178500Y144700D02*X178000Y145200D01*
X178500Y144700D02*X179500D01*
X180000Y145200D01*
Y146700D02*Y145200D01*
X178500Y147900D02*X179500D01*
X178500D02*X178000Y148400D01*
Y149400D02*Y148400D01*
Y149400D02*X178500Y149900D01*
X179500D01*
X180000Y149400D02*X179500Y149900D01*
X180000Y149400D02*Y148400D01*
X179500Y147900D02*X180000Y148400D01*
X178500Y151600D02*X180000D01*
X178500D02*X178000Y152100D01*
Y152600D02*Y152100D01*
Y152600D02*X178500Y153100D01*
X180000D01*
X178500D02*X178000Y153600D01*
Y154100D02*Y153600D01*
Y154100D02*X178500Y154600D01*
X180000D01*
X178000Y151100D02*X178500Y151600D01*
X170000Y84500D02*X173500D01*
X170000D02*X169500Y85000D01*
Y86500D02*Y85000D01*
Y86500D02*X170000Y87000D01*
X173500D01*
X171500D02*Y84500D01*
X169500Y90200D02*Y88200D01*
Y90200D02*X170000Y90700D01*
X171000D01*
X171500Y90200D02*X171000Y90700D01*
X171500Y90200D02*Y88700D01*
X169500D02*X173500D01*
X171500D02*X173500Y90700D01*
X169500Y92400D02*X173500D01*
X169500Y93900D02*X170000Y94400D01*
X173000D01*
X173500Y93900D02*X173000Y94400D01*
X173500Y93900D02*Y91900D01*
X169500Y93900D02*Y91900D01*
X171500Y97600D02*Y95600D01*
X169500Y99300D02*X173500D01*
X169500Y100800D02*X170000Y101300D01*
X173000D01*
X173500Y100800D02*X173000Y101300D01*
X173500Y100800D02*Y98800D01*
X169500Y100800D02*Y98800D01*
X173500Y104500D02*Y103000D01*
X173000Y102500D02*X173500Y103000D01*
X170000Y102500D02*X173000D01*
X170000D02*X169500Y103000D01*
Y104500D02*Y103000D01*
X173500Y107700D02*Y106200D01*
X173000Y105700D02*X173500Y106200D01*
X170000Y105700D02*X173000D01*
X170000D02*X169500Y106200D01*
Y107700D02*Y106200D01*
Y110900D02*X170000Y111400D01*
X169500Y110900D02*Y109400D01*
X170000Y108900D02*X169500Y109400D01*
X170000Y108900D02*X171000D01*
X171500Y109400D01*
Y110900D02*Y109400D01*
Y110900D02*X172000Y111400D01*
X173000D01*
X173500Y110900D02*X173000Y111400D01*
X173500Y110900D02*Y109400D01*
X173000Y108900D02*X173500Y109400D01*
X169500Y112600D02*X173500D01*
X169500Y115100D02*X173500D01*
X171500D02*Y112600D01*
X169500Y117300D02*Y116300D01*
Y116800D02*X173500D01*
Y117300D02*Y116300D01*
X171500Y120000D02*Y118500D01*
X173500Y120500D02*Y118500D01*
X169500D02*X173500D01*
X169500Y120500D02*Y118500D01*
Y121700D02*X173500D01*
Y123700D02*Y121700D01*
X169500Y125400D02*X173500D01*
X169500Y126900D02*X170000Y127400D01*
X173000D01*
X173500Y126900D02*X173000Y127400D01*
X173500Y126900D02*Y124900D01*
X169500Y126900D02*Y124900D01*
X171500Y130400D02*X172500D01*
X173500Y131400D01*
X172500Y132400D01*
X171500D02*X172500D01*
X170000Y133600D02*X169500Y134100D01*
Y135600D02*Y134100D01*
Y135600D02*X170000Y136100D01*
X171000D01*
X173500Y133600D02*X171000Y136100D01*
X173500D02*Y133600D01*
Y137800D02*Y137300D01*
X173000Y139000D02*X173500Y139500D01*
X170000Y139000D02*X173000D01*
X170000D02*X169500Y139500D01*
Y140500D02*Y139500D01*
Y140500D02*X170000Y141000D01*
X173000D01*
X173500Y140500D02*X173000Y141000D01*
X173500Y140500D02*Y139500D01*
X172500Y139000D02*X170500Y141000D01*
X162500Y85500D02*Y84500D01*
Y85000D02*X166500D01*
Y85500D02*Y84500D01*
X163000Y86700D02*X166000D01*
X163000D02*X162500Y87200D01*
Y88200D02*Y87200D01*
Y88200D02*X163000Y88700D01*
X166000D01*
X166500Y88200D02*X166000Y88700D01*
X166500Y88200D02*Y87200D01*
X166000Y86700D02*X166500Y87200D01*
X162500Y89900D02*X166500D01*
X165000Y91400D01*
X166500Y92900D01*
X162500D02*X166500D01*
X163000Y94100D02*X166500D01*
X163000D02*X162500Y94600D01*
Y96100D02*Y94600D01*
Y96100D02*X163000Y96600D01*
X166500D01*
X164500D02*Y94100D01*
X162500Y101600D02*X163000Y102100D01*
X162500Y101600D02*Y100100D01*
X163000Y99600D02*X162500Y100100D01*
X163000Y99600D02*X164000D01*
X164500Y100100D01*
Y101600D02*Y100100D01*
Y101600D02*X165000Y102100D01*
X166000D01*
X166500Y101600D02*X166000Y102100D01*
X166500Y101600D02*Y100100D01*
X166000Y99600D02*X166500Y100100D01*
Y105300D02*Y103800D01*
X166000Y103300D02*X166500Y103800D01*
X163000Y103300D02*X166000D01*
X163000D02*X162500Y103800D01*
Y105300D02*Y103800D01*
X163000Y106500D02*X166500D01*
X163000D02*X162500Y107000D01*
Y108500D02*Y107000D01*
Y108500D02*X163000Y109000D01*
X166500D01*
X164500D02*Y106500D01*
X162500Y110200D02*X166500D01*
Y112200D02*Y110200D01*
X164500Y114900D02*Y113400D01*
X166500Y115400D02*Y113400D01*
X162500D02*X166500D01*
X162500Y115400D02*Y113400D01*
Y117100D02*X166500D01*
X162500Y118600D02*X163000Y119100D01*
X166000D01*
X166500Y118600D02*X166000Y119100D01*
X166500Y118600D02*Y116600D01*
X162500Y118600D02*Y116600D01*
X164500Y123600D02*Y122100D01*
X166500Y124100D02*Y122100D01*
X162500D02*X166500D01*
X162500Y124100D02*Y122100D01*
Y125300D02*X166500D01*
X162500D02*X163000D01*
X165500Y127800D01*
X162500D02*X166500D01*
X162500Y131000D02*X163000Y131500D01*
X162500Y131000D02*Y129500D01*
X163000Y129000D02*X162500Y129500D01*
X163000Y129000D02*X166000D01*
X166500Y129500D01*
Y131000D02*Y129500D01*
Y131000D02*X166000Y131500D01*
X165000D02*X166000D01*
X164500Y131000D02*X165000Y131500D01*
X164500Y131000D02*Y130000D01*
X162500Y133700D02*Y132700D01*
Y133200D02*X166500D01*
Y133700D02*Y132700D01*
X162500Y134900D02*X166500D01*
X162500D02*X163000D01*
X165500Y137400D01*
X162500D02*X166500D01*
X164500Y140100D02*Y138600D01*
X166500Y140600D02*Y138600D01*
X162500D02*X166500D01*
X162500Y140600D02*Y138600D01*
X164500Y143300D02*Y141800D01*
X166500Y143800D02*Y141800D01*
X162500D02*X166500D01*
X162500Y143800D02*Y141800D01*
Y147000D02*Y145000D01*
Y147000D02*X163000Y147500D01*
X164000D01*
X164500Y147000D02*X164000Y147500D01*
X164500Y147000D02*Y145500D01*
X162500D02*X166500D01*
X164500D02*X166500Y147500D01*
X162500Y149700D02*Y148700D01*
Y149200D02*X166500D01*
Y149700D02*Y148700D01*
X162500Y150900D02*X166500D01*
X162500D02*X163000D01*
X165500Y153400D01*
X162500D02*X166500D01*
X162500Y156600D02*X163000Y157100D01*
X162500Y156600D02*Y155100D01*
X163000Y154600D02*X162500Y155100D01*
X163000Y154600D02*X166000D01*
X166500Y155100D01*
Y156600D02*Y155100D01*
Y156600D02*X166000Y157100D01*
X165000D02*X166000D01*
X164500Y156600D02*X165000Y157100D01*
X164500Y156600D02*Y155600D01*
X18500Y92500D02*Y89500D01*
X19500Y88500D01*
X20500Y89500D01*
Y92500D02*Y89500D01*
X21700Y92500D02*X22700D01*
X22200D02*Y88500D01*
X21700D02*X22700D01*
X23900Y92500D02*Y88500D01*
Y92500D02*Y92000D01*
X26400Y89500D01*
Y92500D02*Y88500D01*
X20500Y102500D02*X21000Y102000D01*
X19000Y102500D02*X20500D01*
X18500Y102000D02*X19000Y102500D01*
X18500Y102000D02*Y99000D01*
X19000Y98500D01*
X20500D01*
X21000Y99000D01*
Y100000D02*Y99000D01*
X20500Y100500D02*X21000Y100000D01*
X19500Y100500D02*X20500D01*
X22200Y102500D02*Y98500D01*
Y102500D02*Y102000D01*
X24700Y99500D01*
Y102500D02*Y98500D01*
X26400Y102500D02*Y98500D01*
X27900Y102500D02*X28400Y102000D01*
Y99000D01*
X27900Y98500D02*X28400Y99000D01*
X25900Y98500D02*X27900D01*
X25900Y102500D02*X27900D01*
X20500Y112500D02*X21000Y112000D01*
X19000Y112500D02*X20500D01*
X18500Y112000D02*X19000Y112500D01*
X18500Y112000D02*Y109000D01*
X19000Y108500D01*
X20500D01*
X21000Y109000D01*
Y110000D02*Y109000D01*
X20500Y110500D02*X21000Y110000D01*
X19500Y110500D02*X20500D01*
X22200Y112500D02*Y108500D01*
Y112500D02*Y112000D01*
X24700Y109500D01*
Y112500D02*Y108500D01*
X26400Y112500D02*Y108500D01*
X27900Y112500D02*X28400Y112000D01*
Y109000D01*
X27900Y108500D02*X28400Y109000D01*
X25900Y108500D02*X27900D01*
X25900Y112500D02*X27900D01*
X18500Y22000D02*Y18500D01*
Y22000D02*X19000Y22500D01*
X20500D01*
X21000Y22000D01*
Y18500D01*
X18500Y20500D02*X21000D01*
X22200Y22500D02*X24200D01*
X22200D02*Y20500D01*
X22700Y21000D01*
X23700D01*
X24200Y20500D01*
Y19000D01*
X23700Y18500D02*X24200Y19000D01*
X22700Y18500D02*X23700D01*
X22200Y19000D02*X22700Y18500D01*
X25400Y19000D02*X28400Y22000D01*
X31600Y22500D02*X32100Y22000D01*
X30100Y22500D02*X31600D01*
X29600Y22000D02*X30100Y22500D01*
X29600Y22000D02*Y21000D01*
X30100Y20500D01*
X31600D01*
X32100Y20000D01*
Y19000D01*
X31600Y18500D02*X32100Y19000D01*
X30100Y18500D02*X31600D01*
X29600Y19000D02*X30100Y18500D01*
X33800D02*X35300D01*
X33300Y19000D02*X33800Y18500D01*
X33300Y22000D02*Y19000D01*
Y22000D02*X33800Y22500D01*
X35300D01*
X36500D02*Y18500D01*
X38500D01*
X18500Y32000D02*Y28500D01*
Y32000D02*X19000Y32500D01*
X20500D01*
X21000Y32000D01*
Y28500D01*
X18500Y30500D02*X21000D01*
X22200D02*X24200Y32500D01*
X22200Y30500D02*X24700D01*
X24200Y32500D02*Y28500D01*
X25900Y29000D02*X28900Y32000D01*
X32100Y32500D02*X32600Y32000D01*
X30600Y32500D02*X32100D01*
X30100Y32000D02*X30600Y32500D01*
X30100Y32000D02*Y31000D01*
X30600Y30500D01*
X32100D01*
X32600Y30000D01*
Y29000D01*
X32100Y28500D02*X32600Y29000D01*
X30600Y28500D02*X32100D01*
X30100Y29000D02*X30600Y28500D01*
X34300Y32500D02*Y28500D01*
X35800Y32500D02*X36300Y32000D01*
Y29000D01*
X35800Y28500D02*X36300Y29000D01*
X33800Y28500D02*X35800D01*
X33800Y32500D02*X35800D01*
X37500Y32000D02*Y28500D01*
Y32000D02*X38000Y32500D01*
X39500D01*
X40000Y32000D01*
Y28500D01*
X37500Y30500D02*X40000D01*
X18500Y42000D02*Y38500D01*
Y42000D02*X19000Y42500D01*
X20500D01*
X21000Y42000D01*
Y38500D01*
X18500Y40500D02*X21000D01*
X22200Y42000D02*X22700Y42500D01*
X23700D01*
X24200Y42000D01*
Y39000D01*
X23700Y38500D02*X24200Y39000D01*
X22700Y38500D02*X23700D01*
X22200Y39000D02*X22700Y38500D01*
Y40500D02*X24200D01*
X18500Y52000D02*Y48500D01*
Y52000D02*X19000Y52500D01*
X20500D01*
X21000Y52000D01*
Y48500D01*
X18500Y50500D02*X21000D01*
X22200Y52000D02*X22700Y52500D01*
X24200D01*
X24700Y52000D01*
Y51000D01*
X22200Y48500D02*X24700Y51000D01*
X22200Y48500D02*X24700D01*
X18500Y132000D02*X19000Y132500D01*
X20000D01*
X20500Y132000D01*
Y129000D01*
X20000Y128500D02*X20500Y129000D01*
X19000Y128500D02*X20000D01*
X18500Y129000D02*X19000Y128500D01*
Y130500D02*X20500D01*
X21700Y128500D02*X22200D01*
X23400Y132000D02*X23900Y132500D01*
X24900D01*
X25400Y132000D01*
Y129000D01*
X24900Y128500D02*X25400Y129000D01*
X23900Y128500D02*X24900D01*
X23400Y129000D02*X23900Y128500D01*
Y130500D02*X25400D01*
X26600Y132500D02*Y129500D01*
X27600Y128500D01*
X28600Y129500D01*
Y132500D02*Y129500D01*
X18500Y142500D02*X20500D01*
X21000Y142000D01*
Y141000D01*
X20500Y140500D02*X21000Y141000D01*
X19000Y140500D02*X20500D01*
X19000Y142500D02*Y138500D01*
Y140500D02*X21000Y138500D01*
X22200Y140500D02*X23700D01*
X22200Y138500D02*X24200D01*
X22200Y142500D02*Y138500D01*
Y142500D02*X24200D01*
X27400D02*X27900Y142000D01*
X25900Y142500D02*X27400D01*
X25400Y142000D02*X25900Y142500D01*
X25400Y142000D02*Y141000D01*
X25900Y140500D01*
X27400D01*
X27900Y140000D01*
Y139000D01*
X27400Y138500D02*X27900Y139000D01*
X25900Y138500D02*X27400D01*
X25400Y139000D02*X25900Y138500D01*
X29100Y140500D02*X30600D01*
X29100Y138500D02*X31100D01*
X29100Y142500D02*Y138500D01*
Y142500D02*X31100D01*
X32300D02*X34300D01*
X33300D02*Y138500D01*
X18500Y162500D02*Y158500D01*
Y162500D02*Y162000D01*
X21000Y159500D01*
Y162500D02*Y158500D01*
X22200Y159000D02*X25200Y162000D01*
X26900Y158500D02*X28400D01*
X26400Y159000D02*X26900Y158500D01*
X26400Y162000D02*Y159000D01*
Y162000D02*X26900Y162500D01*
X28400D01*
X18500Y152500D02*X19500D01*
X19000D02*Y148500D01*
X18500D02*X19500D01*
X20700Y152000D02*Y149000D01*
Y152000D02*X21200Y152500D01*
X22200D01*
X22700Y152000D01*
Y149000D01*
X22200Y148500D02*X22700Y149000D01*
X21200Y148500D02*X22200D01*
X20700Y149000D02*X21200Y148500D01*
X23900Y152500D02*X25900D01*
X26400Y152000D01*
Y151000D01*
X25900Y150500D02*X26400Y151000D01*
X24400Y150500D02*X25900D01*
X24400Y152500D02*Y148500D01*
Y150500D02*X26400Y148500D01*
X27600Y150500D02*X29100D01*
X27600Y148500D02*X29600D01*
X27600Y152500D02*Y148500D01*
Y152500D02*X29600D01*
X30800D02*Y148500D01*
Y152500D02*X32800D01*
X30800Y150500D02*X32300D01*
X18500Y122500D02*X20500D01*
X18500D02*Y120500D01*
X19000Y121000D01*
X20000D01*
X20500Y120500D01*
Y119000D01*
X20000Y118500D02*X20500Y119000D01*
X19000Y118500D02*X20000D01*
X18500Y119000D02*X19000Y118500D01*
X21700Y122500D02*Y119500D01*
X22700Y118500D01*
X23700Y119500D01*
Y122500D02*Y119500D01*
X54873Y174127D02*X56873Y172127D01*
X54873D02*X56873Y174127D01*
X54873Y173127D02*X56873D01*
X55873Y174127D02*Y172127D01*
X204575Y266250D02*Y262850D01*
X203300D02*X202875Y263275D01*
Y265825D02*Y263275D01*
X203300Y266250D02*X202875Y265825D01*
X203300Y266250D02*X205000D01*
X203300Y262850D02*X205000D01*
X200580Y266250D02*X201430D01*
X201005D02*Y262850D01*
X201855Y263700D02*X201005Y262850D01*
X199560Y264550D02*X197860Y262850D01*
X197435Y264550D02*X199560D01*
X197860Y266250D02*Y262850D01*
X194075Y266250D02*Y262850D01*
X192800D02*X192375Y263275D01*
Y265825D02*Y263275D01*
X192800Y266250D02*X192375Y265825D01*
X192800Y266250D02*X194500D01*
X192800Y262850D02*X194500D01*
X190080Y266250D02*X190930D01*
X190505D02*Y262850D01*
X191355Y263700D02*X190505Y262850D01*
X189060Y263275D02*X188635Y262850D01*
X187785D02*X188635D01*
X187785D02*X187360Y263275D01*
Y265825D02*Y263275D01*
X187785Y266250D02*X187360Y265825D01*
X187785Y266250D02*X188635D01*
X189060Y265825D02*X188635Y266250D01*
X187360Y264550D02*X188635D01*
X184075Y266250D02*Y262850D01*
X182800D02*X182375Y263275D01*
Y265825D02*Y263275D01*
X182800Y266250D02*X182375Y265825D01*
X182800Y266250D02*X184500D01*
X182800Y262850D02*X184500D01*
X180080Y266250D02*X180930D01*
X180505D02*Y262850D01*
X181355Y263700D02*X180505Y262850D01*
X179060Y263275D02*X178635Y262850D01*
X177360D02*X178635D01*
X177360D02*X176935Y263275D01*
Y264125D02*Y263275D01*
X179060Y266250D02*X176935Y264125D01*
Y266250D02*X179060D01*
X173575D02*Y262850D01*
X172300D02*X171875Y263275D01*
Y265825D02*Y263275D01*
X172300Y266250D02*X171875Y265825D01*
X172300Y266250D02*X174000D01*
X172300Y262850D02*X174000D01*
X169580Y266250D02*X170430D01*
X170005D02*Y262850D01*
X170855Y263700D02*X170005Y262850D01*
X167285Y266250D02*X168135D01*
X167710D02*Y262850D01*
X168560Y263700D02*X167710Y262850D01*
X164050Y266500D02*Y262900D01*
X162700D02*X162250Y263350D01*
Y266050D02*Y263350D01*
X162700Y266500D02*X162250Y266050D01*
X162700Y266500D02*X164500D01*
X162700Y262900D02*X164500D01*
X159820Y266500D02*X160720D01*
X160270D02*Y262900D01*
X161170Y263800D02*X160270Y262900D01*
X158740Y266050D02*X158290Y266500D01*
X158740Y266050D02*Y263350D01*
X158290Y262900D01*
X157390D02*X158290D01*
X157390D02*X156940Y263350D01*
Y266050D02*Y263350D01*
X157390Y266500D02*X156940Y266050D01*
X157390Y266500D02*X158290D01*
X158740Y265600D02*X156940Y263800D01*
X152550Y266500D02*Y262900D01*
X151200D02*X150750Y263350D01*
Y266050D02*Y263350D01*
X151200Y266500D02*X150750Y266050D01*
X151200Y266500D02*X153000D01*
X151200Y262900D02*X153000D01*
X149670Y266500D02*X147870Y264700D01*
Y263350D01*
X148320Y262900D02*X147870Y263350D01*
X148320Y262900D02*X149220D01*
X149670Y263350D02*X149220Y262900D01*
X149670Y264250D02*Y263350D01*
Y264250D02*X149220Y264700D01*
X147870D02*X149220D01*
X133050Y266500D02*Y262900D01*
X131700D02*X131250Y263350D01*
Y266050D02*Y263350D01*
X131700Y266500D02*X131250Y266050D01*
X131700Y266500D02*X133500D01*
X131700Y262900D02*X133500D01*
X130170Y264700D02*X128370Y262900D01*
X127920Y264700D02*X130170D01*
X128370Y266500D02*Y262900D01*
X142550Y266500D02*Y262900D01*
X141200D02*X140750Y263350D01*
Y266050D02*Y263350D01*
X141200Y266500D02*X140750Y266050D01*
X141200Y266500D02*X143000D01*
X141200Y262900D02*X143000D01*
X139670Y266050D02*X139220Y266500D01*
X139670Y266050D02*Y265150D01*
X139220Y264700D01*
X138320D02*X139220D01*
X138320D02*X137870Y265150D01*
Y266050D02*Y265150D01*
X138320Y266500D02*X137870Y266050D01*
X138320Y266500D02*X139220D01*
X139670Y264250D02*X139220Y264700D01*
X139670Y264250D02*Y263350D01*
X139220Y262900D01*
X138320D02*X139220D01*
X138320D02*X137870Y263350D01*
Y264250D02*Y263350D01*
X138320Y264700D02*X137870Y264250D01*
X113500Y250000D02*X116500D01*
X113500D02*X113000Y250500D01*
Y251500D02*Y250500D01*
Y251500D02*X113500Y252000D01*
X116500D01*
X117000Y251500D02*X116500Y252000D01*
X117000Y251500D02*Y250500D01*
X116500Y250000D02*X117000Y250500D01*
X116000Y251000D02*X117000Y252000D01*
X113000Y253200D02*X117000D01*
X115500Y254700D01*
X117000Y256200D01*
X113000D02*X117000D01*
X113000Y258400D02*Y257400D01*
Y257900D02*X117000D01*
Y258400D02*Y257400D01*
X113000Y260600D02*Y259600D01*
Y260100D02*X117000D01*
Y260600D02*Y259600D01*
Y263800D02*Y262300D01*
X116500Y261800D02*X117000Y262300D01*
X113500Y261800D02*X116500D01*
X113500D02*X113000Y262300D01*
Y263800D02*Y262300D01*
X39000Y263000D02*X38500Y263500D01*
X39000Y263000D02*X40500D01*
X41000Y263500D02*X40500Y263000D01*
X41000Y266500D02*Y263500D01*
Y266500D02*X40500Y267000D01*
X39000D02*X40500D01*
X39000D02*X38500Y266500D01*
Y265500D01*
X39000Y265000D02*X38500Y265500D01*
X39000Y265000D02*X40000D01*
X37300Y267000D02*Y263000D01*
Y263500D02*Y263000D01*
Y263500D02*X34800Y266000D01*
Y267000D02*Y263000D01*
X33100Y267000D02*Y263000D01*
X31600D02*X31100Y263500D01*
Y266500D02*Y263500D01*
X31600Y267000D02*X31100Y266500D01*
X31600Y267000D02*X33600D01*
X31600Y263000D02*X33600D01*
X19500Y265000D02*X21500D01*
X20500Y266000D02*Y264000D01*
X18300Y266000D02*Y263000D01*
Y266000D02*X17300Y267000D01*
X16300Y266000D01*
Y263000D01*
X14100D02*X15100D01*
X14600Y267000D02*Y263000D01*
X14100Y267000D02*X15100D01*
X12900Y266500D02*Y263500D01*
X12400Y263000D01*
X11400D02*X12400D01*
X11400D02*X10900Y263500D01*
Y266500D02*Y263500D01*
X11400Y267000D02*X10900Y266500D01*
X11400Y267000D02*X12400D01*
X12900Y266500D02*X12400Y267000D01*
X59000Y265000D02*X61000D01*
X60000Y266000D02*Y264000D01*
X55800Y263000D02*X57800D01*
Y265000D02*Y263000D01*
Y265000D02*X57300Y264500D01*
X56300D02*X57300D01*
X56300D02*X55800Y265000D01*
Y266500D02*Y265000D01*
X56300Y267000D02*X55800Y266500D01*
X56300Y267000D02*X57300D01*
X57800Y266500D02*X57300Y267000D01*
X54600Y266000D02*Y263000D01*
Y266000D02*X53600Y267000D01*
X52600Y266000D01*
Y263000D01*
X74000Y250000D02*X77000D01*
X74000D02*X73500Y250500D01*
Y251500D02*Y250500D01*
Y251500D02*X74000Y252000D01*
X77000D01*
X77500Y251500D02*X77000Y252000D01*
X77500Y251500D02*Y250500D01*
X77000Y250000D02*X77500Y250500D01*
X76500Y251000D02*X77500Y252000D01*
X73500Y253200D02*X77500D01*
X76000Y254700D01*
X77500Y256200D01*
X73500D02*X77500D01*
X73500Y258400D02*Y257400D01*
Y257900D02*X77500D01*
Y258400D02*Y257400D01*
X73500Y260600D02*Y259600D01*
Y260100D02*X77500D01*
Y260600D02*Y259600D01*
Y263800D02*Y262300D01*
X77000Y261800D02*X77500Y262300D01*
X74000Y261800D02*X77000D01*
X74000D02*X73500Y262300D01*
Y263800D02*Y262300D01*
X117000Y140000D02*Y137000D01*
Y140000D02*X117500Y140500D01*
X118500D01*
X119000Y140000D01*
Y137000D01*
X118500Y136500D02*X119000Y137000D01*
X117500Y136500D02*X118500D01*
X117000Y137000D02*X117500Y136500D01*
X120200Y140500D02*Y136500D01*
Y140500D02*Y140000D01*
X122700Y137500D01*
Y140500D02*Y136500D01*
X98605Y135290D02*Y130450D01*
X100420Y135290D02*X101025Y134685D01*
Y131055D01*
X100420Y130450D02*X101025Y131055D01*
X98000Y130450D02*X100420D01*
X98000Y135290D02*X100420D01*
X102477Y130450D02*X105502Y133475D01*
Y135290D02*Y133475D01*
X102477Y135290D02*X105502D01*
X98605Y125290D02*Y120450D01*
X100420Y125290D02*X101025Y124685D01*
Y121055D01*
X100420Y120450D02*X101025Y121055D01*
X98000Y120450D02*X100420D01*
X98000Y125290D02*X100420D01*
X102477Y124685D02*X103082Y125290D01*
X104292D01*
X104897Y124685D01*
Y121055D01*
X104292Y120450D02*X104897Y121055D01*
X103082Y120450D02*X104292D01*
X102477Y121055D02*X103082Y120450D01*
Y122870D02*X104897D01*
X98605Y115290D02*Y110450D01*
X100420Y115290D02*X101025Y114685D01*
Y111055D01*
X100420Y110450D02*X101025Y111055D01*
X98000Y110450D02*X100420D01*
X98000Y115290D02*X100420D01*
X102477Y114685D02*X103082Y115290D01*
X104897D01*
X105502Y114685D01*
Y113475D01*
X102477Y110450D02*X105502Y113475D01*
X102477Y110450D02*X105502D01*
X61000Y116280D02*X62220D01*
X61610D02*Y111400D01*
X61000D02*X62220D01*
X66124Y116280D02*X66734Y115670D01*
X64294Y116280D02*X66124D01*
X63684Y115670D02*X64294Y116280D01*
X63684Y115670D02*Y114450D01*
X64294Y113840D01*
X66124D01*
X66734Y113230D01*
Y112010D01*
X66124Y111400D02*X66734Y112010D01*
X64294Y111400D02*X66124D01*
X63684Y112010D02*X64294Y111400D01*
X68198Y115670D02*Y112010D01*
Y115670D02*X68808Y116280D01*
X70028D01*
X70638Y115670D01*
Y112010D01*
X70028Y111400D02*X70638Y112010D01*
X68808Y111400D02*X70028D01*
X68198Y112010D02*X68808Y111400D01*
X72102Y116280D02*Y111400D01*
X74542D01*
X76006Y115670D02*Y111400D01*
Y115670D02*X76616Y116280D01*
X78446D01*
X79056Y115670D01*
Y111400D01*
X76006Y113840D02*X79056D01*
X80520Y116280D02*X82960D01*
X81740D02*Y111400D01*
X84424Y113840D02*X86254D01*
X84424Y111400D02*X86864D01*
X84424Y116280D02*Y111400D01*
Y116280D02*X86864D01*
X88938D02*Y111400D01*
X90768Y116280D02*X91378Y115670D01*
Y112010D01*
X90768Y111400D02*X91378Y112010D01*
X88328Y111400D02*X90768D01*
X88328Y116280D02*X90768D01*
X70215Y133070D02*Y127350D01*
X69500Y133070D02*X72360D01*
X73075Y132355D01*
Y130925D01*
X72360Y130210D02*X73075Y130925D01*
X70215Y130210D02*X72360D01*
X74791Y132355D02*Y128065D01*
Y132355D02*X75506Y133070D01*
X76936D01*
X77651Y132355D01*
Y128065D01*
X76936Y127350D02*X77651Y128065D01*
X75506Y127350D02*X76936D01*
X74791Y128065D02*X75506Y127350D01*
X79367Y133070D02*Y127350D01*
X81512Y129495D01*
X83657Y127350D01*
Y133070D02*Y127350D01*
X85373Y130210D02*X87518D01*
X85373Y127350D02*X88233D01*
X85373Y133070D02*Y127350D01*
Y133070D02*X88233D01*
X89949D02*X92809D01*
X93524Y132355D01*
Y130925D01*
X92809Y130210D02*X93524Y130925D01*
X90664Y130210D02*X92809D01*
X90664Y133070D02*Y127350D01*
Y130210D02*X93524Y127350D01*
X149500Y140000D02*Y137000D01*
Y140000D02*X150000Y140500D01*
X151000D01*
X151500Y140000D01*
Y137000D01*
X151000Y136500D02*X151500Y137000D01*
X150000Y136500D02*X151000D01*
X149500Y137000D02*X150000Y136500D01*
X152700Y140500D02*Y136500D01*
Y140500D02*X154700D01*
X152700Y138500D02*X154200D01*
X155900Y140500D02*Y136500D01*
Y140500D02*X157900D01*
X155900Y138500D02*X157400D01*
X98610Y156780D02*Y151900D01*
X100440Y156780D02*X101050Y156170D01*
Y152510D01*
X100440Y151900D02*X101050Y152510D01*
X98000Y151900D02*X100440D01*
X98000Y156780D02*X100440D01*
X103124Y151900D02*X104954D01*
X102514Y152510D02*X103124Y151900D01*
X102514Y156170D02*Y152510D01*
Y156170D02*X103124Y156780D01*
X104954D01*
X107028Y151900D02*X108858D01*
X106418Y152510D02*X107028Y151900D01*
X106418Y156170D02*Y152510D01*
Y156170D02*X107028Y156780D01*
X108858D01*
X114958D02*X115568Y156170D01*
X113128Y156780D02*X114958D01*
X112518Y156170D02*X113128Y156780D01*
X112518Y156170D02*Y154950D01*
X113128Y154340D01*
X114958D01*
X115568Y153730D01*
Y152510D01*
X114958Y151900D02*X115568Y152510D01*
X113128Y151900D02*X114958D01*
X112518Y152510D02*X113128Y151900D01*
X117032Y156780D02*X118252D01*
X117642D02*Y151900D01*
X117032D02*X118252D01*
X122156Y156780D02*X122766Y156170D01*
X120326Y156780D02*X122156D01*
X119716Y156170D02*X120326Y156780D01*
X119716Y156170D02*Y152510D01*
X120326Y151900D01*
X122156D01*
X122766Y152510D01*
Y153730D02*Y152510D01*
X122156Y154340D02*X122766Y153730D01*
X120936Y154340D02*X122156D01*
X124230Y156780D02*Y151900D01*
Y156780D02*Y156170D01*
X127280Y153120D01*
Y156780D02*Y151900D01*
X128744Y156170D02*Y151900D01*
Y156170D02*X129354Y156780D01*
X131184D01*
X131794Y156170D01*
Y151900D01*
X128744Y154340D02*X131794D01*
X133258Y156780D02*Y151900D01*
X135698D01*
X139358Y156780D02*X141798D01*
X140578D02*Y151900D01*
X143262Y156170D02*Y152510D01*
Y156170D02*X143872Y156780D01*
X145092D01*
X145702Y156170D01*
Y152510D01*
X145092Y151900D02*X145702Y152510D01*
X143872Y151900D02*X145092D01*
X143262Y152510D02*X143872Y151900D01*
X98500Y149670D02*Y145400D01*
Y149670D02*X99110Y150280D01*
X100940D01*
X101550Y149670D01*
Y145400D01*
X98500Y147840D02*X101550D01*
X103014Y150280D02*X105454D01*
X106064Y149670D01*
Y148450D01*
X105454Y147840D02*X106064Y148450D01*
X103624Y147840D02*X105454D01*
X103624Y150280D02*Y145400D01*
Y147840D02*X106064Y145400D01*
X108138Y150280D02*Y145400D01*
X109968Y150280D02*X110578Y149670D01*
Y146010D01*
X109968Y145400D02*X110578Y146010D01*
X107528Y145400D02*X109968D01*
X107528Y150280D02*X109968D01*
X112042D02*Y146010D01*
X112652Y145400D01*
X113872D01*
X114482Y146010D01*
Y150280D02*Y146010D01*
X115946Y150280D02*X117166D01*
X116556D02*Y145400D01*
X115946D02*X117166D01*
X118630Y150280D02*Y145400D01*
Y150280D02*Y149670D01*
X121680Y146620D01*
Y150280D02*Y145400D01*
X123144Y149670D02*Y146010D01*
Y149670D02*X123754Y150280D01*
X124974D01*
X125584Y149670D01*
Y146010D01*
X124974Y145400D02*X125584Y146010D01*
X123754Y145400D02*X124974D01*
X123144Y146010D02*X123754Y145400D01*
X129854Y150280D02*Y145400D01*
X129244Y150280D02*X131684D01*
X132294Y149670D01*
Y148450D01*
X131684Y147840D02*X132294Y148450D01*
X129854Y147840D02*X131684D01*
X133758Y150280D02*X134978D01*
X134368D02*Y145400D01*
X133758D02*X134978D01*
X136442Y150280D02*Y145400D01*
Y150280D02*Y149670D01*
X139492Y146620D01*
Y150280D02*Y145400D01*
X61000Y148780D02*Y143900D01*
Y148780D02*X63440D01*
X61000Y146340D02*X62830D01*
X64904Y148780D02*X67344D01*
X67954Y148170D01*
Y146950D01*
X67344Y146340D02*X67954Y146950D01*
X65514Y146340D02*X67344D01*
X65514Y148780D02*Y143900D01*
Y146340D02*X67954Y143900D01*
X69418Y148170D02*Y144510D01*
Y148170D02*X70028Y148780D01*
X71248D01*
X71858Y148170D01*
Y144510D01*
X71248Y143900D02*X71858Y144510D01*
X70028Y143900D02*X71248D01*
X69418Y144510D02*X70028Y143900D01*
X73322Y148780D02*Y143900D01*
Y148780D02*X75152Y146950D01*
X76982Y148780D01*
Y143900D01*
X81252Y148780D02*Y143900D01*
X83082Y148780D02*X83692Y148170D01*
Y144510D01*
X83082Y143900D02*X83692Y144510D01*
X80642Y143900D02*X83082D01*
X80642Y148780D02*X83082D01*
X85766Y143900D02*X87596D01*
X85156Y144510D02*X85766Y143900D01*
X85156Y148170D02*Y144510D01*
Y148170D02*X85766Y148780D01*
X87596D01*
X89670Y143900D02*X91500D01*
X89060Y144510D02*X89670Y143900D01*
X89060Y148170D02*Y144510D01*
Y148170D02*X89670Y148780D01*
X91500D01*
X145000Y187500D02*X145500Y187000D01*
X143500Y187500D02*X145000D01*
X143000Y187000D02*X143500Y187500D01*
X143000Y187000D02*Y184000D01*
X143500Y183500D01*
X145000D01*
X145500Y184000D01*
Y185000D02*Y184000D01*
X145000Y185500D02*X145500Y185000D01*
X144000Y185500D02*X145000D01*
X146700Y187500D02*Y183500D01*
Y187500D02*Y187000D01*
X149200Y184500D01*
Y187500D02*Y183500D01*
X150900Y187500D02*Y183500D01*
X152400Y187500D02*X152900Y187000D01*
Y184000D01*
X152400Y183500D02*X152900Y184000D01*
X150400Y183500D02*X152400D01*
X150400Y187500D02*X152400D01*
X82000Y227500D02*X84000D01*
X83000Y228500D02*Y226500D01*
X145000Y217500D02*X145500Y217000D01*
X143500Y217500D02*X145000D01*
X143000Y217000D02*X143500Y217500D01*
X143000Y217000D02*Y216000D01*
X143500Y215500D01*
X145000D01*
X145500Y215000D01*
Y214000D01*
X145000Y213500D02*X145500Y214000D01*
X143500Y213500D02*X145000D01*
X143000Y214000D02*X143500Y213500D01*
X147200D02*X148700D01*
X146700Y214000D02*X147200Y213500D01*
X146700Y217000D02*Y214000D01*
Y217000D02*X147200Y217500D01*
X148700D01*
X149900D02*Y213500D01*
X151900D01*
X145000Y207500D02*X145500Y207000D01*
X143500Y207500D02*X145000D01*
X143000Y207000D02*X143500Y207500D01*
X143000Y207000D02*Y206000D01*
X143500Y205500D01*
X145000D01*
X145500Y205000D01*
Y204000D01*
X145000Y203500D02*X145500Y204000D01*
X143500Y203500D02*X145000D01*
X143000Y204000D02*X143500Y203500D01*
X147200Y207500D02*Y203500D01*
X148700Y207500D02*X149200Y207000D01*
Y204000D01*
X148700Y203500D02*X149200Y204000D01*
X146700Y203500D02*X148700D01*
X146700Y207500D02*X148700D01*
X150400Y207000D02*Y203500D01*
Y207000D02*X150900Y207500D01*
X152400D01*
X152900Y207000D01*
Y203500D01*
X150400Y205500D02*X152900D01*
X142500Y195500D02*X144500D01*
X143500Y196500D02*Y194500D01*
X145700Y197500D02*Y194500D01*
X146700Y193500D01*
X147700Y194500D01*
Y197500D02*Y194500D01*
X148900Y197500D02*X149900D01*
X149400D02*Y193500D01*
X148900D02*X149900D01*
X151100Y197000D02*Y194000D01*
Y197000D02*X151600Y197500D01*
X152600D01*
X153100Y197000D01*
Y194000D01*
X152600Y193500D02*X153100Y194000D01*
X151600Y193500D02*X152600D01*
X151100Y194000D02*X151600Y193500D01*
X36500Y228000D02*X37000Y227500D01*
X35000Y228000D02*X36500D01*
X34500Y227500D02*X35000Y228000D01*
X34500Y227500D02*Y226500D01*
X35000Y226000D01*
X36500D01*
X37000Y225500D01*
Y224500D01*
X36500Y224000D02*X37000Y224500D01*
X35000Y224000D02*X36500D01*
X34500Y224500D02*X35000Y224000D01*
X38200Y227500D02*Y224500D01*
Y227500D02*X38700Y228000D01*
X39700D01*
X40200Y227500D01*
Y224500D01*
X39700Y224000D02*X40200Y224500D01*
X38700Y224000D02*X39700D01*
X38200Y224500D02*X38700Y224000D01*
X41400Y228000D02*Y224000D01*
X43400D01*
X45100Y228000D02*Y224000D01*
X46600Y228000D02*X47100Y227500D01*
Y224500D01*
X46600Y224000D02*X47100Y224500D01*
X44600Y224000D02*X46600D01*
X44600Y228000D02*X46600D01*
X48300Y226000D02*X49800D01*
X48300Y224000D02*X50300D01*
X48300Y228000D02*Y224000D01*
Y228000D02*X50300D01*
X51500D02*X53500D01*
X54000Y227500D01*
Y226500D01*
X53500Y226000D02*X54000Y226500D01*
X52000Y226000D02*X53500D01*
X52000Y228000D02*Y224000D01*
Y226000D02*X54000Y224000D01*
X57000Y228000D02*X58500D01*
Y224500D01*
X58000Y224000D02*X58500Y224500D01*
X57500Y224000D02*X58000D01*
X57000Y224500D02*X57500Y224000D01*
X60200Y228000D02*Y224000D01*
X59700Y228000D02*X61700D01*
X62200Y227500D01*
Y226500D01*
X61700Y226000D02*X62200Y226500D01*
X60200Y226000D02*X61700D01*
X64900Y228000D02*X65400Y227500D01*
X63900Y228000D02*X64900D01*
X63400Y227500D02*X63900Y228000D01*
X63400Y227500D02*Y224500D01*
X63900Y224000D01*
X64900Y226000D02*X65400Y225500D01*
X63400Y226000D02*X64900D01*
X63900Y224000D02*X64900D01*
X65400Y224500D01*
Y225500D02*Y224500D01*
X68400Y228000D02*X69400D01*
X68900D02*Y224000D01*
X68400D02*X69400D01*
X70600Y228000D02*Y224000D01*
Y228000D02*X72600D01*
X70600Y226000D02*X72100D01*
X34500Y221500D02*Y217500D01*
Y221500D02*Y221000D01*
X37000Y218500D01*
Y221500D02*Y217500D01*
X38200Y221000D02*Y218000D01*
Y221000D02*X38700Y221500D01*
X39700D01*
X40200Y221000D01*
Y218000D01*
X39700Y217500D02*X40200Y218000D01*
X38700Y217500D02*X39700D01*
X38200Y218000D02*X38700Y217500D01*
X43200Y221500D02*X44200D01*
X43700D02*Y217500D01*
X43200D02*X44200D01*
X45400Y221000D02*Y218000D01*
Y221000D02*X45900Y221500D01*
X46900D01*
X47400Y221000D01*
Y218000D01*
X46900Y217500D02*X47400Y218000D01*
X45900Y217500D02*X46900D01*
X45400Y218000D02*X45900Y217500D01*
X48600Y221500D02*X50600D01*
X51100Y221000D01*
Y220000D01*
X50600Y219500D02*X51100Y220000D01*
X49100Y219500D02*X50600D01*
X49100Y221500D02*Y217500D01*
Y219500D02*X51100Y217500D01*
X52300Y219500D02*X53800D01*
X52300Y217500D02*X54300D01*
X52300Y221500D02*Y217500D01*
Y221500D02*X54300D01*
X55500D02*Y217500D01*
Y221500D02*X57500D01*
X55500Y219500D02*X57000D01*
X61000Y221500D02*Y217500D01*
X60500Y221500D02*X62500D01*
X63000Y221000D01*
Y220000D01*
X62500Y219500D02*X63000Y220000D01*
X61000Y219500D02*X62500D01*
X64200Y221500D02*X65200D01*
X64700D02*Y217500D01*
X64200D02*X65200D01*
X66400Y221500D02*Y217500D01*
Y221500D02*Y221000D01*
X68900Y218500D01*
Y221500D02*Y217500D01*
X84500Y236500D02*Y232500D01*
X84000Y236500D02*X86000D01*
X86500Y236000D01*
Y235000D01*
X86000Y234500D02*X86500Y235000D01*
X84500Y234500D02*X86000D01*
X87700Y236000D02*Y233000D01*
Y236000D02*X88200Y236500D01*
X89200D01*
X89700Y236000D01*
Y233000D01*
X89200Y232500D02*X89700Y233000D01*
X88200Y232500D02*X89200D01*
X87700Y233000D02*X88200Y232500D01*
X90900Y236500D02*Y232500D01*
X92400Y234000D01*
X93900Y232500D01*
Y236500D02*Y232500D01*
X95100Y234500D02*X96600D01*
X95100Y232500D02*X97100D01*
X95100Y236500D02*Y232500D01*
Y236500D02*X97100D01*
X98300D02*X100300D01*
X100800Y236000D01*
Y235000D01*
X100300Y234500D02*X100800Y235000D01*
X98800Y234500D02*X100300D01*
X98800Y236500D02*Y232500D01*
Y234500D02*X100800Y232500D01*
X89500Y160500D02*Y159000D01*
X89000Y158500D02*X89500Y159000D01*
X86000Y158500D02*X89000D01*
X86000D02*X85500Y159000D01*
Y160500D02*Y159000D01*
X89500Y163700D02*Y162200D01*
X89000Y161700D02*X89500Y162200D01*
X86000Y161700D02*X89000D01*
X86000D02*X85500Y162200D01*
Y163700D02*Y162200D01*
X89500Y168700D02*Y166700D01*
Y168700D02*X89000Y169200D01*
X88000D02*X89000D01*
X87500Y168700D02*X88000Y169200D01*
X87500Y168700D02*Y167200D01*
X85500D02*X89500D01*
X85500Y168700D02*Y166700D01*
Y168700D02*X86000Y169200D01*
X87000D01*
X87500Y168700D02*X87000Y169200D01*
X85500Y170400D02*X86000D01*
X87000Y171400D01*
X86000Y172400D01*
X85500D02*X86000D01*
X87000Y171400D02*X89500D01*
X87500Y175600D02*Y173600D01*
X85500Y178800D02*X86000Y179300D01*
X85500Y178800D02*Y177300D01*
X86000Y176800D02*X85500Y177300D01*
X86000Y176800D02*X87000D01*
X87500Y177300D01*
Y178800D02*Y177300D01*
Y178800D02*X88000Y179300D01*
X89000D01*
X89500Y178800D02*X89000Y179300D01*
X89500Y178800D02*Y177300D01*
X89000Y176800D02*X89500Y177300D01*
X86000Y180500D02*X89500D01*
X86000D02*X85500Y181000D01*
Y182500D02*Y181000D01*
Y182500D02*X86000Y183000D01*
X89500D01*
X87500D02*Y180500D01*
X89000Y187800D02*X89500Y188300D01*
X86000Y187800D02*X85500Y188300D01*
X86000Y187800D02*X89000D01*
X89500Y191500D02*Y190000D01*
X89000Y189500D02*X89500Y190000D01*
X86000Y189500D02*X89000D01*
X86000D02*X85500Y190000D01*
Y191500D02*Y190000D01*
Y192700D02*X86000Y193200D01*
X89000D01*
X89500Y192700D02*X89000Y193200D01*
X86000Y196200D02*X85500Y196700D01*
Y198200D02*Y196700D01*
Y198200D02*X86000Y198700D01*
X87000D01*
X89500Y196200D02*X87000Y198700D01*
X89500D02*Y196200D01*
X89000Y199900D02*X89500Y200400D01*
X86000Y199900D02*X89000D01*
X86000D02*X85500Y200400D01*
Y201400D02*Y200400D01*
Y201400D02*X86000Y201900D01*
X89000D01*
X89500Y201400D02*X89000Y201900D01*
X89500Y201400D02*Y200400D01*
X88500Y199900D02*X86500Y201900D01*
X86000Y203100D02*X85500Y203600D01*
Y205100D02*Y203600D01*
Y205100D02*X86000Y205600D01*
X87000D01*
X89500Y203100D02*X87000Y205600D01*
X89500D02*Y203100D01*
X86000Y206800D02*X85500Y207300D01*
Y208800D02*Y207300D01*
Y208800D02*X86000Y209300D01*
X87000D01*
X89500Y206800D02*X87000Y209300D01*
X89500D02*Y206800D01*
X186000Y72500D02*Y68500D01*
X187500Y72500D02*X188000Y72000D01*
Y69000D01*
X187500Y68500D02*X188000Y69000D01*
X185500Y68500D02*X187500D01*
X185500Y72500D02*X187500D01*
X189200D02*X191200D01*
X189200D02*Y70500D01*
X189700Y71000D01*
X190700D01*
X191200Y70500D01*
Y69000D01*
X190700Y68500D02*X191200Y69000D01*
X189700Y68500D02*X190700D01*
X189200Y69000D02*X189700Y68500D01*
X18500Y72000D02*Y68500D01*
Y72000D02*X19000Y72500D01*
X20500D01*
X21000Y72000D01*
Y68500D01*
X18500Y70500D02*X21000D01*
X22200Y69000D02*X22700Y68500D01*
X22200Y72000D02*Y69000D01*
Y72000D02*X22700Y72500D01*
X23700D01*
X24200Y72000D01*
Y69000D01*
X23700Y68500D02*X24200Y69000D01*
X22700Y68500D02*X23700D01*
X22200Y69500D02*X24200Y71500D01*
X186000Y62500D02*Y58500D01*
X187500Y62500D02*X188000Y62000D01*
Y59000D01*
X187500Y58500D02*X188000Y59000D01*
X185500Y58500D02*X187500D01*
X185500Y62500D02*X187500D01*
X189200Y60500D02*X191200Y62500D01*
X189200Y60500D02*X191700D01*
X191200Y62500D02*Y58500D01*
X18500Y62000D02*Y58500D01*
Y62000D02*X19000Y62500D01*
X20500D01*
X21000Y62000D01*
Y58500D01*
X18500Y60500D02*X21000D01*
X22700Y58500D02*X23700D01*
X23200Y62500D02*Y58500D01*
X22200Y61500D02*X23200Y62500D01*
X58800Y7200D02*Y3200D01*
X60300Y7200D02*X60800Y6700D01*
Y3700D01*
X60300Y3200D02*X60800Y3700D01*
X58300Y3200D02*X60300D01*
X58300Y7200D02*X60300D01*
X62500Y3200D02*X64000D01*
X62000Y3700D02*X62500Y3200D01*
X62000Y6700D02*Y3700D01*
Y6700D02*X62500Y7200D01*
X64000D01*
X65700Y3200D02*X67200D01*
X65200Y3700D02*X65700Y3200D01*
X65200Y6700D02*Y3700D01*
Y6700D02*X65700Y7200D01*
X67200D01*
X70200D02*X71200D01*
X70700D02*Y3200D01*
X70200D02*X71200D01*
X72400Y7200D02*Y3200D01*
Y7200D02*Y6700D01*
X74900Y4200D01*
Y7200D02*Y3200D01*
X33500Y41500D02*X35500Y39500D01*
X33500D02*X35500Y41500D01*
X33500Y40500D02*X35500D01*
X34500Y41500D02*Y39500D01*
X78000Y93500D02*X80000Y91500D01*
X78000D02*X80000Y93500D01*
X78000Y92500D02*X80000D01*
X79000Y93500D02*Y91500D01*
X117000Y88500D02*Y85500D01*
Y88500D02*X117500Y89000D01*
X118500D01*
X119000Y88500D01*
Y85500D01*
X118500Y85000D02*X119000Y85500D01*
X117500Y85000D02*X118500D01*
X117000Y85500D02*X117500Y85000D01*
X120200Y89000D02*Y85000D01*
Y89000D02*Y88500D01*
X122700Y86000D01*
Y89000D02*Y85000D01*
X85000Y95340D02*X86830D01*
X85000Y92900D02*X87440D01*
X85000Y97780D02*Y92900D01*
Y97780D02*X87440D01*
X88904D02*Y92900D01*
Y97780D02*Y97170D01*
X91954Y94120D01*
Y97780D02*Y92900D01*
X93418Y97170D02*Y92900D01*
Y97170D02*X94028Y97780D01*
X95858D01*
X96468Y97170D01*
Y92900D01*
X93418Y95340D02*X96468D01*
X97932Y92900D02*X100372D01*
X100982Y93510D01*
Y94730D02*Y93510D01*
X100372Y95340D02*X100982Y94730D01*
X98542Y95340D02*X100372D01*
X98542Y97780D02*Y92900D01*
X97932Y97780D02*X100372D01*
X100982Y97170D01*
Y95950D01*
X100372Y95340D02*X100982Y95950D01*
X102446Y97780D02*Y92900D01*
X104886D01*
X106350Y95340D02*X108180D01*
X106350Y92900D02*X108790D01*
X106350Y97780D02*Y92900D01*
Y97780D02*X108790D01*
X85000Y104170D02*Y99900D01*
Y104170D02*X85610Y104780D01*
X87440D01*
X88050Y104170D01*
Y99900D01*
X85000Y102340D02*X88050D01*
X90124Y99900D02*X91954D01*
X89514Y100510D02*X90124Y99900D01*
X89514Y104170D02*Y100510D01*
Y104170D02*X90124Y104780D01*
X91954D01*
X93418D02*Y99900D01*
Y102340D02*X95858Y104780D01*
X93418Y102340D02*X95858Y99900D01*
X104000Y45000D02*X106000D01*
X105000Y46000D02*Y44000D01*
X91720Y42560D02*Y36800D01*
X93880Y42560D02*X94600Y41840D01*
Y37520D01*
X93880Y36800D02*X94600Y37520D01*
X91000Y36800D02*X93880D01*
X91000Y42560D02*X93880D01*
X97048Y36800D02*X99208D01*
X96328Y37520D02*X97048Y36800D01*
X96328Y41840D02*Y37520D01*
Y41840D02*X97048Y42560D01*
X99208D01*
X101656Y36800D02*X103816D01*
X100936Y37520D02*X101656Y36800D01*
X100936Y41840D02*Y37520D01*
Y41840D02*X101656Y42560D01*
X103816D01*
X93500Y33840D02*Y29520D01*
Y33840D02*X94220Y34560D01*
X95660D01*
X96380Y33840D01*
Y29520D01*
X95660Y28800D02*X96380Y29520D01*
X94220Y28800D02*X95660D01*
X93500Y29520D02*X94220Y28800D01*
X98108Y34560D02*Y28800D01*
Y34560D02*Y33840D01*
X101708Y30240D01*
Y34560D02*Y28800D01*
G54D54*X31187Y215313D02*Y193313D01*
Y215313D02*X53187D01*
X57187Y211313D02*Y189313D01*
X35187D02*X57187D01*
X122107Y187255D02*X122893D01*
X122107Y181745D02*X122893D01*
X155500Y220500D02*Y180500D01*
X165500D01*
Y220500D01*
X155500D01*
Y210500D02*X165500D01*
Y220500D01*
X122600Y219800D02*X136500D01*
X122600D02*Y207000D01*
X136500D01*
Y219800D02*Y207000D01*
X122600Y203500D02*X136500D01*
X122600D02*Y190700D01*
X136500D01*
Y203500D02*Y190700D01*
X122064Y228755D02*X122850D01*
X122064Y223245D02*X122850D01*
X91607Y224745D02*X92393D01*
X91607Y230255D02*X92393D01*
X91607Y219755D02*X92393D01*
X91607Y214245D02*X92393D01*
X207000Y260000D02*Y234500D01*
X125000Y260000D02*Y234500D01*
X207000D01*
X125000Y236500D02*X207000D01*
X125000Y260000D02*X207000D01*
X6500Y260300D02*X66500D01*
X6500Y230300D02*X66500D01*
X6500Y234700D02*X66500D01*
Y260300D02*Y230300D01*
X6500Y260300D02*Y230300D01*
X205500Y95500D02*Y15500D01*
X195500Y95500D02*X205500D01*
X195500D02*Y15500D01*
X205500D01*
X195500Y25500D02*X205500D01*
X195500D02*Y15500D01*
X205500Y201500D02*Y101500D01*
X195500Y201500D02*X205500D01*
X195500D02*Y101500D01*
X205500D01*
X195500Y111500D02*X205500D01*
X195500D02*Y101500D01*
X93755Y53436D02*Y52650D01*
X88245Y53436D02*Y52650D01*
X91814Y78563D02*Y74627D01*
X81186Y78563D02*Y74627D01*
X95300Y25000D02*X125300D01*
X95300D02*Y5000D01*
X125300D01*
Y25000D02*Y5000D01*
X115300Y25000D02*Y15000D01*
X125300D01*
X145500Y34000D02*X125500D01*
X145500D02*Y70000D01*
X125500D02*Y34000D01*
Y70000D02*X145500D01*
X135500Y68000D01*
X125500Y70000D02*X135500Y68000D01*
X103755Y53393D02*Y52607D01*
X98245Y53393D02*Y52607D01*
X168202Y53393D02*Y52607D01*
X173712Y53393D02*Y52607D01*
X146500Y90000D02*X126500D01*
X146500D02*Y136000D01*
X126500D02*Y90000D01*
Y136000D02*X146500D01*
X136500Y134000D01*
X126500Y136000D02*X136500Y134000D01*
X103607Y76245D02*X104393D01*
X103607Y81755D02*X104393D01*
X158107Y80255D02*X158893D01*
X158107Y74745D02*X158893D01*
X155576Y170745D02*X156362D01*
X155576Y176255D02*X156362D01*
X155607Y161745D02*X156393D01*
X155607Y167255D02*X156393D01*
X5500Y165500D02*Y85500D01*
X15500D01*
Y165500D01*
X5500D01*
Y155500D02*X15500D01*
Y165500D01*
X5500Y75500D02*Y15500D01*
X15500D01*
Y75500D01*
X5500D01*
Y65500D02*X15500D01*
Y75500D01*
X27618Y178020D02*Y177234D01*
X33128Y178020D02*Y177234D01*
X84255Y53393D02*Y52607D01*
X78745Y53393D02*Y52607D01*
X73750Y71901D02*Y61271D01*
X55250Y71901D02*Y61271D01*
X70500D02*X73750D01*
X55250D02*X58500D01*
X73571Y71901D02*X73750D01*
X55250D02*X55429D01*
X43300Y107300D02*X74700D01*
X43300D02*Y87700D01*
X74700Y107300D02*Y87700D01*
X43300D02*X74700D01*
X76000Y93500D02*Y91500D01*
X49300Y73200D02*Y43800D01*
Y73200D02*X29700D01*
X49300Y43800D02*X29700D01*
Y73200D02*Y43800D01*
X27500Y43500D02*Y47500D01*
X46500Y8700D02*X86500D01*
X46500Y38700D02*X86500D01*
X46500Y34300D02*X86500D01*
X46500Y38700D02*Y8700D01*
X86500Y38700D02*Y8700D01*
X44900Y147700D02*X59100D01*
Y143700D01*
X44900Y147700D02*Y143700D01*
Y112300D02*X59100D01*
Y116300D02*Y112300D01*
X44900Y116300D02*Y112300D01*
X47532Y153686D02*X51468D01*
X47532Y164314D02*X51468D01*
X39073Y172827D02*X52973D01*
Y184627D02*Y172827D01*
X39073Y184627D02*X52973D01*
X39073D02*Y172827D01*
X64128Y182063D02*Y181277D01*
X58618Y182063D02*Y181277D01*
X79247Y215462D02*Y169792D01*
X45783Y215462D02*Y169792D01*
X79247D01*
X45783Y215462D02*X79247D01*
G54D55*X20254Y175777D02*X21754D01*
X19754Y176277D02*X20254Y175777D01*
X19754Y179277D02*Y176277D01*
Y179277D02*X20254Y179777D01*
X21754D01*
X22954D02*X24954D01*
X22954D02*Y177777D01*
X23454Y178277D01*
X24454D01*
X24954Y177777D01*
Y176277D01*
X24454Y175777D02*X24954Y176277D01*
X23454Y175777D02*X24454D01*
X22954Y176277D02*X23454Y175777D01*
X34073Y169827D02*Y166327D01*
X34573Y165827D01*
X35573D01*
X36073Y166327D01*
Y169827D02*Y166327D01*
X37273Y169327D02*X37773Y169827D01*
X38773D01*
X39273Y169327D01*
Y166327D01*
X38773Y165827D02*X39273Y166327D01*
X37773Y165827D02*X38773D01*
X37273Y166327D02*X37773Y165827D01*
Y167827D02*X39273D01*
X40473Y169327D02*Y165827D01*
Y169327D02*X40973Y169827D01*
X42473D01*
X42973Y169327D01*
Y165827D01*
X40473Y167827D02*X42973D01*
X24687Y197813D02*Y193813D01*
X26687D01*
X28387D02*X29387D01*
X28887Y197813D02*Y193813D01*
X27887Y196813D02*X28887Y197813D01*
X20400Y218900D02*X21900D01*
Y215400D01*
X21400Y214900D02*X21900Y215400D01*
X20900Y214900D02*X21400D01*
X20400Y215400D02*X20900Y214900D01*
X23600Y218900D02*Y214900D01*
X23100Y218900D02*X25100D01*
X25600Y218400D01*
Y217400D01*
X25100Y216900D02*X25600Y217400D01*
X23600Y216900D02*X25100D01*
X28300Y218900D02*X28800Y218400D01*
X27300Y218900D02*X28300D01*
X26800Y218400D02*X27300Y218900D01*
X26800Y218400D02*Y215400D01*
X27300Y214900D01*
X28300Y216900D02*X28800Y216400D01*
X26800Y216900D02*X28300D01*
X27300Y214900D02*X28300D01*
X28800Y215400D01*
Y216400D02*Y215400D01*
X78531Y246500D02*X80031D01*
Y243000D01*
X79531Y242500D02*X80031Y243000D01*
X79031Y242500D02*X79531D01*
X78531Y243000D02*X79031Y242500D01*
X81232D02*X83732Y245000D01*
Y246500D02*Y245000D01*
X81232Y246500D02*X83732D01*
X68500Y235000D02*X70000D01*
Y231500D01*
X69500Y231000D02*X70000Y231500D01*
X69000Y231000D02*X69500D01*
X68500Y231500D02*X69000Y231000D01*
X71200Y235000D02*X73200D01*
X71200D02*Y233000D01*
X71700Y233500D01*
X72700D01*
X73200Y233000D01*
Y231500D01*
X72700Y231000D02*X73200Y231500D01*
X71700Y231000D02*X72700D01*
X71200Y231500D02*X71700Y231000D01*
X66137Y172277D02*X67637D01*
X65637Y172777D02*X66137Y172277D01*
X65637Y175777D02*Y172777D01*
Y175777D02*X66137Y176277D01*
X67637D01*
X68837Y174277D02*X70837Y176277D01*
X68837Y174277D02*X71337D01*
X70837Y176277D02*Y172277D01*
X73373Y167827D02*Y164327D01*
X73873Y163827D01*
X74873D01*
X75373Y164327D01*
Y167827D02*Y164327D01*
X76573Y167327D02*X77073Y167827D01*
X78073D01*
X78573Y167327D01*
Y164327D01*
X78073Y163827D02*X78573Y164327D01*
X77073Y163827D02*X78073D01*
X76573Y164327D02*X77073Y163827D01*
Y165827D02*X78573D01*
X34350Y157150D02*X35850D01*
X33850Y157650D02*X34350Y157150D01*
X33850Y160650D02*Y157650D01*
Y160650D02*X34350Y161150D01*
X35850D01*
X37050Y160650D02*X37550Y161150D01*
X38550D01*
X39050Y160650D01*
Y157650D01*
X38550Y157150D02*X39050Y157650D01*
X37550Y157150D02*X38550D01*
X37050Y157650D02*X37550Y157150D01*
Y159150D02*X39050D01*
X127200Y22700D02*X128700D01*
Y19200D01*
X128200Y18700D02*X128700Y19200D01*
X127700Y18700D02*X128200D01*
X127200Y19200D02*X127700Y18700D01*
X129900Y22200D02*X130400Y22700D01*
X131400D01*
X131900Y22200D01*
Y19200D01*
X131400Y18700D02*X131900Y19200D01*
X130400Y18700D02*X131400D01*
X129900Y19200D02*X130400Y18700D01*
Y20700D02*X131900D01*
X39500Y16000D02*X41000D01*
Y12500D01*
X40500Y12000D02*X41000Y12500D01*
X40000Y12000D02*X40500D01*
X39500Y12500D02*X40000Y12000D01*
X43700Y16000D02*X44200Y15500D01*
X42700Y16000D02*X43700D01*
X42200Y15500D02*X42700Y16000D01*
X42200Y15500D02*Y12500D01*
X42700Y12000D01*
X43700Y14000D02*X44200Y13500D01*
X42200Y14000D02*X43700D01*
X42700Y12000D02*X43700D01*
X44200Y12500D01*
Y13500D02*Y12500D01*
X88764Y61650D02*X90264D01*
X88264Y62150D02*X88764Y61650D01*
X88264Y65150D02*Y62150D01*
Y65150D02*X88764Y65650D01*
X90264D01*
X91464Y65150D02*X91964Y65650D01*
X93464D01*
X93964Y65150D01*
Y64150D01*
X91464Y61650D02*X93964Y64150D01*
X91464Y61650D02*X93964D01*
X98850Y65650D02*Y61650D01*
X100350Y65650D02*X100850Y65150D01*
Y62150D01*
X100350Y61650D02*X100850Y62150D01*
X98350Y61650D02*X100350D01*
X98350Y65650D02*X100350D01*
X102550Y61650D02*X103550D01*
X103050Y65650D02*Y61650D01*
X102050Y64650D02*X103050Y65650D01*
X134000Y87500D02*X134500Y87000D01*
X132500Y87500D02*X134000D01*
X132000Y87000D02*X132500Y87500D01*
X132000Y87000D02*Y86000D01*
X132500Y85500D01*
X134000D01*
X134500Y85000D01*
Y84000D01*
X134000Y83500D02*X134500Y84000D01*
X132500Y83500D02*X134000D01*
X132000Y84000D02*X132500Y83500D01*
X135700Y87500D02*Y83500D01*
X137200Y85000D01*
X138700Y83500D01*
Y87500D02*Y83500D01*
X140400D02*X141400D01*
X140900Y87500D02*Y83500D01*
X139900Y86500D02*X140900Y87500D01*
X111936Y81150D02*X113936D01*
X114436Y80650D01*
Y79650D01*
X113936Y79150D02*X114436Y79650D01*
X112436Y79150D02*X113936D01*
X112436Y81150D02*Y77150D01*
Y79150D02*X114436Y77150D01*
X115636Y79150D02*X117636Y81150D01*
X115636Y79150D02*X118136D01*
X117636Y81150D02*Y77150D01*
X133500Y31000D02*Y27500D01*
X134000Y27000D01*
X135000D01*
X135500Y27500D01*
Y31000D02*Y27500D01*
X137200Y27000D02*X138200D01*
X137700Y31000D02*Y27000D01*
X136700Y30000D02*X137700Y31000D01*
X167881Y45193D02*X169881D01*
X170381Y44693D01*
Y43693D01*
X169881Y43193D02*X170381Y43693D01*
X168381Y43193D02*X169881D01*
X168381Y45193D02*Y41193D01*
Y43193D02*X170381Y41193D01*
X171581Y44693D02*X172081Y45193D01*
X173581D01*
X174081Y44693D01*
Y43693D01*
X171581Y41193D02*X174081Y43693D01*
X171581Y41193D02*X174081D01*
X79000Y65500D02*X81000D01*
X81500Y65000D01*
Y64000D01*
X81000Y63500D02*X81500Y64000D01*
X79500Y63500D02*X81000D01*
X79500Y65500D02*Y61500D01*
Y63500D02*X81500Y61500D01*
X83200D02*X84200D01*
X83700Y65500D02*Y61500D01*
X82700Y64500D02*X83700Y65500D01*
X51995Y58000D02*Y54500D01*
X52495Y54000D01*
X53495D01*
X53995Y54500D01*
Y58000D02*Y54500D01*
X55195Y56000D02*X57195Y58000D01*
X55195Y56000D02*X57695D01*
X57195Y58000D02*Y54000D01*
X45000Y86000D02*Y82500D01*
X45500Y82000D01*
X46500D01*
X47000Y82500D01*
Y86000D02*Y82500D01*
X48200Y86000D02*X50200D01*
X48200D02*Y84000D01*
X48700Y84500D01*
X49700D01*
X50200Y84000D01*
Y82500D01*
X49700Y82000D02*X50200Y82500D01*
X48700Y82000D02*X49700D01*
X48200Y82500D02*X48700Y82000D01*
X51000Y48000D02*Y44500D01*
X51500Y44000D01*
X52500D01*
X53000Y44500D01*
Y48000D02*Y44500D01*
X54200Y47500D02*X54700Y48000D01*
X56200D01*
X56700Y47500D01*
Y46500D01*
X54200Y44000D02*X56700Y46500D01*
X54200Y44000D02*X56700D01*
X73755Y84150D02*X75755D01*
X76255Y83650D01*
Y82650D01*
X75755Y82150D02*X76255Y82650D01*
X74255Y82150D02*X75755D01*
X74255Y84150D02*Y80150D01*
Y82150D02*X76255Y80150D01*
X77455Y84150D02*X79455D01*
X77455D02*Y82150D01*
X77955Y82650D01*
X78955D01*
X79455Y82150D01*
Y80650D01*
X78955Y80150D02*X79455Y80650D01*
X77955Y80150D02*X78955D01*
X77455Y80650D02*X77955Y80150D01*
X33500Y114500D02*X34000Y114000D01*
X32000Y114500D02*X33500D01*
X31500Y114000D02*X32000Y114500D01*
X31500Y114000D02*Y113000D01*
X32000Y112500D01*
X33500D01*
X34000Y112000D01*
Y111000D01*
X33500Y110500D02*X34000Y111000D01*
X32000Y110500D02*X33500D01*
X31500Y111000D02*X32000Y110500D01*
X35200Y114500D02*Y110500D01*
X36700Y112000D01*
X38200Y110500D01*
Y114500D02*Y110500D01*
X39400Y114000D02*X39900Y114500D01*
X41400D01*
X41900Y114000D01*
Y113000D01*
X39400Y110500D02*X41900Y113000D01*
X39400Y110500D02*X41900D01*
X146350Y75150D02*X147850D01*
X145850Y75650D02*X146350Y75150D01*
X145850Y78650D02*Y75650D01*
Y78650D02*X146350Y79150D01*
X147850D01*
X149550Y75150D02*X150550D01*
X150050Y79150D02*Y75150D01*
X149050Y78150D02*X150050Y79150D01*
X131350Y186650D02*X133350D01*
X133850Y186150D01*
Y185150D01*
X133350Y184650D02*X133850Y185150D01*
X131850Y184650D02*X133350D01*
X131850Y186650D02*Y182650D01*
Y184650D02*X133850Y182650D01*
X136550Y186650D02*X137050Y186150D01*
X135550Y186650D02*X136550D01*
X135050Y186150D02*X135550Y186650D01*
X135050Y186150D02*Y183150D01*
X135550Y182650D01*
X136550Y184650D02*X137050Y184150D01*
X135050Y184650D02*X136550D01*
X135550Y182650D02*X136550D01*
X137050Y183150D01*
Y184150D02*Y183150D01*
X130839Y228150D02*X132839D01*
X133339Y227650D01*
Y226650D01*
X132839Y226150D02*X133339Y226650D01*
X131339Y226150D02*X132839D01*
X131339Y228150D02*Y224150D01*
Y226150D02*X133339Y224150D01*
X134539D02*X137039Y226650D01*
Y228150D02*Y226650D01*
X134539Y228150D02*X137039D01*
X117500Y238700D02*X119000D01*
Y235200D01*
X118500Y234700D02*X119000Y235200D01*
X118000Y234700D02*X118500D01*
X117500Y235200D02*X118000Y234700D01*
X120200Y236700D02*X122200Y238700D01*
X120200Y236700D02*X122700D01*
X122200Y238700D02*Y234700D01*
X100893Y229650D02*Y225650D01*
X102393Y229650D02*X102893Y229150D01*
Y226150D01*
X102393Y225650D02*X102893Y226150D01*
X100393Y225650D02*X102393D01*
X100393Y229650D02*X102393D01*
X104093Y229150D02*X104593Y229650D01*
X106093D01*
X106593Y229150D01*
Y228150D01*
X104093Y225650D02*X106593Y228150D01*
X104093Y225650D02*X106593D01*
X158500Y227500D02*X160000D01*
Y224000D01*
X159500Y223500D02*X160000Y224000D01*
X159000Y223500D02*X159500D01*
X158500Y224000D02*X159000Y223500D01*
X161200Y224000D02*X161700Y223500D01*
X161200Y225000D02*Y224000D01*
Y225000D02*X161700Y225500D01*
X162700D01*
X163200Y225000D01*
Y224000D01*
X162700Y223500D02*X163200Y224000D01*
X161700Y223500D02*X162700D01*
X161200Y226000D02*X161700Y225500D01*
X161200Y227000D02*Y226000D01*
Y227000D02*X161700Y227500D01*
X162700D01*
X163200Y227000D01*
Y226000D01*
X162700Y225500D02*X163200Y226000D01*
X115000Y210700D02*Y207700D01*
Y210700D02*X115500Y211200D01*
X116500D01*
X117000Y210700D01*
Y207700D01*
X116500Y207200D02*X117000Y207700D01*
X115500Y207200D02*X116500D01*
X115000Y207700D02*X115500Y207200D01*
X116000Y208200D02*X117000Y207200D01*
X118200Y210700D02*X118700Y211200D01*
X120200D01*
X120700Y210700D01*
Y209700D01*
X118200Y207200D02*X120700Y209700D01*
X118200Y207200D02*X120700D01*
X115000Y195000D02*Y192000D01*
Y195000D02*X115500Y195500D01*
X116500D01*
X117000Y195000D01*
Y192000D01*
X116500Y191500D02*X117000Y192000D01*
X115500Y191500D02*X116500D01*
X115000Y192000D02*X115500Y191500D01*
X116000Y192500D02*X117000Y191500D01*
X118700D02*X119700D01*
X119200Y195500D02*Y191500D01*
X118200Y194500D02*X119200Y195500D01*
X100721Y219107D02*X102721D01*
X103221Y218607D01*
Y217607D01*
X102721Y217107D02*X103221Y217607D01*
X101221Y217107D02*X102721D01*
X101221Y219107D02*Y215107D01*
Y217107D02*X103221Y215107D01*
X104421Y218607D02*X104921Y219107D01*
X105921D01*
X106421Y218607D01*
Y215607D01*
X105921Y215107D02*X106421Y215607D01*
X104921Y215107D02*X105921D01*
X104421Y215607D02*X104921Y215107D01*
Y217107D02*X106421D01*
X142339Y175650D02*X144339D01*
X144839Y175150D01*
Y174150D01*
X144339Y173650D02*X144839Y174150D01*
X142839Y173650D02*X144339D01*
X142839Y175650D02*Y171650D01*
Y173650D02*X144839Y171650D01*
X146039Y172150D02*X146539Y171650D01*
X146039Y173150D02*Y172150D01*
Y173150D02*X146539Y173650D01*
X147539D01*
X148039Y173150D01*
Y172150D01*
X147539Y171650D02*X148039Y172150D01*
X146539Y171650D02*X147539D01*
X146039Y174150D02*X146539Y173650D01*
X146039Y175150D02*Y174150D01*
Y175150D02*X146539Y175650D01*
X147539D01*
X148039Y175150D01*
Y174150D01*
X147539Y173650D02*X148039Y174150D01*
X142350Y166650D02*X144350D01*
X144850Y166150D01*
Y165150D01*
X144350Y164650D02*X144850Y165150D01*
X142850Y164650D02*X144350D01*
X142850Y166650D02*Y162650D01*
Y164650D02*X144850Y162650D01*
X146050D02*X148050Y164650D01*
Y166150D02*Y164650D01*
X147550Y166650D02*X148050Y166150D01*
X146550Y166650D02*X147550D01*
X146050Y166150D02*X146550Y166650D01*
X146050Y166150D02*Y165150D01*
X146550Y164650D01*
X148050D01*
M02*
