G04 start of page 10 for group -4015 idx -4015 *
G04 Title: (unknown), toppaste *
G04 Creator: pcb 4.0.2 *
G04 CreationDate: Sat May 14 18:12:11 2022 UTC *
G04 For: railfan *
G04 Format: Gerber/RS-274X *
G04 PCB-Dimensions (mil): 3110.00 2710.00 *
G04 PCB-Coordinate-Origin: lower left *
%MOIN*%
%FSLAX25Y25*%
%LNTOPPASTE*%
%ADD57C,0.0600*%
%ADD56C,0.0001*%
G54D56*G36*
X88048Y59145D02*Y54027D01*
X93952D01*
Y59145D01*
X88048D01*
G37*
G36*
Y52059D02*Y46941D01*
X93952D01*
Y52059D01*
X88048D01*
G37*
G36*
X109500Y70000D02*Y64000D01*
X123500D01*
Y70000D01*
X109500D01*
G37*
G36*
X147500D02*Y64000D01*
X161500D01*
Y70000D01*
X147500D01*
G37*
G36*
X109500Y60000D02*Y54000D01*
X123500D01*
Y60000D01*
X109500D01*
G37*
G36*
X147500D02*Y54000D01*
X161500D01*
Y60000D01*
X147500D01*
G37*
G36*
X109500Y50000D02*Y44000D01*
X123500D01*
Y50000D01*
X109500D01*
G37*
G36*
X148000Y49500D02*Y44500D01*
X161000D01*
Y49500D01*
X148000D01*
G37*
G36*
X109500Y40000D02*Y34000D01*
X123500D01*
Y40000D01*
X109500D01*
G37*
G36*
X147500D02*Y34000D01*
X161500D01*
Y40000D01*
X147500D01*
G37*
G36*
X78548Y59102D02*Y53984D01*
X84452D01*
Y59102D01*
X78548D01*
G37*
G36*
Y52016D02*Y46898D01*
X84452D01*
Y52016D01*
X78548D01*
G37*
G54D57*X21600Y223000D03*
G54D56*G36*
X24600Y226000D02*X21600D01*
Y220000D01*
X24600D01*
Y226000D01*
G37*
G54D57*X28400Y223000D03*
G54D56*G36*
Y226000D02*X25400D01*
Y220000D01*
X28400D01*
Y226000D01*
G37*
G36*
X72296Y77295D02*X68516D01*
Y69421D01*
X72296D01*
Y77295D01*
G37*
G36*
X66390D02*X62610D01*
Y61705D01*
X66390D01*
Y77295D01*
G37*
G36*
X69225Y66586D02*X59775D01*
Y55246D01*
X69225D01*
Y66586D01*
G37*
G36*
X66385Y69426D02*X64965Y68006D01*
X67805Y65166D01*
X69225Y66586D01*
X66385Y69426D01*
G37*
G36*
X64035Y68006D02*X62615Y69426D01*
X59775Y66586D01*
X61195Y65166D01*
X64035Y68006D01*
G37*
G36*
X60484Y77295D02*X56704D01*
Y69421D01*
X60484D01*
Y77295D01*
G37*
G36*
X69750Y94050D02*Y90950D01*
X73750D01*
Y94050D01*
X69750D01*
G37*
G36*
X44250D02*Y90950D01*
X48250D01*
Y94050D01*
X44250D01*
G37*
G36*
X69750Y104050D02*Y100950D01*
X73750D01*
Y104050D01*
X69750D01*
G37*
G36*
X44250D02*Y100950D01*
X48250D01*
Y104050D01*
X44250D01*
G37*
G36*
X98048Y59102D02*Y53984D01*
X103952D01*
Y59102D01*
X98048D01*
G37*
G36*
Y52016D02*Y46898D01*
X103952D01*
Y52016D01*
X98048D01*
G37*
G36*
X36050Y50000D02*X32950D01*
Y44500D01*
X36050D01*
Y50000D01*
G37*
G36*
X46050D02*X42950D01*
Y44500D01*
X46050D01*
Y50000D01*
G37*
G36*
Y72500D02*X42950D01*
Y67000D01*
X46050D01*
Y72500D01*
G37*
G36*
X36050D02*X32950D01*
Y67000D01*
X36050D01*
Y72500D01*
G37*
G36*
X121516Y187452D02*X116398D01*
Y181548D01*
X121516D01*
Y187452D01*
G37*
G36*
X128602D02*X123484D01*
Y181548D01*
X128602D01*
Y187452D01*
G37*
G36*
X81186Y85059D02*Y79941D01*
X91814D01*
Y85059D01*
X81186D01*
G37*
G36*
Y73249D02*Y68131D01*
X91814D01*
Y73249D01*
X81186D01*
G37*
G36*
X168005Y52016D02*Y46898D01*
X173909D01*
Y52016D01*
X168005D01*
G37*
G36*
Y59102D02*Y53984D01*
X173909D01*
Y59102D01*
X168005D01*
G37*
G36*
X121473Y228952D02*X116355D01*
Y223048D01*
X121473D01*
Y228952D01*
G37*
G36*
X128559D02*X123441D01*
Y223048D01*
X128559D01*
Y228952D01*
G37*
G36*
X101055Y254051D02*X98693D01*
Y247949D01*
X101055D01*
Y254051D01*
G37*
G36*
X97118D02*X94756D01*
Y247949D01*
X97118D01*
Y254051D01*
G37*
G36*
X93181D02*X90819D01*
Y247949D01*
X93181D01*
Y254051D01*
G37*
G36*
X89244D02*X86882D01*
Y247949D01*
X89244D01*
Y254051D01*
G37*
G36*
X107354Y269799D02*X102630D01*
Y262713D01*
X107354D01*
Y269799D01*
G37*
G36*
X85307D02*X80583D01*
Y262713D01*
X85307D01*
Y269799D01*
G37*
G36*
X114750Y135200D02*Y130800D01*
X124350D01*
Y135200D01*
X114750D01*
G37*
G36*
X148650D02*Y130800D01*
X158250D01*
Y135200D01*
X148650D01*
G37*
G36*
X114750Y125200D02*Y120800D01*
X124350D01*
Y125200D01*
X114750D01*
G37*
G36*
X148650D02*Y120800D01*
X158250D01*
Y125200D01*
X148650D01*
G37*
G36*
X114750Y115200D02*Y110800D01*
X124350D01*
Y115200D01*
X114750D01*
G37*
G36*
X148650D02*Y110800D01*
X158250D01*
Y115200D01*
X148650D01*
G37*
G36*
X114750Y105200D02*Y100800D01*
X124350D01*
Y105200D01*
X114750D01*
G37*
G36*
X148650D02*Y100800D01*
X158250D01*
Y105200D01*
X148650D01*
G37*
G36*
X114750Y95200D02*Y90800D01*
X124350D01*
Y95200D01*
X114750D01*
G37*
G36*
X148650D02*Y90800D01*
X158250D01*
Y95200D01*
X148650D01*
G37*
G36*
X110102Y81952D02*X104984D01*
Y76048D01*
X110102D01*
Y81952D01*
G37*
G36*
X103016D02*X97898D01*
Y76048D01*
X103016D01*
Y81952D01*
G37*
G36*
X57900Y142150D02*Y137450D01*
X67750D01*
Y142150D01*
X57900D01*
G37*
G36*
Y132350D02*Y127650D01*
X67750D01*
Y132350D01*
X57900D01*
G37*
G36*
Y122550D02*Y117850D01*
X67750D01*
Y122550D01*
X57900D01*
G37*
G36*
X36250Y142150D02*Y137450D01*
X46100D01*
Y142150D01*
X36250D01*
G37*
G36*
Y132350D02*Y127650D01*
X46100D01*
Y132350D01*
X36250D01*
G37*
G36*
Y122550D02*Y117850D01*
X46100D01*
Y122550D01*
X36250D01*
G37*
G36*
X98102Y230452D02*X92984D01*
Y224548D01*
X98102D01*
Y230452D01*
G37*
G36*
X91016D02*X85898D01*
Y224548D01*
X91016D01*
Y230452D01*
G37*
G36*
X27421Y176643D02*Y171525D01*
X33325D01*
Y176643D01*
X27421D01*
G37*
G36*
Y183729D02*Y178611D01*
X33325D01*
Y183729D01*
X27421D01*
G37*
G36*
X48073Y176027D02*Y173627D01*
X52073D01*
Y176027D01*
X48073D01*
G37*
G36*
Y179927D02*Y177527D01*
X52073D01*
Y179927D01*
X48073D01*
G37*
G36*
Y183827D02*Y181427D01*
X52073D01*
Y183827D01*
X48073D01*
G37*
G36*
X39873D02*Y181427D01*
X43873D01*
Y183827D01*
X39873D01*
G37*
G36*
Y179927D02*Y177527D01*
X43873D01*
Y179927D01*
X39873D01*
G37*
G36*
Y176027D02*Y173627D01*
X43873D01*
Y176027D01*
X39873D01*
G37*
G36*
X58421Y187772D02*Y182654D01*
X64325D01*
Y187772D01*
X58421D01*
G37*
G36*
Y180686D02*Y175568D01*
X64325D01*
Y180686D01*
X58421D01*
G37*
G36*
X34637Y214163D02*X32337D01*
Y190463D01*
X34637D01*
Y214163D01*
G37*
G36*
X32337Y192763D02*Y190463D01*
X40237D01*
Y192763D01*
X32337D01*
G37*
G36*
Y214163D02*Y211863D01*
X40237D01*
Y214163D01*
X32337D01*
G37*
G36*
X56037D02*X53737D01*
Y190463D01*
X56037D01*
Y214163D01*
G37*
G36*
X48137Y192763D02*Y190463D01*
X56037D01*
Y192763D01*
X48137D01*
G37*
G36*
Y214163D02*Y211863D01*
X56037D01*
Y214163D01*
X48137D01*
G37*
G36*
X34637Y198358D02*X32515Y196236D01*
X38110Y190642D01*
X40231Y192763D01*
X34637Y198358D01*
G37*
G36*
X40231Y211863D02*X38110Y213985D01*
X32515Y208390D01*
X34637Y206269D01*
X40231Y211863D01*
G37*
G36*
X55858Y196236D02*X53737Y198358D01*
X48142Y192763D01*
X50264Y190642D01*
X55858Y196236D01*
G37*
G36*
X50264Y213985D02*X48142Y211863D01*
X53737Y206269D01*
X55858Y208390D01*
X50264Y213985D01*
G37*
G36*
X32837Y194563D02*Y190963D01*
X36437D01*
Y194563D01*
X32837D01*
G37*
G36*
Y213663D02*Y210063D01*
X36437D01*
Y213663D01*
X32837D01*
G37*
G36*
X51937Y194563D02*Y190963D01*
X55537D01*
Y194563D01*
X51937D01*
G37*
G36*
Y213663D02*Y210063D01*
X55537D01*
Y213663D01*
X51937D01*
G37*
G36*
X57964Y164314D02*X52846D01*
Y153686D01*
X57964D01*
Y164314D01*
G37*
G36*
X46154D02*X41036D01*
Y153686D01*
X46154D01*
Y164314D01*
G37*
G36*
X123500Y219000D02*Y215600D01*
X127500D01*
Y219000D01*
X123500D01*
G37*
G36*
Y211200D02*Y207800D01*
X127500D01*
Y211200D01*
X123500D01*
G37*
G36*
X131700Y215100D02*Y211700D01*
X135700D01*
Y215100D01*
X131700D01*
G37*
G36*
X123500Y202700D02*Y199300D01*
X127500D01*
Y202700D01*
X123500D01*
G37*
G36*
Y194900D02*Y191500D01*
X127500D01*
Y194900D01*
X123500D01*
G37*
G36*
X131700Y198800D02*Y195400D01*
X135700D01*
Y198800D01*
X131700D01*
G37*
G36*
X91016Y219952D02*X85898D01*
Y214048D01*
X91016D01*
Y219952D01*
G37*
G36*
X98102D02*X92984D01*
Y214048D01*
X98102D01*
Y219952D01*
G37*
G36*
X162071Y176452D02*X156953D01*
Y170548D01*
X162071D01*
Y176452D01*
G37*
G36*
X154985D02*X149867D01*
Y170548D01*
X154985D01*
Y176452D01*
G37*
G36*
X162102Y167452D02*X156984D01*
Y161548D01*
X162102D01*
Y167452D01*
G37*
G36*
X155016D02*X149898D01*
Y161548D01*
X155016D01*
Y167452D01*
G37*
G36*
X157516Y80452D02*X152398D01*
Y74548D01*
X157516D01*
Y80452D01*
G37*
G36*
X164602D02*X159484D01*
Y74548D01*
X164602D01*
Y80452D01*
G37*
M02*
