G04 start of page 12 for group -3984 idx -3984 *
G04 Title: (unknown), fab *
G04 Creator: pcb 4.0.2 *
G04 CreationDate: Sat May 14 18:12:11 2022 UTC *
G04 For: railfan *
G04 Format: Gerber/RS-274X *
G04 PCB-Dimensions (mil): 3110.00 2710.00 *
G04 PCB-Coordinate-Origin: lower left *
%MOIN*%
%FSLAX25Y25*%
%LNFAB*%
%ADD60C,0.0100*%
%ADD59C,0.0060*%
%ADD58R,0.0080X0.0080*%
G54D58*X138900Y12100D02*X142100D01*
X138900D02*Y8900D01*
X142100D01*
Y12100D02*Y8900D01*
X198900Y212100D02*X202100D01*
X198900D02*Y208900D01*
X202100D01*
Y212100D02*Y208900D01*
X8900Y217100D02*X12100D01*
X8900D02*Y213900D01*
X12100D01*
Y217100D02*Y213900D01*
X28900Y12100D02*X32100D01*
X28900D02*Y8900D01*
X32100D01*
Y12100D02*Y8900D01*
X13400Y283850D02*X16600D01*
X13400D02*Y280650D01*
X16600D01*
Y283850D02*Y280650D01*
G54D59*X135000Y284500D02*Y283750D01*
X136500Y282250D01*
X138000Y283750D01*
Y284500D02*Y283750D01*
X136500Y282250D02*Y278500D01*
X139800Y281500D02*X142050D01*
X139800Y278500D02*X142800D01*
X139800Y284500D02*Y278500D01*
Y284500D02*X142800D01*
X147600D02*X148350Y283750D01*
X145350Y284500D02*X147600D01*
X144600Y283750D02*X145350Y284500D01*
X144600Y283750D02*Y282250D01*
X145350Y281500D01*
X147600D01*
X148350Y280750D01*
Y279250D01*
X147600Y278500D02*X148350Y279250D01*
X145350Y278500D02*X147600D01*
X144600Y279250D02*X145350Y278500D01*
X98000Y281500D02*X101000Y284500D01*
X98000Y281500D02*X101750D01*
X101000Y284500D02*Y278500D01*
X45000Y279250D02*X45750Y278500D01*
X45000Y283750D02*Y279250D01*
Y283750D02*X45750Y284500D01*
X47250D01*
X48000Y283750D01*
Y279250D01*
X47250Y278500D02*X48000Y279250D01*
X45750Y278500D02*X47250D01*
X45000Y280000D02*X48000Y283000D01*
X49800Y278500D02*X50550D01*
X53100D02*X54600D01*
X53850Y284500D02*Y278500D01*
X52350Y283000D02*X53850Y284500D01*
X56400Y283750D02*X57150Y284500D01*
X59400D01*
X60150Y283750D01*
Y282250D01*
X56400Y278500D02*X60150Y282250D01*
X56400Y278500D02*X60150D01*
X61950D02*X64950Y281500D01*
Y283750D02*Y281500D01*
X64200Y284500D02*X64950Y283750D01*
X62700Y284500D02*X64200D01*
X61950Y283750D02*X62700Y284500D01*
X61950Y283750D02*Y282250D01*
X62700Y281500D01*
X64950D01*
X55700Y21500D02*G75*G03X57300Y21500I800J0D01*G01*
G75*G03X55700Y21500I-800J0D01*G01*
X75700D02*G75*G03X77300Y21500I800J0D01*G01*
G75*G03X75700Y21500I-800J0D01*G01*
X200200Y247500D02*G75*G03X201800Y247500I800J0D01*G01*
G75*G03X200200Y247500I-800J0D01*G01*
X190200D02*G75*G03X191800Y247500I800J0D01*G01*
G75*G03X190200Y247500I-800J0D01*G01*
X180200D02*G75*G03X181800Y247500I800J0D01*G01*
G75*G03X180200Y247500I-800J0D01*G01*
X170200D02*G75*G03X171800Y247500I800J0D01*G01*
G75*G03X170200Y247500I-800J0D01*G01*
X160200D02*G75*G03X161800Y247500I800J0D01*G01*
G75*G03X160200Y247500I-800J0D01*G01*
X150200D02*G75*G03X151800Y247500I800J0D01*G01*
G75*G03X150200Y247500I-800J0D01*G01*
X140200D02*G75*G03X141800Y247500I800J0D01*G01*
G75*G03X140200Y247500I-800J0D01*G01*
X130200D02*G75*G03X131800Y247500I800J0D01*G01*
G75*G03X130200Y247500I-800J0D01*G01*
X55700D02*G75*G03X57300Y247500I800J0D01*G01*
G75*G03X55700Y247500I-800J0D01*G01*
X35700D02*G75*G03X37300Y247500I800J0D01*G01*
G75*G03X35700Y247500I-800J0D01*G01*
X15700D02*G75*G03X17300Y247500I800J0D01*G01*
G75*G03X15700Y247500I-800J0D01*G01*
X14200Y297250D02*G75*G03X15800Y297250I800J0D01*G01*
G75*G03X14200Y297250I-800J0D01*G01*
X135000Y299500D02*Y298750D01*
X136500Y297250D01*
X138000Y298750D01*
Y299500D02*Y298750D01*
X136500Y297250D02*Y293500D01*
X139800Y296500D02*X142050D01*
X139800Y293500D02*X142800D01*
X139800Y299500D02*Y293500D01*
Y299500D02*X142800D01*
X147600D02*X148350Y298750D01*
X145350Y299500D02*X147600D01*
X144600Y298750D02*X145350Y299500D01*
X144600Y298750D02*Y297250D01*
X145350Y296500D01*
X147600D01*
X148350Y295750D01*
Y294250D01*
X147600Y293500D02*X148350Y294250D01*
X145350Y293500D02*X147600D01*
X144600Y294250D02*X145350Y293500D01*
X98750D02*X100250D01*
X99500Y299500D02*Y293500D01*
X98000Y298000D02*X99500Y299500D01*
X102050Y298750D02*X102800Y299500D01*
X104300D01*
X105050Y298750D01*
Y294250D01*
X104300Y293500D02*X105050Y294250D01*
X102800Y293500D02*X104300D01*
X102050Y294250D02*X102800Y293500D01*
Y296500D02*X105050D01*
X45000Y294250D02*X45750Y293500D01*
X45000Y298750D02*Y294250D01*
Y298750D02*X45750Y299500D01*
X47250D01*
X48000Y298750D01*
Y294250D01*
X47250Y293500D02*X48000Y294250D01*
X45750Y293500D02*X47250D01*
X45000Y295000D02*X48000Y298000D01*
X49800Y293500D02*X50550D01*
X52350Y294250D02*X53100Y293500D01*
X52350Y298750D02*Y294250D01*
Y298750D02*X53100Y299500D01*
X54600D01*
X55350Y298750D01*
Y294250D01*
X54600Y293500D02*X55350Y294250D01*
X53100Y293500D02*X54600D01*
X52350Y295000D02*X55350Y298000D01*
X57150Y296500D02*X60150Y299500D01*
X57150Y296500D02*X60900D01*
X60150Y299500D02*Y293500D01*
X62700Y294250D02*X63450Y293500D01*
X62700Y295750D02*Y294250D01*
Y295750D02*X63450Y296500D01*
X64950D01*
X65700Y295750D01*
Y294250D01*
X64950Y293500D02*X65700Y294250D01*
X63450Y293500D02*X64950D01*
X62700Y297250D02*X63450Y296500D01*
X62700Y298750D02*Y297250D01*
Y298750D02*X63450Y299500D01*
X64950D01*
X65700Y298750D01*
Y297250D01*
X64950Y296500D02*X65700Y297250D01*
X70173Y203827D02*X72573Y201427D01*
X70173D02*X72573Y203827D01*
X70173Y193827D02*X72573Y191427D01*
X70173D02*X72573Y193827D01*
X70173Y183827D02*X72573Y181427D01*
X70173D02*X72573Y183827D01*
X13800Y313450D02*X16200Y311050D01*
X13800D02*X16200Y313450D01*
X135000Y314500D02*Y313750D01*
X136500Y312250D01*
X138000Y313750D01*
Y314500D02*Y313750D01*
X136500Y312250D02*Y308500D01*
X139800Y311500D02*X142050D01*
X139800Y308500D02*X142800D01*
X139800Y314500D02*Y308500D01*
Y314500D02*X142800D01*
X147600D02*X148350Y313750D01*
X145350Y314500D02*X147600D01*
X144600Y313750D02*X145350Y314500D01*
X144600Y313750D02*Y312250D01*
X145350Y311500D01*
X147600D01*
X148350Y310750D01*
Y309250D01*
X147600Y308500D02*X148350Y309250D01*
X145350Y308500D02*X147600D01*
X144600Y309250D02*X145350Y308500D01*
X98000Y313750D02*X98750Y314500D01*
X100250D01*
X101000Y313750D01*
Y309250D01*
X100250Y308500D02*X101000Y309250D01*
X98750Y308500D02*X100250D01*
X98000Y309250D02*X98750Y308500D01*
Y311500D02*X101000D01*
X45000Y309250D02*X45750Y308500D01*
X45000Y313750D02*Y309250D01*
Y313750D02*X45750Y314500D01*
X47250D01*
X48000Y313750D01*
Y309250D01*
X47250Y308500D02*X48000Y309250D01*
X45750Y308500D02*X47250D01*
X45000Y310000D02*X48000Y313000D01*
X49800Y308500D02*X50550D01*
X52350Y309250D02*X53100Y308500D01*
X52350Y313750D02*Y309250D01*
Y313750D02*X53100Y314500D01*
X54600D01*
X55350Y313750D01*
Y309250D01*
X54600Y308500D02*X55350Y309250D01*
X53100Y308500D02*X54600D01*
X52350Y310000D02*X55350Y313000D01*
X57150Y311500D02*X60150Y314500D01*
X57150Y311500D02*X60900D01*
X60150Y314500D02*Y308500D01*
X62700Y314500D02*X65700D01*
X62700D02*Y311500D01*
X63450Y312250D01*
X64950D01*
X65700Y311500D01*
Y309250D01*
X64950Y308500D02*X65700Y309250D01*
X63450Y308500D02*X64950D01*
X62700Y309250D02*X63450Y308500D01*
X10500Y162100D02*Y158900D01*
X8900Y160500D02*X12100D01*
X10500Y152100D02*Y148900D01*
X8900Y150500D02*X12100D01*
X10500Y142100D02*Y138900D01*
X8900Y140500D02*X12100D01*
X10500Y132100D02*Y128900D01*
X8900Y130500D02*X12100D01*
X10500Y122100D02*Y118900D01*
X8900Y120500D02*X12100D01*
X10500Y112100D02*Y108900D01*
X8900Y110500D02*X12100D01*
X10500Y102100D02*Y98900D01*
X8900Y100500D02*X12100D01*
X10500Y92100D02*Y88900D01*
X8900Y90500D02*X12100D01*
X10500Y72100D02*Y68900D01*
X8900Y70500D02*X12100D01*
X10500Y62100D02*Y58900D01*
X8900Y60500D02*X12100D01*
X10500Y52100D02*Y48900D01*
X8900Y50500D02*X12100D01*
X10500Y42100D02*Y38900D01*
X8900Y40500D02*X12100D01*
X10500Y32100D02*Y28900D01*
X8900Y30500D02*X12100D01*
X10500Y22100D02*Y18900D01*
X8900Y20500D02*X12100D01*
X200500Y22100D02*Y18900D01*
X198900Y20500D02*X202100D01*
X200500Y32100D02*Y28900D01*
X198900Y30500D02*X202100D01*
X200500Y42100D02*Y38900D01*
X198900Y40500D02*X202100D01*
X200500Y52100D02*Y48900D01*
X198900Y50500D02*X202100D01*
X200500Y62100D02*Y58900D01*
X198900Y60500D02*X202100D01*
X200500Y72100D02*Y68900D01*
X198900Y70500D02*X202100D01*
X200500Y82100D02*Y78900D01*
X198900Y80500D02*X202100D01*
X200500Y92100D02*Y88900D01*
X198900Y90500D02*X202100D01*
X200500Y108100D02*Y104900D01*
X198900Y106500D02*X202100D01*
X200500Y118100D02*Y114900D01*
X198900Y116500D02*X202100D01*
X200500Y128100D02*Y124900D01*
X198900Y126500D02*X202100D01*
X200500Y138100D02*Y134900D01*
X198900Y136500D02*X202100D01*
X200500Y148100D02*Y144900D01*
X198900Y146500D02*X202100D01*
X200500Y158100D02*Y154900D01*
X198900Y156500D02*X202100D01*
X200500Y168100D02*Y164900D01*
X198900Y166500D02*X202100D01*
X200500Y178100D02*Y174900D01*
X198900Y176500D02*X202100D01*
X200500Y188100D02*Y184900D01*
X198900Y186500D02*X202100D01*
X200500Y198100D02*Y194900D01*
X198900Y196500D02*X202100D01*
X120300Y21600D02*Y18400D01*
X118700Y20000D02*X121900D01*
X110300Y21600D02*Y18400D01*
X108700Y20000D02*X111900D01*
X100300Y21600D02*Y18400D01*
X98700Y20000D02*X101900D01*
X120300Y11600D02*Y8400D01*
X118700Y10000D02*X121900D01*
X110300Y11600D02*Y8400D01*
X108700Y10000D02*X111900D01*
X100300Y11600D02*Y8400D01*
X98700Y10000D02*X101900D01*
X160500Y217100D02*Y213900D01*
X158900Y215500D02*X162100D01*
X160500Y207100D02*Y203900D01*
X158900Y205500D02*X162100D01*
X160500Y197100D02*Y193900D01*
X158900Y195500D02*X162100D01*
X160500Y187100D02*Y183900D01*
X158900Y185500D02*X162100D01*
X15000Y328850D02*Y325650D01*
X13400Y327250D02*X16600D01*
X135000Y329500D02*Y328750D01*
X136500Y327250D01*
X138000Y328750D01*
Y329500D02*Y328750D01*
X136500Y327250D02*Y323500D01*
X139800Y326500D02*X142050D01*
X139800Y323500D02*X142800D01*
X139800Y329500D02*Y323500D01*
Y329500D02*X142800D01*
X147600D02*X148350Y328750D01*
X145350Y329500D02*X147600D01*
X144600Y328750D02*X145350Y329500D01*
X144600Y328750D02*Y327250D01*
X145350Y326500D01*
X147600D01*
X148350Y325750D01*
Y324250D01*
X147600Y323500D02*X148350Y324250D01*
X145350Y323500D02*X147600D01*
X144600Y324250D02*X145350Y323500D01*
X98000Y326500D02*X101000Y329500D01*
X98000Y326500D02*X101750D01*
X101000Y329500D02*Y323500D01*
X103550Y328750D02*X104300Y329500D01*
X106550D01*
X107300Y328750D01*
Y327250D01*
X103550Y323500D02*X107300Y327250D01*
X103550Y323500D02*X107300D01*
X45000Y324250D02*X45750Y323500D01*
X45000Y328750D02*Y324250D01*
Y328750D02*X45750Y329500D01*
X47250D01*
X48000Y328750D01*
Y324250D01*
X47250Y323500D02*X48000Y324250D01*
X45750Y323500D02*X47250D01*
X45000Y325000D02*X48000Y328000D01*
X49800Y323500D02*X50550D01*
X52350Y324250D02*X53100Y323500D01*
X52350Y328750D02*Y324250D01*
Y328750D02*X53100Y329500D01*
X54600D01*
X55350Y328750D01*
Y324250D01*
X54600Y323500D02*X55350Y324250D01*
X53100Y323500D02*X54600D01*
X52350Y325000D02*X55350Y328000D01*
X57150Y328750D02*X57900Y329500D01*
X59400D01*
X60150Y328750D01*
Y324250D01*
X59400Y323500D02*X60150Y324250D01*
X57900Y323500D02*X59400D01*
X57150Y324250D02*X57900Y323500D01*
Y326500D02*X60150D01*
X61950Y324250D02*X62700Y323500D01*
X61950Y325750D02*Y324250D01*
Y325750D02*X62700Y326500D01*
X64200D01*
X64950Y325750D01*
Y324250D01*
X64200Y323500D02*X64950Y324250D01*
X62700Y323500D02*X64200D01*
X61950Y327250D02*X62700Y326500D01*
X61950Y328750D02*Y327250D01*
Y328750D02*X62700Y329500D01*
X64200D01*
X64950Y328750D01*
Y327250D01*
X64200Y326500D02*X64950Y327250D01*
X38000Y145500D02*Y143900D01*
Y145500D02*X39387Y146300D01*
X38000Y145500D02*X36613Y146300D01*
X43500Y145500D02*Y143900D01*
Y145500D02*X44887Y146300D01*
X43500Y145500D02*X42113Y146300D01*
X65500Y102500D02*Y100900D01*
Y102500D02*X66887Y103300D01*
X65500Y102500D02*X64113Y103300D01*
X142000Y37000D02*Y35400D01*
Y37000D02*X143387Y37800D01*
X142000Y37000D02*X140613Y37800D01*
X136500Y37000D02*Y35400D01*
Y37000D02*X137887Y37800D01*
X136500Y37000D02*X135113Y37800D01*
X41873Y187527D02*Y185927D01*
Y187527D02*X43260Y188327D01*
X41873Y187527D02*X40486Y188327D01*
X61373Y172627D02*Y171027D01*
Y172627D02*X62760Y173427D01*
X61373Y172627D02*X59986Y173427D01*
X104000Y251000D02*Y249400D01*
Y251000D02*X105387Y251800D01*
X104000Y251000D02*X102613Y251800D01*
X109000Y251000D02*Y249400D01*
Y251000D02*X110387Y251800D01*
X109000Y251000D02*X107613Y251800D01*
X108000Y242500D02*Y240900D01*
Y242500D02*X109387Y243300D01*
X108000Y242500D02*X106613Y243300D01*
X98500Y242500D02*Y240900D01*
Y242500D02*X99887Y243300D01*
X98500Y242500D02*X97113Y243300D01*
X100500Y222500D02*Y220900D01*
Y222500D02*X101887Y223300D01*
X100500Y222500D02*X99113Y223300D01*
X145000Y86000D02*Y84400D01*
Y86000D02*X146387Y86800D01*
X145000Y86000D02*X143613Y86800D01*
X171000Y223000D02*Y221400D01*
Y223000D02*X172387Y223800D01*
X171000Y223000D02*X169613Y223800D01*
X168000Y77500D02*Y75900D01*
Y77500D02*X169387Y78300D01*
X168000Y77500D02*X166613Y78300D01*
X145000Y145500D02*Y143900D01*
Y145500D02*X146387Y146300D01*
X145000Y145500D02*X143613Y146300D01*
X61287Y202500D02*Y200900D01*
Y202500D02*X62674Y203300D01*
X61287Y202500D02*X59900Y203300D01*
X15000Y342250D02*Y340650D01*
Y342250D02*X16387Y343050D01*
X15000Y342250D02*X13613Y343050D01*
X135000Y344500D02*Y343750D01*
X136500Y342250D01*
X138000Y343750D01*
Y344500D02*Y343750D01*
X136500Y342250D02*Y338500D01*
X139800Y341500D02*X142050D01*
X139800Y338500D02*X142800D01*
X139800Y344500D02*Y338500D01*
Y344500D02*X142800D01*
X147600D02*X148350Y343750D01*
X145350Y344500D02*X147600D01*
X144600Y343750D02*X145350Y344500D01*
X144600Y343750D02*Y342250D01*
X145350Y341500D01*
X147600D01*
X148350Y340750D01*
Y339250D01*
X147600Y338500D02*X148350Y339250D01*
X145350Y338500D02*X147600D01*
X144600Y339250D02*X145350Y338500D01*
X98750D02*X100250D01*
X99500Y344500D02*Y338500D01*
X98000Y343000D02*X99500Y344500D01*
X102050Y338500D02*X105800Y342250D01*
Y344500D02*Y342250D01*
X102050Y344500D02*X105800D01*
X45000Y339250D02*X45750Y338500D01*
X45000Y343750D02*Y339250D01*
Y343750D02*X45750Y344500D01*
X47250D01*
X48000Y343750D01*
Y339250D01*
X47250Y338500D02*X48000Y339250D01*
X45750Y338500D02*X47250D01*
X45000Y340000D02*X48000Y343000D01*
X49800Y338500D02*X50550D01*
X52350Y339250D02*X53100Y338500D01*
X52350Y343750D02*Y339250D01*
Y343750D02*X53100Y344500D01*
X54600D01*
X55350Y343750D01*
Y339250D01*
X54600Y338500D02*X55350Y339250D01*
X53100Y338500D02*X54600D01*
X52350Y340000D02*X55350Y343000D01*
X57150Y343750D02*X57900Y344500D01*
X60150D01*
X60900Y343750D01*
Y342250D01*
X57150Y338500D02*X60900Y342250D01*
X57150Y338500D02*X60900D01*
X62700Y339250D02*X63450Y338500D01*
X62700Y343750D02*Y339250D01*
Y343750D02*X63450Y344500D01*
X64950D01*
X65700Y343750D01*
Y339250D01*
X64950Y338500D02*X65700Y339250D01*
X63450Y338500D02*X64950D01*
X62700Y340000D02*X65700Y343000D01*
X3000Y359500D02*X3750Y358750D01*
X750Y359500D02*X3000D01*
X0Y358750D02*X750Y359500D01*
X0Y358750D02*Y357250D01*
X750Y356500D01*
X3000D01*
X3750Y355750D01*
Y354250D01*
X3000Y353500D02*X3750Y354250D01*
X750Y353500D02*X3000D01*
X0Y354250D02*X750Y353500D01*
X5550Y356500D02*Y354250D01*
X6300Y353500D01*
X8550Y356500D02*Y352000D01*
X7800Y351250D02*X8550Y352000D01*
X6300Y351250D02*X7800D01*
X5550Y352000D02*X6300Y351250D01*
Y353500D02*X7800D01*
X8550Y354250D01*
X11100Y355750D02*Y353500D01*
Y355750D02*X11850Y356500D01*
X12600D01*
X13350Y355750D01*
Y353500D01*
Y355750D02*X14100Y356500D01*
X14850D01*
X15600Y355750D01*
Y353500D01*
X10350Y356500D02*X11100Y355750D01*
X17400Y359500D02*Y353500D01*
Y354250D02*X18150Y353500D01*
X19650D01*
X20400Y354250D01*
Y355750D02*Y354250D01*
X19650Y356500D02*X20400Y355750D01*
X18150Y356500D02*X19650D01*
X17400Y355750D02*X18150Y356500D01*
X22200Y355750D02*Y354250D01*
Y355750D02*X22950Y356500D01*
X24450D01*
X25200Y355750D01*
Y354250D01*
X24450Y353500D02*X25200Y354250D01*
X22950Y353500D02*X24450D01*
X22200Y354250D02*X22950Y353500D01*
X27000Y359500D02*Y354250D01*
X27750Y353500D01*
X0Y350250D02*X29250D01*
X41750Y359500D02*Y353500D01*
X44000Y359500D02*X44750Y358750D01*
Y354250D01*
X44000Y353500D02*X44750Y354250D01*
X41000Y353500D02*X44000D01*
X41000Y359500D02*X44000D01*
X46550Y358000D02*Y357250D01*
Y355750D02*Y353500D01*
X50300Y356500D02*X51050Y355750D01*
X48800Y356500D02*X50300D01*
X48050Y355750D02*X48800Y356500D01*
X48050Y355750D02*Y354250D01*
X48800Y353500D01*
X51050Y356500D02*Y354250D01*
X51800Y353500D01*
X48800D02*X50300D01*
X51050Y354250D01*
X54350Y355750D02*Y353500D01*
Y355750D02*X55100Y356500D01*
X55850D01*
X56600Y355750D01*
Y353500D01*
Y355750D02*X57350Y356500D01*
X58100D01*
X58850Y355750D01*
Y353500D01*
X53600Y356500D02*X54350Y355750D01*
X60650Y353500D02*X61400D01*
X65900Y354250D02*X66650Y353500D01*
X65900Y358750D02*X66650Y359500D01*
X65900Y358750D02*Y354250D01*
X68450Y359500D02*X69950D01*
X69200D02*Y353500D01*
X68450D02*X69950D01*
X72500Y355750D02*Y353500D01*
Y355750D02*X73250Y356500D01*
X74000D01*
X74750Y355750D01*
Y353500D01*
X71750Y356500D02*X72500Y355750D01*
X77300Y356500D02*X79550D01*
X76550Y355750D02*X77300Y356500D01*
X76550Y355750D02*Y354250D01*
X77300Y353500D01*
X79550D01*
X81350Y359500D02*Y353500D01*
Y355750D02*X82100Y356500D01*
X83600D01*
X84350Y355750D01*
Y353500D01*
X86150Y359500D02*X86900Y358750D01*
Y354250D01*
X86150Y353500D02*X86900Y354250D01*
X41000Y350250D02*X88700D01*
X95750Y353500D02*X98000D01*
X95000Y354250D02*X95750Y353500D01*
X95000Y358750D02*Y354250D01*
Y358750D02*X95750Y359500D01*
X98000D01*
X99800Y355750D02*Y354250D01*
Y355750D02*X100550Y356500D01*
X102050D01*
X102800Y355750D01*
Y354250D01*
X102050Y353500D02*X102800Y354250D01*
X100550Y353500D02*X102050D01*
X99800Y354250D02*X100550Y353500D01*
X104600Y356500D02*Y354250D01*
X105350Y353500D01*
X106850D01*
X107600Y354250D01*
Y356500D02*Y354250D01*
X110150Y355750D02*Y353500D01*
Y355750D02*X110900Y356500D01*
X111650D01*
X112400Y355750D01*
Y353500D01*
X109400Y356500D02*X110150Y355750D01*
X114950Y359500D02*Y354250D01*
X115700Y353500D01*
X114200Y357250D02*X115700D01*
X95000Y350250D02*X117200D01*
X130750Y359500D02*Y353500D01*
X130000Y359500D02*X133000D01*
X133750Y358750D01*
Y357250D01*
X133000Y356500D02*X133750Y357250D01*
X130750Y356500D02*X133000D01*
X135550Y359500D02*Y354250D01*
X136300Y353500D01*
X140050Y356500D02*X140800Y355750D01*
X138550Y356500D02*X140050D01*
X137800Y355750D02*X138550Y356500D01*
X137800Y355750D02*Y354250D01*
X138550Y353500D01*
X140800Y356500D02*Y354250D01*
X141550Y353500D01*
X138550D02*X140050D01*
X140800Y354250D01*
X144100Y359500D02*Y354250D01*
X144850Y353500D01*
X143350Y357250D02*X144850D01*
X147100Y353500D02*X149350D01*
X146350Y354250D02*X147100Y353500D01*
X146350Y355750D02*Y354250D01*
Y355750D02*X147100Y356500D01*
X148600D01*
X149350Y355750D01*
X146350Y355000D02*X149350D01*
Y355750D02*Y355000D01*
X154150Y359500D02*Y353500D01*
X153400D02*X154150Y354250D01*
X151900Y353500D02*X153400D01*
X151150Y354250D02*X151900Y353500D01*
X151150Y355750D02*Y354250D01*
Y355750D02*X151900Y356500D01*
X153400D01*
X154150Y355750D01*
X157450Y356500D02*Y355750D01*
Y354250D02*Y353500D01*
X155950Y358750D02*Y358000D01*
Y358750D02*X156700Y359500D01*
X158200D01*
X158950Y358750D01*
Y358000D01*
X157450Y356500D02*X158950Y358000D01*
X130000Y350250D02*X160750D01*
X0Y374500D02*X3000D01*
X1500D02*Y368500D01*
X4800Y374500D02*Y368500D01*
Y370750D02*X5550Y371500D01*
X7050D01*
X7800Y370750D01*
Y368500D01*
X10350D02*X12600D01*
X9600Y369250D02*X10350Y368500D01*
X9600Y370750D02*Y369250D01*
Y370750D02*X10350Y371500D01*
X11850D01*
X12600Y370750D01*
X9600Y370000D02*X12600D01*
Y370750D02*Y370000D01*
X15150Y370750D02*Y368500D01*
Y370750D02*X15900Y371500D01*
X17400D01*
X14400D02*X15150Y370750D01*
X19950Y368500D02*X22200D01*
X19200Y369250D02*X19950Y368500D01*
X19200Y370750D02*Y369250D01*
Y370750D02*X19950Y371500D01*
X21450D01*
X22200Y370750D01*
X19200Y370000D02*X22200D01*
Y370750D02*Y370000D01*
X28950Y371500D02*X29700Y370750D01*
X27450Y371500D02*X28950D01*
X26700Y370750D02*X27450Y371500D01*
X26700Y370750D02*Y369250D01*
X27450Y368500D01*
X29700Y371500D02*Y369250D01*
X30450Y368500D01*
X27450D02*X28950D01*
X29700Y369250D01*
X33000Y370750D02*Y368500D01*
Y370750D02*X33750Y371500D01*
X35250D01*
X32250D02*X33000Y370750D01*
X37800Y368500D02*X40050D01*
X37050Y369250D02*X37800Y368500D01*
X37050Y370750D02*Y369250D01*
Y370750D02*X37800Y371500D01*
X39300D01*
X40050Y370750D01*
X37050Y370000D02*X40050D01*
Y370750D02*Y370000D01*
X44550Y374500D02*X47550D01*
X44550D02*Y371500D01*
X45300Y372250D01*
X46800D01*
X47550Y371500D01*
Y369250D01*
X46800Y368500D02*X47550Y369250D01*
X45300Y368500D02*X46800D01*
X44550Y369250D02*X45300Y368500D01*
X55050Y374500D02*Y368500D01*
X54300D02*X55050Y369250D01*
X52800Y368500D02*X54300D01*
X52050Y369250D02*X52800Y368500D01*
X52050Y370750D02*Y369250D01*
Y370750D02*X52800Y371500D01*
X54300D01*
X55050Y370750D01*
X56850Y373000D02*Y372250D01*
Y370750D02*Y368500D01*
X59100Y373750D02*Y368500D01*
Y373750D02*X59850Y374500D01*
X60600D01*
X58350Y371500D02*X59850D01*
X62850Y373750D02*Y368500D01*
Y373750D02*X63600Y374500D01*
X64350D01*
X62100Y371500D02*X63600D01*
X66600Y368500D02*X68850D01*
X65850Y369250D02*X66600Y368500D01*
X65850Y370750D02*Y369250D01*
Y370750D02*X66600Y371500D01*
X68100D01*
X68850Y370750D01*
X65850Y370000D02*X68850D01*
Y370750D02*Y370000D01*
X71400Y370750D02*Y368500D01*
Y370750D02*X72150Y371500D01*
X73650D01*
X70650D02*X71400Y370750D01*
X76200Y368500D02*X78450D01*
X75450Y369250D02*X76200Y368500D01*
X75450Y370750D02*Y369250D01*
Y370750D02*X76200Y371500D01*
X77700D01*
X78450Y370750D01*
X75450Y370000D02*X78450D01*
Y370750D02*Y370000D01*
X81000Y370750D02*Y368500D01*
Y370750D02*X81750Y371500D01*
X82500D01*
X83250Y370750D01*
Y368500D01*
X80250Y371500D02*X81000Y370750D01*
X85800Y374500D02*Y369250D01*
X86550Y368500D01*
X85050Y372250D02*X86550D01*
X93750Y374500D02*Y368500D01*
X93000D02*X93750Y369250D01*
X91500Y368500D02*X93000D01*
X90750Y369250D02*X91500Y368500D01*
X90750Y370750D02*Y369250D01*
Y370750D02*X91500Y371500D01*
X93000D01*
X93750Y370750D01*
X96300D02*Y368500D01*
Y370750D02*X97050Y371500D01*
X98550D01*
X95550D02*X96300Y370750D01*
X100350Y373000D02*Y372250D01*
Y370750D02*Y368500D01*
X101850Y374500D02*Y369250D01*
X102600Y368500D01*
X104100Y374500D02*Y369250D01*
X104850Y368500D01*
X109800D02*X112050D01*
X112800Y369250D01*
X112050Y370000D02*X112800Y369250D01*
X109800Y370000D02*X112050D01*
X109050Y370750D02*X109800Y370000D01*
X109050Y370750D02*X109800Y371500D01*
X112050D01*
X112800Y370750D01*
X109050Y369250D02*X109800Y368500D01*
X114600Y373000D02*Y372250D01*
Y370750D02*Y368500D01*
X116100Y371500D02*X119100D01*
X116100Y368500D02*X119100Y371500D01*
X116100Y368500D02*X119100D01*
X121650D02*X123900D01*
X120900Y369250D02*X121650Y368500D01*
X120900Y370750D02*Y369250D01*
Y370750D02*X121650Y371500D01*
X123150D01*
X123900Y370750D01*
X120900Y370000D02*X123900D01*
Y370750D02*Y370000D01*
X126450Y368500D02*X128700D01*
X129450Y369250D01*
X128700Y370000D02*X129450Y369250D01*
X126450Y370000D02*X128700D01*
X125700Y370750D02*X126450Y370000D01*
X125700Y370750D02*X126450Y371500D01*
X128700D01*
X129450Y370750D01*
X125700Y369250D02*X126450Y368500D01*
X133950Y371500D02*Y369250D01*
X134700Y368500D01*
X136200D01*
X136950Y369250D01*
Y371500D02*Y369250D01*
X139500Y368500D02*X141750D01*
X142500Y369250D01*
X141750Y370000D02*X142500Y369250D01*
X139500Y370000D02*X141750D01*
X138750Y370750D02*X139500Y370000D01*
X138750Y370750D02*X139500Y371500D01*
X141750D01*
X142500Y370750D01*
X138750Y369250D02*X139500Y368500D01*
X145050D02*X147300D01*
X144300Y369250D02*X145050Y368500D01*
X144300Y370750D02*Y369250D01*
Y370750D02*X145050Y371500D01*
X146550D01*
X147300Y370750D01*
X144300Y370000D02*X147300D01*
Y370750D02*Y370000D01*
X152100Y374500D02*Y368500D01*
X151350D02*X152100Y369250D01*
X149850Y368500D02*X151350D01*
X149100Y369250D02*X149850Y368500D01*
X149100Y370750D02*Y369250D01*
Y370750D02*X149850Y371500D01*
X151350D01*
X152100Y370750D01*
X156600Y373000D02*Y372250D01*
Y370750D02*Y368500D01*
X158850Y370750D02*Y368500D01*
Y370750D02*X159600Y371500D01*
X160350D01*
X161100Y370750D01*
Y368500D01*
X158100Y371500D02*X158850Y370750D01*
X166350Y374500D02*Y369250D01*
X167100Y368500D01*
X165600Y372250D02*X167100D01*
X168600Y374500D02*Y368500D01*
Y370750D02*X169350Y371500D01*
X170850D01*
X171600Y370750D01*
Y368500D01*
X173400Y373000D02*Y372250D01*
Y370750D02*Y368500D01*
X175650D02*X177900D01*
X178650Y369250D01*
X177900Y370000D02*X178650Y369250D01*
X175650Y370000D02*X177900D01*
X174900Y370750D02*X175650Y370000D01*
X174900Y370750D02*X175650Y371500D01*
X177900D01*
X178650Y370750D01*
X174900Y369250D02*X175650Y368500D01*
X183150Y374500D02*Y369250D01*
X183900Y368500D01*
X187650Y371500D02*X188400Y370750D01*
X186150Y371500D02*X187650D01*
X185400Y370750D02*X186150Y371500D01*
X185400Y370750D02*Y369250D01*
X186150Y368500D01*
X188400Y371500D02*Y369250D01*
X189150Y368500D01*
X186150D02*X187650D01*
X188400Y369250D01*
X190950Y371500D02*Y369250D01*
X191700Y368500D01*
X193950Y371500D02*Y367000D01*
X193200Y366250D02*X193950Y367000D01*
X191700Y366250D02*X193200D01*
X190950Y367000D02*X191700Y366250D01*
Y368500D02*X193200D01*
X193950Y369250D01*
X195750Y370750D02*Y369250D01*
Y370750D02*X196500Y371500D01*
X198000D01*
X198750Y370750D01*
Y369250D01*
X198000Y368500D02*X198750Y369250D01*
X196500Y368500D02*X198000D01*
X195750Y369250D02*X196500Y368500D01*
X200550Y371500D02*Y369250D01*
X201300Y368500D01*
X202800D01*
X203550Y369250D01*
Y371500D02*Y369250D01*
X206100Y374500D02*Y369250D01*
X206850Y368500D01*
X205350Y372250D02*X206850D01*
X208350Y367000D02*X209850Y368500D01*
X214350D02*X218100Y372250D01*
Y374500D02*Y372250D01*
X214350Y374500D02*X218100D01*
X219900Y368500D02*X222900Y371500D01*
Y373750D02*Y371500D01*
X222150Y374500D02*X222900Y373750D01*
X220650Y374500D02*X222150D01*
X219900Y373750D02*X220650Y374500D01*
X219900Y373750D02*Y372250D01*
X220650Y371500D01*
X222900D01*
X227400Y374500D02*Y368500D01*
Y370750D02*X228150Y371500D01*
X229650D01*
X230400Y370750D01*
Y368500D01*
X232200Y370750D02*Y369250D01*
Y370750D02*X232950Y371500D01*
X234450D01*
X235200Y370750D01*
Y369250D01*
X234450Y368500D02*X235200Y369250D01*
X232950Y368500D02*X234450D01*
X232200Y369250D02*X232950Y368500D01*
X237000Y374500D02*Y369250D01*
X237750Y368500D01*
X240000D02*X242250D01*
X239250Y369250D02*X240000Y368500D01*
X239250Y370750D02*Y369250D01*
Y370750D02*X240000Y371500D01*
X241500D01*
X242250Y370750D01*
X239250Y370000D02*X242250D01*
Y370750D02*Y370000D01*
X244800Y368500D02*X247050D01*
X247800Y369250D01*
X247050Y370000D02*X247800Y369250D01*
X244800Y370000D02*X247050D01*
X244050Y370750D02*X244800Y370000D01*
X244050Y370750D02*X244800Y371500D01*
X247050D01*
X247800Y370750D01*
X244050Y369250D02*X244800Y368500D01*
X253050Y374500D02*Y369250D01*
X253800Y368500D01*
X252300Y372250D02*X253800D01*
X255300Y370750D02*Y369250D01*
Y370750D02*X256050Y371500D01*
X257550D01*
X258300Y370750D01*
Y369250D01*
X257550Y368500D02*X258300Y369250D01*
X256050Y368500D02*X257550D01*
X255300Y369250D02*X256050Y368500D01*
X260850Y374500D02*Y369250D01*
X261600Y368500D01*
X260100Y372250D02*X261600D01*
X265350Y371500D02*X266100Y370750D01*
X263850Y371500D02*X265350D01*
X263100Y370750D02*X263850Y371500D01*
X263100Y370750D02*Y369250D01*
X263850Y368500D01*
X266100Y371500D02*Y369250D01*
X266850Y368500D01*
X263850D02*X265350D01*
X266100Y369250D01*
X268650Y374500D02*Y369250D01*
X269400Y368500D01*
G54D60*X500Y270500D02*Y10500D01*
X210500D02*Y270500D01*
X500D01*
Y10500D02*X10800D01*
X20800Y500D01*
X150200D01*
X160200Y10500D01*
X210500D01*
G54D59*X69175Y-9500D02*X72175D01*
X72925Y-8750D01*
Y-7250D02*Y-8750D01*
X72175Y-6500D02*X72925Y-7250D01*
X69925Y-6500D02*X72175D01*
X69925Y-3500D02*Y-9500D01*
X69175Y-3500D02*X72175D01*
X72925Y-4250D01*
Y-5750D01*
X72175Y-6500D02*X72925Y-5750D01*
X74725Y-7250D02*Y-8750D01*
Y-7250D02*X75475Y-6500D01*
X76975D01*
X77725Y-7250D01*
Y-8750D01*
X76975Y-9500D02*X77725Y-8750D01*
X75475Y-9500D02*X76975D01*
X74725Y-8750D02*X75475Y-9500D01*
X81775Y-6500D02*X82525Y-7250D01*
X80275Y-6500D02*X81775D01*
X79525Y-7250D02*X80275Y-6500D01*
X79525Y-7250D02*Y-8750D01*
X80275Y-9500D01*
X82525Y-6500D02*Y-8750D01*
X83275Y-9500D01*
X80275D02*X81775D01*
X82525Y-8750D01*
X85825Y-7250D02*Y-9500D01*
Y-7250D02*X86575Y-6500D01*
X88075D01*
X85075D02*X85825Y-7250D01*
X92875Y-3500D02*Y-9500D01*
X92125D02*X92875Y-8750D01*
X90625Y-9500D02*X92125D01*
X89875Y-8750D02*X90625Y-9500D01*
X89875Y-7250D02*Y-8750D01*
Y-7250D02*X90625Y-6500D01*
X92125D01*
X92875Y-7250D01*
X97375D02*Y-8750D01*
Y-7250D02*X98125Y-6500D01*
X99625D01*
X100375Y-7250D01*
Y-8750D01*
X99625Y-9500D02*X100375Y-8750D01*
X98125Y-9500D02*X99625D01*
X97375Y-8750D02*X98125Y-9500D01*
X102175Y-6500D02*Y-8750D01*
X102925Y-9500D01*
X104425D01*
X105175Y-8750D01*
Y-6500D02*Y-8750D01*
X107725Y-3500D02*Y-8750D01*
X108475Y-9500D01*
X106975Y-5750D02*X108475D01*
X109975Y-3500D02*Y-8750D01*
X110725Y-9500D01*
X112225Y-5000D02*Y-5750D01*
Y-7250D02*Y-9500D01*
X114475Y-7250D02*Y-9500D01*
Y-7250D02*X115225Y-6500D01*
X115975D01*
X116725Y-7250D01*
Y-9500D01*
X113725Y-6500D02*X114475Y-7250D01*
X119275Y-9500D02*X121525D01*
X118525Y-8750D02*X119275Y-9500D01*
X118525Y-7250D02*Y-8750D01*
Y-7250D02*X119275Y-6500D01*
X120775D01*
X121525Y-7250D01*
X118525Y-8000D02*X121525D01*
Y-7250D02*Y-8000D01*
X126025Y-5000D02*Y-5750D01*
Y-7250D02*Y-9500D01*
X128275D02*X130525D01*
X131275Y-8750D01*
X130525Y-8000D02*X131275Y-8750D01*
X128275Y-8000D02*X130525D01*
X127525Y-7250D02*X128275Y-8000D01*
X127525Y-7250D02*X128275Y-6500D01*
X130525D01*
X131275Y-7250D01*
X127525Y-8750D02*X128275Y-9500D01*
X136525Y-3500D02*Y-8750D01*
X137275Y-9500D01*
X135775Y-5750D02*X137275D01*
X138775Y-3500D02*Y-9500D01*
Y-7250D02*X139525Y-6500D01*
X141025D01*
X141775Y-7250D01*
Y-9500D01*
X144325D02*X146575D01*
X143575Y-8750D02*X144325Y-9500D01*
X143575Y-7250D02*Y-8750D01*
Y-7250D02*X144325Y-6500D01*
X145825D01*
X146575Y-7250D01*
X143575Y-8000D02*X146575D01*
Y-7250D02*Y-8000D01*
X151825Y-6500D02*X154075D01*
X151075Y-7250D02*X151825Y-6500D01*
X151075Y-7250D02*Y-8750D01*
X151825Y-9500D01*
X154075D01*
X156625D02*X158875D01*
X155875Y-8750D02*X156625Y-9500D01*
X155875Y-7250D02*Y-8750D01*
Y-7250D02*X156625Y-6500D01*
X158125D01*
X158875Y-7250D01*
X155875Y-8000D02*X158875D01*
Y-7250D02*Y-8000D01*
X161425Y-7250D02*Y-9500D01*
Y-7250D02*X162175Y-6500D01*
X162925D01*
X163675Y-7250D01*
Y-9500D01*
X160675Y-6500D02*X161425Y-7250D01*
X166225Y-3500D02*Y-8750D01*
X166975Y-9500D01*
X165475Y-5750D02*X166975D01*
X169225Y-9500D02*X171475D01*
X168475Y-8750D02*X169225Y-9500D01*
X168475Y-7250D02*Y-8750D01*
Y-7250D02*X169225Y-6500D01*
X170725D01*
X171475Y-7250D01*
X168475Y-8000D02*X171475D01*
Y-7250D02*Y-8000D01*
X174025Y-7250D02*Y-9500D01*
Y-7250D02*X174775Y-6500D01*
X176275D01*
X173275D02*X174025Y-7250D01*
X178075Y-3500D02*Y-8750D01*
X178825Y-9500D01*
X180325Y-5000D02*Y-5750D01*
Y-7250D02*Y-9500D01*
X182575Y-7250D02*Y-9500D01*
Y-7250D02*X183325Y-6500D01*
X184075D01*
X184825Y-7250D01*
Y-9500D01*
X181825Y-6500D02*X182575Y-7250D01*
X187375Y-9500D02*X189625D01*
X186625Y-8750D02*X187375Y-9500D01*
X186625Y-7250D02*Y-8750D01*
Y-7250D02*X187375Y-6500D01*
X188875D01*
X189625Y-7250D01*
X186625Y-8000D02*X189625D01*
Y-7250D02*Y-8000D01*
X194125Y-7250D02*Y-8750D01*
Y-7250D02*X194875Y-6500D01*
X196375D01*
X197125Y-7250D01*
Y-8750D01*
X196375Y-9500D02*X197125Y-8750D01*
X194875Y-9500D02*X196375D01*
X194125Y-8750D02*X194875Y-9500D01*
X199675Y-4250D02*Y-9500D01*
Y-4250D02*X200425Y-3500D01*
X201175D01*
X198925Y-6500D02*X200425D01*
X206125Y-3500D02*Y-8750D01*
X206875Y-9500D01*
X205375Y-5750D02*X206875D01*
X208375Y-3500D02*Y-9500D01*
Y-7250D02*X209125Y-6500D01*
X210625D01*
X211375Y-7250D01*
Y-9500D01*
X213175Y-5000D02*Y-5750D01*
Y-7250D02*Y-9500D01*
X215425D02*X217675D01*
X218425Y-8750D01*
X217675Y-8000D02*X218425Y-8750D01*
X215425Y-8000D02*X217675D01*
X214675Y-7250D02*X215425Y-8000D01*
X214675Y-7250D02*X215425Y-6500D01*
X217675D01*
X218425Y-7250D01*
X214675Y-8750D02*X215425Y-9500D01*
X223675Y-7250D02*Y-11750D01*
X222925Y-6500D02*X223675Y-7250D01*
X224425Y-6500D01*
X225925D01*
X226675Y-7250D01*
Y-8750D01*
X225925Y-9500D02*X226675Y-8750D01*
X224425Y-9500D02*X225925D01*
X223675Y-8750D02*X224425Y-9500D01*
X230725Y-6500D02*X231475Y-7250D01*
X229225Y-6500D02*X230725D01*
X228475Y-7250D02*X229225Y-6500D01*
X228475Y-7250D02*Y-8750D01*
X229225Y-9500D01*
X231475Y-6500D02*Y-8750D01*
X232225Y-9500D01*
X229225D02*X230725D01*
X231475Y-8750D01*
X234775Y-3500D02*Y-8750D01*
X235525Y-9500D01*
X234025Y-5750D02*X235525D01*
X237025Y-3500D02*Y-9500D01*
Y-7250D02*X237775Y-6500D01*
X239275D01*
X240025Y-7250D01*
Y-9500D01*
X200750Y299500D02*Y293500D01*
X203000Y299500D02*X203750Y298750D01*
Y294250D01*
X203000Y293500D02*X203750Y294250D01*
X200000Y293500D02*X203000D01*
X200000Y299500D02*X203000D01*
X207800Y296500D02*X208550Y295750D01*
X206300Y296500D02*X207800D01*
X205550Y295750D02*X206300Y296500D01*
X205550Y295750D02*Y294250D01*
X206300Y293500D01*
X208550Y296500D02*Y294250D01*
X209300Y293500D01*
X206300D02*X207800D01*
X208550Y294250D01*
X211850Y299500D02*Y294250D01*
X212600Y293500D01*
X211100Y297250D02*X212600D01*
X214850Y293500D02*X217100D01*
X214100Y294250D02*X214850Y293500D01*
X214100Y295750D02*Y294250D01*
Y295750D02*X214850Y296500D01*
X216350D01*
X217100Y295750D01*
X214100Y295000D02*X217100D01*
Y295750D02*Y295000D01*
X218900Y297250D02*X219650D01*
X218900Y295750D02*X219650D01*
X227150Y299500D02*X227900Y298750D01*
X224900Y299500D02*X227150D01*
X224150Y298750D02*X224900Y299500D01*
X224150Y298750D02*Y297250D01*
X224900Y296500D01*
X227150D01*
X227900Y295750D01*
Y294250D01*
X227150Y293500D02*X227900Y294250D01*
X224900Y293500D02*X227150D01*
X224150Y294250D02*X224900Y293500D01*
X231950Y296500D02*X232700Y295750D01*
X230450Y296500D02*X231950D01*
X229700Y295750D02*X230450Y296500D01*
X229700Y295750D02*Y294250D01*
X230450Y293500D01*
X232700Y296500D02*Y294250D01*
X233450Y293500D01*
X230450D02*X231950D01*
X232700Y294250D01*
X236000Y299500D02*Y294250D01*
X236750Y293500D01*
X235250Y297250D02*X236750D01*
X240950Y299500D02*Y293500D01*
Y299500D02*X243200Y297250D01*
X245450Y299500D01*
Y293500D01*
X249500Y296500D02*X250250Y295750D01*
X248000Y296500D02*X249500D01*
X247250Y295750D02*X248000Y296500D01*
X247250Y295750D02*Y294250D01*
X248000Y293500D01*
X250250Y296500D02*Y294250D01*
X251000Y293500D01*
X248000D02*X249500D01*
X250250Y294250D01*
X252800Y296500D02*Y294250D01*
X253550Y293500D01*
X255800Y296500D02*Y292000D01*
X255050Y291250D02*X255800Y292000D01*
X253550Y291250D02*X255050D01*
X252800Y292000D02*X253550Y291250D01*
Y293500D02*X255050D01*
X255800Y294250D01*
X261050Y293500D02*X262550D01*
X261800Y299500D02*Y293500D01*
X260300Y298000D02*X261800Y299500D01*
X264350Y296500D02*X267350Y299500D01*
X264350Y296500D02*X268100D01*
X267350Y299500D02*Y293500D01*
X273350D02*X274850D01*
X274100Y299500D02*Y293500D01*
X272600Y298000D02*X274100Y299500D01*
X276650Y294250D02*X277400Y293500D01*
X276650Y295750D02*Y294250D01*
Y295750D02*X277400Y296500D01*
X278900D01*
X279650Y295750D01*
Y294250D01*
X278900Y293500D02*X279650Y294250D01*
X277400Y293500D02*X278900D01*
X276650Y297250D02*X277400Y296500D01*
X276650Y298750D02*Y297250D01*
Y298750D02*X277400Y299500D01*
X278900D01*
X279650Y298750D01*
Y297250D01*
X278900Y296500D02*X279650Y297250D01*
X281450D02*X282200D01*
X281450Y295750D02*X282200D01*
X284750Y293500D02*X286250D01*
X285500Y299500D02*Y293500D01*
X284000Y298000D02*X285500Y299500D01*
X288050Y298750D02*X288800Y299500D01*
X291050D01*
X291800Y298750D01*
Y297250D01*
X288050Y293500D02*X291800Y297250D01*
X288050Y293500D02*X291800D01*
X293600Y297250D02*X294350D01*
X293600Y295750D02*X294350D01*
X296900Y293500D02*X298400D01*
X297650Y299500D02*Y293500D01*
X296150Y298000D02*X297650Y299500D01*
X300950Y293500D02*X302450D01*
X301700Y299500D02*Y293500D01*
X300200Y298000D02*X301700Y299500D01*
X306950Y298750D02*X307700Y299500D01*
X309950D01*
X310700Y298750D01*
Y297250D01*
X306950Y293500D02*X310700Y297250D01*
X306950Y293500D02*X310700D01*
X312500Y294250D02*X313250Y293500D01*
X312500Y298750D02*Y294250D01*
Y298750D02*X313250Y299500D01*
X314750D01*
X315500Y298750D01*
Y294250D01*
X314750Y293500D02*X315500Y294250D01*
X313250Y293500D02*X314750D01*
X312500Y295000D02*X315500Y298000D01*
X317300Y298750D02*X318050Y299500D01*
X320300D01*
X321050Y298750D01*
Y297250D01*
X317300Y293500D02*X321050Y297250D01*
X317300Y293500D02*X321050D01*
X322850Y298750D02*X323600Y299500D01*
X325850D01*
X326600Y298750D01*
Y297250D01*
X322850Y293500D02*X326600Y297250D01*
X322850Y293500D02*X326600D01*
X331100Y299500D02*Y294250D01*
X331850Y293500D01*
X333350D01*
X334100Y294250D01*
Y299500D02*Y294250D01*
X335900Y299500D02*X338900D01*
X337400D02*Y293500D01*
X341450D02*X343700D01*
X340700Y294250D02*X341450Y293500D01*
X340700Y298750D02*Y294250D01*
Y298750D02*X341450Y299500D01*
X343700D01*
X200000Y313750D02*Y308500D01*
Y313750D02*X200750Y314500D01*
X203000D01*
X203750Y313750D01*
Y308500D01*
X200000Y311500D02*X203750D01*
X205550D02*Y309250D01*
X206300Y308500D01*
X207800D01*
X208550Y309250D01*
Y311500D02*Y309250D01*
X211100Y314500D02*Y309250D01*
X211850Y308500D01*
X210350Y312250D02*X211850D01*
X213350Y314500D02*Y308500D01*
Y310750D02*X214100Y311500D01*
X215600D01*
X216350Y310750D01*
Y308500D01*
X218150Y310750D02*Y309250D01*
Y310750D02*X218900Y311500D01*
X220400D01*
X221150Y310750D01*
Y309250D01*
X220400Y308500D02*X221150Y309250D01*
X218900Y308500D02*X220400D01*
X218150Y309250D02*X218900Y308500D01*
X223700Y310750D02*Y308500D01*
Y310750D02*X224450Y311500D01*
X225950D01*
X222950D02*X223700Y310750D01*
X227750Y312250D02*X228500D01*
X227750Y310750D02*X228500D01*
X233000Y314500D02*Y308500D01*
Y314500D02*X235250Y312250D01*
X237500Y314500D01*
Y308500D01*
X239300Y313000D02*Y312250D01*
Y310750D02*Y308500D01*
X241550Y311500D02*X243800D01*
X240800Y310750D02*X241550Y311500D01*
X240800Y310750D02*Y309250D01*
X241550Y308500D01*
X243800D01*
X245600Y314500D02*Y308500D01*
Y310750D02*X246350Y311500D01*
X247850D01*
X248600Y310750D01*
Y308500D01*
X252650Y311500D02*X253400Y310750D01*
X251150Y311500D02*X252650D01*
X250400Y310750D02*X251150Y311500D01*
X250400Y310750D02*Y309250D01*
X251150Y308500D01*
X253400Y311500D02*Y309250D01*
X254150Y308500D01*
X251150D02*X252650D01*
X253400Y309250D01*
X256700Y308500D02*X258950D01*
X255950Y309250D02*X256700Y308500D01*
X255950Y310750D02*Y309250D01*
Y310750D02*X256700Y311500D01*
X258200D01*
X258950Y310750D01*
X255950Y310000D02*X258950D01*
Y310750D02*Y310000D01*
X260750Y314500D02*Y309250D01*
X261500Y308500D01*
X266450Y314500D02*Y308500D01*
X265700Y314500D02*X268700D01*
X269450Y313750D01*
Y312250D01*
X268700Y311500D02*X269450Y312250D01*
X266450Y311500D02*X268700D01*
X272000Y308500D02*X274250D01*
X271250Y309250D02*X272000Y308500D01*
X271250Y310750D02*Y309250D01*
Y310750D02*X272000Y311500D01*
X273500D01*
X274250Y310750D01*
X271250Y310000D02*X274250D01*
Y310750D02*Y310000D01*
X276800Y314500D02*Y309250D01*
X277550Y308500D01*
X276050Y312250D02*X277550D01*
X279800Y308500D02*X282050D01*
X279050Y309250D02*X279800Y308500D01*
X279050Y310750D02*Y309250D01*
Y310750D02*X279800Y311500D01*
X281300D01*
X282050Y310750D01*
X279050Y310000D02*X282050D01*
Y310750D02*Y310000D01*
X284600Y310750D02*Y308500D01*
Y310750D02*X285350Y311500D01*
X286850D01*
X283850D02*X284600Y310750D01*
X289400Y308500D02*X291650D01*
X292400Y309250D01*
X291650Y310000D02*X292400Y309250D01*
X289400Y310000D02*X291650D01*
X288650Y310750D02*X289400Y310000D01*
X288650Y310750D02*X289400Y311500D01*
X291650D01*
X292400Y310750D01*
X288650Y309250D02*X289400Y308500D01*
X294950D02*X297200D01*
X294200Y309250D02*X294950Y308500D01*
X294200Y310750D02*Y309250D01*
Y310750D02*X294950Y311500D01*
X296450D01*
X297200Y310750D01*
X294200Y310000D02*X297200D01*
Y310750D02*Y310000D01*
X299750Y310750D02*Y308500D01*
Y310750D02*X300500Y311500D01*
X301250D01*
X302000Y310750D01*
Y308500D01*
X299000Y311500D02*X299750Y310750D01*
X200000Y329500D02*X203000D01*
X201500D02*Y323500D01*
X204800Y328000D02*Y327250D01*
Y325750D02*Y323500D01*
X207050Y329500D02*Y324250D01*
X207800Y323500D01*
X206300Y327250D02*X207800D01*
X209300Y329500D02*Y324250D01*
X210050Y323500D01*
X212300D02*X214550D01*
X211550Y324250D02*X212300Y323500D01*
X211550Y325750D02*Y324250D01*
Y325750D02*X212300Y326500D01*
X213800D01*
X214550Y325750D01*
X211550Y325000D02*X214550D01*
Y325750D02*Y325000D01*
X216350Y327250D02*X217100D01*
X216350Y325750D02*X217100D01*
X221600Y324250D02*X222350Y323500D01*
X221600Y328750D02*X222350Y329500D01*
X221600Y328750D02*Y324250D01*
X224150Y326500D02*Y324250D01*
X224900Y323500D01*
X226400D01*
X227150Y324250D01*
Y326500D02*Y324250D01*
X229700Y325750D02*Y323500D01*
Y325750D02*X230450Y326500D01*
X231200D01*
X231950Y325750D01*
Y323500D01*
X228950Y326500D02*X229700Y325750D01*
X233750Y329500D02*Y323500D01*
Y325750D02*X236000Y323500D01*
X233750Y325750D02*X235250Y327250D01*
X238550Y325750D02*Y323500D01*
Y325750D02*X239300Y326500D01*
X240050D01*
X240800Y325750D01*
Y323500D01*
X237800Y326500D02*X238550Y325750D01*
X242600D02*Y324250D01*
Y325750D02*X243350Y326500D01*
X244850D01*
X245600Y325750D01*
Y324250D01*
X244850Y323500D02*X245600Y324250D01*
X243350Y323500D02*X244850D01*
X242600Y324250D02*X243350Y323500D01*
X247400Y326500D02*Y324250D01*
X248150Y323500D01*
X248900D01*
X249650Y324250D01*
Y326500D02*Y324250D01*
X250400Y323500D01*
X251150D01*
X251900Y324250D01*
Y326500D02*Y324250D01*
X254450Y325750D02*Y323500D01*
Y325750D02*X255200Y326500D01*
X255950D01*
X256700Y325750D01*
Y323500D01*
X253700Y326500D02*X254450Y325750D01*
X258500Y329500D02*X259250Y328750D01*
Y324250D01*
X258500Y323500D02*X259250Y324250D01*
X263750Y326500D02*X266750D01*
X271250Y329500D02*Y323500D01*
Y329500D02*X274250D01*
X271250Y326500D02*X273500D01*
X278300D02*X279050Y325750D01*
X276800Y326500D02*X278300D01*
X276050Y325750D02*X276800Y326500D01*
X276050Y325750D02*Y324250D01*
X276800Y323500D01*
X279050Y326500D02*Y324250D01*
X279800Y323500D01*
X276800D02*X278300D01*
X279050Y324250D01*
X281600Y329500D02*Y323500D01*
Y324250D02*X282350Y323500D01*
X283850D01*
X284600Y324250D01*
Y325750D02*Y324250D01*
X283850Y326500D02*X284600Y325750D01*
X282350Y326500D02*X283850D01*
X281600Y325750D02*X282350Y326500D01*
X287150Y325750D02*Y323500D01*
Y325750D02*X287900Y326500D01*
X289400D01*
X286400D02*X287150Y325750D01*
X291200Y328000D02*Y327250D01*
Y325750D02*Y323500D01*
X293450Y326500D02*X295700D01*
X292700Y325750D02*X293450Y326500D01*
X292700Y325750D02*Y324250D01*
X293450Y323500D01*
X295700D01*
X299750Y326500D02*X300500Y325750D01*
X298250Y326500D02*X299750D01*
X297500Y325750D02*X298250Y326500D01*
X297500Y325750D02*Y324250D01*
X298250Y323500D01*
X300500Y326500D02*Y324250D01*
X301250Y323500D01*
X298250D02*X299750D01*
X300500Y324250D01*
X303800Y329500D02*Y324250D01*
X304550Y323500D01*
X303050Y327250D02*X304550D01*
X306050Y328000D02*Y327250D01*
Y325750D02*Y323500D01*
X307550Y325750D02*Y324250D01*
Y325750D02*X308300Y326500D01*
X309800D01*
X310550Y325750D01*
Y324250D01*
X309800Y323500D02*X310550Y324250D01*
X308300Y323500D02*X309800D01*
X307550Y324250D02*X308300Y323500D01*
X313100Y325750D02*Y323500D01*
Y325750D02*X313850Y326500D01*
X314600D01*
X315350Y325750D01*
Y323500D01*
X312350Y326500D02*X313100Y325750D01*
X320600Y329500D02*Y323500D01*
X322850Y329500D02*X323600Y328750D01*
Y324250D01*
X322850Y323500D02*X323600Y324250D01*
X319850Y323500D02*X322850D01*
X319850Y329500D02*X322850D01*
X326150Y325750D02*Y323500D01*
Y325750D02*X326900Y326500D01*
X328400D01*
X325400D02*X326150Y325750D01*
X332450Y326500D02*X333200Y325750D01*
X330950Y326500D02*X332450D01*
X330200Y325750D02*X330950Y326500D01*
X330200Y325750D02*Y324250D01*
X330950Y323500D01*
X333200Y326500D02*Y324250D01*
X333950Y323500D01*
X330950D02*X332450D01*
X333200Y324250D01*
X335750Y326500D02*Y324250D01*
X336500Y323500D01*
X337250D01*
X338000Y324250D01*
Y326500D02*Y324250D01*
X338750Y323500D01*
X339500D01*
X340250Y324250D01*
Y326500D02*Y324250D01*
X342050Y328000D02*Y327250D01*
Y325750D02*Y323500D01*
X344300Y325750D02*Y323500D01*
Y325750D02*X345050Y326500D01*
X345800D01*
X346550Y325750D01*
Y323500D01*
X343550Y326500D02*X344300Y325750D01*
X350600Y326500D02*X351350Y325750D01*
X349100Y326500D02*X350600D01*
X348350Y325750D02*X349100Y326500D01*
X348350Y325750D02*Y324250D01*
X349100Y323500D01*
X350600D01*
X351350Y324250D01*
X348350Y322000D02*X349100Y321250D01*
X350600D01*
X351350Y322000D01*
Y326500D02*Y322000D01*
M02*
