G04 start of page 3 for group 1 idx 1 *
G04 Title: (unknown), solder *
G04 Creator: pcb 20140316 *
G04 CreationDate: Mon 19 Oct 2015 08:44:37 PM GMT UTC *
G04 For: ndholmes *
G04 Format: Gerber/RS-274X *
G04 PCB-Dimensions (mil): 2110.00 2710.00 *
G04 PCB-Coordinate-Origin: lower left *
%MOIN*%
%FSLAX25Y25*%
%LNBOTTOM*%
%ADD51C,0.1280*%
%ADD50C,0.0300*%
%ADD49C,0.0480*%
%ADD48C,0.0450*%
%ADD47C,0.1285*%
%ADD46C,0.0380*%
%ADD45C,0.0200*%
%ADD44C,0.0700*%
%ADD43C,0.0800*%
%ADD42C,0.0787*%
%ADD41C,0.1500*%
%ADD40C,0.0600*%
%ADD39C,0.0400*%
%ADD38C,0.0100*%
%ADD37C,0.0250*%
%ADD36C,0.0001*%
G54D36*G36*
X200493Y55987D02*X200500Y55986D01*
X201206Y56042D01*
X201895Y56207D01*
X202549Y56478D01*
X203153Y56848D01*
X203692Y57308D01*
X204152Y57847D01*
X204522Y58451D01*
X204793Y59105D01*
X204958Y59794D01*
X205000Y60500D01*
X204958Y61206D01*
X204793Y61895D01*
X204565Y62444D01*
X208000Y65879D01*
Y34500D01*
X202585D01*
X202549Y34522D01*
X201895Y34793D01*
X201206Y34958D01*
X200500Y35014D01*
X200493Y35013D01*
Y35987D01*
X200500Y35986D01*
X201206Y36042D01*
X201895Y36207D01*
X202549Y36478D01*
X203153Y36848D01*
X203692Y37308D01*
X204152Y37847D01*
X204522Y38451D01*
X204793Y39105D01*
X204958Y39794D01*
X205000Y40500D01*
X204958Y41206D01*
X204793Y41895D01*
X204522Y42549D01*
X204152Y43153D01*
X203692Y43692D01*
X203153Y44152D01*
X202549Y44522D01*
X201895Y44793D01*
X201206Y44958D01*
X200500Y45014D01*
X200493Y45013D01*
Y45987D01*
X200500Y45986D01*
X201206Y46042D01*
X201895Y46207D01*
X202549Y46478D01*
X203153Y46848D01*
X203692Y47308D01*
X204152Y47847D01*
X204522Y48451D01*
X204793Y49105D01*
X204958Y49794D01*
X205000Y50500D01*
X204958Y51206D01*
X204793Y51895D01*
X204522Y52549D01*
X204152Y53153D01*
X203692Y53692D01*
X203153Y54152D01*
X202549Y54522D01*
X201895Y54793D01*
X201206Y54958D01*
X200500Y55014D01*
X200493Y55013D01*
Y55987D01*
G37*
G36*
Y65987D02*X200500Y65986D01*
X201206Y66042D01*
X201895Y66207D01*
X202549Y66478D01*
X203153Y66848D01*
X203692Y67308D01*
X204152Y67847D01*
X204522Y68451D01*
X204793Y69105D01*
X204958Y69794D01*
X205000Y70500D01*
X204958Y71206D01*
X204793Y71895D01*
X204522Y72549D01*
X204152Y73153D01*
X203692Y73692D01*
X203153Y74152D01*
X202549Y74522D01*
X201895Y74793D01*
X201206Y74958D01*
X200500Y75014D01*
X200493Y75013D01*
Y75987D01*
X200500Y75986D01*
X201206Y76042D01*
X201895Y76207D01*
X202549Y76478D01*
X203153Y76848D01*
X203692Y77308D01*
X204152Y77847D01*
X204522Y78451D01*
X204793Y79105D01*
X204958Y79794D01*
X205000Y80500D01*
X204958Y81206D01*
X204793Y81895D01*
X204522Y82549D01*
X204152Y83153D01*
X203692Y83692D01*
X203153Y84152D01*
X202549Y84522D01*
X201895Y84793D01*
X201206Y84958D01*
X200500Y85014D01*
X200493Y85013D01*
Y85987D01*
X200500Y85986D01*
X201206Y86042D01*
X201895Y86207D01*
X202549Y86478D01*
X203153Y86848D01*
X203692Y87308D01*
X204152Y87847D01*
X204522Y88451D01*
X204793Y89105D01*
X204958Y89794D01*
X205000Y90500D01*
X204958Y91206D01*
X204793Y91895D01*
X204522Y92549D01*
X204152Y93153D01*
X203692Y93692D01*
X203153Y94152D01*
X202549Y94522D01*
X201895Y94793D01*
X201206Y94958D01*
X200500Y95014D01*
X200493Y95013D01*
Y97000D01*
X203379D01*
X205500Y94879D01*
Y67621D01*
X202444Y64565D01*
X201895Y64793D01*
X201206Y64958D01*
X200500Y65014D01*
X200493Y65013D01*
Y65987D01*
G37*
G36*
Y85013D02*X199794Y84958D01*
X199105Y84793D01*
X198451Y84522D01*
X197847Y84152D01*
X197308Y83692D01*
X196848Y83153D01*
X196478Y82549D01*
X196359Y82262D01*
X185500Y93121D01*
Y105879D01*
X193898Y97481D01*
X193936Y97436D01*
X194115Y97283D01*
X194116Y97283D01*
X194317Y97159D01*
X194535Y97069D01*
X194765Y97014D01*
X195000Y96995D01*
X195059Y97000D01*
X200493D01*
Y95013D01*
X199794Y94958D01*
X199105Y94793D01*
X198451Y94522D01*
X197847Y94152D01*
X197308Y93692D01*
X196848Y93153D01*
X196478Y92549D01*
X196207Y91895D01*
X196042Y91206D01*
X195986Y90500D01*
X196042Y89794D01*
X196207Y89105D01*
X196478Y88451D01*
X196848Y87847D01*
X197308Y87308D01*
X197847Y86848D01*
X198451Y86478D01*
X199105Y86207D01*
X199794Y86042D01*
X200493Y85987D01*
Y85013D01*
G37*
G36*
Y75013D02*X199794Y74958D01*
X199105Y74793D01*
X198451Y74522D01*
X197847Y74152D01*
X197308Y73692D01*
X196848Y73153D01*
X196478Y72549D01*
X196251Y72000D01*
X194121D01*
X183000Y83121D01*
Y91379D01*
X194898Y79481D01*
X194936Y79436D01*
X195115Y79283D01*
X195116Y79283D01*
X195317Y79159D01*
X195535Y79069D01*
X195765Y79014D01*
X196000Y78995D01*
X196059Y79000D01*
X196251D01*
X196478Y78451D01*
X196848Y77847D01*
X197308Y77308D01*
X197847Y76848D01*
X198451Y76478D01*
X199105Y76207D01*
X199794Y76042D01*
X200493Y75987D01*
Y75013D01*
G37*
G36*
X117245Y138500D02*X174879D01*
X180000Y133379D01*
Y82559D01*
X179995Y82500D01*
X180014Y82265D01*
X180069Y82035D01*
X180159Y81817D01*
X180283Y81616D01*
X180436Y81436D01*
X180481Y81398D01*
X192398Y69481D01*
X192436Y69436D01*
X192616Y69283D01*
X192817Y69159D01*
X193035Y69069D01*
X193265Y69014D01*
X193500Y68995D01*
X193559Y69000D01*
X196251D01*
X196478Y68451D01*
X196848Y67847D01*
X197308Y67308D01*
X197847Y66848D01*
X198451Y66478D01*
X199105Y66207D01*
X199794Y66042D01*
X200493Y65987D01*
Y65013D01*
X199794Y64958D01*
X199105Y64793D01*
X198451Y64522D01*
X197847Y64152D01*
X197308Y63692D01*
X196848Y63153D01*
X196478Y62549D01*
X196207Y61895D01*
X196042Y61206D01*
X195986Y60500D01*
X196042Y59794D01*
X196207Y59105D01*
X196478Y58451D01*
X196848Y57847D01*
X197308Y57308D01*
X197847Y56848D01*
X198451Y56478D01*
X199105Y56207D01*
X199794Y56042D01*
X200493Y55987D01*
Y55013D01*
X199794Y54958D01*
X199105Y54793D01*
X198451Y54522D01*
X197847Y54152D01*
X197308Y53692D01*
X196848Y53153D01*
X196478Y52549D01*
X196207Y51895D01*
X196042Y51206D01*
X195986Y50500D01*
X196042Y49794D01*
X196207Y49105D01*
X196478Y48451D01*
X196848Y47847D01*
X197308Y47308D01*
X197847Y46848D01*
X198451Y46478D01*
X199105Y46207D01*
X199794Y46042D01*
X200493Y45987D01*
Y45013D01*
X199794Y44958D01*
X199105Y44793D01*
X198451Y44522D01*
X197847Y44152D01*
X197308Y43692D01*
X196848Y43153D01*
X196478Y42549D01*
X196207Y41895D01*
X196042Y41206D01*
X195986Y40500D01*
X196042Y39794D01*
X196207Y39105D01*
X196478Y38451D01*
X196848Y37847D01*
X197308Y37308D01*
X197847Y36848D01*
X198451Y36478D01*
X199105Y36207D01*
X199794Y36042D01*
X200493Y35987D01*
Y35013D01*
X199794Y34958D01*
X199105Y34793D01*
X198451Y34522D01*
X198415Y34500D01*
X117245D01*
Y78633D01*
X121101Y74777D01*
X121028Y74471D01*
X120991Y74000D01*
X121028Y73529D01*
X121138Y73070D01*
X121319Y72634D01*
X121565Y72231D01*
X121872Y71872D01*
X122231Y71565D01*
X122634Y71319D01*
X123070Y71138D01*
X123529Y71028D01*
X124000Y70991D01*
X124471Y71028D01*
X124930Y71138D01*
X125366Y71319D01*
X125769Y71565D01*
X126128Y71872D01*
X126435Y72231D01*
X126681Y72634D01*
X126862Y73070D01*
X126972Y73529D01*
X127000Y74000D01*
X126972Y74471D01*
X126862Y74930D01*
X126681Y75366D01*
X126435Y75769D01*
X126128Y76128D01*
X125769Y76435D01*
X125366Y76681D01*
X124930Y76862D01*
X124471Y76972D01*
X124000Y77009D01*
X123529Y76972D01*
X123223Y76899D01*
X117245Y82876D01*
Y130311D01*
X117319Y130134D01*
X117565Y129731D01*
X117872Y129372D01*
X118231Y129065D01*
X118634Y128819D01*
X119070Y128638D01*
X119529Y128528D01*
X120000Y128491D01*
X120118Y128500D01*
X121257D01*
X127796Y121962D01*
X127872Y121872D01*
X128231Y121565D01*
X128231Y121565D01*
X128634Y121319D01*
X129070Y121138D01*
X129440Y121049D01*
X129529Y121028D01*
X130000Y120991D01*
X130000D01*
X130471Y121028D01*
X130930Y121138D01*
X131366Y121319D01*
X131769Y121565D01*
X132128Y121872D01*
X132435Y122231D01*
X132681Y122634D01*
X132862Y123070D01*
X132951Y123440D01*
X132972Y123529D01*
Y123529D01*
X133009Y124000D01*
X132972Y124471D01*
X132862Y124930D01*
X132681Y125366D01*
X132435Y125769D01*
X132128Y126128D01*
X132038Y126204D01*
X124704Y133538D01*
X124628Y133628D01*
X124269Y133935D01*
X123866Y134181D01*
X123430Y134362D01*
X122971Y134472D01*
X122971Y134472D01*
X122500Y134509D01*
X122382Y134500D01*
X120118D01*
X120000Y134509D01*
X119529Y134472D01*
X119070Y134362D01*
X118634Y134181D01*
X118231Y133935D01*
X117872Y133628D01*
X117565Y133269D01*
X117319Y132866D01*
X117245Y132689D01*
Y138500D01*
G37*
G36*
X55158Y263500D02*X94879D01*
X104000Y254379D01*
Y253291D01*
X101265Y253286D01*
X101035Y253231D01*
X100817Y253141D01*
X100616Y253017D01*
X100436Y252864D01*
X100283Y252684D01*
X100159Y252483D01*
X100069Y252265D01*
X100014Y252035D01*
X100000Y251800D01*
X100001Y250981D01*
X99963Y251043D01*
X99401Y251701D01*
X98743Y252263D01*
X98005Y252716D01*
X97205Y253047D01*
X96363Y253249D01*
X95500Y253317D01*
X94637Y253249D01*
X93795Y253047D01*
X92995Y252716D01*
X92257Y252263D01*
X91599Y251701D01*
X91037Y251043D01*
X90584Y250305D01*
X90500Y250101D01*
X90416Y250305D01*
X89963Y251043D01*
X89401Y251701D01*
X88743Y252263D01*
X88005Y252716D01*
X87205Y253047D01*
X86363Y253249D01*
X85500Y253317D01*
X84637Y253249D01*
X83795Y253047D01*
X82995Y252716D01*
X82257Y252263D01*
X81599Y251701D01*
X81037Y251043D01*
X80584Y250305D01*
X80500Y250101D01*
X80416Y250305D01*
X79963Y251043D01*
X79401Y251701D01*
X78743Y252263D01*
X78005Y252716D01*
X77205Y253047D01*
X76363Y253249D01*
X75500Y253317D01*
X74637Y253249D01*
X73795Y253047D01*
X72995Y252716D01*
X72257Y252263D01*
X71599Y251701D01*
X71037Y251043D01*
X70584Y250305D01*
X70500Y250101D01*
X70416Y250305D01*
X69963Y251043D01*
X69401Y251701D01*
X68743Y252263D01*
X68005Y252716D01*
X67205Y253047D01*
X66363Y253249D01*
X65500Y253317D01*
X64637Y253249D01*
X63795Y253047D01*
X62995Y252716D01*
X62257Y252263D01*
X61599Y251701D01*
X61037Y251043D01*
X60584Y250305D01*
X60500Y250101D01*
X60416Y250305D01*
X59963Y251043D01*
X59401Y251701D01*
X58743Y252263D01*
X58005Y252716D01*
X57205Y253047D01*
X56363Y253249D01*
X55500Y253317D01*
X55158Y253290D01*
Y263500D01*
G37*
G36*
Y235500D02*X57379D01*
X78000Y214879D01*
Y202500D01*
X77972Y202971D01*
X77862Y203430D01*
X77681Y203866D01*
X77435Y204269D01*
X77128Y204628D01*
X76769Y204935D01*
X76366Y205181D01*
X75930Y205362D01*
X75471Y205472D01*
X75000Y205509D01*
X74529Y205472D01*
X74070Y205362D01*
X73634Y205181D01*
X73231Y204935D01*
X72872Y204628D01*
X72565Y204269D01*
X72319Y203866D01*
X72138Y203430D01*
X72028Y202971D01*
X72000Y202618D01*
Y205401D01*
X72269Y205565D01*
X72628Y205872D01*
X72935Y206231D01*
X73181Y206634D01*
X73362Y207070D01*
X73472Y207529D01*
X73500Y208000D01*
X73472Y208471D01*
X73362Y208930D01*
X73181Y209366D01*
X72935Y209769D01*
X72628Y210128D01*
X72269Y210435D01*
X71866Y210681D01*
X71430Y210862D01*
X70971Y210972D01*
X70500Y211009D01*
X70029Y210972D01*
X69570Y210862D01*
X69134Y210681D01*
X68731Y210435D01*
X68372Y210128D01*
X68065Y209769D01*
X67819Y209366D01*
X67638Y208930D01*
X67528Y208471D01*
X67491Y208000D01*
X67528Y207529D01*
X67638Y207070D01*
X67819Y206634D01*
X68065Y206231D01*
X68372Y205872D01*
X68731Y205565D01*
X69000Y205401D01*
Y200059D01*
X68995Y200000D01*
X69014Y199765D01*
X69069Y199535D01*
X69159Y199317D01*
X69283Y199116D01*
X69283Y199115D01*
X69436Y198936D01*
X69481Y198898D01*
X73000Y195379D01*
Y154059D01*
X72995Y154000D01*
X73014Y153765D01*
X73069Y153535D01*
X73159Y153317D01*
X73283Y153116D01*
X73436Y152936D01*
X73481Y152898D01*
X87398Y138981D01*
X87436Y138936D01*
X87615Y138783D01*
X87616Y138783D01*
X87817Y138659D01*
X88035Y138569D01*
X88265Y138514D01*
X88500Y138495D01*
X88559Y138500D01*
X117245D01*
Y132689D01*
X117138Y132430D01*
X117028Y131971D01*
X116991Y131500D01*
X117028Y131029D01*
X117138Y130570D01*
X117245Y130311D01*
Y82876D01*
X116000Y84121D01*
Y127441D01*
X116005Y127500D01*
X115986Y127735D01*
X115986Y127735D01*
X115931Y127965D01*
X115841Y128183D01*
X115717Y128384D01*
X115564Y128564D01*
X115519Y128602D01*
X113399Y130723D01*
X113472Y131029D01*
X113500Y131500D01*
X113472Y131971D01*
X113362Y132430D01*
X113181Y132866D01*
X112935Y133269D01*
X112628Y133628D01*
X112269Y133935D01*
X111866Y134181D01*
X111430Y134362D01*
X110971Y134472D01*
X110500Y134509D01*
X110029Y134472D01*
X109570Y134362D01*
X109134Y134181D01*
X108731Y133935D01*
X108372Y133628D01*
X108065Y133269D01*
X107819Y132866D01*
X107638Y132430D01*
X107528Y131971D01*
X107491Y131500D01*
X107528Y131029D01*
X107638Y130570D01*
X107819Y130134D01*
X108065Y129731D01*
X108372Y129372D01*
X108731Y129065D01*
X109134Y128819D01*
X109570Y128638D01*
X110029Y128528D01*
X110500Y128491D01*
X110971Y128528D01*
X111277Y128601D01*
X113000Y126879D01*
Y83559D01*
X112995Y83500D01*
X113014Y83265D01*
X113069Y83035D01*
X113159Y82817D01*
X113283Y82616D01*
X113436Y82436D01*
X113481Y82398D01*
X117245Y78633D01*
Y34500D01*
X55158D01*
Y124464D01*
X55400Y124445D01*
X56332Y124518D01*
X57240Y124736D01*
X58104Y125094D01*
X58900Y125582D01*
X59611Y126189D01*
X60218Y126900D01*
X60706Y127696D01*
X61064Y128560D01*
X61282Y129468D01*
X61337Y130400D01*
X61282Y131332D01*
X61064Y132240D01*
X60706Y133104D01*
X60218Y133900D01*
X59611Y134611D01*
X58900Y135218D01*
X58104Y135706D01*
X57240Y136064D01*
X56332Y136282D01*
X55400Y136355D01*
X55158Y136336D01*
Y235500D01*
G37*
G36*
X45402Y201362D02*X45430Y201247D01*
X45482Y200875D01*
X45500Y200500D01*
X45482Y200125D01*
X45430Y199753D01*
X45402Y199638D01*
Y201362D01*
G37*
G36*
Y263500D02*X55158D01*
Y253290D01*
X54637Y253249D01*
X53795Y253047D01*
X52995Y252716D01*
X52257Y252263D01*
X51599Y251701D01*
X51037Y251043D01*
X50584Y250305D01*
X50500Y250101D01*
X50416Y250305D01*
X49963Y251043D01*
X49401Y251701D01*
X48743Y252263D01*
X48005Y252716D01*
X47205Y253047D01*
X46363Y253249D01*
X45500Y253317D01*
X45402Y253309D01*
Y263500D01*
G37*
G36*
Y235976D02*X45436Y235936D01*
X45616Y235783D01*
X45817Y235659D01*
X46035Y235569D01*
X46265Y235514D01*
X46500Y235495D01*
X46559Y235500D01*
X55158D01*
Y136336D01*
X54468Y136282D01*
X53560Y136064D01*
X52696Y135706D01*
X51900Y135218D01*
X51189Y134611D01*
X50582Y133900D01*
X50165Y133221D01*
X50076Y133236D01*
X49918Y133238D01*
X49761Y133215D01*
X49610Y133168D01*
X49469Y133098D01*
X49339Y133007D01*
X49226Y132896D01*
X49132Y132770D01*
X49058Y132630D01*
X49008Y132480D01*
X48981Y132324D01*
X48979Y132166D01*
X49002Y132010D01*
X49052Y131860D01*
X49178Y131508D01*
X49266Y131144D01*
X49319Y130774D01*
X49337Y130400D01*
X49319Y130026D01*
X49266Y129656D01*
X49178Y129292D01*
X49056Y128939D01*
X49006Y128789D01*
X48983Y128634D01*
X48985Y128476D01*
X49012Y128321D01*
X49062Y128172D01*
X49136Y128033D01*
X49230Y127907D01*
X49342Y127797D01*
X49471Y127706D01*
X49612Y127636D01*
X49762Y127589D01*
X49918Y127567D01*
X50075Y127568D01*
X50163Y127583D01*
X50582Y126900D01*
X51189Y126189D01*
X51900Y125582D01*
X52696Y125094D01*
X53560Y124736D01*
X54468Y124518D01*
X55158Y124464D01*
Y34500D01*
X45402D01*
Y124456D01*
X45964Y124483D01*
X46523Y124563D01*
X47072Y124696D01*
X47606Y124881D01*
X47748Y124950D01*
X47877Y125042D01*
X47991Y125152D01*
X48085Y125279D01*
X48159Y125419D01*
X48209Y125568D01*
X48236Y125724D01*
X48238Y125882D01*
X48215Y126039D01*
X48168Y126190D01*
X48098Y126331D01*
X48007Y126461D01*
X47896Y126574D01*
X47770Y126668D01*
X47630Y126742D01*
X47480Y126792D01*
X47324Y126819D01*
X47166Y126821D01*
X47010Y126798D01*
X46860Y126748D01*
X46508Y126622D01*
X46144Y126534D01*
X45774Y126481D01*
X45402Y126463D01*
Y134337D01*
X45774Y134319D01*
X46144Y134266D01*
X46508Y134178D01*
X46861Y134056D01*
X47011Y134006D01*
X47166Y133983D01*
X47324Y133985D01*
X47479Y134012D01*
X47628Y134062D01*
X47767Y134136D01*
X47893Y134230D01*
X48003Y134342D01*
X48094Y134471D01*
X48164Y134612D01*
X48211Y134762D01*
X48233Y134918D01*
X48232Y135075D01*
X48205Y135231D01*
X48154Y135380D01*
X48081Y135519D01*
X47987Y135645D01*
X47875Y135755D01*
X47746Y135846D01*
X47604Y135913D01*
X47072Y136104D01*
X46523Y136237D01*
X45964Y136317D01*
X45402Y136344D01*
Y176600D01*
X45963Y177257D01*
X46416Y177995D01*
X46747Y178795D01*
X46949Y179637D01*
X47000Y180500D01*
X46949Y181363D01*
X46747Y182205D01*
X46416Y183005D01*
X45963Y183743D01*
X45402Y184400D01*
Y197677D01*
X45504Y197635D01*
X45619Y197607D01*
X45737Y197598D01*
X45855Y197608D01*
X45969Y197635D01*
X46078Y197681D01*
X46179Y197743D01*
X46269Y197819D01*
X46345Y197909D01*
X46405Y198011D01*
X46622Y198480D01*
X46789Y198969D01*
X46909Y199472D01*
X46982Y199984D01*
X47006Y200500D01*
X46982Y201016D01*
X46909Y201528D01*
X46789Y202031D01*
X46622Y202520D01*
X46410Y202992D01*
X46349Y203093D01*
X46272Y203184D01*
X46182Y203261D01*
X46080Y203323D01*
X45971Y203369D01*
X45855Y203397D01*
X45737Y203406D01*
X45619Y203397D01*
X45503Y203370D01*
X45402Y203328D01*
Y215013D01*
X45735Y215014D01*
X45965Y215069D01*
X46183Y215159D01*
X46384Y215283D01*
X46564Y215436D01*
X46717Y215616D01*
X46841Y215817D01*
X46931Y216035D01*
X46986Y216265D01*
X47000Y216500D01*
X46986Y224735D01*
X46931Y224965D01*
X46841Y225183D01*
X46717Y225384D01*
X46564Y225564D01*
X46384Y225717D01*
X46183Y225841D01*
X45965Y225931D01*
X45735Y225986D01*
X45500Y226000D01*
X45402Y226000D01*
Y235976D01*
G37*
G36*
Y34500D02*X35642D01*
Y124472D01*
X39651Y124482D01*
X39957Y124555D01*
X40248Y124675D01*
X40516Y124840D01*
X40756Y125044D01*
X40960Y125284D01*
X41125Y125552D01*
X41245Y125843D01*
X41318Y126149D01*
X41337Y126463D01*
X41334Y127704D01*
X41461Y127793D01*
X41574Y127904D01*
X41668Y128030D01*
X41742Y128170D01*
X41792Y128320D01*
X41819Y128476D01*
X41821Y128634D01*
X41798Y128790D01*
X41748Y128940D01*
X41622Y129292D01*
X41534Y129656D01*
X41481Y130026D01*
X41463Y130400D01*
X41481Y130774D01*
X41534Y131144D01*
X41622Y131508D01*
X41744Y131861D01*
X41794Y132011D01*
X41817Y132166D01*
X41815Y132324D01*
X41788Y132479D01*
X41738Y132628D01*
X41664Y132767D01*
X41570Y132893D01*
X41458Y133003D01*
X41329Y133094D01*
X41322Y133098D01*
X41318Y134651D01*
X41245Y134957D01*
X41125Y135248D01*
X40960Y135516D01*
X40756Y135756D01*
X40516Y135960D01*
X40248Y136125D01*
X39957Y136245D01*
X39651Y136318D01*
X39337Y136337D01*
X35642Y136329D01*
Y176500D01*
X37715D01*
X38257Y176037D01*
X38995Y175584D01*
X39795Y175253D01*
X40637Y175051D01*
X41500Y174983D01*
X42363Y175051D01*
X43205Y175253D01*
X44005Y175584D01*
X44743Y176037D01*
X45401Y176599D01*
X45402Y176600D01*
Y136344D01*
X45400Y136344D01*
X44836Y136317D01*
X44277Y136237D01*
X43728Y136104D01*
X43194Y135919D01*
X43052Y135850D01*
X42923Y135758D01*
X42809Y135648D01*
X42715Y135521D01*
X42641Y135381D01*
X42591Y135232D01*
X42564Y135076D01*
X42562Y134918D01*
X42585Y134761D01*
X42632Y134610D01*
X42702Y134469D01*
X42793Y134339D01*
X42904Y134226D01*
X43030Y134132D01*
X43170Y134058D01*
X43320Y134008D01*
X43476Y133981D01*
X43634Y133979D01*
X43790Y134002D01*
X43940Y134052D01*
X44292Y134178D01*
X44656Y134266D01*
X45026Y134319D01*
X45400Y134337D01*
X45402Y134337D01*
Y126463D01*
X45400Y126463D01*
X45026Y126481D01*
X44656Y126534D01*
X44292Y126622D01*
X43939Y126744D01*
X43789Y126794D01*
X43634Y126817D01*
X43476Y126815D01*
X43321Y126788D01*
X43172Y126738D01*
X43033Y126664D01*
X42907Y126570D01*
X42797Y126458D01*
X42706Y126329D01*
X42636Y126188D01*
X42589Y126038D01*
X42567Y125882D01*
X42568Y125725D01*
X42595Y125569D01*
X42646Y125420D01*
X42719Y125281D01*
X42813Y125155D01*
X42925Y125045D01*
X43054Y124954D01*
X43196Y124887D01*
X43728Y124696D01*
X44277Y124563D01*
X44836Y124483D01*
X45400Y124456D01*
X45402Y124456D01*
Y34500D01*
G37*
G36*
X35642D02*X26493D01*
Y152336D01*
X28718Y154561D01*
X28837Y154663D01*
X29246Y155141D01*
X29246Y155142D01*
X29575Y155678D01*
X29816Y156260D01*
X29963Y156872D01*
X30012Y157500D01*
X30000Y157657D01*
Y171843D01*
X34657Y176500D01*
X35642D01*
Y136329D01*
X31149Y136318D01*
X30843Y136245D01*
X30552Y136125D01*
X30284Y135960D01*
X30044Y135756D01*
X29840Y135516D01*
X29675Y135248D01*
X29555Y134957D01*
X29482Y134651D01*
X29463Y134337D01*
X29482Y126149D01*
X29555Y125843D01*
X29675Y125552D01*
X29840Y125284D01*
X30044Y125044D01*
X30284Y124840D01*
X30552Y124675D01*
X30843Y124555D01*
X31149Y124482D01*
X31463Y124463D01*
X35642Y124472D01*
Y34500D01*
G37*
G36*
X41502Y263500D02*X45402D01*
Y253309D01*
X44637Y253249D01*
X43795Y253047D01*
X42995Y252716D01*
X42257Y252263D01*
X41599Y251701D01*
X41502Y251588D01*
Y263500D01*
G37*
G36*
Y215007D02*X45402Y215013D01*
Y203328D01*
X45393Y203324D01*
X45292Y203262D01*
X45202Y203186D01*
X45124Y203095D01*
X45062Y202994D01*
X45016Y202885D01*
X44989Y202769D01*
X44979Y202651D01*
X44988Y202532D01*
X45016Y202417D01*
X45063Y202308D01*
X45221Y201968D01*
X45342Y201612D01*
X45402Y201362D01*
Y199638D01*
X45342Y199388D01*
X45221Y199032D01*
X45067Y198690D01*
X45020Y198582D01*
X44993Y198467D01*
X44983Y198349D01*
X44993Y198232D01*
X45021Y198117D01*
X45066Y198008D01*
X45128Y197907D01*
X45205Y197818D01*
X45295Y197741D01*
X45395Y197680D01*
X45402Y197677D01*
Y184400D01*
X45401Y184401D01*
X44743Y184963D01*
X44005Y185416D01*
X43205Y185747D01*
X42363Y185949D01*
X41502Y186017D01*
Y194994D01*
X42016Y195018D01*
X42528Y195091D01*
X43031Y195211D01*
X43520Y195378D01*
X43992Y195590D01*
X44093Y195651D01*
X44184Y195728D01*
X44261Y195818D01*
X44323Y195920D01*
X44369Y196029D01*
X44397Y196145D01*
X44406Y196263D01*
X44397Y196381D01*
X44370Y196497D01*
X44324Y196607D01*
X44262Y196708D01*
X44186Y196798D01*
X44095Y196876D01*
X43994Y196938D01*
X43885Y196984D01*
X43769Y197011D01*
X43651Y197021D01*
X43532Y197012D01*
X43417Y196984D01*
X43308Y196937D01*
X42968Y196779D01*
X42612Y196658D01*
X42247Y196570D01*
X41875Y196518D01*
X41502Y196500D01*
Y204500D01*
X41875Y204482D01*
X42247Y204430D01*
X42612Y204342D01*
X42968Y204221D01*
X43310Y204067D01*
X43418Y204020D01*
X43533Y203993D01*
X43651Y203983D01*
X43768Y203993D01*
X43883Y204021D01*
X43992Y204066D01*
X44093Y204128D01*
X44182Y204205D01*
X44259Y204295D01*
X44320Y204395D01*
X44365Y204504D01*
X44393Y204619D01*
X44402Y204737D01*
X44392Y204855D01*
X44365Y204969D01*
X44319Y205078D01*
X44257Y205179D01*
X44181Y205269D01*
X44091Y205345D01*
X43989Y205405D01*
X43520Y205622D01*
X43031Y205789D01*
X42528Y205909D01*
X42016Y205982D01*
X41502Y206006D01*
Y215007D01*
G37*
G36*
Y239876D02*X45398Y235981D01*
X45402Y235976D01*
Y226000D01*
X41502Y225993D01*
Y239876D01*
G37*
G36*
X37007Y263500D02*X41502D01*
Y251588D01*
X41037Y251043D01*
X40584Y250305D01*
X40500Y250101D01*
X40416Y250305D01*
X39963Y251043D01*
X39401Y251701D01*
X38743Y252263D01*
X38005Y252716D01*
X37205Y253047D01*
X37007Y253094D01*
Y263500D01*
G37*
G36*
Y215080D02*X37035Y215069D01*
X37265Y215014D01*
X37500Y215000D01*
X41502Y215007D01*
Y206006D01*
X41500Y206006D01*
X40984Y205982D01*
X40472Y205909D01*
X39969Y205789D01*
X39480Y205622D01*
X39008Y205410D01*
X38907Y205349D01*
X38816Y205272D01*
X38739Y205182D01*
X38677Y205080D01*
X38631Y204971D01*
X38603Y204855D01*
X38594Y204737D01*
X38603Y204619D01*
X38630Y204503D01*
X38676Y204393D01*
X38738Y204292D01*
X38814Y204202D01*
X38905Y204124D01*
X39006Y204062D01*
X39115Y204016D01*
X39231Y203989D01*
X39349Y203979D01*
X39468Y203988D01*
X39583Y204016D01*
X39692Y204063D01*
X40032Y204221D01*
X40388Y204342D01*
X40753Y204430D01*
X41125Y204482D01*
X41500Y204500D01*
X41502Y204500D01*
Y196500D01*
X41500Y196500D01*
X41125Y196518D01*
X40753Y196570D01*
X40388Y196658D01*
X40032Y196779D01*
X39690Y196933D01*
X39582Y196980D01*
X39467Y197007D01*
X39349Y197017D01*
X39232Y197007D01*
X39117Y196979D01*
X39008Y196934D01*
X38907Y196872D01*
X38818Y196795D01*
X38741Y196705D01*
X38680Y196605D01*
X38635Y196496D01*
X38607Y196381D01*
X38598Y196263D01*
X38608Y196145D01*
X38635Y196031D01*
X38681Y195922D01*
X38743Y195821D01*
X38819Y195731D01*
X38909Y195655D01*
X39011Y195595D01*
X39480Y195378D01*
X39969Y195211D01*
X40472Y195091D01*
X40984Y195018D01*
X41500Y194994D01*
X41502Y194994D01*
Y186017D01*
X41500Y186017D01*
X40637Y185949D01*
X39795Y185747D01*
X38995Y185416D01*
X38257Y184963D01*
X37715Y184500D01*
X37007D01*
Y197640D01*
X37029Y197631D01*
X37145Y197603D01*
X37263Y197594D01*
X37381Y197603D01*
X37497Y197630D01*
X37607Y197676D01*
X37708Y197738D01*
X37798Y197814D01*
X37876Y197905D01*
X37938Y198006D01*
X37984Y198115D01*
X38011Y198231D01*
X38021Y198349D01*
X38012Y198468D01*
X37984Y198583D01*
X37937Y198692D01*
X37779Y199032D01*
X37658Y199388D01*
X37570Y199753D01*
X37518Y200125D01*
X37500Y200500D01*
X37518Y200875D01*
X37570Y201247D01*
X37658Y201612D01*
X37779Y201968D01*
X37933Y202310D01*
X37980Y202418D01*
X38007Y202533D01*
X38017Y202651D01*
X38007Y202768D01*
X37979Y202883D01*
X37934Y202992D01*
X37872Y203093D01*
X37795Y203182D01*
X37705Y203259D01*
X37605Y203320D01*
X37496Y203365D01*
X37381Y203393D01*
X37263Y203402D01*
X37145Y203392D01*
X37031Y203365D01*
X37007Y203355D01*
Y215080D01*
G37*
G36*
X38308Y243070D02*X41502Y239876D01*
Y225993D01*
X37265Y225986D01*
X37035Y225931D01*
X37007Y225920D01*
Y242506D01*
X37205Y242553D01*
X38005Y242884D01*
X38308Y243070D01*
G37*
G36*
X37007Y225920D02*X36817Y225841D01*
X36616Y225717D01*
X36436Y225564D01*
X36283Y225384D01*
X36159Y225183D01*
X36069Y224965D01*
X36014Y224735D01*
X36000Y224500D01*
X36014Y216265D01*
X36069Y216035D01*
X36159Y215817D01*
X36283Y215616D01*
X36436Y215436D01*
X36616Y215283D01*
X36817Y215159D01*
X37007Y215080D01*
Y203355D01*
X36922Y203319D01*
X36821Y203257D01*
X36731Y203181D01*
X36655Y203091D01*
X36595Y202989D01*
X36378Y202520D01*
X36211Y202031D01*
X36091Y201528D01*
X36018Y201016D01*
X35994Y200500D01*
X36018Y199984D01*
X36091Y199472D01*
X36211Y198969D01*
X36378Y198480D01*
X36590Y198008D01*
X36651Y197907D01*
X36728Y197816D01*
X36818Y197739D01*
X36920Y197677D01*
X37007Y197640D01*
Y184500D01*
X33157D01*
X33000Y184512D01*
X32372Y184463D01*
X31760Y184316D01*
X31178Y184075D01*
X30642Y183746D01*
X30641Y183746D01*
X30163Y183337D01*
X30061Y183218D01*
X26493Y179650D01*
Y260872D01*
X29121Y263500D01*
X37007D01*
Y253094D01*
X36363Y253249D01*
X35500Y253317D01*
X34637Y253249D01*
X33795Y253047D01*
X32995Y252716D01*
X32257Y252263D01*
X31599Y251701D01*
X31037Y251043D01*
X30584Y250305D01*
X30253Y249505D01*
X30051Y248663D01*
X29983Y247800D01*
X30051Y246937D01*
X30253Y246095D01*
X30584Y245295D01*
X31037Y244557D01*
X31599Y243899D01*
X32257Y243337D01*
X32995Y242884D01*
X33795Y242553D01*
X34637Y242351D01*
X35500Y242283D01*
X36363Y242351D01*
X37007Y242506D01*
Y225920D01*
G37*
G36*
X10493Y180372D02*X25019Y194898D01*
X25064Y194936D01*
X25217Y195115D01*
X25217Y195116D01*
X25341Y195317D01*
X25431Y195535D01*
X25486Y195765D01*
X25505Y196000D01*
X25500Y196059D01*
Y259879D01*
X26493Y260872D01*
Y179650D01*
X23282Y176439D01*
X23163Y176337D01*
X22754Y175858D01*
X22425Y175322D01*
X22184Y174740D01*
X22037Y174128D01*
X21988Y173500D01*
X22000Y173343D01*
Y159157D01*
X17343Y154500D01*
X12585D01*
X12549Y154522D01*
X11895Y154793D01*
X11206Y154958D01*
X10500Y155014D01*
X10493Y155013D01*
Y156007D01*
X13735Y156014D01*
X13965Y156069D01*
X14183Y156159D01*
X14384Y156283D01*
X14564Y156436D01*
X14717Y156616D01*
X14841Y156817D01*
X14931Y157035D01*
X14986Y157265D01*
X15000Y157500D01*
X14986Y163735D01*
X14931Y163965D01*
X14841Y164183D01*
X14717Y164384D01*
X14564Y164564D01*
X14384Y164717D01*
X14183Y164841D01*
X13965Y164931D01*
X13735Y164986D01*
X13500Y165000D01*
X10493Y164993D01*
Y180372D01*
G37*
G36*
X26493Y34500D02*X14113D01*
Y37802D01*
X14152Y37847D01*
X14522Y38451D01*
X14793Y39105D01*
X14958Y39794D01*
X15000Y40500D01*
X14958Y41206D01*
X14793Y41895D01*
X14522Y42549D01*
X14152Y43153D01*
X14113Y43198D01*
Y47802D01*
X14152Y47847D01*
X14522Y48451D01*
X14793Y49105D01*
X14958Y49794D01*
X15000Y50500D01*
X14958Y51206D01*
X14793Y51895D01*
X14522Y52549D01*
X14152Y53153D01*
X14113Y53198D01*
Y57802D01*
X14152Y57847D01*
X14522Y58451D01*
X14793Y59105D01*
X14958Y59794D01*
X15000Y60500D01*
X14958Y61206D01*
X14793Y61895D01*
X14522Y62549D01*
X14152Y63153D01*
X14113Y63198D01*
Y67802D01*
X14152Y67847D01*
X14522Y68451D01*
X14793Y69105D01*
X14958Y69794D01*
X15000Y70500D01*
X14958Y71206D01*
X14793Y71895D01*
X14522Y72549D01*
X14152Y73153D01*
X14113Y73198D01*
Y87802D01*
X14152Y87847D01*
X14522Y88451D01*
X14793Y89105D01*
X14958Y89794D01*
X15000Y90500D01*
X14958Y91206D01*
X14793Y91895D01*
X14522Y92549D01*
X14152Y93153D01*
X14113Y93198D01*
Y98353D01*
X14156Y98360D01*
X14268Y98397D01*
X14373Y98452D01*
X14468Y98522D01*
X14551Y98606D01*
X14619Y98702D01*
X14670Y98808D01*
X14818Y99216D01*
X14922Y99637D01*
X14984Y100067D01*
X15005Y100500D01*
X14984Y100933D01*
X14922Y101363D01*
X14818Y101784D01*
X14675Y102194D01*
X14622Y102300D01*
X14553Y102396D01*
X14470Y102481D01*
X14375Y102551D01*
X14269Y102606D01*
X14157Y102643D01*
X14113Y102651D01*
Y108353D01*
X14156Y108360D01*
X14268Y108397D01*
X14373Y108452D01*
X14468Y108522D01*
X14551Y108606D01*
X14619Y108702D01*
X14670Y108808D01*
X14818Y109216D01*
X14922Y109637D01*
X14984Y110067D01*
X15005Y110500D01*
X14984Y110933D01*
X14922Y111363D01*
X14818Y111784D01*
X14675Y112194D01*
X14622Y112300D01*
X14553Y112396D01*
X14470Y112481D01*
X14375Y112551D01*
X14269Y112606D01*
X14157Y112643D01*
X14113Y112651D01*
Y117802D01*
X14152Y117847D01*
X14522Y118451D01*
X14793Y119105D01*
X14958Y119794D01*
X15000Y120500D01*
X14958Y121206D01*
X14793Y121895D01*
X14522Y122549D01*
X14152Y123153D01*
X14113Y123198D01*
Y127802D01*
X14152Y127847D01*
X14522Y128451D01*
X14793Y129105D01*
X14958Y129794D01*
X15000Y130500D01*
X14958Y131206D01*
X14793Y131895D01*
X14522Y132549D01*
X14152Y133153D01*
X14113Y133198D01*
Y137802D01*
X14152Y137847D01*
X14522Y138451D01*
X14793Y139105D01*
X14958Y139794D01*
X15000Y140500D01*
X14958Y141206D01*
X14793Y141895D01*
X14522Y142549D01*
X14152Y143153D01*
X14113Y143198D01*
Y146500D01*
X18843D01*
X19000Y146488D01*
X19628Y146537D01*
X20240Y146684D01*
X20822Y146925D01*
X21358Y147254D01*
X21837Y147663D01*
X21939Y147782D01*
X26493Y152336D01*
Y34500D01*
G37*
G36*
X14113Y143198D02*X13692Y143692D01*
X13153Y144152D01*
X12549Y144522D01*
X11895Y144793D01*
X11206Y144958D01*
X10500Y145014D01*
X10493Y145013D01*
Y145987D01*
X10500Y145986D01*
X11206Y146042D01*
X11895Y146207D01*
X12549Y146478D01*
X12585Y146500D01*
X14113D01*
Y143198D01*
G37*
G36*
Y133198D02*X13692Y133692D01*
X13153Y134152D01*
X12549Y134522D01*
X11895Y134793D01*
X11206Y134958D01*
X10500Y135014D01*
X10493Y135013D01*
Y135987D01*
X10500Y135986D01*
X11206Y136042D01*
X11895Y136207D01*
X12549Y136478D01*
X13153Y136848D01*
X13692Y137308D01*
X14113Y137802D01*
Y133198D01*
G37*
G36*
Y123198D02*X13692Y123692D01*
X13153Y124152D01*
X12549Y124522D01*
X11895Y124793D01*
X11206Y124958D01*
X10500Y125014D01*
X10493Y125013D01*
Y125987D01*
X10500Y125986D01*
X11206Y126042D01*
X11895Y126207D01*
X12549Y126478D01*
X13153Y126848D01*
X13692Y127308D01*
X14113Y127802D01*
Y123198D01*
G37*
G36*
Y93198D02*X13692Y93692D01*
X13153Y94152D01*
X12549Y94522D01*
X11895Y94793D01*
X11206Y94958D01*
X10500Y95014D01*
X10493Y95013D01*
Y95995D01*
X10500Y95995D01*
X10933Y96016D01*
X11363Y96078D01*
X11784Y96182D01*
X12194Y96325D01*
X12300Y96378D01*
X12396Y96447D01*
X12481Y96530D01*
X12551Y96625D01*
X12606Y96731D01*
X12643Y96843D01*
X12663Y96960D01*
X12664Y97079D01*
X12646Y97196D01*
X12610Y97309D01*
X12557Y97415D01*
X12488Y97512D01*
X12405Y97596D01*
X12309Y97667D01*
X12204Y97721D01*
X12092Y97759D01*
X11975Y97778D01*
X11856Y97779D01*
X11739Y97761D01*
X11626Y97723D01*
X11355Y97624D01*
X11075Y97556D01*
X10789Y97514D01*
X10500Y97500D01*
X10493Y97500D01*
Y103500D01*
X10500Y103500D01*
X10789Y103486D01*
X11075Y103444D01*
X11355Y103376D01*
X11628Y103280D01*
X11739Y103242D01*
X11856Y103225D01*
X11974Y103225D01*
X12091Y103245D01*
X12203Y103282D01*
X12307Y103336D01*
X12402Y103406D01*
X12485Y103491D01*
X12554Y103587D01*
X12607Y103692D01*
X12643Y103805D01*
X12660Y103921D01*
X12659Y104039D01*
X12640Y104156D01*
X12603Y104268D01*
X12548Y104373D01*
X12478Y104468D01*
X12394Y104551D01*
X12298Y104619D01*
X12192Y104670D01*
X11784Y104818D01*
X11363Y104922D01*
X10933Y104984D01*
X10500Y105005D01*
X10493Y105005D01*
Y105995D01*
X10500Y105995D01*
X10933Y106016D01*
X11363Y106078D01*
X11784Y106182D01*
X12194Y106325D01*
X12300Y106378D01*
X12396Y106447D01*
X12481Y106530D01*
X12551Y106625D01*
X12606Y106731D01*
X12643Y106843D01*
X12663Y106960D01*
X12664Y107079D01*
X12646Y107196D01*
X12610Y107309D01*
X12557Y107415D01*
X12488Y107512D01*
X12405Y107596D01*
X12309Y107667D01*
X12204Y107721D01*
X12092Y107759D01*
X11975Y107778D01*
X11856Y107779D01*
X11739Y107761D01*
X11626Y107723D01*
X11355Y107624D01*
X11075Y107556D01*
X10789Y107514D01*
X10500Y107500D01*
X10493Y107500D01*
Y113500D01*
X10500Y113500D01*
X10789Y113486D01*
X11075Y113444D01*
X11355Y113376D01*
X11628Y113280D01*
X11739Y113242D01*
X11856Y113225D01*
X11974Y113225D01*
X12091Y113245D01*
X12203Y113282D01*
X12307Y113336D01*
X12402Y113406D01*
X12485Y113491D01*
X12554Y113587D01*
X12607Y113692D01*
X12643Y113805D01*
X12660Y113921D01*
X12659Y114039D01*
X12640Y114156D01*
X12603Y114268D01*
X12548Y114373D01*
X12478Y114468D01*
X12394Y114551D01*
X12298Y114619D01*
X12192Y114670D01*
X11784Y114818D01*
X11363Y114922D01*
X10933Y114984D01*
X10500Y115005D01*
X10493Y115005D01*
Y115987D01*
X10500Y115986D01*
X11206Y116042D01*
X11895Y116207D01*
X12549Y116478D01*
X13153Y116848D01*
X13692Y117308D01*
X14113Y117802D01*
Y112651D01*
X14040Y112663D01*
X13921Y112664D01*
X13804Y112646D01*
X13691Y112610D01*
X13585Y112557D01*
X13488Y112488D01*
X13404Y112405D01*
X13333Y112309D01*
X13279Y112204D01*
X13241Y112092D01*
X13222Y111975D01*
X13221Y111856D01*
X13239Y111739D01*
X13277Y111626D01*
X13376Y111355D01*
X13444Y111075D01*
X13486Y110789D01*
X13500Y110500D01*
X13486Y110211D01*
X13444Y109925D01*
X13376Y109645D01*
X13280Y109372D01*
X13242Y109261D01*
X13225Y109144D01*
X13225Y109026D01*
X13245Y108909D01*
X13282Y108797D01*
X13336Y108693D01*
X13406Y108598D01*
X13491Y108515D01*
X13587Y108446D01*
X13692Y108393D01*
X13805Y108357D01*
X13921Y108340D01*
X14039Y108341D01*
X14113Y108353D01*
Y102651D01*
X14040Y102663D01*
X13921Y102664D01*
X13804Y102646D01*
X13691Y102610D01*
X13585Y102557D01*
X13488Y102488D01*
X13404Y102405D01*
X13333Y102309D01*
X13279Y102204D01*
X13241Y102092D01*
X13222Y101975D01*
X13221Y101856D01*
X13239Y101739D01*
X13277Y101626D01*
X13376Y101355D01*
X13444Y101075D01*
X13486Y100789D01*
X13500Y100500D01*
X13486Y100211D01*
X13444Y99925D01*
X13376Y99645D01*
X13280Y99372D01*
X13242Y99261D01*
X13225Y99144D01*
X13225Y99026D01*
X13245Y98909D01*
X13282Y98797D01*
X13336Y98693D01*
X13406Y98598D01*
X13491Y98515D01*
X13587Y98446D01*
X13692Y98393D01*
X13805Y98357D01*
X13921Y98340D01*
X14039Y98341D01*
X14113Y98353D01*
Y93198D01*
G37*
G36*
Y73198D02*X13692Y73692D01*
X13153Y74152D01*
X12549Y74522D01*
X11895Y74793D01*
X11206Y74958D01*
X10500Y75014D01*
X10493Y75013D01*
Y85987D01*
X10500Y85986D01*
X11206Y86042D01*
X11895Y86207D01*
X12549Y86478D01*
X13153Y86848D01*
X13692Y87308D01*
X14113Y87802D01*
Y73198D01*
G37*
G36*
Y63198D02*X13692Y63692D01*
X13153Y64152D01*
X12549Y64522D01*
X11895Y64793D01*
X11206Y64958D01*
X10500Y65014D01*
X10493Y65013D01*
Y65987D01*
X10500Y65986D01*
X11206Y66042D01*
X11895Y66207D01*
X12549Y66478D01*
X13153Y66848D01*
X13692Y67308D01*
X14113Y67802D01*
Y63198D01*
G37*
G36*
Y53198D02*X13692Y53692D01*
X13153Y54152D01*
X12549Y54522D01*
X11895Y54793D01*
X11206Y54958D01*
X10500Y55014D01*
X10493Y55013D01*
Y55987D01*
X10500Y55986D01*
X11206Y56042D01*
X11895Y56207D01*
X12549Y56478D01*
X13153Y56848D01*
X13692Y57308D01*
X14113Y57802D01*
Y53198D01*
G37*
G36*
Y43198D02*X13692Y43692D01*
X13153Y44152D01*
X12549Y44522D01*
X11895Y44793D01*
X11206Y44958D01*
X10500Y45014D01*
X10493Y45013D01*
Y45987D01*
X10500Y45986D01*
X11206Y46042D01*
X11895Y46207D01*
X12549Y46478D01*
X13153Y46848D01*
X13692Y47308D01*
X14113Y47802D01*
Y43198D01*
G37*
G36*
Y34500D02*X12585D01*
X12549Y34522D01*
X11895Y34793D01*
X11206Y34958D01*
X10500Y35014D01*
X10493Y35013D01*
Y35987D01*
X10500Y35986D01*
X11206Y36042D01*
X11895Y36207D01*
X12549Y36478D01*
X13153Y36848D01*
X13692Y37308D01*
X14113Y37802D01*
Y34500D01*
G37*
G36*
X6887Y117802D02*X7308Y117308D01*
X7847Y116848D01*
X8451Y116478D01*
X9105Y116207D01*
X9794Y116042D01*
X10493Y115987D01*
Y115005D01*
X10067Y114984D01*
X9637Y114922D01*
X9216Y114818D01*
X8806Y114675D01*
X8700Y114622D01*
X8604Y114553D01*
X8519Y114470D01*
X8449Y114375D01*
X8394Y114269D01*
X8357Y114157D01*
X8337Y114040D01*
X8336Y113921D01*
X8354Y113804D01*
X8390Y113691D01*
X8443Y113585D01*
X8512Y113488D01*
X8595Y113404D01*
X8691Y113333D01*
X8796Y113279D01*
X8908Y113241D01*
X9025Y113222D01*
X9144Y113221D01*
X9261Y113239D01*
X9374Y113277D01*
X9645Y113376D01*
X9925Y113444D01*
X10211Y113486D01*
X10493Y113500D01*
Y107500D01*
X10211Y107514D01*
X9925Y107556D01*
X9645Y107624D01*
X9372Y107720D01*
X9261Y107758D01*
X9144Y107775D01*
X9026Y107775D01*
X8909Y107755D01*
X8797Y107718D01*
X8693Y107664D01*
X8598Y107594D01*
X8515Y107509D01*
X8446Y107413D01*
X8393Y107308D01*
X8357Y107195D01*
X8340Y107079D01*
X8341Y106961D01*
X8360Y106844D01*
X8397Y106732D01*
X8452Y106627D01*
X8522Y106532D01*
X8606Y106449D01*
X8702Y106381D01*
X8808Y106330D01*
X9216Y106182D01*
X9637Y106078D01*
X10067Y106016D01*
X10493Y105995D01*
Y105005D01*
X10067Y104984D01*
X9637Y104922D01*
X9216Y104818D01*
X8806Y104675D01*
X8700Y104622D01*
X8604Y104553D01*
X8519Y104470D01*
X8449Y104375D01*
X8394Y104269D01*
X8357Y104157D01*
X8337Y104040D01*
X8336Y103921D01*
X8354Y103804D01*
X8390Y103691D01*
X8443Y103585D01*
X8512Y103488D01*
X8595Y103404D01*
X8691Y103333D01*
X8796Y103279D01*
X8908Y103241D01*
X9025Y103222D01*
X9144Y103221D01*
X9261Y103239D01*
X9374Y103277D01*
X9645Y103376D01*
X9925Y103444D01*
X10211Y103486D01*
X10493Y103500D01*
Y97500D01*
X10211Y97514D01*
X9925Y97556D01*
X9645Y97624D01*
X9372Y97720D01*
X9261Y97758D01*
X9144Y97775D01*
X9026Y97775D01*
X8909Y97755D01*
X8797Y97718D01*
X8693Y97664D01*
X8598Y97594D01*
X8515Y97509D01*
X8446Y97413D01*
X8393Y97308D01*
X8357Y97195D01*
X8340Y97079D01*
X8341Y96961D01*
X8360Y96844D01*
X8397Y96732D01*
X8452Y96627D01*
X8522Y96532D01*
X8606Y96449D01*
X8702Y96381D01*
X8808Y96330D01*
X9216Y96182D01*
X9637Y96078D01*
X10067Y96016D01*
X10493Y95995D01*
Y95013D01*
X9794Y94958D01*
X9105Y94793D01*
X8451Y94522D01*
X7847Y94152D01*
X7308Y93692D01*
X6887Y93198D01*
Y98349D01*
X6960Y98337D01*
X7079Y98336D01*
X7196Y98354D01*
X7309Y98390D01*
X7415Y98443D01*
X7512Y98512D01*
X7596Y98595D01*
X7667Y98691D01*
X7721Y98796D01*
X7759Y98908D01*
X7778Y99025D01*
X7779Y99144D01*
X7761Y99261D01*
X7723Y99374D01*
X7624Y99645D01*
X7556Y99925D01*
X7514Y100211D01*
X7500Y100500D01*
X7514Y100789D01*
X7556Y101075D01*
X7624Y101355D01*
X7720Y101628D01*
X7758Y101739D01*
X7775Y101856D01*
X7775Y101974D01*
X7755Y102091D01*
X7718Y102203D01*
X7664Y102307D01*
X7594Y102402D01*
X7509Y102485D01*
X7413Y102554D01*
X7308Y102607D01*
X7195Y102643D01*
X7079Y102660D01*
X6961Y102659D01*
X6887Y102647D01*
Y108349D01*
X6960Y108337D01*
X7079Y108336D01*
X7196Y108354D01*
X7309Y108390D01*
X7415Y108443D01*
X7512Y108512D01*
X7596Y108595D01*
X7667Y108691D01*
X7721Y108796D01*
X7759Y108908D01*
X7778Y109025D01*
X7779Y109144D01*
X7761Y109261D01*
X7723Y109374D01*
X7624Y109645D01*
X7556Y109925D01*
X7514Y110211D01*
X7500Y110500D01*
X7514Y110789D01*
X7556Y111075D01*
X7624Y111355D01*
X7720Y111628D01*
X7758Y111739D01*
X7775Y111856D01*
X7775Y111974D01*
X7755Y112091D01*
X7718Y112203D01*
X7664Y112307D01*
X7594Y112402D01*
X7509Y112485D01*
X7413Y112554D01*
X7308Y112607D01*
X7195Y112643D01*
X7079Y112660D01*
X6961Y112659D01*
X6887Y112647D01*
Y117802D01*
G37*
G36*
Y127802D02*X7308Y127308D01*
X7847Y126848D01*
X8451Y126478D01*
X9105Y126207D01*
X9794Y126042D01*
X10493Y125987D01*
Y125013D01*
X9794Y124958D01*
X9105Y124793D01*
X8451Y124522D01*
X7847Y124152D01*
X7308Y123692D01*
X6887Y123198D01*
Y127802D01*
G37*
G36*
Y137802D02*X7308Y137308D01*
X7847Y136848D01*
X8451Y136478D01*
X9105Y136207D01*
X9794Y136042D01*
X10493Y135987D01*
Y135013D01*
X9794Y134958D01*
X9105Y134793D01*
X8451Y134522D01*
X7847Y134152D01*
X7308Y133692D01*
X6887Y133198D01*
Y137802D01*
G37*
G36*
Y147802D02*X7308Y147308D01*
X7847Y146848D01*
X8451Y146478D01*
X9105Y146207D01*
X9794Y146042D01*
X10493Y145987D01*
Y145013D01*
X9794Y144958D01*
X9105Y144793D01*
X8451Y144522D01*
X7847Y144152D01*
X7308Y143692D01*
X6887Y143198D01*
Y147802D01*
G37*
G36*
Y156130D02*X7035Y156069D01*
X7265Y156014D01*
X7500Y156000D01*
X10493Y156007D01*
Y155013D01*
X9794Y154958D01*
X9105Y154793D01*
X8451Y154522D01*
X7847Y154152D01*
X7308Y153692D01*
X6887Y153198D01*
Y156130D01*
G37*
G36*
Y176766D02*X10493Y180372D01*
Y164993D01*
X7265Y164986D01*
X7035Y164931D01*
X6887Y164870D01*
Y176766D01*
G37*
G36*
X10493Y75013D02*X9794Y74958D01*
X9105Y74793D01*
X8556Y74565D01*
X6887Y76234D01*
Y87802D01*
X7308Y87308D01*
X7847Y86848D01*
X8451Y86478D01*
X9105Y86207D01*
X9794Y86042D01*
X10493Y85987D01*
Y75013D01*
G37*
G36*
X6887Y76234D02*X5000Y78121D01*
Y174879D01*
X6887Y176766D01*
Y164870D01*
X6817Y164841D01*
X6616Y164717D01*
X6436Y164564D01*
X6283Y164384D01*
X6159Y164183D01*
X6069Y163965D01*
X6014Y163735D01*
X6000Y163500D01*
X6014Y157265D01*
X6069Y157035D01*
X6159Y156817D01*
X6283Y156616D01*
X6436Y156436D01*
X6616Y156283D01*
X6817Y156159D01*
X6887Y156130D01*
Y153198D01*
X6848Y153153D01*
X6478Y152549D01*
X6207Y151895D01*
X6042Y151206D01*
X5986Y150500D01*
X6042Y149794D01*
X6207Y149105D01*
X6478Y148451D01*
X6848Y147847D01*
X6887Y147802D01*
Y143198D01*
X6848Y143153D01*
X6478Y142549D01*
X6207Y141895D01*
X6042Y141206D01*
X5986Y140500D01*
X6042Y139794D01*
X6207Y139105D01*
X6478Y138451D01*
X6848Y137847D01*
X6887Y137802D01*
Y133198D01*
X6848Y133153D01*
X6478Y132549D01*
X6207Y131895D01*
X6042Y131206D01*
X5986Y130500D01*
X6042Y129794D01*
X6207Y129105D01*
X6478Y128451D01*
X6848Y127847D01*
X6887Y127802D01*
Y123198D01*
X6848Y123153D01*
X6478Y122549D01*
X6207Y121895D01*
X6042Y121206D01*
X5986Y120500D01*
X6042Y119794D01*
X6207Y119105D01*
X6478Y118451D01*
X6848Y117847D01*
X6887Y117802D01*
Y112647D01*
X6844Y112640D01*
X6732Y112603D01*
X6627Y112548D01*
X6532Y112478D01*
X6449Y112394D01*
X6381Y112298D01*
X6330Y112192D01*
X6182Y111784D01*
X6078Y111363D01*
X6016Y110933D01*
X5995Y110500D01*
X6016Y110067D01*
X6078Y109637D01*
X6182Y109216D01*
X6325Y108806D01*
X6378Y108700D01*
X6447Y108604D01*
X6530Y108519D01*
X6625Y108449D01*
X6731Y108394D01*
X6843Y108357D01*
X6887Y108349D01*
Y102647D01*
X6844Y102640D01*
X6732Y102603D01*
X6627Y102548D01*
X6532Y102478D01*
X6449Y102394D01*
X6381Y102298D01*
X6330Y102192D01*
X6182Y101784D01*
X6078Y101363D01*
X6016Y100933D01*
X5995Y100500D01*
X6016Y100067D01*
X6078Y99637D01*
X6182Y99216D01*
X6325Y98806D01*
X6378Y98700D01*
X6447Y98604D01*
X6530Y98519D01*
X6625Y98449D01*
X6731Y98394D01*
X6843Y98357D01*
X6887Y98349D01*
Y93198D01*
X6848Y93153D01*
X6478Y92549D01*
X6207Y91895D01*
X6042Y91206D01*
X5986Y90500D01*
X6042Y89794D01*
X6207Y89105D01*
X6478Y88451D01*
X6848Y87847D01*
X6887Y87802D01*
Y76234D01*
G37*
G36*
X10493Y35013D02*X9794Y34958D01*
X9105Y34793D01*
X8451Y34522D01*
X8415Y34500D01*
X2500D01*
Y76379D01*
X6435Y72444D01*
X6207Y71895D01*
X6042Y71206D01*
X5986Y70500D01*
X6042Y69794D01*
X6207Y69105D01*
X6478Y68451D01*
X6848Y67847D01*
X7308Y67308D01*
X7847Y66848D01*
X8451Y66478D01*
X9105Y66207D01*
X9794Y66042D01*
X10493Y65987D01*
Y65013D01*
X9794Y64958D01*
X9105Y64793D01*
X8451Y64522D01*
X7847Y64152D01*
X7308Y63692D01*
X6848Y63153D01*
X6478Y62549D01*
X6207Y61895D01*
X6042Y61206D01*
X5986Y60500D01*
X6042Y59794D01*
X6207Y59105D01*
X6478Y58451D01*
X6848Y57847D01*
X7308Y57308D01*
X7847Y56848D01*
X8451Y56478D01*
X9105Y56207D01*
X9794Y56042D01*
X10493Y55987D01*
Y55013D01*
X9794Y54958D01*
X9105Y54793D01*
X8451Y54522D01*
X7847Y54152D01*
X7308Y53692D01*
X6848Y53153D01*
X6478Y52549D01*
X6207Y51895D01*
X6042Y51206D01*
X5986Y50500D01*
X6042Y49794D01*
X6207Y49105D01*
X6478Y48451D01*
X6848Y47847D01*
X7308Y47308D01*
X7847Y46848D01*
X8451Y46478D01*
X9105Y46207D01*
X9794Y46042D01*
X10493Y45987D01*
Y45013D01*
X9794Y44958D01*
X9105Y44793D01*
X8451Y44522D01*
X7847Y44152D01*
X7308Y43692D01*
X6848Y43153D01*
X6478Y42549D01*
X6207Y41895D01*
X6042Y41206D01*
X5986Y40500D01*
X6042Y39794D01*
X6207Y39105D01*
X6478Y38451D01*
X6848Y37847D01*
X7308Y37308D01*
X7847Y36848D01*
X8451Y36478D01*
X9105Y36207D01*
X9794Y36042D01*
X10493Y35987D01*
Y35013D01*
G37*
G36*
X125000Y138500D02*X174879D01*
X180000Y133379D01*
Y95500D01*
X125000D01*
Y124757D01*
X127796Y121962D01*
X127872Y121872D01*
X128231Y121565D01*
X128231Y121565D01*
X128634Y121319D01*
X129070Y121138D01*
X129440Y121049D01*
X129529Y121028D01*
X130000Y120991D01*
X130000D01*
X130471Y121028D01*
X130930Y121138D01*
X131366Y121319D01*
X131769Y121565D01*
X132128Y121872D01*
X132435Y122231D01*
X132681Y122634D01*
X132862Y123070D01*
X132951Y123440D01*
X132972Y123529D01*
Y123529D01*
X133009Y124000D01*
X132972Y124471D01*
X132862Y124930D01*
X132681Y125366D01*
X132435Y125769D01*
X132128Y126128D01*
X132038Y126204D01*
X125000Y133243D01*
Y138500D01*
G37*
G36*
X55158Y263500D02*X94879D01*
X104000Y254379D01*
Y253291D01*
X101265Y253286D01*
X101035Y253231D01*
X100817Y253141D01*
X100616Y253017D01*
X100436Y252864D01*
X100283Y252684D01*
X100159Y252483D01*
X100069Y252265D01*
X100014Y252035D01*
X100000Y251800D01*
X100001Y250981D01*
X99963Y251043D01*
X99401Y251701D01*
X98743Y252263D01*
X98005Y252716D01*
X97205Y253047D01*
X96363Y253249D01*
X95500Y253317D01*
X94637Y253249D01*
X93795Y253047D01*
X92995Y252716D01*
X92257Y252263D01*
X91599Y251701D01*
X91037Y251043D01*
X90584Y250305D01*
X90500Y250101D01*
X90416Y250305D01*
X89963Y251043D01*
X89401Y251701D01*
X88743Y252263D01*
X88005Y252716D01*
X87205Y253047D01*
X86363Y253249D01*
X85500Y253317D01*
X84637Y253249D01*
X83795Y253047D01*
X82995Y252716D01*
X82257Y252263D01*
X81599Y251701D01*
X81037Y251043D01*
X80584Y250305D01*
X80500Y250101D01*
X80416Y250305D01*
X79963Y251043D01*
X79401Y251701D01*
X78743Y252263D01*
X78005Y252716D01*
X77205Y253047D01*
X76363Y253249D01*
X75500Y253317D01*
X74637Y253249D01*
X73795Y253047D01*
X72995Y252716D01*
X72257Y252263D01*
X71599Y251701D01*
X71037Y251043D01*
X70584Y250305D01*
X70500Y250101D01*
X70416Y250305D01*
X69963Y251043D01*
X69401Y251701D01*
X68743Y252263D01*
X68005Y252716D01*
X67205Y253047D01*
X66363Y253249D01*
X65500Y253317D01*
X64637Y253249D01*
X63795Y253047D01*
X62995Y252716D01*
X62257Y252263D01*
X61599Y251701D01*
X61037Y251043D01*
X60584Y250305D01*
X60500Y250101D01*
X60416Y250305D01*
X59963Y251043D01*
X59401Y251701D01*
X58743Y252263D01*
X58005Y252716D01*
X57205Y253047D01*
X56363Y253249D01*
X55500Y253317D01*
X55158Y253290D01*
Y263500D01*
G37*
G36*
Y235500D02*X57379D01*
X78000Y214879D01*
Y202500D01*
X77972Y202971D01*
X77862Y203430D01*
X77681Y203866D01*
X77435Y204269D01*
X77128Y204628D01*
X76769Y204935D01*
X76366Y205181D01*
X75930Y205362D01*
X75471Y205472D01*
X75000Y205509D01*
X74529Y205472D01*
X74070Y205362D01*
X73634Y205181D01*
X73231Y204935D01*
X72872Y204628D01*
X72565Y204269D01*
X72319Y203866D01*
X72138Y203430D01*
X72028Y202971D01*
X72000Y202618D01*
Y205401D01*
X72269Y205565D01*
X72628Y205872D01*
X72935Y206231D01*
X73181Y206634D01*
X73362Y207070D01*
X73472Y207529D01*
X73500Y208000D01*
X73472Y208471D01*
X73362Y208930D01*
X73181Y209366D01*
X72935Y209769D01*
X72628Y210128D01*
X72269Y210435D01*
X71866Y210681D01*
X71430Y210862D01*
X70971Y210972D01*
X70500Y211009D01*
X70029Y210972D01*
X69570Y210862D01*
X69134Y210681D01*
X68731Y210435D01*
X68372Y210128D01*
X68065Y209769D01*
X67819Y209366D01*
X67638Y208930D01*
X67528Y208471D01*
X67491Y208000D01*
X67528Y207529D01*
X67638Y207070D01*
X67819Y206634D01*
X68065Y206231D01*
X68372Y205872D01*
X68731Y205565D01*
X69000Y205401D01*
Y200059D01*
X68995Y200000D01*
X69014Y199765D01*
X69069Y199535D01*
X69159Y199317D01*
X69283Y199116D01*
X69283Y199115D01*
X69436Y198936D01*
X69481Y198898D01*
X73000Y195379D01*
Y154059D01*
X72995Y154000D01*
X73014Y153765D01*
X73069Y153535D01*
X73159Y153317D01*
X73283Y153116D01*
X73436Y152936D01*
X73481Y152898D01*
X87398Y138981D01*
X87436Y138936D01*
X87615Y138783D01*
X87616Y138783D01*
X87817Y138659D01*
X88035Y138569D01*
X88265Y138514D01*
X88500Y138495D01*
X88559Y138500D01*
X125000D01*
Y133243D01*
X124704Y133538D01*
X124628Y133628D01*
X124269Y133935D01*
X123866Y134181D01*
X123430Y134362D01*
X122971Y134472D01*
X122971Y134472D01*
X122500Y134509D01*
X122382Y134500D01*
X120118D01*
X120000Y134509D01*
X119529Y134472D01*
X119070Y134362D01*
X118634Y134181D01*
X118231Y133935D01*
X117872Y133628D01*
X117565Y133269D01*
X117319Y132866D01*
X117138Y132430D01*
X117028Y131971D01*
X116991Y131500D01*
X117028Y131029D01*
X117138Y130570D01*
X117319Y130134D01*
X117565Y129731D01*
X117872Y129372D01*
X118231Y129065D01*
X118634Y128819D01*
X119070Y128638D01*
X119529Y128528D01*
X120000Y128491D01*
X120118Y128500D01*
X121257D01*
X125000Y124757D01*
Y95500D01*
X116000D01*
Y127441D01*
X116005Y127500D01*
X115986Y127735D01*
X115986Y127735D01*
X115931Y127965D01*
X115841Y128183D01*
X115717Y128384D01*
X115564Y128564D01*
X115519Y128602D01*
X113399Y130723D01*
X113472Y131029D01*
X113500Y131500D01*
X113472Y131971D01*
X113362Y132430D01*
X113181Y132866D01*
X112935Y133269D01*
X112628Y133628D01*
X112269Y133935D01*
X111866Y134181D01*
X111430Y134362D01*
X110971Y134472D01*
X110500Y134509D01*
X110029Y134472D01*
X109570Y134362D01*
X109134Y134181D01*
X108731Y133935D01*
X108372Y133628D01*
X108065Y133269D01*
X107819Y132866D01*
X107638Y132430D01*
X107528Y131971D01*
X107491Y131500D01*
X107528Y131029D01*
X107638Y130570D01*
X107819Y130134D01*
X108065Y129731D01*
X108372Y129372D01*
X108731Y129065D01*
X109134Y128819D01*
X109570Y128638D01*
X110029Y128528D01*
X110500Y128491D01*
X110971Y128528D01*
X111277Y128601D01*
X113000Y126879D01*
Y95500D01*
X55158D01*
Y124464D01*
X55400Y124445D01*
X56332Y124518D01*
X57240Y124736D01*
X58104Y125094D01*
X58900Y125582D01*
X59611Y126189D01*
X60218Y126900D01*
X60706Y127696D01*
X61064Y128560D01*
X61282Y129468D01*
X61337Y130400D01*
X61282Y131332D01*
X61064Y132240D01*
X60706Y133104D01*
X60218Y133900D01*
X59611Y134611D01*
X58900Y135218D01*
X58104Y135706D01*
X57240Y136064D01*
X56332Y136282D01*
X55400Y136355D01*
X55158Y136336D01*
Y235500D01*
G37*
G36*
X45402Y201362D02*X45430Y201247D01*
X45482Y200875D01*
X45500Y200500D01*
X45482Y200125D01*
X45430Y199753D01*
X45402Y199638D01*
Y201362D01*
G37*
G36*
Y263500D02*X55158D01*
Y253290D01*
X54637Y253249D01*
X53795Y253047D01*
X52995Y252716D01*
X52257Y252263D01*
X51599Y251701D01*
X51037Y251043D01*
X50584Y250305D01*
X50500Y250101D01*
X50416Y250305D01*
X49963Y251043D01*
X49401Y251701D01*
X48743Y252263D01*
X48005Y252716D01*
X47205Y253047D01*
X46363Y253249D01*
X45500Y253317D01*
X45402Y253309D01*
Y263500D01*
G37*
G36*
Y235976D02*X45436Y235936D01*
X45616Y235783D01*
X45817Y235659D01*
X46035Y235569D01*
X46265Y235514D01*
X46500Y235495D01*
X46559Y235500D01*
X55158D01*
Y136336D01*
X54468Y136282D01*
X53560Y136064D01*
X52696Y135706D01*
X51900Y135218D01*
X51189Y134611D01*
X50582Y133900D01*
X50165Y133221D01*
X50076Y133236D01*
X49918Y133238D01*
X49761Y133215D01*
X49610Y133168D01*
X49469Y133098D01*
X49339Y133007D01*
X49226Y132896D01*
X49132Y132770D01*
X49058Y132630D01*
X49008Y132480D01*
X48981Y132324D01*
X48979Y132166D01*
X49002Y132010D01*
X49052Y131860D01*
X49178Y131508D01*
X49266Y131144D01*
X49319Y130774D01*
X49337Y130400D01*
X49319Y130026D01*
X49266Y129656D01*
X49178Y129292D01*
X49056Y128939D01*
X49006Y128789D01*
X48983Y128634D01*
X48985Y128476D01*
X49012Y128321D01*
X49062Y128172D01*
X49136Y128033D01*
X49230Y127907D01*
X49342Y127797D01*
X49471Y127706D01*
X49612Y127636D01*
X49762Y127589D01*
X49918Y127567D01*
X50075Y127568D01*
X50163Y127583D01*
X50582Y126900D01*
X51189Y126189D01*
X51900Y125582D01*
X52696Y125094D01*
X53560Y124736D01*
X54468Y124518D01*
X55158Y124464D01*
Y95500D01*
X45402D01*
Y124456D01*
X45964Y124483D01*
X46523Y124563D01*
X47072Y124696D01*
X47606Y124881D01*
X47748Y124950D01*
X47877Y125042D01*
X47991Y125152D01*
X48085Y125279D01*
X48159Y125419D01*
X48209Y125568D01*
X48236Y125724D01*
X48238Y125882D01*
X48215Y126039D01*
X48168Y126190D01*
X48098Y126331D01*
X48007Y126461D01*
X47896Y126574D01*
X47770Y126668D01*
X47630Y126742D01*
X47480Y126792D01*
X47324Y126819D01*
X47166Y126821D01*
X47010Y126798D01*
X46860Y126748D01*
X46508Y126622D01*
X46144Y126534D01*
X45774Y126481D01*
X45402Y126463D01*
Y134337D01*
X45774Y134319D01*
X46144Y134266D01*
X46508Y134178D01*
X46861Y134056D01*
X47011Y134006D01*
X47166Y133983D01*
X47324Y133985D01*
X47479Y134012D01*
X47628Y134062D01*
X47767Y134136D01*
X47893Y134230D01*
X48003Y134342D01*
X48094Y134471D01*
X48164Y134612D01*
X48211Y134762D01*
X48233Y134918D01*
X48232Y135075D01*
X48205Y135231D01*
X48154Y135380D01*
X48081Y135519D01*
X47987Y135645D01*
X47875Y135755D01*
X47746Y135846D01*
X47604Y135913D01*
X47072Y136104D01*
X46523Y136237D01*
X45964Y136317D01*
X45402Y136344D01*
Y176600D01*
X45963Y177257D01*
X46416Y177995D01*
X46747Y178795D01*
X46949Y179637D01*
X47000Y180500D01*
X46949Y181363D01*
X46747Y182205D01*
X46416Y183005D01*
X45963Y183743D01*
X45402Y184400D01*
Y197677D01*
X45504Y197635D01*
X45619Y197607D01*
X45737Y197598D01*
X45855Y197608D01*
X45969Y197635D01*
X46078Y197681D01*
X46179Y197743D01*
X46269Y197819D01*
X46345Y197909D01*
X46405Y198011D01*
X46622Y198480D01*
X46789Y198969D01*
X46909Y199472D01*
X46982Y199984D01*
X47006Y200500D01*
X46982Y201016D01*
X46909Y201528D01*
X46789Y202031D01*
X46622Y202520D01*
X46410Y202992D01*
X46349Y203093D01*
X46272Y203184D01*
X46182Y203261D01*
X46080Y203323D01*
X45971Y203369D01*
X45855Y203397D01*
X45737Y203406D01*
X45619Y203397D01*
X45503Y203370D01*
X45402Y203328D01*
Y215013D01*
X45735Y215014D01*
X45965Y215069D01*
X46183Y215159D01*
X46384Y215283D01*
X46564Y215436D01*
X46717Y215616D01*
X46841Y215817D01*
X46931Y216035D01*
X46986Y216265D01*
X47000Y216500D01*
X46986Y224735D01*
X46931Y224965D01*
X46841Y225183D01*
X46717Y225384D01*
X46564Y225564D01*
X46384Y225717D01*
X46183Y225841D01*
X45965Y225931D01*
X45735Y225986D01*
X45500Y226000D01*
X45402Y226000D01*
Y235976D01*
G37*
G36*
Y95500D02*X35642D01*
Y124472D01*
X39651Y124482D01*
X39957Y124555D01*
X40248Y124675D01*
X40516Y124840D01*
X40756Y125044D01*
X40960Y125284D01*
X41125Y125552D01*
X41245Y125843D01*
X41318Y126149D01*
X41337Y126463D01*
X41334Y127704D01*
X41461Y127793D01*
X41574Y127904D01*
X41668Y128030D01*
X41742Y128170D01*
X41792Y128320D01*
X41819Y128476D01*
X41821Y128634D01*
X41798Y128790D01*
X41748Y128940D01*
X41622Y129292D01*
X41534Y129656D01*
X41481Y130026D01*
X41463Y130400D01*
X41481Y130774D01*
X41534Y131144D01*
X41622Y131508D01*
X41744Y131861D01*
X41794Y132011D01*
X41817Y132166D01*
X41815Y132324D01*
X41788Y132479D01*
X41738Y132628D01*
X41664Y132767D01*
X41570Y132893D01*
X41458Y133003D01*
X41329Y133094D01*
X41322Y133098D01*
X41318Y134651D01*
X41245Y134957D01*
X41125Y135248D01*
X40960Y135516D01*
X40756Y135756D01*
X40516Y135960D01*
X40248Y136125D01*
X39957Y136245D01*
X39651Y136318D01*
X39337Y136337D01*
X35642Y136329D01*
Y176500D01*
X37715D01*
X38257Y176037D01*
X38995Y175584D01*
X39795Y175253D01*
X40637Y175051D01*
X41500Y174983D01*
X42363Y175051D01*
X43205Y175253D01*
X44005Y175584D01*
X44743Y176037D01*
X45401Y176599D01*
X45402Y176600D01*
Y136344D01*
X45400Y136344D01*
X44836Y136317D01*
X44277Y136237D01*
X43728Y136104D01*
X43194Y135919D01*
X43052Y135850D01*
X42923Y135758D01*
X42809Y135648D01*
X42715Y135521D01*
X42641Y135381D01*
X42591Y135232D01*
X42564Y135076D01*
X42562Y134918D01*
X42585Y134761D01*
X42632Y134610D01*
X42702Y134469D01*
X42793Y134339D01*
X42904Y134226D01*
X43030Y134132D01*
X43170Y134058D01*
X43320Y134008D01*
X43476Y133981D01*
X43634Y133979D01*
X43790Y134002D01*
X43940Y134052D01*
X44292Y134178D01*
X44656Y134266D01*
X45026Y134319D01*
X45400Y134337D01*
X45402Y134337D01*
Y126463D01*
X45400Y126463D01*
X45026Y126481D01*
X44656Y126534D01*
X44292Y126622D01*
X43939Y126744D01*
X43789Y126794D01*
X43634Y126817D01*
X43476Y126815D01*
X43321Y126788D01*
X43172Y126738D01*
X43033Y126664D01*
X42907Y126570D01*
X42797Y126458D01*
X42706Y126329D01*
X42636Y126188D01*
X42589Y126038D01*
X42567Y125882D01*
X42568Y125725D01*
X42595Y125569D01*
X42646Y125420D01*
X42719Y125281D01*
X42813Y125155D01*
X42925Y125045D01*
X43054Y124954D01*
X43196Y124887D01*
X43728Y124696D01*
X44277Y124563D01*
X44836Y124483D01*
X45400Y124456D01*
X45402Y124456D01*
Y95500D01*
G37*
G36*
X35642D02*X26493D01*
Y152336D01*
X28718Y154561D01*
X28837Y154663D01*
X29246Y155141D01*
X29246Y155142D01*
X29575Y155678D01*
X29816Y156260D01*
X29963Y156872D01*
X30012Y157500D01*
X30000Y157657D01*
Y171843D01*
X34657Y176500D01*
X35642D01*
Y136329D01*
X31149Y136318D01*
X30843Y136245D01*
X30552Y136125D01*
X30284Y135960D01*
X30044Y135756D01*
X29840Y135516D01*
X29675Y135248D01*
X29555Y134957D01*
X29482Y134651D01*
X29463Y134337D01*
X29482Y126149D01*
X29555Y125843D01*
X29675Y125552D01*
X29840Y125284D01*
X30044Y125044D01*
X30284Y124840D01*
X30552Y124675D01*
X30843Y124555D01*
X31149Y124482D01*
X31463Y124463D01*
X35642Y124472D01*
Y95500D01*
G37*
G36*
X41502Y263500D02*X45402D01*
Y253309D01*
X44637Y253249D01*
X43795Y253047D01*
X42995Y252716D01*
X42257Y252263D01*
X41599Y251701D01*
X41502Y251588D01*
Y263500D01*
G37*
G36*
Y215007D02*X45402Y215013D01*
Y203328D01*
X45393Y203324D01*
X45292Y203262D01*
X45202Y203186D01*
X45124Y203095D01*
X45062Y202994D01*
X45016Y202885D01*
X44989Y202769D01*
X44979Y202651D01*
X44988Y202532D01*
X45016Y202417D01*
X45063Y202308D01*
X45221Y201968D01*
X45342Y201612D01*
X45402Y201362D01*
Y199638D01*
X45342Y199388D01*
X45221Y199032D01*
X45067Y198690D01*
X45020Y198582D01*
X44993Y198467D01*
X44983Y198349D01*
X44993Y198232D01*
X45021Y198117D01*
X45066Y198008D01*
X45128Y197907D01*
X45205Y197818D01*
X45295Y197741D01*
X45395Y197680D01*
X45402Y197677D01*
Y184400D01*
X45401Y184401D01*
X44743Y184963D01*
X44005Y185416D01*
X43205Y185747D01*
X42363Y185949D01*
X41502Y186017D01*
Y194994D01*
X42016Y195018D01*
X42528Y195091D01*
X43031Y195211D01*
X43520Y195378D01*
X43992Y195590D01*
X44093Y195651D01*
X44184Y195728D01*
X44261Y195818D01*
X44323Y195920D01*
X44369Y196029D01*
X44397Y196145D01*
X44406Y196263D01*
X44397Y196381D01*
X44370Y196497D01*
X44324Y196607D01*
X44262Y196708D01*
X44186Y196798D01*
X44095Y196876D01*
X43994Y196938D01*
X43885Y196984D01*
X43769Y197011D01*
X43651Y197021D01*
X43532Y197012D01*
X43417Y196984D01*
X43308Y196937D01*
X42968Y196779D01*
X42612Y196658D01*
X42247Y196570D01*
X41875Y196518D01*
X41502Y196500D01*
Y204500D01*
X41875Y204482D01*
X42247Y204430D01*
X42612Y204342D01*
X42968Y204221D01*
X43310Y204067D01*
X43418Y204020D01*
X43533Y203993D01*
X43651Y203983D01*
X43768Y203993D01*
X43883Y204021D01*
X43992Y204066D01*
X44093Y204128D01*
X44182Y204205D01*
X44259Y204295D01*
X44320Y204395D01*
X44365Y204504D01*
X44393Y204619D01*
X44402Y204737D01*
X44392Y204855D01*
X44365Y204969D01*
X44319Y205078D01*
X44257Y205179D01*
X44181Y205269D01*
X44091Y205345D01*
X43989Y205405D01*
X43520Y205622D01*
X43031Y205789D01*
X42528Y205909D01*
X42016Y205982D01*
X41502Y206006D01*
Y215007D01*
G37*
G36*
Y239876D02*X45398Y235981D01*
X45402Y235976D01*
Y226000D01*
X41502Y225993D01*
Y239876D01*
G37*
G36*
X37007Y263500D02*X41502D01*
Y251588D01*
X41037Y251043D01*
X40584Y250305D01*
X40500Y250101D01*
X40416Y250305D01*
X39963Y251043D01*
X39401Y251701D01*
X38743Y252263D01*
X38005Y252716D01*
X37205Y253047D01*
X37007Y253094D01*
Y263500D01*
G37*
G36*
Y215080D02*X37035Y215069D01*
X37265Y215014D01*
X37500Y215000D01*
X41502Y215007D01*
Y206006D01*
X41500Y206006D01*
X40984Y205982D01*
X40472Y205909D01*
X39969Y205789D01*
X39480Y205622D01*
X39008Y205410D01*
X38907Y205349D01*
X38816Y205272D01*
X38739Y205182D01*
X38677Y205080D01*
X38631Y204971D01*
X38603Y204855D01*
X38594Y204737D01*
X38603Y204619D01*
X38630Y204503D01*
X38676Y204393D01*
X38738Y204292D01*
X38814Y204202D01*
X38905Y204124D01*
X39006Y204062D01*
X39115Y204016D01*
X39231Y203989D01*
X39349Y203979D01*
X39468Y203988D01*
X39583Y204016D01*
X39692Y204063D01*
X40032Y204221D01*
X40388Y204342D01*
X40753Y204430D01*
X41125Y204482D01*
X41500Y204500D01*
X41502Y204500D01*
Y196500D01*
X41500Y196500D01*
X41125Y196518D01*
X40753Y196570D01*
X40388Y196658D01*
X40032Y196779D01*
X39690Y196933D01*
X39582Y196980D01*
X39467Y197007D01*
X39349Y197017D01*
X39232Y197007D01*
X39117Y196979D01*
X39008Y196934D01*
X38907Y196872D01*
X38818Y196795D01*
X38741Y196705D01*
X38680Y196605D01*
X38635Y196496D01*
X38607Y196381D01*
X38598Y196263D01*
X38608Y196145D01*
X38635Y196031D01*
X38681Y195922D01*
X38743Y195821D01*
X38819Y195731D01*
X38909Y195655D01*
X39011Y195595D01*
X39480Y195378D01*
X39969Y195211D01*
X40472Y195091D01*
X40984Y195018D01*
X41500Y194994D01*
X41502Y194994D01*
Y186017D01*
X41500Y186017D01*
X40637Y185949D01*
X39795Y185747D01*
X38995Y185416D01*
X38257Y184963D01*
X37715Y184500D01*
X37007D01*
Y197640D01*
X37029Y197631D01*
X37145Y197603D01*
X37263Y197594D01*
X37381Y197603D01*
X37497Y197630D01*
X37607Y197676D01*
X37708Y197738D01*
X37798Y197814D01*
X37876Y197905D01*
X37938Y198006D01*
X37984Y198115D01*
X38011Y198231D01*
X38021Y198349D01*
X38012Y198468D01*
X37984Y198583D01*
X37937Y198692D01*
X37779Y199032D01*
X37658Y199388D01*
X37570Y199753D01*
X37518Y200125D01*
X37500Y200500D01*
X37518Y200875D01*
X37570Y201247D01*
X37658Y201612D01*
X37779Y201968D01*
X37933Y202310D01*
X37980Y202418D01*
X38007Y202533D01*
X38017Y202651D01*
X38007Y202768D01*
X37979Y202883D01*
X37934Y202992D01*
X37872Y203093D01*
X37795Y203182D01*
X37705Y203259D01*
X37605Y203320D01*
X37496Y203365D01*
X37381Y203393D01*
X37263Y203402D01*
X37145Y203392D01*
X37031Y203365D01*
X37007Y203355D01*
Y215080D01*
G37*
G36*
X38308Y243070D02*X41502Y239876D01*
Y225993D01*
X37265Y225986D01*
X37035Y225931D01*
X37007Y225920D01*
Y242506D01*
X37205Y242553D01*
X38005Y242884D01*
X38308Y243070D01*
G37*
G36*
X37007Y225920D02*X36817Y225841D01*
X36616Y225717D01*
X36436Y225564D01*
X36283Y225384D01*
X36159Y225183D01*
X36069Y224965D01*
X36014Y224735D01*
X36000Y224500D01*
X36014Y216265D01*
X36069Y216035D01*
X36159Y215817D01*
X36283Y215616D01*
X36436Y215436D01*
X36616Y215283D01*
X36817Y215159D01*
X37007Y215080D01*
Y203355D01*
X36922Y203319D01*
X36821Y203257D01*
X36731Y203181D01*
X36655Y203091D01*
X36595Y202989D01*
X36378Y202520D01*
X36211Y202031D01*
X36091Y201528D01*
X36018Y201016D01*
X35994Y200500D01*
X36018Y199984D01*
X36091Y199472D01*
X36211Y198969D01*
X36378Y198480D01*
X36590Y198008D01*
X36651Y197907D01*
X36728Y197816D01*
X36818Y197739D01*
X36920Y197677D01*
X37007Y197640D01*
Y184500D01*
X33157D01*
X33000Y184512D01*
X32372Y184463D01*
X31760Y184316D01*
X31178Y184075D01*
X30642Y183746D01*
X30641Y183746D01*
X30163Y183337D01*
X30061Y183218D01*
X26493Y179650D01*
Y260872D01*
X29121Y263500D01*
X37007D01*
Y253094D01*
X36363Y253249D01*
X35500Y253317D01*
X34637Y253249D01*
X33795Y253047D01*
X32995Y252716D01*
X32257Y252263D01*
X31599Y251701D01*
X31037Y251043D01*
X30584Y250305D01*
X30253Y249505D01*
X30051Y248663D01*
X29983Y247800D01*
X30051Y246937D01*
X30253Y246095D01*
X30584Y245295D01*
X31037Y244557D01*
X31599Y243899D01*
X32257Y243337D01*
X32995Y242884D01*
X33795Y242553D01*
X34637Y242351D01*
X35500Y242283D01*
X36363Y242351D01*
X37007Y242506D01*
Y225920D01*
G37*
G36*
X10493Y180372D02*X25019Y194898D01*
X25064Y194936D01*
X25217Y195115D01*
X25217Y195116D01*
X25341Y195317D01*
X25431Y195535D01*
X25486Y195765D01*
X25505Y196000D01*
X25500Y196059D01*
Y259879D01*
X26493Y260872D01*
Y179650D01*
X23282Y176439D01*
X23163Y176337D01*
X22754Y175858D01*
X22425Y175322D01*
X22184Y174740D01*
X22037Y174128D01*
X21988Y173500D01*
X22000Y173343D01*
Y159157D01*
X17343Y154500D01*
X12585D01*
X12549Y154522D01*
X11895Y154793D01*
X11206Y154958D01*
X10500Y155014D01*
X10493Y155013D01*
Y156007D01*
X13735Y156014D01*
X13965Y156069D01*
X14183Y156159D01*
X14384Y156283D01*
X14564Y156436D01*
X14717Y156616D01*
X14841Y156817D01*
X14931Y157035D01*
X14986Y157265D01*
X15000Y157500D01*
X14986Y163735D01*
X14931Y163965D01*
X14841Y164183D01*
X14717Y164384D01*
X14564Y164564D01*
X14384Y164717D01*
X14183Y164841D01*
X13965Y164931D01*
X13735Y164986D01*
X13500Y165000D01*
X10493Y164993D01*
Y180372D01*
G37*
G36*
X26493Y95500D02*X14113D01*
Y98353D01*
X14156Y98360D01*
X14268Y98397D01*
X14373Y98452D01*
X14468Y98522D01*
X14551Y98606D01*
X14619Y98702D01*
X14670Y98808D01*
X14818Y99216D01*
X14922Y99637D01*
X14984Y100067D01*
X15005Y100500D01*
X14984Y100933D01*
X14922Y101363D01*
X14818Y101784D01*
X14675Y102194D01*
X14622Y102300D01*
X14553Y102396D01*
X14470Y102481D01*
X14375Y102551D01*
X14269Y102606D01*
X14157Y102643D01*
X14113Y102651D01*
Y108353D01*
X14156Y108360D01*
X14268Y108397D01*
X14373Y108452D01*
X14468Y108522D01*
X14551Y108606D01*
X14619Y108702D01*
X14670Y108808D01*
X14818Y109216D01*
X14922Y109637D01*
X14984Y110067D01*
X15005Y110500D01*
X14984Y110933D01*
X14922Y111363D01*
X14818Y111784D01*
X14675Y112194D01*
X14622Y112300D01*
X14553Y112396D01*
X14470Y112481D01*
X14375Y112551D01*
X14269Y112606D01*
X14157Y112643D01*
X14113Y112651D01*
Y117802D01*
X14152Y117847D01*
X14522Y118451D01*
X14793Y119105D01*
X14958Y119794D01*
X15000Y120500D01*
X14958Y121206D01*
X14793Y121895D01*
X14522Y122549D01*
X14152Y123153D01*
X14113Y123198D01*
Y127802D01*
X14152Y127847D01*
X14522Y128451D01*
X14793Y129105D01*
X14958Y129794D01*
X15000Y130500D01*
X14958Y131206D01*
X14793Y131895D01*
X14522Y132549D01*
X14152Y133153D01*
X14113Y133198D01*
Y137802D01*
X14152Y137847D01*
X14522Y138451D01*
X14793Y139105D01*
X14958Y139794D01*
X15000Y140500D01*
X14958Y141206D01*
X14793Y141895D01*
X14522Y142549D01*
X14152Y143153D01*
X14113Y143198D01*
Y146500D01*
X18843D01*
X19000Y146488D01*
X19628Y146537D01*
X20240Y146684D01*
X20822Y146925D01*
X21358Y147254D01*
X21837Y147663D01*
X21939Y147782D01*
X26493Y152336D01*
Y95500D01*
G37*
G36*
X14113Y143198D02*X13692Y143692D01*
X13153Y144152D01*
X12549Y144522D01*
X11895Y144793D01*
X11206Y144958D01*
X10500Y145014D01*
X10493Y145013D01*
Y145987D01*
X10500Y145986D01*
X11206Y146042D01*
X11895Y146207D01*
X12549Y146478D01*
X12585Y146500D01*
X14113D01*
Y143198D01*
G37*
G36*
Y133198D02*X13692Y133692D01*
X13153Y134152D01*
X12549Y134522D01*
X11895Y134793D01*
X11206Y134958D01*
X10500Y135014D01*
X10493Y135013D01*
Y135987D01*
X10500Y135986D01*
X11206Y136042D01*
X11895Y136207D01*
X12549Y136478D01*
X13153Y136848D01*
X13692Y137308D01*
X14113Y137802D01*
Y133198D01*
G37*
G36*
Y123198D02*X13692Y123692D01*
X13153Y124152D01*
X12549Y124522D01*
X11895Y124793D01*
X11206Y124958D01*
X10500Y125014D01*
X10493Y125013D01*
Y125987D01*
X10500Y125986D01*
X11206Y126042D01*
X11895Y126207D01*
X12549Y126478D01*
X13153Y126848D01*
X13692Y127308D01*
X14113Y127802D01*
Y123198D01*
G37*
G36*
Y95500D02*X10493D01*
Y95995D01*
X10500Y95995D01*
X10933Y96016D01*
X11363Y96078D01*
X11784Y96182D01*
X12194Y96325D01*
X12300Y96378D01*
X12396Y96447D01*
X12481Y96530D01*
X12551Y96625D01*
X12606Y96731D01*
X12643Y96843D01*
X12663Y96960D01*
X12664Y97079D01*
X12646Y97196D01*
X12610Y97309D01*
X12557Y97415D01*
X12488Y97512D01*
X12405Y97596D01*
X12309Y97667D01*
X12204Y97721D01*
X12092Y97759D01*
X11975Y97778D01*
X11856Y97779D01*
X11739Y97761D01*
X11626Y97723D01*
X11355Y97624D01*
X11075Y97556D01*
X10789Y97514D01*
X10500Y97500D01*
X10493Y97500D01*
Y103500D01*
X10500Y103500D01*
X10789Y103486D01*
X11075Y103444D01*
X11355Y103376D01*
X11628Y103280D01*
X11739Y103242D01*
X11856Y103225D01*
X11974Y103225D01*
X12091Y103245D01*
X12203Y103282D01*
X12307Y103336D01*
X12402Y103406D01*
X12485Y103491D01*
X12554Y103587D01*
X12607Y103692D01*
X12643Y103805D01*
X12660Y103921D01*
X12659Y104039D01*
X12640Y104156D01*
X12603Y104268D01*
X12548Y104373D01*
X12478Y104468D01*
X12394Y104551D01*
X12298Y104619D01*
X12192Y104670D01*
X11784Y104818D01*
X11363Y104922D01*
X10933Y104984D01*
X10500Y105005D01*
X10493Y105005D01*
Y105995D01*
X10500Y105995D01*
X10933Y106016D01*
X11363Y106078D01*
X11784Y106182D01*
X12194Y106325D01*
X12300Y106378D01*
X12396Y106447D01*
X12481Y106530D01*
X12551Y106625D01*
X12606Y106731D01*
X12643Y106843D01*
X12663Y106960D01*
X12664Y107079D01*
X12646Y107196D01*
X12610Y107309D01*
X12557Y107415D01*
X12488Y107512D01*
X12405Y107596D01*
X12309Y107667D01*
X12204Y107721D01*
X12092Y107759D01*
X11975Y107778D01*
X11856Y107779D01*
X11739Y107761D01*
X11626Y107723D01*
X11355Y107624D01*
X11075Y107556D01*
X10789Y107514D01*
X10500Y107500D01*
X10493Y107500D01*
Y113500D01*
X10500Y113500D01*
X10789Y113486D01*
X11075Y113444D01*
X11355Y113376D01*
X11628Y113280D01*
X11739Y113242D01*
X11856Y113225D01*
X11974Y113225D01*
X12091Y113245D01*
X12203Y113282D01*
X12307Y113336D01*
X12402Y113406D01*
X12485Y113491D01*
X12554Y113587D01*
X12607Y113692D01*
X12643Y113805D01*
X12660Y113921D01*
X12659Y114039D01*
X12640Y114156D01*
X12603Y114268D01*
X12548Y114373D01*
X12478Y114468D01*
X12394Y114551D01*
X12298Y114619D01*
X12192Y114670D01*
X11784Y114818D01*
X11363Y114922D01*
X10933Y114984D01*
X10500Y115005D01*
X10493Y115005D01*
Y115987D01*
X10500Y115986D01*
X11206Y116042D01*
X11895Y116207D01*
X12549Y116478D01*
X13153Y116848D01*
X13692Y117308D01*
X14113Y117802D01*
Y112651D01*
X14040Y112663D01*
X13921Y112664D01*
X13804Y112646D01*
X13691Y112610D01*
X13585Y112557D01*
X13488Y112488D01*
X13404Y112405D01*
X13333Y112309D01*
X13279Y112204D01*
X13241Y112092D01*
X13222Y111975D01*
X13221Y111856D01*
X13239Y111739D01*
X13277Y111626D01*
X13376Y111355D01*
X13444Y111075D01*
X13486Y110789D01*
X13500Y110500D01*
X13486Y110211D01*
X13444Y109925D01*
X13376Y109645D01*
X13280Y109372D01*
X13242Y109261D01*
X13225Y109144D01*
X13225Y109026D01*
X13245Y108909D01*
X13282Y108797D01*
X13336Y108693D01*
X13406Y108598D01*
X13491Y108515D01*
X13587Y108446D01*
X13692Y108393D01*
X13805Y108357D01*
X13921Y108340D01*
X14039Y108341D01*
X14113Y108353D01*
Y102651D01*
X14040Y102663D01*
X13921Y102664D01*
X13804Y102646D01*
X13691Y102610D01*
X13585Y102557D01*
X13488Y102488D01*
X13404Y102405D01*
X13333Y102309D01*
X13279Y102204D01*
X13241Y102092D01*
X13222Y101975D01*
X13221Y101856D01*
X13239Y101739D01*
X13277Y101626D01*
X13376Y101355D01*
X13444Y101075D01*
X13486Y100789D01*
X13500Y100500D01*
X13486Y100211D01*
X13444Y99925D01*
X13376Y99645D01*
X13280Y99372D01*
X13242Y99261D01*
X13225Y99144D01*
X13225Y99026D01*
X13245Y98909D01*
X13282Y98797D01*
X13336Y98693D01*
X13406Y98598D01*
X13491Y98515D01*
X13587Y98446D01*
X13692Y98393D01*
X13805Y98357D01*
X13921Y98340D01*
X14039Y98341D01*
X14113Y98353D01*
Y95500D01*
G37*
G36*
X6887Y127802D02*X7308Y127308D01*
X7847Y126848D01*
X8451Y126478D01*
X9105Y126207D01*
X9794Y126042D01*
X10493Y125987D01*
Y125013D01*
X9794Y124958D01*
X9105Y124793D01*
X8451Y124522D01*
X7847Y124152D01*
X7308Y123692D01*
X6887Y123198D01*
Y127802D01*
G37*
G36*
Y137802D02*X7308Y137308D01*
X7847Y136848D01*
X8451Y136478D01*
X9105Y136207D01*
X9794Y136042D01*
X10493Y135987D01*
Y135013D01*
X9794Y134958D01*
X9105Y134793D01*
X8451Y134522D01*
X7847Y134152D01*
X7308Y133692D01*
X6887Y133198D01*
Y137802D01*
G37*
G36*
Y147802D02*X7308Y147308D01*
X7847Y146848D01*
X8451Y146478D01*
X9105Y146207D01*
X9794Y146042D01*
X10493Y145987D01*
Y145013D01*
X9794Y144958D01*
X9105Y144793D01*
X8451Y144522D01*
X7847Y144152D01*
X7308Y143692D01*
X6887Y143198D01*
Y147802D01*
G37*
G36*
Y156130D02*X7035Y156069D01*
X7265Y156014D01*
X7500Y156000D01*
X10493Y156007D01*
Y155013D01*
X9794Y154958D01*
X9105Y154793D01*
X8451Y154522D01*
X7847Y154152D01*
X7308Y153692D01*
X6887Y153198D01*
Y156130D01*
G37*
G36*
Y176766D02*X10493Y180372D01*
Y164993D01*
X7265Y164986D01*
X7035Y164931D01*
X6887Y164870D01*
Y176766D01*
G37*
G36*
X10493Y95500D02*X6887D01*
Y98349D01*
X6960Y98337D01*
X7079Y98336D01*
X7196Y98354D01*
X7309Y98390D01*
X7415Y98443D01*
X7512Y98512D01*
X7596Y98595D01*
X7667Y98691D01*
X7721Y98796D01*
X7759Y98908D01*
X7778Y99025D01*
X7779Y99144D01*
X7761Y99261D01*
X7723Y99374D01*
X7624Y99645D01*
X7556Y99925D01*
X7514Y100211D01*
X7500Y100500D01*
X7514Y100789D01*
X7556Y101075D01*
X7624Y101355D01*
X7720Y101628D01*
X7758Y101739D01*
X7775Y101856D01*
X7775Y101974D01*
X7755Y102091D01*
X7718Y102203D01*
X7664Y102307D01*
X7594Y102402D01*
X7509Y102485D01*
X7413Y102554D01*
X7308Y102607D01*
X7195Y102643D01*
X7079Y102660D01*
X6961Y102659D01*
X6887Y102647D01*
Y108349D01*
X6960Y108337D01*
X7079Y108336D01*
X7196Y108354D01*
X7309Y108390D01*
X7415Y108443D01*
X7512Y108512D01*
X7596Y108595D01*
X7667Y108691D01*
X7721Y108796D01*
X7759Y108908D01*
X7778Y109025D01*
X7779Y109144D01*
X7761Y109261D01*
X7723Y109374D01*
X7624Y109645D01*
X7556Y109925D01*
X7514Y110211D01*
X7500Y110500D01*
X7514Y110789D01*
X7556Y111075D01*
X7624Y111355D01*
X7720Y111628D01*
X7758Y111739D01*
X7775Y111856D01*
X7775Y111974D01*
X7755Y112091D01*
X7718Y112203D01*
X7664Y112307D01*
X7594Y112402D01*
X7509Y112485D01*
X7413Y112554D01*
X7308Y112607D01*
X7195Y112643D01*
X7079Y112660D01*
X6961Y112659D01*
X6887Y112647D01*
Y117802D01*
X7308Y117308D01*
X7847Y116848D01*
X8451Y116478D01*
X9105Y116207D01*
X9794Y116042D01*
X10493Y115987D01*
Y115005D01*
X10067Y114984D01*
X9637Y114922D01*
X9216Y114818D01*
X8806Y114675D01*
X8700Y114622D01*
X8604Y114553D01*
X8519Y114470D01*
X8449Y114375D01*
X8394Y114269D01*
X8357Y114157D01*
X8337Y114040D01*
X8336Y113921D01*
X8354Y113804D01*
X8390Y113691D01*
X8443Y113585D01*
X8512Y113488D01*
X8595Y113404D01*
X8691Y113333D01*
X8796Y113279D01*
X8908Y113241D01*
X9025Y113222D01*
X9144Y113221D01*
X9261Y113239D01*
X9374Y113277D01*
X9645Y113376D01*
X9925Y113444D01*
X10211Y113486D01*
X10493Y113500D01*
Y107500D01*
X10211Y107514D01*
X9925Y107556D01*
X9645Y107624D01*
X9372Y107720D01*
X9261Y107758D01*
X9144Y107775D01*
X9026Y107775D01*
X8909Y107755D01*
X8797Y107718D01*
X8693Y107664D01*
X8598Y107594D01*
X8515Y107509D01*
X8446Y107413D01*
X8393Y107308D01*
X8357Y107195D01*
X8340Y107079D01*
X8341Y106961D01*
X8360Y106844D01*
X8397Y106732D01*
X8452Y106627D01*
X8522Y106532D01*
X8606Y106449D01*
X8702Y106381D01*
X8808Y106330D01*
X9216Y106182D01*
X9637Y106078D01*
X10067Y106016D01*
X10493Y105995D01*
Y105005D01*
X10067Y104984D01*
X9637Y104922D01*
X9216Y104818D01*
X8806Y104675D01*
X8700Y104622D01*
X8604Y104553D01*
X8519Y104470D01*
X8449Y104375D01*
X8394Y104269D01*
X8357Y104157D01*
X8337Y104040D01*
X8336Y103921D01*
X8354Y103804D01*
X8390Y103691D01*
X8443Y103585D01*
X8512Y103488D01*
X8595Y103404D01*
X8691Y103333D01*
X8796Y103279D01*
X8908Y103241D01*
X9025Y103222D01*
X9144Y103221D01*
X9261Y103239D01*
X9374Y103277D01*
X9645Y103376D01*
X9925Y103444D01*
X10211Y103486D01*
X10493Y103500D01*
Y97500D01*
X10211Y97514D01*
X9925Y97556D01*
X9645Y97624D01*
X9372Y97720D01*
X9261Y97758D01*
X9144Y97775D01*
X9026Y97775D01*
X8909Y97755D01*
X8797Y97718D01*
X8693Y97664D01*
X8598Y97594D01*
X8515Y97509D01*
X8446Y97413D01*
X8393Y97308D01*
X8357Y97195D01*
X8340Y97079D01*
X8341Y96961D01*
X8360Y96844D01*
X8397Y96732D01*
X8452Y96627D01*
X8522Y96532D01*
X8606Y96449D01*
X8702Y96381D01*
X8808Y96330D01*
X9216Y96182D01*
X9637Y96078D01*
X10067Y96016D01*
X10493Y95995D01*
Y95500D01*
G37*
G36*
X6887D02*X5000D01*
Y174879D01*
X6887Y176766D01*
Y164870D01*
X6817Y164841D01*
X6616Y164717D01*
X6436Y164564D01*
X6283Y164384D01*
X6159Y164183D01*
X6069Y163965D01*
X6014Y163735D01*
X6000Y163500D01*
X6014Y157265D01*
X6069Y157035D01*
X6159Y156817D01*
X6283Y156616D01*
X6436Y156436D01*
X6616Y156283D01*
X6817Y156159D01*
X6887Y156130D01*
Y153198D01*
X6848Y153153D01*
X6478Y152549D01*
X6207Y151895D01*
X6042Y151206D01*
X5986Y150500D01*
X6042Y149794D01*
X6207Y149105D01*
X6478Y148451D01*
X6848Y147847D01*
X6887Y147802D01*
Y143198D01*
X6848Y143153D01*
X6478Y142549D01*
X6207Y141895D01*
X6042Y141206D01*
X5986Y140500D01*
X6042Y139794D01*
X6207Y139105D01*
X6478Y138451D01*
X6848Y137847D01*
X6887Y137802D01*
Y133198D01*
X6848Y133153D01*
X6478Y132549D01*
X6207Y131895D01*
X6042Y131206D01*
X5986Y130500D01*
X6042Y129794D01*
X6207Y129105D01*
X6478Y128451D01*
X6848Y127847D01*
X6887Y127802D01*
Y123198D01*
X6848Y123153D01*
X6478Y122549D01*
X6207Y121895D01*
X6042Y121206D01*
X5986Y120500D01*
X6042Y119794D01*
X6207Y119105D01*
X6478Y118451D01*
X6848Y117847D01*
X6887Y117802D01*
Y112647D01*
X6844Y112640D01*
X6732Y112603D01*
X6627Y112548D01*
X6532Y112478D01*
X6449Y112394D01*
X6381Y112298D01*
X6330Y112192D01*
X6182Y111784D01*
X6078Y111363D01*
X6016Y110933D01*
X5995Y110500D01*
X6016Y110067D01*
X6078Y109637D01*
X6182Y109216D01*
X6325Y108806D01*
X6378Y108700D01*
X6447Y108604D01*
X6530Y108519D01*
X6625Y108449D01*
X6731Y108394D01*
X6843Y108357D01*
X6887Y108349D01*
Y102647D01*
X6844Y102640D01*
X6732Y102603D01*
X6627Y102548D01*
X6532Y102478D01*
X6449Y102394D01*
X6381Y102298D01*
X6330Y102192D01*
X6182Y101784D01*
X6078Y101363D01*
X6016Y100933D01*
X5995Y100500D01*
X6016Y100067D01*
X6078Y99637D01*
X6182Y99216D01*
X6325Y98806D01*
X6378Y98700D01*
X6447Y98604D01*
X6530Y98519D01*
X6625Y98449D01*
X6731Y98394D01*
X6843Y98357D01*
X6887Y98349D01*
Y95500D01*
G37*
G36*
X107000Y253296D02*Y254941D01*
X107005Y255000D01*
X106986Y255235D01*
X106986Y255235D01*
X106931Y255465D01*
X106841Y255683D01*
X106717Y255884D01*
X106564Y256064D01*
X106519Y256102D01*
X96602Y266019D01*
X96564Y266064D01*
X96384Y266217D01*
X96183Y266341D01*
X95965Y266431D01*
X95735Y266486D01*
X95500Y266505D01*
X95441Y266500D01*
X28559D01*
X28500Y266505D01*
X28265Y266486D01*
X28035Y266431D01*
X27817Y266341D01*
X27616Y266217D01*
X27615Y266217D01*
X27436Y266064D01*
X27398Y266019D01*
X22981Y261602D01*
X22936Y261564D01*
X22783Y261384D01*
X22659Y261183D01*
X22569Y260965D01*
X22514Y260735D01*
X22514Y260735D01*
X22495Y260500D01*
X22500Y260441D01*
Y196621D01*
X2500Y176621D01*
Y212602D01*
X2903Y211629D01*
X3602Y210488D01*
X4471Y209471D01*
X5488Y208602D01*
X6629Y207903D01*
X7865Y207391D01*
X9166Y207079D01*
X10500Y206974D01*
X11834Y207079D01*
X13135Y207391D01*
X14371Y207903D01*
X15512Y208602D01*
X16529Y209471D01*
X17398Y210488D01*
X18097Y211629D01*
X18609Y212865D01*
X18921Y214166D01*
X19000Y215500D01*
X18921Y216834D01*
X18609Y218135D01*
X18097Y219371D01*
X17398Y220512D01*
X16529Y221529D01*
X15512Y222398D01*
X14371Y223097D01*
X13135Y223609D01*
X11834Y223921D01*
X10500Y224026D01*
X9166Y223921D01*
X7865Y223609D01*
X6629Y223097D01*
X5488Y222398D01*
X4471Y221529D01*
X3602Y220512D01*
X2903Y219371D01*
X2500Y218398D01*
Y268500D01*
X138000D01*
Y243682D01*
X137798Y244012D01*
X136929Y245029D01*
X135912Y245898D01*
X134771Y246597D01*
X133535Y247109D01*
X132234Y247421D01*
X130900Y247526D01*
X129566Y247421D01*
X128265Y247109D01*
X127029Y246597D01*
X125888Y245898D01*
X124871Y245029D01*
X124002Y244012D01*
X123303Y242871D01*
X122791Y241635D01*
X122479Y240334D01*
X122374Y239000D01*
X122479Y237666D01*
X122791Y236365D01*
X123303Y235129D01*
X124002Y233988D01*
X124871Y232971D01*
X125888Y232102D01*
X127029Y231403D01*
X128265Y230891D01*
X129566Y230579D01*
X130900Y230474D01*
X132234Y230579D01*
X133535Y230891D01*
X134771Y231403D01*
X135912Y232102D01*
X136929Y232971D01*
X137798Y233988D01*
X138000Y234318D01*
Y218482D01*
X137694Y218458D01*
X137005Y218293D01*
X136351Y218022D01*
X135747Y217652D01*
X135208Y217192D01*
X134748Y216653D01*
X134378Y216049D01*
X134107Y215395D01*
X133942Y214706D01*
X133886Y214000D01*
X133942Y213294D01*
X134107Y212605D01*
X134378Y211951D01*
X134748Y211347D01*
X135208Y210808D01*
X135747Y210348D01*
X136351Y209978D01*
X137005Y209707D01*
X137694Y209542D01*
X138000Y209518D01*
Y168000D01*
X97000D01*
Y242504D01*
X97205Y242553D01*
X98005Y242884D01*
X98743Y243337D01*
X99401Y243899D01*
X99963Y244557D01*
X100012Y244637D01*
X100014Y243565D01*
X100069Y243335D01*
X100159Y243117D01*
X100283Y242916D01*
X100436Y242736D01*
X100616Y242583D01*
X100817Y242459D01*
X101035Y242369D01*
X101265Y242314D01*
X101500Y242300D01*
X109735Y242314D01*
X109965Y242369D01*
X110183Y242459D01*
X110384Y242583D01*
X110564Y242736D01*
X110717Y242916D01*
X110841Y243117D01*
X110931Y243335D01*
X110986Y243565D01*
X111000Y243800D01*
X110986Y252035D01*
X110931Y252265D01*
X110841Y252483D01*
X110717Y252684D01*
X110564Y252864D01*
X110384Y253017D01*
X110183Y253141D01*
X109965Y253231D01*
X109735Y253286D01*
X109500Y253300D01*
X107000Y253296D01*
G37*
G36*
X200493Y257750D02*X200568D01*
X201750Y256568D01*
Y252000D01*
X201750Y252000D01*
Y225432D01*
X200493Y224175D01*
Y257750D01*
G37*
G36*
X204113Y202796D02*X204371Y202903D01*
X205512Y203602D01*
X206529Y204471D01*
X207398Y205488D01*
X208000Y206471D01*
Y96621D01*
X205102Y99519D01*
X205064Y99564D01*
X204884Y99717D01*
X204683Y99841D01*
X204465Y99931D01*
X204235Y99986D01*
X204113Y99996D01*
Y103802D01*
X204152Y103847D01*
X204522Y104451D01*
X204793Y105105D01*
X204958Y105794D01*
X205000Y106500D01*
X204958Y107206D01*
X204793Y107895D01*
X204522Y108549D01*
X204152Y109153D01*
X204113Y109198D01*
Y113802D01*
X204152Y113847D01*
X204522Y114451D01*
X204793Y115105D01*
X204958Y115794D01*
X205000Y116500D01*
X204958Y117206D01*
X204793Y117895D01*
X204522Y118549D01*
X204152Y119153D01*
X204113Y119198D01*
Y123802D01*
X204152Y123847D01*
X204522Y124451D01*
X204793Y125105D01*
X204958Y125794D01*
X205000Y126500D01*
X204958Y127206D01*
X204793Y127895D01*
X204522Y128549D01*
X204152Y129153D01*
X204113Y129198D01*
Y133802D01*
X204152Y133847D01*
X204522Y134451D01*
X204793Y135105D01*
X204958Y135794D01*
X205000Y136500D01*
X204958Y137206D01*
X204793Y137895D01*
X204522Y138549D01*
X204152Y139153D01*
X204113Y139198D01*
Y143802D01*
X204152Y143847D01*
X204522Y144451D01*
X204793Y145105D01*
X204958Y145794D01*
X205000Y146500D01*
X204958Y147206D01*
X204793Y147895D01*
X204522Y148549D01*
X204152Y149153D01*
X204113Y149198D01*
Y153802D01*
X204152Y153847D01*
X204522Y154451D01*
X204793Y155105D01*
X204958Y155794D01*
X205000Y156500D01*
X204958Y157206D01*
X204793Y157895D01*
X204522Y158549D01*
X204152Y159153D01*
X204113Y159198D01*
Y164353D01*
X204156Y164360D01*
X204268Y164397D01*
X204373Y164452D01*
X204468Y164522D01*
X204551Y164606D01*
X204619Y164702D01*
X204670Y164808D01*
X204818Y165216D01*
X204922Y165637D01*
X204984Y166067D01*
X205005Y166500D01*
X204984Y166933D01*
X204922Y167363D01*
X204818Y167784D01*
X204675Y168194D01*
X204622Y168300D01*
X204553Y168396D01*
X204470Y168481D01*
X204375Y168551D01*
X204269Y168606D01*
X204157Y168643D01*
X204113Y168651D01*
Y173802D01*
X204152Y173847D01*
X204522Y174451D01*
X204793Y175105D01*
X204958Y175794D01*
X205000Y176500D01*
X204958Y177206D01*
X204793Y177895D01*
X204522Y178549D01*
X204152Y179153D01*
X204113Y179198D01*
Y183802D01*
X204152Y183847D01*
X204522Y184451D01*
X204793Y185105D01*
X204958Y185794D01*
X205000Y186500D01*
X204958Y187206D01*
X204793Y187895D01*
X204522Y188549D01*
X204152Y189153D01*
X204113Y189198D01*
Y193802D01*
X204152Y193847D01*
X204522Y194451D01*
X204793Y195105D01*
X204958Y195794D01*
X205000Y196500D01*
X204958Y197206D01*
X204793Y197895D01*
X204522Y198549D01*
X204152Y199153D01*
X204113Y199198D01*
Y202796D01*
G37*
G36*
Y189198D02*X203692Y189692D01*
X203153Y190152D01*
X202549Y190522D01*
X201895Y190793D01*
X201206Y190958D01*
X200500Y191014D01*
X200493Y191013D01*
Y191987D01*
X200500Y191986D01*
X201206Y192042D01*
X201895Y192207D01*
X202549Y192478D01*
X203153Y192848D01*
X203692Y193308D01*
X204113Y193802D01*
Y189198D01*
G37*
G36*
Y179198D02*X203692Y179692D01*
X203153Y180152D01*
X202549Y180522D01*
X201895Y180793D01*
X201206Y180958D01*
X200500Y181014D01*
X200493Y181013D01*
Y181987D01*
X200500Y181986D01*
X201206Y182042D01*
X201895Y182207D01*
X202549Y182478D01*
X203153Y182848D01*
X203692Y183308D01*
X204113Y183802D01*
Y179198D01*
G37*
G36*
Y159198D02*X203692Y159692D01*
X203153Y160152D01*
X202549Y160522D01*
X201895Y160793D01*
X201206Y160958D01*
X200500Y161014D01*
X200493Y161013D01*
Y161995D01*
X200500Y161995D01*
X200933Y162016D01*
X201363Y162078D01*
X201784Y162182D01*
X202194Y162325D01*
X202300Y162378D01*
X202396Y162447D01*
X202481Y162530D01*
X202551Y162625D01*
X202606Y162731D01*
X202643Y162843D01*
X202663Y162960D01*
X202664Y163079D01*
X202646Y163196D01*
X202610Y163309D01*
X202557Y163415D01*
X202488Y163512D01*
X202405Y163596D01*
X202309Y163667D01*
X202204Y163721D01*
X202092Y163759D01*
X201975Y163778D01*
X201856Y163779D01*
X201739Y163761D01*
X201626Y163723D01*
X201355Y163624D01*
X201075Y163556D01*
X200789Y163514D01*
X200500Y163500D01*
X200493Y163500D01*
Y169500D01*
X200500Y169500D01*
X200789Y169486D01*
X201075Y169444D01*
X201355Y169376D01*
X201628Y169280D01*
X201739Y169242D01*
X201856Y169225D01*
X201974Y169225D01*
X202091Y169245D01*
X202203Y169282D01*
X202307Y169336D01*
X202402Y169406D01*
X202485Y169491D01*
X202554Y169587D01*
X202607Y169692D01*
X202643Y169805D01*
X202660Y169921D01*
X202659Y170039D01*
X202640Y170156D01*
X202603Y170268D01*
X202548Y170373D01*
X202478Y170468D01*
X202394Y170551D01*
X202298Y170619D01*
X202192Y170670D01*
X201784Y170818D01*
X201363Y170922D01*
X200933Y170984D01*
X200500Y171005D01*
X200493Y171005D01*
Y171987D01*
X200500Y171986D01*
X201206Y172042D01*
X201895Y172207D01*
X202549Y172478D01*
X203153Y172848D01*
X203692Y173308D01*
X204113Y173802D01*
Y168651D01*
X204040Y168663D01*
X203921Y168664D01*
X203804Y168646D01*
X203691Y168610D01*
X203585Y168557D01*
X203488Y168488D01*
X203404Y168405D01*
X203333Y168309D01*
X203279Y168204D01*
X203241Y168092D01*
X203222Y167975D01*
X203221Y167856D01*
X203239Y167739D01*
X203277Y167626D01*
X203376Y167355D01*
X203444Y167075D01*
X203486Y166789D01*
X203500Y166500D01*
X203486Y166211D01*
X203444Y165925D01*
X203376Y165645D01*
X203280Y165372D01*
X203242Y165261D01*
X203225Y165144D01*
X203225Y165026D01*
X203245Y164909D01*
X203282Y164797D01*
X203336Y164693D01*
X203406Y164598D01*
X203491Y164515D01*
X203587Y164446D01*
X203692Y164393D01*
X203805Y164357D01*
X203921Y164340D01*
X204039Y164341D01*
X204113Y164353D01*
Y159198D01*
G37*
G36*
Y149198D02*X203692Y149692D01*
X203153Y150152D01*
X202549Y150522D01*
X201895Y150793D01*
X201206Y150958D01*
X200500Y151014D01*
X200493Y151013D01*
Y151987D01*
X200500Y151986D01*
X201206Y152042D01*
X201895Y152207D01*
X202549Y152478D01*
X203153Y152848D01*
X203692Y153308D01*
X204113Y153802D01*
Y149198D01*
G37*
G36*
Y139198D02*X203692Y139692D01*
X203153Y140152D01*
X202549Y140522D01*
X201895Y140793D01*
X201206Y140958D01*
X200617Y141005D01*
X200493Y141128D01*
Y141987D01*
X200500Y141986D01*
X201206Y142042D01*
X201895Y142207D01*
X202549Y142478D01*
X203153Y142848D01*
X203692Y143308D01*
X204113Y143802D01*
Y139198D01*
G37*
G36*
Y129198D02*X203692Y129692D01*
X203153Y130152D01*
X202549Y130522D01*
X201895Y130793D01*
X201206Y130958D01*
X200500Y131014D01*
X200493Y131013D01*
Y131987D01*
X200500Y131986D01*
X201206Y132042D01*
X201895Y132207D01*
X202549Y132478D01*
X203153Y132848D01*
X203692Y133308D01*
X204113Y133802D01*
Y129198D01*
G37*
G36*
Y119198D02*X203692Y119692D01*
X203153Y120152D01*
X202549Y120522D01*
X201895Y120793D01*
X201206Y120958D01*
X200500Y121014D01*
X200493Y121013D01*
Y121987D01*
X200500Y121986D01*
X201206Y122042D01*
X201895Y122207D01*
X202549Y122478D01*
X203153Y122848D01*
X203692Y123308D01*
X204113Y123802D01*
Y119198D01*
G37*
G36*
Y109198D02*X203692Y109692D01*
X203153Y110152D01*
X202549Y110522D01*
X201895Y110793D01*
X201206Y110958D01*
X200500Y111014D01*
X200493Y111013D01*
Y111987D01*
X200500Y111986D01*
X201206Y112042D01*
X201895Y112207D01*
X202549Y112478D01*
X203153Y112848D01*
X203692Y113308D01*
X204113Y113802D01*
Y109198D01*
G37*
G36*
Y99996D02*X204000Y100005D01*
X203941Y100000D01*
X200493D01*
Y101987D01*
X200500Y101986D01*
X201206Y102042D01*
X201895Y102207D01*
X202549Y102478D01*
X203153Y102848D01*
X203692Y103308D01*
X204113Y103802D01*
Y99996D01*
G37*
G36*
X200493Y201974D02*X200500Y201974D01*
X201834Y202079D01*
X203135Y202391D01*
X204113Y202796D01*
Y199198D01*
X203692Y199692D01*
X203153Y200152D01*
X202549Y200522D01*
X201895Y200793D01*
X201206Y200958D01*
X200500Y201014D01*
X200493Y201013D01*
Y201974D01*
G37*
G36*
Y268500D02*X208000D01*
Y214529D01*
X207398Y215512D01*
X206529Y216529D01*
X205512Y217398D01*
X204371Y218097D01*
X203135Y218609D01*
X201834Y218921D01*
X200500Y219026D01*
X200493Y219026D01*
Y219250D01*
X200912D01*
X201000Y219243D01*
X201353Y219271D01*
X201353Y219271D01*
X201697Y219354D01*
X202025Y219489D01*
X202327Y219674D01*
X202596Y219904D01*
X202653Y219971D01*
X205529Y222847D01*
X205596Y222904D01*
X205826Y223173D01*
X205826Y223173D01*
X206011Y223475D01*
X206146Y223803D01*
X206229Y224147D01*
X206257Y224500D01*
X206250Y224588D01*
Y252000D01*
X206250Y252000D01*
Y257412D01*
X206257Y257500D01*
X206229Y257853D01*
X206229Y257853D01*
X206146Y258197D01*
X206011Y258525D01*
X205826Y258827D01*
X205596Y259096D01*
X205529Y259153D01*
X203153Y261529D01*
X203096Y261596D01*
X202827Y261826D01*
X202827Y261826D01*
X202712Y261896D01*
X202525Y262011D01*
X202293Y262107D01*
X202197Y262146D01*
X201853Y262229D01*
X201500Y262257D01*
X201412Y262250D01*
X200493D01*
Y268500D01*
G37*
G36*
X196887Y183802D02*X197308Y183308D01*
X197847Y182848D01*
X198451Y182478D01*
X199105Y182207D01*
X199794Y182042D01*
X200493Y181987D01*
Y181013D01*
X199794Y180958D01*
X199105Y180793D01*
X198451Y180522D01*
X197847Y180152D01*
X197308Y179692D01*
X196887Y179198D01*
Y183802D01*
G37*
G36*
Y193802D02*X197308Y193308D01*
X197847Y192848D01*
X198451Y192478D01*
X199105Y192207D01*
X199794Y192042D01*
X200493Y191987D01*
Y191013D01*
X199794Y190958D01*
X199105Y190793D01*
X198451Y190522D01*
X197847Y190152D01*
X197308Y189692D01*
X196887Y189198D01*
Y193802D01*
G37*
G36*
X200493Y161013D02*X199794Y160958D01*
X199105Y160793D01*
X198451Y160522D01*
X197847Y160152D01*
X197308Y159692D01*
X196887Y159198D01*
Y164349D01*
X196960Y164337D01*
X197079Y164336D01*
X197196Y164354D01*
X197309Y164390D01*
X197415Y164443D01*
X197512Y164512D01*
X197596Y164595D01*
X197667Y164691D01*
X197721Y164796D01*
X197759Y164908D01*
X197778Y165025D01*
X197779Y165144D01*
X197761Y165261D01*
X197723Y165374D01*
X197624Y165645D01*
X197556Y165925D01*
X197514Y166211D01*
X197500Y166500D01*
X197514Y166789D01*
X197556Y167075D01*
X197624Y167355D01*
X197720Y167628D01*
X197758Y167739D01*
X197775Y167856D01*
X197775Y167974D01*
X197755Y168091D01*
X197718Y168203D01*
X197664Y168307D01*
X197594Y168402D01*
X197509Y168485D01*
X197413Y168554D01*
X197308Y168607D01*
X197195Y168643D01*
X197079Y168660D01*
X196961Y168659D01*
X196887Y168647D01*
Y173802D01*
X197308Y173308D01*
X197847Y172848D01*
X198451Y172478D01*
X199105Y172207D01*
X199794Y172042D01*
X200493Y171987D01*
Y171005D01*
X200067Y170984D01*
X199637Y170922D01*
X199216Y170818D01*
X198806Y170675D01*
X198700Y170622D01*
X198604Y170553D01*
X198519Y170470D01*
X198449Y170375D01*
X198394Y170269D01*
X198357Y170157D01*
X198337Y170040D01*
X198336Y169921D01*
X198354Y169804D01*
X198390Y169691D01*
X198443Y169585D01*
X198512Y169488D01*
X198595Y169404D01*
X198691Y169333D01*
X198796Y169279D01*
X198908Y169241D01*
X199025Y169222D01*
X199144Y169221D01*
X199261Y169239D01*
X199374Y169277D01*
X199645Y169376D01*
X199925Y169444D01*
X200211Y169486D01*
X200493Y169500D01*
Y163500D01*
X200211Y163514D01*
X199925Y163556D01*
X199645Y163624D01*
X199372Y163720D01*
X199261Y163758D01*
X199144Y163775D01*
X199026Y163775D01*
X198909Y163755D01*
X198797Y163718D01*
X198693Y163664D01*
X198598Y163594D01*
X198515Y163509D01*
X198446Y163413D01*
X198393Y163308D01*
X198357Y163195D01*
X198340Y163079D01*
X198341Y162961D01*
X198360Y162844D01*
X198397Y162732D01*
X198452Y162627D01*
X198522Y162532D01*
X198606Y162449D01*
X198702Y162381D01*
X198808Y162330D01*
X199216Y162182D01*
X199637Y162078D01*
X200067Y162016D01*
X200493Y161995D01*
Y161013D01*
G37*
G36*
X196887Y159198D02*X196848Y159153D01*
X196478Y158549D01*
X196251Y158000D01*
X172572D01*
Y194250D01*
X189412D01*
X189500Y194243D01*
X189588Y194250D01*
X196601D01*
X196848Y193847D01*
X196887Y193802D01*
Y189198D01*
X196848Y189153D01*
X196478Y188549D01*
X196207Y187895D01*
X196042Y187206D01*
X195986Y186500D01*
X196042Y185794D01*
X196207Y185105D01*
X196478Y184451D01*
X196848Y183847D01*
X196887Y183802D01*
Y179198D01*
X196848Y179153D01*
X196478Y178549D01*
X196207Y177895D01*
X196042Y177206D01*
X195986Y176500D01*
X196042Y175794D01*
X196207Y175105D01*
X196478Y174451D01*
X196848Y173847D01*
X196887Y173802D01*
Y168647D01*
X196844Y168640D01*
X196732Y168603D01*
X196627Y168548D01*
X196532Y168478D01*
X196449Y168394D01*
X196381Y168298D01*
X196330Y168192D01*
X196182Y167784D01*
X196078Y167363D01*
X196016Y166933D01*
X195995Y166500D01*
X196016Y166067D01*
X196078Y165637D01*
X196182Y165216D01*
X196325Y164806D01*
X196378Y164700D01*
X196447Y164604D01*
X196530Y164519D01*
X196625Y164449D01*
X196731Y164394D01*
X196843Y164357D01*
X196887Y164349D01*
Y159198D01*
G37*
G36*
X200493Y151013D02*X199794Y150958D01*
X199105Y150793D01*
X198556Y150565D01*
X194121Y155000D01*
X196251D01*
X196478Y154451D01*
X196848Y153847D01*
X197308Y153308D01*
X197847Y152848D01*
X198451Y152478D01*
X199105Y152207D01*
X199794Y152042D01*
X200493Y151987D01*
Y151013D01*
G37*
G36*
Y141128D02*X199512Y142109D01*
X199794Y142042D01*
X200493Y141987D01*
Y141128D01*
G37*
G36*
Y131013D02*X199794Y130958D01*
X199105Y130793D01*
X198556Y130565D01*
X196500Y132621D01*
Y134415D01*
X196848Y133847D01*
X197308Y133308D01*
X197847Y132848D01*
X198451Y132478D01*
X199105Y132207D01*
X199794Y132042D01*
X200493Y131987D01*
Y131013D01*
G37*
G36*
Y121013D02*X199794Y120958D01*
X199105Y120793D01*
X198556Y120565D01*
X193500Y125621D01*
Y131941D01*
X193514Y131765D01*
X193569Y131535D01*
X193659Y131317D01*
X193783Y131116D01*
X193936Y130936D01*
X193981Y130898D01*
X196435Y128444D01*
X196207Y127895D01*
X196042Y127206D01*
X195986Y126500D01*
X196042Y125794D01*
X196207Y125105D01*
X196478Y124451D01*
X196848Y123847D01*
X197308Y123308D01*
X197847Y122848D01*
X198451Y122478D01*
X199105Y122207D01*
X199794Y122042D01*
X200493Y121987D01*
Y121013D01*
G37*
G36*
Y111013D02*X199794Y110958D01*
X199105Y110793D01*
X198556Y110565D01*
X190500Y118621D01*
Y124941D01*
X190514Y124765D01*
X190569Y124535D01*
X190659Y124317D01*
X190783Y124116D01*
X190936Y123936D01*
X190981Y123898D01*
X196435Y118444D01*
X196207Y117895D01*
X196042Y117206D01*
X195986Y116500D01*
X196042Y115794D01*
X196207Y115105D01*
X196478Y114451D01*
X196848Y113847D01*
X197308Y113308D01*
X197847Y112848D01*
X198451Y112478D01*
X199105Y112207D01*
X199794Y112042D01*
X200493Y111987D01*
Y111013D01*
G37*
G36*
Y100000D02*X195621D01*
X188000Y107621D01*
Y116879D01*
X196435Y108444D01*
X196207Y107895D01*
X196042Y107206D01*
X195986Y106500D01*
X196042Y105794D01*
X196207Y105105D01*
X196478Y104451D01*
X196848Y103847D01*
X197308Y103308D01*
X197847Y102848D01*
X198451Y102478D01*
X199105Y102207D01*
X199794Y102042D01*
X200493Y101987D01*
Y100000D01*
G37*
G36*
Y219026D02*X199166Y218921D01*
X197865Y218609D01*
X196629Y218097D01*
X195488Y217398D01*
X194471Y216529D01*
X193602Y215512D01*
X192903Y214371D01*
X192391Y213135D01*
X192079Y211834D01*
X191974Y210500D01*
X192079Y209166D01*
X192391Y207865D01*
X192903Y206629D01*
X193602Y205488D01*
X194471Y204471D01*
X195488Y203602D01*
X196629Y202903D01*
X197865Y202391D01*
X199166Y202079D01*
X200493Y201974D01*
Y201013D01*
X199794Y200958D01*
X199105Y200793D01*
X198451Y200522D01*
X197847Y200152D01*
X197308Y199692D01*
X196848Y199153D01*
X196601Y198750D01*
X191750D01*
Y217068D01*
X193932Y219250D01*
X200493D01*
Y219026D01*
G37*
G36*
X196613Y255630D02*X196683Y255659D01*
X196884Y255783D01*
X197064Y255936D01*
X197217Y256116D01*
X197341Y256317D01*
X197431Y256535D01*
X197486Y256765D01*
X197500Y257000D01*
X197498Y257750D01*
X200493D01*
Y224175D01*
X200068Y223750D01*
X196613D01*
Y227853D01*
X196656Y227860D01*
X196768Y227897D01*
X196873Y227952D01*
X196968Y228022D01*
X197051Y228106D01*
X197119Y228202D01*
X197170Y228308D01*
X197318Y228716D01*
X197422Y229137D01*
X197484Y229567D01*
X197505Y230000D01*
X197484Y230433D01*
X197422Y230863D01*
X197318Y231284D01*
X197175Y231694D01*
X197122Y231800D01*
X197053Y231896D01*
X196970Y231981D01*
X196875Y232051D01*
X196769Y232106D01*
X196657Y232143D01*
X196613Y232151D01*
Y237302D01*
X196652Y237347D01*
X197022Y237951D01*
X197293Y238605D01*
X197458Y239294D01*
X197500Y240000D01*
X197458Y240706D01*
X197293Y241395D01*
X197022Y242049D01*
X196652Y242653D01*
X196613Y242698D01*
Y247302D01*
X196652Y247347D01*
X197022Y247951D01*
X197293Y248605D01*
X197458Y249294D01*
X197500Y250000D01*
X197458Y250706D01*
X197293Y251395D01*
X197022Y252049D01*
X196652Y252653D01*
X196613Y252698D01*
Y255630D01*
G37*
G36*
Y242698D02*X196192Y243192D01*
X195653Y243652D01*
X195049Y244022D01*
X194395Y244293D01*
X193706Y244458D01*
X193000Y244514D01*
X192993Y244513D01*
Y245487D01*
X193000Y245486D01*
X193706Y245542D01*
X194395Y245707D01*
X195049Y245978D01*
X195653Y246348D01*
X196192Y246808D01*
X196613Y247302D01*
Y242698D01*
G37*
G36*
Y223750D02*X193088D01*
X193000Y223757D01*
X192993Y223756D01*
Y225495D01*
X193000Y225495D01*
X193433Y225516D01*
X193863Y225578D01*
X194284Y225682D01*
X194694Y225825D01*
X194800Y225878D01*
X194896Y225947D01*
X194981Y226030D01*
X195051Y226125D01*
X195106Y226231D01*
X195143Y226343D01*
X195163Y226460D01*
X195164Y226579D01*
X195146Y226696D01*
X195110Y226809D01*
X195057Y226915D01*
X194988Y227012D01*
X194905Y227096D01*
X194809Y227167D01*
X194704Y227221D01*
X194592Y227259D01*
X194475Y227278D01*
X194356Y227279D01*
X194239Y227261D01*
X194126Y227223D01*
X193855Y227124D01*
X193575Y227056D01*
X193289Y227014D01*
X193000Y227000D01*
X192993Y227000D01*
Y233000D01*
X193000Y233000D01*
X193289Y232986D01*
X193575Y232944D01*
X193855Y232876D01*
X194128Y232780D01*
X194239Y232742D01*
X194356Y232725D01*
X194474Y232725D01*
X194591Y232745D01*
X194703Y232782D01*
X194807Y232836D01*
X194902Y232906D01*
X194985Y232991D01*
X195054Y233087D01*
X195107Y233192D01*
X195143Y233305D01*
X195160Y233421D01*
X195159Y233539D01*
X195140Y233656D01*
X195103Y233768D01*
X195048Y233873D01*
X194978Y233968D01*
X194894Y234051D01*
X194798Y234119D01*
X194692Y234170D01*
X194284Y234318D01*
X193863Y234422D01*
X193433Y234484D01*
X193000Y234505D01*
X192993Y234505D01*
Y235487D01*
X193000Y235486D01*
X193706Y235542D01*
X194395Y235707D01*
X195049Y235978D01*
X195653Y236348D01*
X196192Y236808D01*
X196613Y237302D01*
Y232151D01*
X196540Y232163D01*
X196421Y232164D01*
X196304Y232146D01*
X196191Y232110D01*
X196085Y232057D01*
X195988Y231988D01*
X195904Y231905D01*
X195833Y231809D01*
X195779Y231704D01*
X195741Y231592D01*
X195722Y231475D01*
X195721Y231356D01*
X195739Y231239D01*
X195777Y231126D01*
X195876Y230855D01*
X195944Y230575D01*
X195986Y230289D01*
X196000Y230000D01*
X195986Y229711D01*
X195944Y229425D01*
X195876Y229145D01*
X195780Y228872D01*
X195742Y228761D01*
X195725Y228644D01*
X195725Y228526D01*
X195745Y228409D01*
X195782Y228297D01*
X195836Y228193D01*
X195906Y228098D01*
X195991Y228015D01*
X196087Y227946D01*
X196192Y227893D01*
X196305Y227857D01*
X196421Y227840D01*
X196539Y227841D01*
X196613Y227853D01*
Y223750D01*
G37*
G36*
X192993Y255507D02*X196235Y255514D01*
X196465Y255569D01*
X196613Y255630D01*
Y252698D01*
X196192Y253192D01*
X195653Y253652D01*
X195049Y254022D01*
X194395Y254293D01*
X193706Y254458D01*
X193000Y254514D01*
X192993Y254513D01*
Y255507D01*
G37*
G36*
Y268500D02*X200493D01*
Y262250D01*
X197488D01*
X197486Y263235D01*
X197431Y263465D01*
X197341Y263683D01*
X197217Y263884D01*
X197064Y264064D01*
X196884Y264217D01*
X196683Y264341D01*
X196465Y264431D01*
X196235Y264486D01*
X196000Y264500D01*
X192993Y264493D01*
Y268500D01*
G37*
G36*
X189387Y237302D02*X189808Y236808D01*
X190347Y236348D01*
X190951Y235978D01*
X191605Y235707D01*
X192294Y235542D01*
X192993Y235487D01*
Y234505D01*
X192567Y234484D01*
X192137Y234422D01*
X191716Y234318D01*
X191306Y234175D01*
X191200Y234122D01*
X191104Y234053D01*
X191019Y233970D01*
X190949Y233875D01*
X190894Y233769D01*
X190857Y233657D01*
X190837Y233540D01*
X190836Y233421D01*
X190854Y233304D01*
X190890Y233191D01*
X190943Y233085D01*
X191012Y232988D01*
X191095Y232904D01*
X191191Y232833D01*
X191296Y232779D01*
X191408Y232741D01*
X191525Y232722D01*
X191644Y232721D01*
X191761Y232739D01*
X191874Y232777D01*
X192145Y232876D01*
X192425Y232944D01*
X192711Y232986D01*
X192993Y233000D01*
Y227000D01*
X192711Y227014D01*
X192425Y227056D01*
X192145Y227124D01*
X191872Y227220D01*
X191761Y227258D01*
X191644Y227275D01*
X191526Y227275D01*
X191409Y227255D01*
X191297Y227218D01*
X191193Y227164D01*
X191098Y227094D01*
X191015Y227009D01*
X190946Y226913D01*
X190893Y226808D01*
X190857Y226695D01*
X190840Y226579D01*
X190841Y226461D01*
X190860Y226344D01*
X190897Y226232D01*
X190952Y226127D01*
X191022Y226032D01*
X191106Y225949D01*
X191202Y225881D01*
X191308Y225830D01*
X191716Y225682D01*
X192137Y225578D01*
X192567Y225516D01*
X192993Y225495D01*
Y223756D01*
X192647Y223729D01*
X192303Y223646D01*
X191975Y223511D01*
X191673Y223326D01*
X191673Y223326D01*
X191404Y223096D01*
X191347Y223029D01*
X189387Y221069D01*
Y227849D01*
X189460Y227837D01*
X189579Y227836D01*
X189696Y227854D01*
X189809Y227890D01*
X189915Y227943D01*
X190012Y228012D01*
X190096Y228095D01*
X190167Y228191D01*
X190221Y228296D01*
X190259Y228408D01*
X190278Y228525D01*
X190279Y228644D01*
X190261Y228761D01*
X190223Y228874D01*
X190124Y229145D01*
X190056Y229425D01*
X190014Y229711D01*
X190000Y230000D01*
X190014Y230289D01*
X190056Y230575D01*
X190124Y230855D01*
X190220Y231128D01*
X190258Y231239D01*
X190275Y231356D01*
X190275Y231474D01*
X190255Y231591D01*
X190218Y231703D01*
X190164Y231807D01*
X190094Y231902D01*
X190009Y231985D01*
X189913Y232054D01*
X189808Y232107D01*
X189695Y232143D01*
X189579Y232160D01*
X189461Y232159D01*
X189387Y232147D01*
Y237302D01*
G37*
G36*
Y247302D02*X189808Y246808D01*
X190347Y246348D01*
X190951Y245978D01*
X191605Y245707D01*
X192294Y245542D01*
X192993Y245487D01*
Y244513D01*
X192294Y244458D01*
X191605Y244293D01*
X190951Y244022D01*
X190347Y243652D01*
X189808Y243192D01*
X189387Y242698D01*
Y247302D01*
G37*
G36*
Y255630D02*X189535Y255569D01*
X189765Y255514D01*
X190000Y255500D01*
X192993Y255507D01*
Y254513D01*
X192294Y254458D01*
X191605Y254293D01*
X190951Y254022D01*
X190347Y253652D01*
X189808Y253192D01*
X189387Y252698D01*
Y255630D01*
G37*
G36*
Y268500D02*X192993D01*
Y264493D01*
X189765Y264486D01*
X189535Y264431D01*
X189387Y264370D01*
Y268500D01*
G37*
G36*
X172572D02*X189387D01*
Y264370D01*
X189317Y264341D01*
X189116Y264217D01*
X188936Y264064D01*
X188783Y263884D01*
X188659Y263683D01*
X188569Y263465D01*
X188514Y263235D01*
X188500Y263000D01*
X188514Y256765D01*
X188569Y256535D01*
X188659Y256317D01*
X188783Y256116D01*
X188936Y255936D01*
X189116Y255783D01*
X189317Y255659D01*
X189387Y255630D01*
Y252698D01*
X189348Y252653D01*
X188978Y252049D01*
X188707Y251395D01*
X188542Y250706D01*
X188486Y250000D01*
X188542Y249294D01*
X188707Y248605D01*
X188978Y247951D01*
X189348Y247347D01*
X189387Y247302D01*
Y242698D01*
X189348Y242653D01*
X188978Y242049D01*
X188707Y241395D01*
X188542Y240706D01*
X188486Y240000D01*
X188542Y239294D01*
X188707Y238605D01*
X188978Y237951D01*
X189348Y237347D01*
X189387Y237302D01*
Y232147D01*
X189344Y232140D01*
X189232Y232103D01*
X189127Y232048D01*
X189032Y231978D01*
X188949Y231894D01*
X188881Y231798D01*
X188830Y231692D01*
X188682Y231284D01*
X188578Y230863D01*
X188516Y230433D01*
X188495Y230000D01*
X188516Y229567D01*
X188578Y229137D01*
X188682Y228716D01*
X188825Y228306D01*
X188878Y228200D01*
X188947Y228104D01*
X189030Y228019D01*
X189125Y227949D01*
X189231Y227894D01*
X189343Y227857D01*
X189387Y227849D01*
Y221069D01*
X187971Y219653D01*
X187904Y219596D01*
X187674Y219327D01*
X187489Y219025D01*
X187354Y218697D01*
X187271Y218353D01*
X187271Y218353D01*
X187243Y218000D01*
X187250Y217912D01*
Y198750D01*
X172572D01*
Y230660D01*
X173535Y230891D01*
X174771Y231403D01*
X175912Y232102D01*
X176929Y232971D01*
X177798Y233988D01*
X178497Y235129D01*
X179009Y236365D01*
X179321Y237666D01*
X179400Y239000D01*
X179321Y240334D01*
X179009Y241635D01*
X178497Y242871D01*
X177798Y244012D01*
X176929Y245029D01*
X175912Y245898D01*
X174771Y246597D01*
X173535Y247109D01*
X172572Y247340D01*
Y268500D01*
G37*
G36*
X163393Y194250D02*X172572D01*
Y158000D01*
X163393D01*
Y194250D01*
G37*
G36*
Y234982D02*X164002Y233988D01*
X164871Y232971D01*
X165888Y232102D01*
X167029Y231403D01*
X168265Y230891D01*
X169566Y230579D01*
X170900Y230474D01*
X172234Y230579D01*
X172572Y230660D01*
Y198750D01*
X163393D01*
Y199487D01*
X163400Y199486D01*
X164106Y199542D01*
X164795Y199707D01*
X165449Y199978D01*
X166053Y200348D01*
X166592Y200808D01*
X167052Y201347D01*
X167422Y201951D01*
X167693Y202605D01*
X167858Y203294D01*
X167900Y204000D01*
X167858Y204706D01*
X167693Y205395D01*
X167422Y206049D01*
X167052Y206653D01*
X166592Y207192D01*
X166053Y207652D01*
X165449Y208022D01*
X164795Y208293D01*
X164106Y208458D01*
X163400Y208514D01*
X163393Y208513D01*
Y234982D01*
G37*
G36*
Y268500D02*X172572D01*
Y247340D01*
X172234Y247421D01*
X170900Y247526D01*
X169566Y247421D01*
X168265Y247109D01*
X167029Y246597D01*
X165888Y245898D01*
X164871Y245029D01*
X164002Y244012D01*
X163393Y243018D01*
Y268500D01*
G37*
G36*
X158393Y194250D02*X163393D01*
Y158000D01*
X158393D01*
Y194250D01*
G37*
G36*
Y268500D02*X163393D01*
Y243018D01*
X163303Y242871D01*
X162791Y241635D01*
X162479Y240334D01*
X162374Y239000D01*
X162479Y237666D01*
X162791Y236365D01*
X163303Y235129D01*
X163393Y234982D01*
Y208513D01*
X162694Y208458D01*
X162005Y208293D01*
X161351Y208022D01*
X160747Y207652D01*
X160208Y207192D01*
X159748Y206653D01*
X159378Y206049D01*
X159107Y205395D01*
X158942Y204706D01*
X158886Y204000D01*
X158942Y203294D01*
X159107Y202605D01*
X159378Y201951D01*
X159748Y201347D01*
X160208Y200808D01*
X160747Y200348D01*
X161351Y199978D01*
X162005Y199707D01*
X162694Y199542D01*
X163393Y199487D01*
Y198750D01*
X158393D01*
Y209487D01*
X158400Y209486D01*
X159106Y209542D01*
X159795Y209707D01*
X160449Y209978D01*
X161053Y210348D01*
X161592Y210808D01*
X162052Y211347D01*
X162422Y211951D01*
X162693Y212605D01*
X162858Y213294D01*
X162900Y214000D01*
X162858Y214706D01*
X162693Y215395D01*
X162422Y216049D01*
X162052Y216653D01*
X161592Y217192D01*
X161053Y217652D01*
X160449Y218022D01*
X159795Y218293D01*
X159106Y218458D01*
X158400Y218514D01*
X158393Y218513D01*
Y268500D01*
G37*
G36*
X153402Y194250D02*X158393D01*
Y158000D01*
X153402D01*
Y194250D01*
G37*
G36*
X157120Y209679D02*X157694Y209542D01*
X158393Y209487D01*
Y198750D01*
X157120D01*
Y201544D01*
X157171Y201583D01*
X157226Y201639D01*
X157270Y201704D01*
X157464Y202056D01*
X157621Y202426D01*
X157744Y202809D01*
X157833Y203200D01*
X157887Y203599D01*
X157904Y204000D01*
X157887Y204401D01*
X157833Y204800D01*
X157744Y205191D01*
X157621Y205574D01*
X157464Y205944D01*
X157274Y206298D01*
X157229Y206363D01*
X157174Y206420D01*
X157120Y206460D01*
Y209679D01*
G37*
G36*
Y268500D02*X158393D01*
Y218513D01*
X157694Y218458D01*
X157120Y218321D01*
Y268500D01*
G37*
G36*
X153402D02*X157120D01*
Y218321D01*
X157005Y218293D01*
X156351Y218022D01*
X155747Y217652D01*
X155208Y217192D01*
X154748Y216653D01*
X154378Y216049D01*
X154107Y215395D01*
X153942Y214706D01*
X153886Y214000D01*
X153942Y213294D01*
X154107Y212605D01*
X154378Y211951D01*
X154748Y211347D01*
X155208Y210808D01*
X155747Y210348D01*
X156351Y209978D01*
X157005Y209707D01*
X157120Y209679D01*
Y206460D01*
X157110Y206468D01*
X157040Y206504D01*
X156965Y206530D01*
X156887Y206544D01*
X156808Y206545D01*
X156729Y206533D01*
X156654Y206510D01*
X156583Y206475D01*
X156518Y206429D01*
X156461Y206374D01*
X156413Y206311D01*
X156376Y206241D01*
X156351Y206166D01*
X156337Y206088D01*
X156336Y206008D01*
X156348Y205930D01*
X156371Y205854D01*
X156407Y205784D01*
X156557Y205510D01*
X156679Y205223D01*
X156775Y204926D01*
X156844Y204621D01*
X156886Y204312D01*
X156900Y204000D01*
X156886Y203688D01*
X156844Y203379D01*
X156775Y203074D01*
X156679Y202777D01*
X156557Y202490D01*
X156410Y202214D01*
X156374Y202145D01*
X156351Y202069D01*
X156340Y201991D01*
X156341Y201913D01*
X156354Y201835D01*
X156380Y201761D01*
X156416Y201691D01*
X156464Y201628D01*
X156520Y201573D01*
X156584Y201528D01*
X156655Y201493D01*
X156730Y201470D01*
X156808Y201459D01*
X156887Y201460D01*
X156964Y201473D01*
X157039Y201499D01*
X157108Y201535D01*
X157120Y201544D01*
Y198750D01*
X153402D01*
Y199496D01*
X153801Y199513D01*
X154200Y199567D01*
X154591Y199656D01*
X154974Y199779D01*
X155344Y199936D01*
X155698Y200126D01*
X155763Y200171D01*
X155820Y200226D01*
X155868Y200290D01*
X155904Y200360D01*
X155930Y200435D01*
X155944Y200513D01*
X155945Y200592D01*
X155933Y200671D01*
X155910Y200746D01*
X155875Y200817D01*
X155829Y200882D01*
X155774Y200939D01*
X155711Y200987D01*
X155641Y201024D01*
X155566Y201049D01*
X155488Y201063D01*
X155408Y201064D01*
X155330Y201052D01*
X155254Y201029D01*
X155184Y200993D01*
X154910Y200843D01*
X154623Y200721D01*
X154326Y200625D01*
X154021Y200556D01*
X153712Y200514D01*
X153402Y200500D01*
Y207500D01*
X153712Y207486D01*
X154021Y207444D01*
X154326Y207375D01*
X154623Y207279D01*
X154910Y207157D01*
X155186Y207010D01*
X155255Y206974D01*
X155331Y206951D01*
X155409Y206940D01*
X155487Y206941D01*
X155565Y206954D01*
X155639Y206980D01*
X155709Y207016D01*
X155772Y207064D01*
X155827Y207120D01*
X155872Y207184D01*
X155907Y207255D01*
X155930Y207330D01*
X155941Y207408D01*
X155940Y207487D01*
X155927Y207564D01*
X155901Y207639D01*
X155865Y207708D01*
X155817Y207771D01*
X155761Y207826D01*
X155696Y207870D01*
X155344Y208064D01*
X154974Y208221D01*
X154591Y208344D01*
X154200Y208433D01*
X153801Y208487D01*
X153402Y208504D01*
Y268500D01*
G37*
G36*
X149680Y194609D02*X149761Y194559D01*
X149875Y194489D01*
X150203Y194354D01*
X150547Y194271D01*
X150547D01*
X150900Y194243D01*
X150988Y194250D01*
X153402D01*
Y158000D01*
X149680D01*
Y194609D01*
G37*
G36*
Y268500D02*X153402D01*
Y208504D01*
X153400Y208504D01*
X152999Y208487D01*
X152600Y208433D01*
X152209Y208344D01*
X151826Y208221D01*
X151456Y208064D01*
X151102Y207874D01*
X151037Y207829D01*
X150980Y207774D01*
X150932Y207710D01*
X150896Y207640D01*
X150870Y207565D01*
X150856Y207487D01*
X150855Y207408D01*
X150867Y207329D01*
X150890Y207254D01*
X150925Y207183D01*
X150971Y207118D01*
X151026Y207061D01*
X151089Y207013D01*
X151159Y206976D01*
X151234Y206951D01*
X151312Y206937D01*
X151392Y206936D01*
X151470Y206948D01*
X151546Y206971D01*
X151616Y207007D01*
X151890Y207157D01*
X152177Y207279D01*
X152474Y207375D01*
X152779Y207444D01*
X153088Y207486D01*
X153400Y207500D01*
X153402Y207500D01*
Y200500D01*
X153400Y200500D01*
X153088Y200514D01*
X152779Y200556D01*
X152474Y200625D01*
X152177Y200721D01*
X151890Y200843D01*
X151614Y200990D01*
X151545Y201026D01*
X151469Y201049D01*
X151391Y201060D01*
X151313Y201059D01*
X151235Y201046D01*
X151161Y201020D01*
X151091Y200984D01*
X151028Y200936D01*
X150973Y200880D01*
X150928Y200816D01*
X150893Y200745D01*
X150870Y200670D01*
X150859Y200592D01*
X150860Y200513D01*
X150873Y200436D01*
X150899Y200361D01*
X150935Y200292D01*
X150983Y200229D01*
X151039Y200174D01*
X151104Y200130D01*
X151456Y199936D01*
X151826Y199779D01*
X152209Y199656D01*
X152600Y199567D01*
X152999Y199513D01*
X153400Y199496D01*
X153402Y199496D01*
Y198750D01*
X151832D01*
X149680Y200902D01*
Y201540D01*
X149690Y201532D01*
X149760Y201496D01*
X149835Y201470D01*
X149913Y201456D01*
X149992Y201455D01*
X150071Y201467D01*
X150146Y201490D01*
X150217Y201525D01*
X150282Y201571D01*
X150339Y201626D01*
X150387Y201689D01*
X150424Y201759D01*
X150449Y201834D01*
X150463Y201912D01*
X150464Y201992D01*
X150452Y202070D01*
X150429Y202146D01*
X150393Y202216D01*
X150243Y202490D01*
X150121Y202777D01*
X150025Y203074D01*
X149956Y203379D01*
X149914Y203688D01*
X149900Y204000D01*
X149914Y204312D01*
X149956Y204621D01*
X150025Y204926D01*
X150121Y205223D01*
X150243Y205510D01*
X150390Y205786D01*
X150426Y205855D01*
X150449Y205931D01*
X150460Y206009D01*
X150459Y206087D01*
X150446Y206165D01*
X150420Y206239D01*
X150384Y206309D01*
X150336Y206372D01*
X150280Y206427D01*
X150216Y206472D01*
X150145Y206507D01*
X150070Y206530D01*
X149992Y206541D01*
X149913Y206540D01*
X149836Y206527D01*
X149761Y206501D01*
X149692Y206465D01*
X149680Y206456D01*
Y209679D01*
X149795Y209707D01*
X150449Y209978D01*
X151053Y210348D01*
X151592Y210808D01*
X152052Y211347D01*
X152422Y211951D01*
X152693Y212605D01*
X152858Y213294D01*
X152900Y214000D01*
X152858Y214706D01*
X152693Y215395D01*
X152422Y216049D01*
X152052Y216653D01*
X151592Y217192D01*
X151053Y217652D01*
X150449Y218022D01*
X149795Y218293D01*
X149680Y218321D01*
Y268500D01*
G37*
G36*
X138393D02*X149680D01*
Y218321D01*
X149106Y218458D01*
X148400Y218514D01*
X147694Y218458D01*
X147005Y218293D01*
X146351Y218022D01*
X145747Y217652D01*
X145208Y217192D01*
X144748Y216653D01*
X144378Y216049D01*
X144107Y215395D01*
X143942Y214706D01*
X143886Y214000D01*
X143942Y213294D01*
X144107Y212605D01*
X144378Y211951D01*
X144748Y211347D01*
X145208Y210808D01*
X145747Y210348D01*
X146351Y209978D01*
X147005Y209707D01*
X147694Y209542D01*
X148400Y209486D01*
X149106Y209542D01*
X149680Y209679D01*
Y206456D01*
X149629Y206417D01*
X149574Y206361D01*
X149530Y206296D01*
X149336Y205944D01*
X149179Y205574D01*
X149056Y205191D01*
X148967Y204800D01*
X148913Y204401D01*
X148896Y204000D01*
X148913Y203599D01*
X148967Y203200D01*
X149056Y202809D01*
X149179Y202426D01*
X149336Y202056D01*
X149526Y201702D01*
X149571Y201637D01*
X149626Y201580D01*
X149680Y201540D01*
Y200902D01*
X147748Y202834D01*
X147858Y203294D01*
X147900Y204000D01*
X147858Y204706D01*
X147693Y205395D01*
X147422Y206049D01*
X147052Y206653D01*
X146592Y207192D01*
X146053Y207652D01*
X145449Y208022D01*
X144795Y208293D01*
X144106Y208458D01*
X143400Y208514D01*
X142694Y208458D01*
X142005Y208293D01*
X141351Y208022D01*
X140747Y207652D01*
X140208Y207192D01*
X139748Y206653D01*
X139378Y206049D01*
X139107Y205395D01*
X138942Y204706D01*
X138886Y204000D01*
X138942Y203294D01*
X139107Y202605D01*
X139378Y201951D01*
X139748Y201347D01*
X140208Y200808D01*
X140747Y200348D01*
X141351Y199978D01*
X142005Y199707D01*
X142694Y199542D01*
X143400Y199486D01*
X144106Y199542D01*
X144566Y199652D01*
X149247Y194971D01*
X149304Y194904D01*
X149573Y194674D01*
X149573Y194674D01*
X149680Y194609D01*
Y158000D01*
X138393D01*
Y209487D01*
X138400Y209486D01*
X139106Y209542D01*
X139795Y209707D01*
X140449Y209978D01*
X141053Y210348D01*
X141592Y210808D01*
X142052Y211347D01*
X142422Y211951D01*
X142693Y212605D01*
X142858Y213294D01*
X142900Y214000D01*
X142858Y214706D01*
X142693Y215395D01*
X142422Y216049D01*
X142052Y216653D01*
X141592Y217192D01*
X141053Y217652D01*
X140449Y218022D01*
X139795Y218293D01*
X139106Y218458D01*
X138400Y218514D01*
X138393Y218513D01*
Y234960D01*
X138497Y235129D01*
X139009Y236365D01*
X139321Y237666D01*
X139400Y239000D01*
X139321Y240334D01*
X139009Y241635D01*
X138497Y242871D01*
X138393Y243040D01*
Y268500D01*
G37*
G36*
X117000D02*X138393D01*
Y243040D01*
X137798Y244012D01*
X136929Y245029D01*
X135912Y245898D01*
X134771Y246597D01*
X133535Y247109D01*
X132234Y247421D01*
X130900Y247526D01*
X129566Y247421D01*
X128265Y247109D01*
X127029Y246597D01*
X125888Y245898D01*
X124871Y245029D01*
X124002Y244012D01*
X123303Y242871D01*
X122791Y241635D01*
X122479Y240334D01*
X122374Y239000D01*
X122479Y237666D01*
X122791Y236365D01*
X123303Y235129D01*
X124002Y233988D01*
X124871Y232971D01*
X125888Y232102D01*
X127029Y231403D01*
X128265Y230891D01*
X129566Y230579D01*
X130900Y230474D01*
X132234Y230579D01*
X133535Y230891D01*
X134771Y231403D01*
X135912Y232102D01*
X136929Y232971D01*
X137798Y233988D01*
X138393Y234960D01*
Y218513D01*
X137694Y218458D01*
X137005Y218293D01*
X136351Y218022D01*
X135747Y217652D01*
X135208Y217192D01*
X134748Y216653D01*
X134378Y216049D01*
X134107Y215395D01*
X133942Y214706D01*
X133886Y214000D01*
X133942Y213294D01*
X134107Y212605D01*
X134378Y211951D01*
X134748Y211347D01*
X135208Y210808D01*
X135747Y210348D01*
X136351Y209978D01*
X137005Y209707D01*
X137694Y209542D01*
X138393Y209487D01*
Y158000D01*
X117000D01*
Y268500D01*
G37*
G36*
X97000Y185000D02*X125000D01*
Y158000D01*
X98621D01*
X97000Y159621D01*
Y185000D01*
G37*
G54D37*X200500Y196500D02*X150900D01*
X143400Y204000D01*
X193000Y221500D02*X189500Y218000D01*
Y196500D01*
G54D38*X82000Y156000D02*Y216500D01*
G54D37*X204000Y253500D02*Y224500D01*
X193000Y260000D02*X201500D01*
X204000Y257500D01*
Y252000D01*
Y224500D02*X201000Y221500D01*
X193000D01*
G54D38*X95500Y247800D02*Y159000D01*
X93000Y230000D02*Y158000D01*
X90500Y157500D02*Y226000D01*
X87500Y223000D02*Y157000D01*
X98000Y156500D02*X200500D01*
X96500Y154500D02*X192500D01*
X187000Y152500D02*X95500D01*
X94000Y150500D02*X181500D01*
X180500Y148000D02*X93000D01*
X179500Y146000D02*X92000D01*
X91000Y144000D02*X178000D01*
X176500Y142000D02*X100500D01*
X112000Y140000D02*X175500D01*
X192500Y154500D02*X200500Y146500D01*
Y139000D02*X187000Y152500D01*
X181500Y150500D02*X195000Y137000D01*
X200500Y136500D02*Y139000D01*
X195000Y137000D02*Y132000D01*
X200500Y126500D01*
X192000Y125000D02*Y136500D01*
X189000Y118000D02*Y136500D01*
X192000D02*X180500Y148000D01*
X189000Y136500D02*X179500Y146000D01*
X178000Y144000D02*X186500Y135500D01*
X184000Y134500D02*X176500Y142000D01*
X175500Y140000D02*X181500Y134000D01*
X200500Y116500D02*X192000Y125000D01*
X200500Y106500D02*X189000Y118000D01*
X186500Y135500D02*Y107000D01*
X195000Y98500D01*
X204000D01*
X207000Y95500D01*
Y67000D01*
X200500Y80500D02*X196000D01*
X193500Y70500D02*X200500D01*
X207000Y67000D02*X200500Y60500D01*
X196000Y80500D02*X184000Y92500D01*
X181500Y82500D02*X193500Y70500D01*
X184000Y92500D02*Y134500D01*
X181500Y134000D02*Y82500D01*
X92000Y146000D02*X82000Y156000D01*
G54D39*X122500Y131500D02*X130000Y124000D01*
G54D38*X88500Y140000D02*X114000D01*
G54D39*X120000Y131500D02*X122500D01*
X124500Y129500D01*
G54D38*X114500Y106500D02*Y127500D01*
X110500Y131500D01*
G54D40*X10500Y150500D02*X19000D01*
X26000Y157500D01*
Y173500D01*
X33000Y180500D01*
X41500D02*X33000D01*
G54D38*X24000Y196000D02*X3500Y175500D01*
Y77500D01*
X85500Y247800D02*Y237500D01*
X75500Y241000D02*Y247800D01*
X65500D02*Y245000D01*
X87500Y223000D01*
X85500Y237500D02*X93000Y230000D01*
X90500Y226000D02*X75500Y241000D01*
X105500Y247800D02*Y255000D01*
X95500Y265000D01*
X79500Y215500D02*Y155500D01*
X77000Y155000D02*Y200500D01*
X70500Y208000D02*Y200000D01*
X74500Y196000D01*
Y154000D01*
X95500Y159000D02*X98000Y156500D01*
X93000Y158000D02*X96500Y154500D01*
X95500Y152500D02*X90500Y157500D01*
X87500Y157000D02*X94000Y150500D01*
X102500Y142000D02*X90000D01*
X93000Y148000D02*X84500Y156500D01*
X79500Y155500D02*X91000Y144000D01*
X3500Y77500D02*X10500Y70500D01*
X114500Y108000D02*Y83500D01*
X124000Y74000D01*
X90000Y142000D02*X77000Y155000D01*
X74500Y154000D02*X88500Y140000D01*
X84500Y156500D02*Y218800D01*
X55500Y247800D01*
X82000Y216500D02*X58500Y240000D01*
X53300D01*
X45500Y247800D01*
X46500Y237000D02*X58000D01*
X95500Y265000D02*X28500D01*
X24000Y260500D01*
X35500Y247800D02*X35700D01*
X46500Y237000D01*
X24000Y260500D02*Y196000D01*
X58000Y237000D02*X79500Y215500D01*
X77000Y200500D02*X75000Y202500D01*
G54D40*X10500Y130500D03*
Y120500D03*
Y110500D03*
Y100500D03*
G54D36*G36*
X7500Y163500D02*Y157500D01*
X13500D01*
Y163500D01*
X7500D01*
G37*
G54D40*X10500Y150500D03*
Y140500D03*
G54D41*Y215500D03*
G54D42*X55400Y130400D03*
X45400D03*
G54D36*G36*
X31463Y134337D02*Y126463D01*
X39337D01*
Y134337D01*
X31463D01*
G37*
G54D43*X41500Y200500D03*
Y180500D03*
G54D40*X200500Y176500D03*
Y186500D03*
Y196500D03*
G54D36*G36*
X101500Y251800D02*Y243800D01*
X109500D01*
Y251800D01*
X101500D01*
G37*
G54D43*X95500Y247800D03*
X85500D03*
X75500D03*
X65500D03*
X55500D03*
X45500D03*
X35500D03*
G54D36*G36*
X37500Y224500D02*Y216500D01*
X45500D01*
Y224500D01*
X37500D01*
G37*
G54D44*X163400Y204000D03*
X158400Y214000D03*
X153400Y204000D03*
X148400Y214000D03*
X143400Y204000D03*
X138400Y214000D03*
G54D41*X170900Y239000D03*
X130900D03*
X200500Y210500D03*
G54D36*G36*
X190000Y263000D02*Y257000D01*
X196000D01*
Y263000D01*
X190000D01*
G37*
G54D40*X193000Y250000D03*
Y240000D03*
Y230000D03*
G54D36*G36*
X197500Y23500D02*Y17500D01*
X203500D01*
Y23500D01*
X197500D01*
G37*
G54D40*X200500Y30500D03*
Y40500D03*
Y50500D03*
Y60500D03*
Y70500D03*
G54D41*X140500Y10500D03*
G54D40*X120300Y10000D03*
X110300D03*
X100300D03*
G54D36*G36*
X117300Y23000D02*Y17000D01*
X123300D01*
Y23000D01*
X117300D01*
G37*
G54D40*X110300Y20000D03*
X100300D03*
G54D36*G36*
X52600Y25700D02*Y17700D01*
X60600D01*
Y25700D01*
X52600D01*
G37*
G54D43*X76600Y21700D03*
G54D40*X200500Y80500D03*
Y90500D03*
Y106500D03*
Y116500D03*
Y126500D03*
Y136500D03*
Y146500D03*
Y156500D03*
Y166500D03*
X10500Y90500D03*
Y70500D03*
Y60500D03*
Y50500D03*
Y40500D03*
Y30500D03*
Y20500D03*
G54D41*X30500Y10500D03*
G54D39*X132000Y49500D03*
X137000D03*
X142000D03*
X132000Y54500D03*
X137000D03*
X142000D03*
X124000Y74000D03*
X121500Y247000D03*
Y252000D03*
X116500D03*
Y247000D03*
X167000Y221000D03*
X172000D03*
X167000Y226000D03*
X172000D03*
X110000Y220500D03*
X115000D03*
X110000Y225500D03*
X115000D03*
X154500Y121000D03*
X159500D03*
X130000Y124000D03*
X65500Y123000D03*
Y128000D03*
X70500Y123000D03*
Y128000D03*
X75500D03*
X120000Y131500D03*
X110500D03*
X7000Y197000D03*
X12000D03*
X17000D03*
X7000Y202000D03*
X12000D03*
X17000D03*
X75000Y202500D03*
X70500Y208000D03*
X103500Y181500D03*
X108500D03*
Y186500D03*
X103500D03*
G54D45*G54D46*G54D47*G54D48*G54D49*G54D46*G54D49*G54D50*G54D51*G54D47*G54D46*G54D47*G54D46*G54D49*G54D46*G54D47*M02*
