G04 start of page 6 for group -4063 idx -4063 *
G04 Title: (unknown), componentmask *
G04 Creator: pcb 20140316 *
G04 CreationDate: Mon 19 Oct 2015 08:44:37 PM GMT UTC *
G04 For: ndholmes *
G04 Format: Gerber/RS-274X *
G04 PCB-Dimensions (mil): 2110.00 2710.00 *
G04 PCB-Coordinate-Origin: lower left *
%MOIN*%
%FSLAX25Y25*%
%LNTOPMASK*%
%ADD75R,0.0330X0.0330*%
%ADD74R,0.1005X0.1005*%
%ADD73R,0.0438X0.0438*%
%ADD72R,0.0620X0.0620*%
%ADD71R,0.0720X0.0720*%
%ADD70R,0.0300X0.0300*%
%ADD69C,0.0600*%
%ADD68R,0.0560X0.0560*%
%ADD67R,0.0572X0.0572*%
%ADD66C,0.1600*%
%ADD65C,0.0760*%
%ADD64C,0.0860*%
%ADD63C,0.0900*%
%ADD62C,0.1560*%
%ADD61C,0.0001*%
%ADD60C,0.0660*%
G54D60*X10500Y130500D03*
Y120500D03*
Y110500D03*
Y100500D03*
G54D61*G36*
X7200Y163800D02*Y157200D01*
X13800D01*
Y163800D01*
X7200D01*
G37*
G54D60*X10500Y150500D03*
Y140500D03*
G54D62*Y215500D03*
G54D63*X55400Y130400D03*
X45400D03*
G54D61*G36*
X30900Y134900D02*Y125900D01*
X39900D01*
Y134900D01*
X30900D01*
G37*
G54D64*X41500Y200500D03*
Y180500D03*
G54D60*X200500Y176500D03*
Y186500D03*
Y196500D03*
G54D61*G36*
X101200Y252100D02*Y243500D01*
X109800D01*
Y252100D01*
X101200D01*
G37*
G54D64*X95500Y247800D03*
X85500D03*
X75500D03*
X65500D03*
X55500D03*
X45500D03*
X35500D03*
G54D61*G36*
X37200Y224800D02*Y216200D01*
X45800D01*
Y224800D01*
X37200D01*
G37*
G54D65*X163400Y204000D03*
X158400Y214000D03*
X153400Y204000D03*
X148400Y214000D03*
X143400Y204000D03*
X138400Y214000D03*
G54D66*X170900Y239000D03*
X130900D03*
G54D62*X200500Y210500D03*
G54D61*G36*
X189700Y263300D02*Y256700D01*
X196300D01*
Y263300D01*
X189700D01*
G37*
G54D60*X193000Y250000D03*
Y240000D03*
Y230000D03*
G54D61*G36*
X197200Y23800D02*Y17200D01*
X203800D01*
Y23800D01*
X197200D01*
G37*
G54D60*X200500Y30500D03*
Y40500D03*
Y50500D03*
Y60500D03*
Y70500D03*
G54D62*X140500Y10500D03*
G54D60*X120300Y10000D03*
X110300D03*
X100300D03*
G54D61*G36*
X117000Y23300D02*Y16700D01*
X123600D01*
Y23300D01*
X117000D01*
G37*
G54D60*X110300Y20000D03*
X100300D03*
G54D61*G36*
X52300Y26000D02*Y17400D01*
X60900D01*
Y26000D01*
X52300D01*
G37*
G54D64*X76600Y21700D03*
G54D60*X200500Y80500D03*
Y90500D03*
Y106500D03*
Y116500D03*
Y126500D03*
Y136500D03*
Y146500D03*
Y156500D03*
Y166500D03*
X10500Y90500D03*
Y70500D03*
Y60500D03*
Y50500D03*
Y40500D03*
Y30500D03*
Y20500D03*
G54D62*X30500Y10500D03*
G54D67*X55595Y115255D02*Y109745D01*
X67405Y115255D02*Y109745D01*
X43905Y115255D02*Y109745D01*
X32095Y115255D02*Y109745D01*
G54D68*X63514Y85426D02*Y78773D01*
G54D69*X67000Y180900D03*
G54D70*X65500Y179400D02*X68500D01*
G54D69*X67000Y174100D03*
G54D70*X65500Y175600D02*X68500D01*
G54D68*X43514Y85426D02*Y78773D01*
X33514Y99599D02*Y92946D01*
G54D67*X21607Y240543D02*X22393D01*
X10957Y256393D02*Y255607D01*
X18043Y256393D02*Y255607D01*
X21607Y233457D02*X22393D01*
G54D68*X70000Y228913D02*Y222260D01*
G54D71*X112500Y67000D02*X120500D01*
X112500Y57000D02*X120500D01*
G54D67*X100607Y56543D02*X101393D01*
X100607Y49457D02*X101393D01*
G54D71*X112500Y47000D02*X120500D01*
X112500Y37000D02*X120500D01*
G54D72*X150500Y47000D02*X158500D01*
G54D71*X150500Y37000D02*X158500D01*
G54D67*X90607Y56586D02*X91393D01*
X90607Y49500D02*X91393D01*
X81107Y56543D02*X81893D01*
X81107Y49457D02*X81893D01*
X75690Y72755D02*Y67245D01*
X87500Y72755D02*Y67245D01*
G54D73*X68906Y61405D02*Y57311D01*
X63000Y61405D02*Y49595D01*
G54D74*Y47861D02*Y45971D01*
G54D61*G36*
X64885Y55850D02*X68149Y52586D01*
X66305Y50742D01*
X63041Y54006D01*
X64885Y55850D01*
G37*
G36*
X57851Y52586D02*X61115Y55850D01*
X62959Y54006D01*
X59695Y50742D01*
X57851Y52586D01*
G37*
G54D73*X57094Y61405D02*Y57311D01*
G54D75*X34500Y46950D02*Y44550D01*
X44500Y46950D02*Y44550D01*
Y69450D02*Y67050D01*
X34500Y69450D02*Y67050D01*
G54D68*X146500Y123413D02*Y116760D01*
X156500Y109240D02*Y102587D01*
X166500Y123413D02*Y116760D01*
X176500Y109240D02*Y102587D01*
G54D67*X114107Y121043D02*X114893D01*
X114107Y113957D02*X114893D01*
G54D75*X104300Y111500D02*X105200D01*
X104300Y121500D02*X105200D01*
X78800Y111500D02*X79700D01*
X78800Y121500D02*X79700D01*
G54D68*X53514Y99599D02*Y92946D01*
X146500Y97413D02*Y90760D01*
X166500Y97413D02*Y90760D01*
G54D67*X139043Y76393D02*Y75607D01*
X131957Y76393D02*Y75607D01*
X167607Y46957D02*X168393D01*
G54D68*X156500Y83240D02*Y76587D01*
X176500Y83240D02*Y76587D01*
G54D67*X167607Y54043D02*X168393D01*
G54D71*X150500Y67000D02*X158500D01*
X150500Y57000D02*X158500D01*
G54D67*X111457Y203893D02*Y203107D01*
G54D68*X100000Y214740D02*Y208087D01*
G54D67*X118543Y203893D02*Y203107D01*
X64607Y200543D02*X65393D01*
G54D68*X80000Y214740D02*Y208087D01*
X90000Y228913D02*Y222260D01*
G54D67*X64607Y193457D02*X65393D01*
G54D68*X76500Y159413D02*Y152760D01*
X86500Y145240D02*Y138587D01*
X96500Y159413D02*Y152760D01*
X106500Y145240D02*Y138587D01*
X141000Y186913D02*Y180260D01*
X151000Y172740D02*Y166087D01*
X161000Y186913D02*Y180260D01*
X171000Y172740D02*Y166087D01*
G54D67*X138043Y162893D02*Y162107D01*
X130957Y162893D02*Y162107D01*
X128107Y185543D02*X128893D01*
X128107Y178457D02*X128893D01*
M02*
