G04 start of page 8 for group -4079 idx -4079 *
G04 Title: (unknown), topsilk *
G04 Creator: pcb 20140316 *
G04 CreationDate: Mon 19 Oct 2015 08:44:37 PM GMT UTC *
G04 For: ndholmes *
G04 Format: Gerber/RS-274X *
G04 PCB-Dimensions (mil): 2110.00 2710.00 *
G04 PCB-Coordinate-Origin: lower left *
%MOIN*%
%FSLAX25Y25*%
%LNTOPSILK*%
%ADD86C,0.0200*%
%ADD85C,0.0080*%
%ADD84C,0.0100*%
%ADD83C,0.0001*%
G54D83*G36*
X132000Y140000D02*X136500D01*
Y135500D01*
X132000D01*
Y140000D01*
G37*
G36*
X127500Y147500D02*X132000D01*
Y143000D01*
X127500D01*
Y147500D01*
G37*
G36*
X136500Y132500D02*X141000D01*
Y128000D01*
X136500D01*
Y132500D01*
G37*
G36*
X93000Y87000D02*X97500D01*
Y82500D01*
X93000D01*
Y87000D01*
G37*
G36*
X84000Y94500D02*X88500D01*
Y90000D01*
X84000D01*
Y94500D01*
G37*
G54D84*X150000Y1000D02*X21000D01*
X160000Y11000D02*X150000Y1000D01*
X1000Y11000D02*X11000D01*
X210000D02*X160000D01*
X83000Y104500D02*X146000D01*
X84000Y87000D02*Y82500D01*
Y94500D02*Y90000D01*
X88500Y82500D02*Y87000D01*
X97500D02*Y82500D01*
X84000D02*X97500D01*
X127500Y140000D02*Y135500D01*
Y132500D02*Y128000D01*
X132000D02*Y132500D01*
X127500Y147500D02*Y143000D01*
X132000D02*Y147500D01*
X136500Y143000D02*Y147500D01*
X141000D02*Y143000D01*
X127500D02*X141000D01*
X132000Y135500D02*Y140000D01*
X136500Y135500D02*Y140000D01*
X141000D02*Y135500D01*
X127500D02*X141000D01*
X136500Y128000D02*Y132500D01*
X127500Y128000D02*X141000D01*
Y132500D02*Y128000D01*
X116000Y157000D02*X179000D01*
X21000Y1000D02*X11000Y11000D01*
X1000D02*Y270000D01*
X88500Y90000D02*Y94500D01*
X93000Y90000D02*Y94500D01*
X97500D02*Y90000D01*
X84000D02*X97500D01*
X93000Y82500D02*Y87000D01*
X80000Y203500D02*Y199500D01*
X90000D02*Y203500D01*
X80000Y199500D02*X70000D01*
X100000D02*X90000D01*
X70000D02*Y203500D01*
X75000Y199500D02*Y196000D01*
X79500Y191500D01*
X74500D02*X83500D01*
X100000Y203500D02*Y199500D01*
X96500Y164000D02*Y168000D01*
X76500Y164000D02*Y168000D01*
X86500D02*X76500D01*
X86500D02*Y164000D01*
X209500Y269500D02*Y10500D01*
X128000Y251500D02*X146500Y270000D01*
X128000Y258000D02*X140000Y270000D01*
X128000Y233000D02*Y270000D01*
X173000Y251500D02*X154500Y233000D01*
X173000Y245000D02*X161000Y233000D01*
X173000D02*X128000D01*
X173000Y270000D02*Y233000D01*
X1000Y270000D02*X210000D01*
X141000Y191000D02*Y195000D01*
X151000D02*X141000D01*
X151000D02*Y191000D01*
X171000Y195000D02*Y191000D01*
X161000D02*Y195000D01*
X171000D02*X161000D01*
X106500Y168000D02*Y164000D01*
Y168000D02*X96500D01*
G54D85*X18500Y22000D02*Y18500D01*
Y22000D02*X19000Y22500D01*
X20500D01*
X21000Y22000D01*
Y18500D01*
X18500Y20500D02*X21000D01*
X22200Y22500D02*X24200D01*
X22200D02*Y20500D01*
X22700Y21000D01*
X23700D01*
X24200Y20500D01*
Y19000D01*
X23700Y18500D02*X24200Y19000D01*
X22700Y18500D02*X23700D01*
X22200Y19000D02*X22700Y18500D01*
X25400Y19000D02*X28400Y22000D01*
X31600Y22500D02*X32100Y22000D01*
X30100Y22500D02*X31600D01*
X29600Y22000D02*X30100Y22500D01*
X29600Y22000D02*Y21000D01*
X30100Y20500D01*
X31600D01*
X32100Y20000D01*
Y19000D01*
X31600Y18500D02*X32100Y19000D01*
X30100Y18500D02*X31600D01*
X29600Y19000D02*X30100Y18500D01*
X33800D02*X35300D01*
X33300Y19000D02*X33800Y18500D01*
X33300Y22000D02*Y19000D01*
Y22000D02*X33800Y22500D01*
X35300D01*
X36500D02*Y18500D01*
X38500D01*
X18500Y32000D02*Y28500D01*
Y32000D02*X19000Y32500D01*
X20500D01*
X21000Y32000D01*
Y28500D01*
X18500Y30500D02*X21000D01*
X22200D02*X24200Y32500D01*
X22200Y30500D02*X24700D01*
X24200Y32500D02*Y28500D01*
X25900Y29000D02*X28900Y32000D01*
X32100Y32500D02*X32600Y32000D01*
X30600Y32500D02*X32100D01*
X30100Y32000D02*X30600Y32500D01*
X30100Y32000D02*Y31000D01*
X30600Y30500D01*
X32100D01*
X32600Y30000D01*
Y29000D01*
X32100Y28500D02*X32600Y29000D01*
X30600Y28500D02*X32100D01*
X30100Y29000D02*X30600Y28500D01*
X34300Y32500D02*Y28500D01*
X35800Y32500D02*X36300Y32000D01*
Y29000D01*
X35800Y28500D02*X36300Y29000D01*
X33800Y28500D02*X35800D01*
X33800Y32500D02*X35800D01*
X37500Y32000D02*Y28500D01*
Y32000D02*X38000Y32500D01*
X39500D01*
X40000Y32000D01*
Y28500D01*
X37500Y30500D02*X40000D01*
X18500Y42000D02*Y38500D01*
Y42000D02*X19000Y42500D01*
X20500D01*
X21000Y42000D01*
Y38500D01*
X18500Y40500D02*X21000D01*
X22200Y42000D02*X22700Y42500D01*
X23700D01*
X24200Y42000D01*
Y39000D01*
X23700Y38500D02*X24200Y39000D01*
X22700Y38500D02*X23700D01*
X22200Y39000D02*X22700Y38500D01*
Y40500D02*X24200D01*
X18500Y52000D02*Y48500D01*
Y52000D02*X19000Y52500D01*
X20500D01*
X21000Y52000D01*
Y48500D01*
X18500Y50500D02*X21000D01*
X22200Y52000D02*X22700Y52500D01*
X24200D01*
X24700Y52000D01*
Y51000D01*
X22200Y48500D02*X24700Y51000D01*
X22200Y48500D02*X24700D01*
X18500Y62000D02*Y58500D01*
Y62000D02*X19000Y62500D01*
X20500D01*
X21000Y62000D01*
Y58500D01*
X18500Y60500D02*X21000D01*
X22700Y58500D02*X23700D01*
X23200Y62500D02*Y58500D01*
X22200Y61500D02*X23200Y62500D01*
X58800Y7200D02*Y3200D01*
X60300Y7200D02*X60800Y6700D01*
Y3700D01*
X60300Y3200D02*X60800Y3700D01*
X58300Y3200D02*X60300D01*
X58300Y7200D02*X60300D01*
X62500Y3200D02*X64000D01*
X62000Y3700D02*X62500Y3200D01*
X62000Y6700D02*Y3700D01*
Y6700D02*X62500Y7200D01*
X64000D01*
X65700Y3200D02*X67200D01*
X65200Y3700D02*X65700Y3200D01*
X65200Y6700D02*Y3700D01*
Y6700D02*X65700Y7200D01*
X67200D01*
X70200D02*X71200D01*
X70700D02*Y3200D01*
X70200D02*X71200D01*
X72400Y7200D02*Y3200D01*
Y7200D02*Y6700D01*
X74900Y4200D01*
Y7200D02*Y3200D01*
X18500Y72000D02*Y68500D01*
Y72000D02*X19000Y72500D01*
X20500D01*
X21000Y72000D01*
Y68500D01*
X18500Y70500D02*X21000D01*
X22200Y69000D02*X22700Y68500D01*
X22200Y72000D02*Y69000D01*
Y72000D02*X22700Y72500D01*
X23700D01*
X24200Y72000D01*
Y69000D01*
X23700Y68500D02*X24200Y69000D01*
X22700Y68500D02*X23700D01*
X22200Y69500D02*X24200Y71500D01*
X18500Y92500D02*Y89500D01*
X19500Y88500D01*
X20500Y89500D01*
Y92500D02*Y89500D01*
X21700Y92500D02*X22700D01*
X22200D02*Y88500D01*
X21700D02*X22700D01*
X23900Y92500D02*Y88500D01*
Y92500D02*Y92000D01*
X26400Y89500D01*
Y92500D02*Y88500D01*
X186000Y52500D02*Y48500D01*
X187500Y52500D02*X188000Y52000D01*
Y49000D01*
X187500Y48500D02*X188000Y49000D01*
X185500Y48500D02*X187500D01*
X185500Y52500D02*X187500D01*
X189200Y52000D02*X189700Y52500D01*
X190700D01*
X191200Y52000D01*
Y49000D01*
X190700Y48500D02*X191200Y49000D01*
X189700Y48500D02*X190700D01*
X189200Y49000D02*X189700Y48500D01*
Y50500D02*X191200D01*
X186000Y62500D02*Y58500D01*
X187500Y62500D02*X188000Y62000D01*
Y59000D01*
X187500Y58500D02*X188000Y59000D01*
X185500Y58500D02*X187500D01*
X185500Y62500D02*X187500D01*
X189200Y60500D02*X191200Y62500D01*
X189200Y60500D02*X191700D01*
X191200Y62500D02*Y58500D01*
X186000Y42500D02*Y38500D01*
X187500Y42500D02*X188000Y42000D01*
Y39000D01*
X187500Y38500D02*X188000Y39000D01*
X185500Y38500D02*X187500D01*
X185500Y42500D02*X187500D01*
X189200Y42000D02*X189700Y42500D01*
X191200D01*
X191700Y42000D01*
Y41000D01*
X189200Y38500D02*X191700Y41000D01*
X189200Y38500D02*X191700D01*
X174500Y22500D02*X176500D01*
X177000Y22000D01*
Y21000D01*
X176500Y20500D02*X177000Y21000D01*
X175000Y20500D02*X176500D01*
X175000Y22500D02*Y18500D01*
Y20500D02*X177000Y18500D01*
X178200Y22500D02*Y22000D01*
X180700Y19500D01*
Y18500D01*
X178200Y19500D02*Y18500D01*
Y19500D02*X180700Y22000D01*
Y22500D02*Y22000D01*
X181900Y19000D02*X184900Y22000D01*
X186600Y22500D02*Y18500D01*
X188100Y22500D02*X188600Y22000D01*
Y19000D01*
X188100Y18500D02*X188600Y19000D01*
X186100Y18500D02*X188100D01*
X186100Y22500D02*X188100D01*
X189800Y19000D02*X190300Y18500D01*
X189800Y22000D02*Y19000D01*
Y22000D02*X190300Y22500D01*
X191300D01*
X191800Y22000D01*
Y19000D01*
X191300Y18500D02*X191800Y19000D01*
X190300Y18500D02*X191300D01*
X189800Y19500D02*X191800Y21500D01*
X112100Y31600D02*X113100D01*
X112600D02*Y27600D01*
X112100D02*X113100D01*
X114800D02*X116300D01*
X114300Y28100D02*X114800Y27600D01*
X114300Y31100D02*Y28100D01*
Y31100D02*X114800Y31600D01*
X116300D01*
X119500D02*X120000Y31100D01*
X118000Y31600D02*X119500D01*
X117500Y31100D02*X118000Y31600D01*
X117500Y31100D02*Y30100D01*
X118000Y29600D01*
X119500D01*
X120000Y29100D01*
Y28100D01*
X119500Y27600D02*X120000Y28100D01*
X118000Y27600D02*X119500D01*
X117500Y28100D02*X118000Y27600D01*
X121700Y31600D02*Y27600D01*
X121200Y31600D02*X123200D01*
X123700Y31100D01*
Y30100D01*
X123200Y29600D02*X123700Y30100D01*
X121700Y29600D02*X123200D01*
X175500Y32500D02*X177500D01*
X176500D02*Y28500D01*
X178700Y32500D02*Y32000D01*
X181200Y29500D01*
Y28500D01*
X178700Y29500D02*Y28500D01*
Y29500D02*X181200Y32000D01*
Y32500D02*Y32000D01*
X182400Y29000D02*X185400Y32000D01*
X187100Y32500D02*Y28500D01*
X188600Y32500D02*X189100Y32000D01*
Y29000D01*
X188600Y28500D02*X189100Y29000D01*
X186600Y28500D02*X188600D01*
X186600Y32500D02*X188600D01*
X190800Y28500D02*X191800D01*
X191300Y32500D02*Y28500D01*
X190300Y31500D02*X191300Y32500D01*
X105500Y45000D02*X107500D01*
X106500Y46000D02*Y44000D01*
X186000Y92500D02*Y88500D01*
X187500Y92500D02*X188000Y92000D01*
Y89000D01*
X187500Y88500D02*X188000Y89000D01*
X185500Y88500D02*X187500D01*
X185500Y92500D02*X187500D01*
X189200Y88500D02*X191700Y91000D01*
Y92500D02*Y91000D01*
X189200Y92500D02*X191700D01*
X186000Y82500D02*Y78500D01*
X187500Y82500D02*X188000Y82000D01*
Y79000D01*
X187500Y78500D02*X188000Y79000D01*
X185500Y78500D02*X187500D01*
X185500Y82500D02*X187500D01*
X190700D02*X191200Y82000D01*
X189700Y82500D02*X190700D01*
X189200Y82000D02*X189700Y82500D01*
X189200Y82000D02*Y79000D01*
X189700Y78500D01*
X190700Y80500D02*X191200Y80000D01*
X189200Y80500D02*X190700D01*
X189700Y78500D02*X190700D01*
X191200Y79000D01*
Y80000D02*Y79000D01*
X186000Y72500D02*Y68500D01*
X187500Y72500D02*X188000Y72000D01*
Y69000D01*
X187500Y68500D02*X188000Y69000D01*
X185500Y68500D02*X187500D01*
X185500Y72500D02*X187500D01*
X189200D02*X191200D01*
X189200D02*Y70500D01*
X189700Y71000D01*
X190700D01*
X191200Y70500D01*
Y69000D01*
X190700Y68500D02*X191200Y69000D01*
X189700Y68500D02*X190700D01*
X189200Y69000D02*X189700Y68500D01*
X97000Y98500D02*X98500D01*
X96500Y99000D02*X97000Y98500D01*
X96500Y102000D02*Y99000D01*
Y102000D02*X97000Y102500D01*
X98500D01*
X99700Y100000D02*Y99000D01*
Y100000D02*X100200Y100500D01*
X101200D01*
X101700Y100000D01*
Y99000D01*
X101200Y98500D02*X101700Y99000D01*
X100200Y98500D02*X101200D01*
X99700Y99000D02*X100200Y98500D01*
X103400Y100000D02*Y98500D01*
Y100000D02*X103900Y100500D01*
X104400D01*
X104900Y100000D01*
Y98500D01*
X102900Y100500D02*X103400Y100000D01*
X106600Y102000D02*Y98500D01*
Y102000D02*X107100Y102500D01*
X107600D01*
X106100Y100500D02*X107100D01*
X108600Y101500D02*Y101000D01*
Y100000D02*Y98500D01*
X111100Y100500D02*X111600Y100000D01*
X110100Y100500D02*X111100D01*
X109600Y100000D02*X110100Y100500D01*
X109600Y100000D02*Y99000D01*
X110100Y98500D01*
X111100D01*
X111600Y99000D01*
X109600Y97500D02*X110100Y97000D01*
X111100D01*
X111600Y97500D01*
Y100500D02*Y97500D01*
X112800Y100500D02*Y99000D01*
X113300Y98500D01*
X114300D01*
X114800Y99000D01*
Y100500D02*Y99000D01*
X116500Y100000D02*Y98500D01*
Y100000D02*X117000Y100500D01*
X118000D01*
X116000D02*X116500Y100000D01*
X120700Y100500D02*X121200Y100000D01*
X119700Y100500D02*X120700D01*
X119200Y100000D02*X119700Y100500D01*
X119200Y100000D02*Y99000D01*
X119700Y98500D01*
X121200Y100500D02*Y99000D01*
X121700Y98500D01*
X119700D02*X120700D01*
X121200Y99000D01*
X123400Y102500D02*Y99000D01*
X123900Y98500D01*
X122900Y101000D02*X123900D01*
X124900Y101500D02*Y101000D01*
Y100000D02*Y98500D01*
X125900Y100000D02*Y99000D01*
Y100000D02*X126400Y100500D01*
X127400D01*
X127900Y100000D01*
Y99000D01*
X127400Y98500D02*X127900Y99000D01*
X126400Y98500D02*X127400D01*
X125900Y99000D02*X126400Y98500D01*
X129600Y100000D02*Y98500D01*
Y100000D02*X130100Y100500D01*
X130600D01*
X131100Y100000D01*
Y98500D01*
X129100Y100500D02*X129600Y100000D01*
X102500Y87000D02*Y83000D01*
X104000Y87000D02*X104500Y86500D01*
Y83500D01*
X104000Y83000D02*X104500Y83500D01*
X102000Y83000D02*X104000D01*
X102000Y87000D02*X104000D01*
X106200Y83000D02*X107700D01*
X105700Y83500D02*X106200Y83000D01*
X105700Y86500D02*Y83500D01*
Y86500D02*X106200Y87000D01*
X107700D01*
X109400Y83000D02*X110900D01*
X108900Y83500D02*X109400Y83000D01*
X108900Y86500D02*Y83500D01*
Y86500D02*X109400Y87000D01*
X110900D01*
X113900Y84500D02*Y83500D01*
Y84500D02*X114400Y85000D01*
X115400D01*
X115900Y84500D01*
Y83500D01*
X115400Y83000D02*X115900Y83500D01*
X114400Y83000D02*X115400D01*
X113900Y83500D02*X114400Y83000D01*
X117600Y84500D02*Y83000D01*
Y84500D02*X118100Y85000D01*
X118600D01*
X119100Y84500D01*
Y83000D01*
X117100Y85000D02*X117600Y84500D01*
X122600Y87000D02*Y83000D01*
X124100Y87000D02*X124600Y86500D01*
Y83500D01*
X124100Y83000D02*X124600Y83500D01*
X122100Y83000D02*X124100D01*
X122100Y87000D02*X124100D01*
X125800Y86500D02*X126300Y87000D01*
X127800D01*
X128300Y86500D01*
Y85500D01*
X125800Y83000D02*X128300Y85500D01*
X125800Y83000D02*X128300D01*
X102500Y94500D02*Y90500D01*
X104000Y94500D02*X104500Y94000D01*
Y91000D01*
X104000Y90500D02*X104500Y91000D01*
X102000Y90500D02*X104000D01*
X102000Y94500D02*X104000D01*
X106200Y90500D02*X107700D01*
X105700Y91000D02*X106200Y90500D01*
X105700Y94000D02*Y91000D01*
Y94000D02*X106200Y94500D01*
X107700D01*
X109400Y90500D02*X110900D01*
X108900Y91000D02*X109400Y90500D01*
X108900Y94000D02*Y91000D01*
Y94000D02*X109400Y94500D01*
X110900D01*
X113900Y92000D02*Y91000D01*
Y92000D02*X114400Y92500D01*
X115400D01*
X115900Y92000D01*
Y91000D01*
X115400Y90500D02*X115900Y91000D01*
X114400Y90500D02*X115400D01*
X113900Y91000D02*X114400Y90500D01*
X117600Y92000D02*Y90500D01*
Y92000D02*X118100Y92500D01*
X118600D01*
X119100Y92000D01*
Y90500D01*
X117100Y92500D02*X117600Y92000D01*
X122600Y94500D02*Y90500D01*
X124100Y94500D02*X124600Y94000D01*
Y91000D01*
X124100Y90500D02*X124600Y91000D01*
X122100Y90500D02*X124100D01*
X122100Y94500D02*X124100D01*
X125800Y94000D02*X126300Y94500D01*
X127300D01*
X127800Y94000D01*
Y91000D01*
X127300Y90500D02*X127800Y91000D01*
X126300Y90500D02*X127300D01*
X125800Y91000D02*X126300Y90500D01*
Y92500D02*X127800D01*
X95500Y71500D02*Y67500D01*
X97000Y71500D02*X97500Y71000D01*
Y68000D01*
X97000Y67500D02*X97500Y68000D01*
X95000Y67500D02*X97000D01*
X95000Y71500D02*X97000D01*
X99200Y67500D02*X100700D01*
X98700Y68000D02*X99200Y67500D01*
X98700Y71000D02*Y68000D01*
Y71000D02*X99200Y71500D01*
X100700D01*
X102400Y67500D02*X103900D01*
X101900Y68000D02*X102400Y67500D01*
X101900Y71000D02*Y68000D01*
Y71000D02*X102400Y71500D01*
X103900D01*
X95500Y65000D02*Y62000D01*
Y65000D02*X96000Y65500D01*
X97000D01*
X97500Y65000D01*
Y62000D01*
X97000Y61500D02*X97500Y62000D01*
X96000Y61500D02*X97000D01*
X95500Y62000D02*X96000Y61500D01*
X98700Y65500D02*Y61500D01*
Y65500D02*Y65000D01*
X101200Y62500D01*
Y65500D02*Y61500D01*
X18500Y122500D02*X20500D01*
X18500D02*Y120500D01*
X19000Y121000D01*
X20000D01*
X20500Y120500D01*
Y119000D01*
X20000Y118500D02*X20500Y119000D01*
X19000Y118500D02*X20000D01*
X18500Y119000D02*X19000Y118500D01*
X21700Y122500D02*Y119500D01*
X22700Y118500D01*
X23700Y119500D01*
Y122500D02*Y119500D01*
X18500Y132000D02*X19000Y132500D01*
X20000D01*
X20500Y132000D01*
Y129000D01*
X20000Y128500D02*X20500Y129000D01*
X19000Y128500D02*X20000D01*
X18500Y129000D02*X19000Y128500D01*
Y130500D02*X20500D01*
X21700Y128500D02*X22200D01*
X23400Y132000D02*X23900Y132500D01*
X24900D01*
X25400Y132000D01*
Y129000D01*
X24900Y128500D02*X25400Y129000D01*
X23900Y128500D02*X24900D01*
X23400Y129000D02*X23900Y128500D01*
Y130500D02*X25400D01*
X26600Y132500D02*Y129500D01*
X27600Y128500D01*
X28600Y129500D01*
Y132500D02*Y129500D01*
X18500Y142500D02*X20500D01*
X21000Y142000D01*
Y141000D01*
X20500Y140500D02*X21000Y141000D01*
X19000Y140500D02*X20500D01*
X19000Y142500D02*Y138500D01*
Y140500D02*X21000Y138500D01*
X22200Y140500D02*X23700D01*
X22200Y138500D02*X24200D01*
X22200Y142500D02*Y138500D01*
Y142500D02*X24200D01*
X27400D02*X27900Y142000D01*
X25900Y142500D02*X27400D01*
X25400Y142000D02*X25900Y142500D01*
X25400Y142000D02*Y141000D01*
X25900Y140500D01*
X27400D01*
X27900Y140000D01*
Y139000D01*
X27400Y138500D02*X27900Y139000D01*
X25900Y138500D02*X27400D01*
X25400Y139000D02*X25900Y138500D01*
X29100Y140500D02*X30600D01*
X29100Y138500D02*X31100D01*
X29100Y142500D02*Y138500D01*
Y142500D02*X31100D01*
X32300D02*X34300D01*
X33300D02*Y138500D01*
X18500Y162500D02*Y158500D01*
Y162500D02*Y162000D01*
X21000Y159500D01*
Y162500D02*Y158500D01*
X22200Y159000D02*X25200Y162000D01*
X26900Y158500D02*X28400D01*
X26400Y159000D02*X26900Y158500D01*
X26400Y162000D02*Y159000D01*
Y162000D02*X26900Y162500D01*
X28400D01*
X18500Y152500D02*X19500D01*
X19000D02*Y148500D01*
X18500D02*X19500D01*
X20700Y152000D02*Y149000D01*
Y152000D02*X21200Y152500D01*
X22200D01*
X22700Y152000D01*
Y149000D01*
X22200Y148500D02*X22700Y149000D01*
X21200Y148500D02*X22200D01*
X20700Y149000D02*X21200Y148500D01*
X23900Y152500D02*X25900D01*
X26400Y152000D01*
Y151000D01*
X25900Y150500D02*X26400Y151000D01*
X24400Y150500D02*X25900D01*
X24400Y152500D02*Y148500D01*
Y150500D02*X26400Y148500D01*
X27600Y150500D02*X29100D01*
X27600Y148500D02*X29600D01*
X27600Y152500D02*Y148500D01*
Y152500D02*X29600D01*
X30800D02*Y148500D01*
Y152500D02*X32800D01*
X30800Y150500D02*X32300D01*
X20500Y102500D02*X21000Y102000D01*
X19000Y102500D02*X20500D01*
X18500Y102000D02*X19000Y102500D01*
X18500Y102000D02*Y99000D01*
X19000Y98500D01*
X20500D01*
X21000Y99000D01*
Y100000D02*Y99000D01*
X20500Y100500D02*X21000Y100000D01*
X19500Y100500D02*X20500D01*
X22200Y102500D02*Y98500D01*
Y102500D02*Y102000D01*
X24700Y99500D01*
Y102500D02*Y98500D01*
X26400Y102500D02*Y98500D01*
X27900Y102500D02*X28400Y102000D01*
Y99000D01*
X27900Y98500D02*X28400Y99000D01*
X25900Y98500D02*X27900D01*
X25900Y102500D02*X27900D01*
X20500Y112500D02*X21000Y112000D01*
X19000Y112500D02*X20500D01*
X18500Y112000D02*X19000Y112500D01*
X18500Y112000D02*Y109000D01*
X19000Y108500D01*
X20500D01*
X21000Y109000D01*
Y110000D02*Y109000D01*
X20500Y110500D02*X21000Y110000D01*
X19500Y110500D02*X20500D01*
X22200Y112500D02*Y108500D01*
Y112500D02*Y112000D01*
X24700Y109500D01*
Y112500D02*Y108500D01*
X26400Y112500D02*Y108500D01*
X27900Y112500D02*X28400Y112000D01*
Y109000D01*
X27900Y108500D02*X28400Y109000D01*
X25900Y108500D02*X27900D01*
X25900Y112500D02*X27900D01*
X26000Y203000D02*X25500Y202500D01*
X26000Y204500D02*Y203000D01*
X25500Y205000D02*X26000Y204500D01*
X22500Y205000D02*X25500D01*
X22500D02*X22000Y204500D01*
Y203000D01*
X22500Y202500D01*
X23500D01*
X24000Y203000D02*X23500Y202500D01*
X24000Y204000D02*Y203000D01*
X22000Y201300D02*X26000D01*
X25500D02*X26000D01*
X25500D02*X23000Y198800D01*
X22000D02*X26000D01*
X22000Y197100D02*X26000D01*
Y195600D02*X25500Y195100D01*
X22500D02*X25500D01*
X22000Y195600D02*X22500Y195100D01*
X22000Y197600D02*Y195600D01*
X26000Y197600D02*Y195600D01*
X24000Y224000D02*Y222000D01*
X23000Y223000D02*X25000D01*
X26000Y220800D02*Y218800D01*
X24000Y220800D02*X26000D01*
X24000D02*X24500Y220300D01*
Y219300D01*
X24000Y218800D01*
X22500D02*X24000D01*
X22000Y219300D02*X22500Y218800D01*
X22000Y220300D02*Y219300D01*
X22500Y220800D02*X22000Y220300D01*
X23000Y217600D02*X26000D01*
X23000D02*X22000Y216600D01*
X23000Y215600D01*
X26000D01*
X24000Y190500D02*Y188500D01*
X23000Y189500D02*X25000D01*
X23000Y187300D02*X26000D01*
X23000D02*X22000Y186300D01*
X23000Y185300D01*
X26000D01*
X24500Y184100D02*X25000D01*
X22000D02*X23500D01*
X22500Y183100D02*X23500D01*
X24000Y182600D01*
Y181600D01*
X23500Y181100D01*
X22500D02*X23500D01*
X22000Y181600D02*X22500Y181100D01*
X22000Y182600D02*Y181600D01*
X22500Y183100D02*X22000Y182600D01*
Y179400D02*X23500D01*
X24000Y178900D01*
Y177900D01*
Y179900D02*X23500Y179400D01*
X22000Y176200D02*Y174700D01*
X22500Y176700D02*X22000Y176200D01*
X22500Y176700D02*X23500D01*
X24000Y176200D01*
Y175200D01*
X23500Y174700D01*
X23000Y176700D02*Y174700D01*
X23500D01*
X22000Y173000D02*X25500D01*
X26000Y172500D01*
Y172000D01*
X24000Y173500D02*Y172500D01*
X23000Y256000D02*X25000D01*
X24000Y257000D02*Y255000D01*
X19000Y265500D02*Y261500D01*
X17500D02*X19500D01*
X17500D02*X17000Y262000D01*
Y263000D02*Y262000D01*
X17500Y263500D02*X17000Y263000D01*
X17500Y263500D02*X19000D01*
X15800Y265500D02*Y261500D01*
Y265500D02*X14300Y264000D01*
X12800Y265500D01*
Y261500D01*
X9600D02*X11600D01*
X9600D02*X9100Y262000D01*
Y263000D02*Y262000D01*
X9600Y263500D02*X9100Y263000D01*
X9600Y263500D02*X11100D01*
Y265500D02*Y261500D01*
Y263500D02*X9100Y265500D01*
X38050Y266500D02*Y262900D01*
X36700D02*X36250Y263350D01*
Y266050D02*Y263350D01*
X36700Y266500D02*X36250Y266050D01*
X36700Y266500D02*X38500D01*
X36700Y262900D02*X38500D01*
X35170Y264700D02*X33370Y262900D01*
X32920Y264700D02*X35170D01*
X33370Y266500D02*Y262900D01*
X47550Y266500D02*Y262900D01*
X46200D02*X45750Y263350D01*
Y266050D02*Y263350D01*
X46200Y266500D02*X45750Y266050D01*
X46200Y266500D02*X48000D01*
X46200Y262900D02*X48000D01*
X44670Y266050D02*X44220Y266500D01*
X44670Y266050D02*Y265150D01*
X44220Y264700D01*
X43320D02*X44220D01*
X43320D02*X42870Y265150D01*
Y266050D02*Y265150D01*
X43320Y266500D02*X42870Y266050D01*
X43320Y266500D02*X44220D01*
X44670Y264250D02*X44220Y264700D01*
X44670Y264250D02*Y263350D01*
X44220Y262900D01*
X43320D02*X44220D01*
X43320D02*X42870Y263350D01*
Y264250D02*Y263350D01*
X43320Y264700D02*X42870Y264250D01*
X186000Y108500D02*Y104500D01*
X187500Y108500D02*X188000Y108000D01*
Y105000D01*
X187500Y104500D02*X188000Y105000D01*
X185500Y104500D02*X187500D01*
X185500Y108500D02*X187500D01*
X189200Y105000D02*X189700Y104500D01*
X189200Y106000D02*Y105000D01*
Y106000D02*X189700Y106500D01*
X190700D01*
X191200Y106000D01*
Y105000D01*
X190700Y104500D02*X191200Y105000D01*
X189700Y104500D02*X190700D01*
X189200Y107000D02*X189700Y106500D01*
X189200Y108000D02*Y107000D01*
Y108000D02*X189700Y108500D01*
X190700D01*
X191200Y108000D01*
Y107000D01*
X190700Y106500D02*X191200Y107000D01*
X184000Y128500D02*Y124500D01*
X185500Y128500D02*X186000Y128000D01*
Y125000D01*
X185500Y124500D02*X186000Y125000D01*
X183500Y124500D02*X185500D01*
X183500Y128500D02*X185500D01*
X187700Y124500D02*X188700D01*
X188200Y128500D02*Y124500D01*
X187200Y127500D02*X188200Y128500D01*
X189900Y125000D02*X190400Y124500D01*
X189900Y128000D02*Y125000D01*
Y128000D02*X190400Y128500D01*
X191400D01*
X191900Y128000D01*
Y125000D01*
X191400Y124500D02*X191900Y125000D01*
X190400Y124500D02*X191400D01*
X189900Y125500D02*X191900Y127500D01*
X186000Y118500D02*Y114500D01*
X187500Y118500D02*X188000Y118000D01*
Y115000D01*
X187500Y114500D02*X188000Y115000D01*
X185500Y114500D02*X187500D01*
X185500Y118500D02*X187500D01*
X189200Y114500D02*X191200Y116500D01*
Y118000D02*Y116500D01*
X190700Y118500D02*X191200Y118000D01*
X189700Y118500D02*X190700D01*
X189200Y118000D02*X189700Y118500D01*
X189200Y118000D02*Y117000D01*
X189700Y116500D01*
X191200D01*
X180500Y178000D02*Y174500D01*
Y178000D02*X181000Y178500D01*
X182500D01*
X183000Y178000D01*
Y174500D01*
X180500Y176500D02*X183000D01*
X184200Y178500D02*X186200D01*
X186700Y178000D01*
Y177000D01*
X186200Y176500D02*X186700Y177000D01*
X184700Y176500D02*X186200D01*
X184700Y178500D02*Y174500D01*
Y176500D02*X186700Y174500D01*
X187900Y176500D02*X189400D01*
X187900Y174500D02*X189900D01*
X187900Y178500D02*Y174500D01*
Y178500D02*X189900D01*
X191100D02*Y174500D01*
Y178500D02*X193100D01*
X191100Y176500D02*X192600D01*
X184500Y188500D02*X185000Y188000D01*
X183000Y188500D02*X184500D01*
X182500Y188000D02*X183000Y188500D01*
X182500Y188000D02*Y187000D01*
X183000Y186500D01*
X184500D01*
X185000Y186000D01*
Y185000D01*
X184500Y184500D02*X185000Y185000D01*
X183000Y184500D02*X184500D01*
X182500Y185000D02*X183000Y184500D01*
X186700Y188500D02*Y184500D01*
X188200Y188500D02*X188700Y188000D01*
Y185000D01*
X188200Y184500D02*X188700Y185000D01*
X186200Y184500D02*X188200D01*
X186200Y188500D02*X188200D01*
X189900Y188000D02*Y184500D01*
Y188000D02*X190400Y188500D01*
X191900D01*
X192400Y188000D01*
Y184500D01*
X189900Y186500D02*X192400D01*
X185500Y198500D02*X186000Y198000D01*
X184000Y198500D02*X185500D01*
X183500Y198000D02*X184000Y198500D01*
X183500Y198000D02*Y197000D01*
X184000Y196500D01*
X185500D01*
X186000Y196000D01*
Y195000D01*
X185500Y194500D02*X186000Y195000D01*
X184000Y194500D02*X185500D01*
X183500Y195000D02*X184000Y194500D01*
X187700D02*X189200D01*
X187200Y195000D02*X187700Y194500D01*
X187200Y198000D02*Y195000D01*
Y198000D02*X187700Y198500D01*
X189200D01*
X190400D02*Y194500D01*
X192400D01*
X184500Y168500D02*X185000Y168000D01*
X183000Y168500D02*X184500D01*
X182500Y168000D02*X183000Y168500D01*
X182500Y168000D02*Y165000D01*
X183000Y164500D01*
X184500D01*
X185000Y165000D01*
Y166000D02*Y165000D01*
X184500Y166500D02*X185000Y166000D01*
X183500Y166500D02*X184500D01*
X186200Y168500D02*Y164500D01*
Y168500D02*Y168000D01*
X188700Y165500D01*
Y168500D02*Y164500D01*
X190400Y168500D02*Y164500D01*
X191900Y168500D02*X192400Y168000D01*
Y165000D01*
X191900Y164500D02*X192400Y165000D01*
X189900Y164500D02*X191900D01*
X189900Y168500D02*X191900D01*
X184000Y158500D02*Y154500D01*
X185500Y158500D02*X186000Y158000D01*
Y155000D01*
X185500Y154500D02*X186000Y155000D01*
X183500Y154500D02*X185500D01*
X183500Y158500D02*X185500D01*
X187700Y154500D02*X188700D01*
X188200Y158500D02*Y154500D01*
X187200Y157500D02*X188200Y158500D01*
X189900Y158000D02*X190400Y158500D01*
X191400D01*
X191900Y158000D01*
Y155000D01*
X191400Y154500D02*X191900Y155000D01*
X190400Y154500D02*X191400D01*
X189900Y155000D02*X190400Y154500D01*
Y156500D02*X191900D01*
X184000Y148500D02*Y144500D01*
X185500Y148500D02*X186000Y148000D01*
Y145000D01*
X185500Y144500D02*X186000Y145000D01*
X183500Y144500D02*X185500D01*
X183500Y148500D02*X185500D01*
X187700Y144500D02*X188700D01*
X188200Y148500D02*Y144500D01*
X187200Y147500D02*X188200Y148500D01*
X189900Y148000D02*X190400Y148500D01*
X191900D01*
X192400Y148000D01*
Y147000D01*
X189900Y144500D02*X192400Y147000D01*
X189900Y144500D02*X192400D01*
X184000Y138500D02*Y134500D01*
X185500Y138500D02*X186000Y138000D01*
Y135000D01*
X185500Y134500D02*X186000Y135000D01*
X183500Y134500D02*X185500D01*
X183500Y138500D02*X185500D01*
X187700Y134500D02*X188700D01*
X188200Y138500D02*Y134500D01*
X187200Y137500D02*X188200Y138500D01*
X190400Y134500D02*X191400D01*
X190900Y138500D02*Y134500D01*
X189900Y137500D02*X190900Y138500D01*
X145000Y144000D02*X148000Y147000D01*
X149200Y147500D02*X150200D01*
X149700D02*Y143500D01*
X149200D02*X150200D01*
X151400Y147000D02*Y144000D01*
Y147000D02*X151900Y147500D01*
X152900D01*
X153400Y147000D01*
Y144000D01*
X152900Y143500D02*X153400Y144000D01*
X151900Y143500D02*X152900D01*
X151400Y144000D02*X151900Y143500D01*
X154600Y147500D02*X156600D01*
X157100Y147000D01*
Y146000D01*
X156600Y145500D02*X157100Y146000D01*
X155100Y145500D02*X156600D01*
X155100Y147500D02*Y143500D01*
Y145500D02*X157100Y143500D01*
X160300Y147500D02*X160800Y147000D01*
X158800Y147500D02*X160300D01*
X158300Y147000D02*X158800Y147500D01*
X158300Y147000D02*Y146000D01*
X158800Y145500D01*
X160300D01*
X160800Y145000D01*
Y144000D01*
X160300Y143500D02*X160800Y144000D01*
X158800Y143500D02*X160300D01*
X158300Y144000D02*X158800Y143500D01*
X162000Y147500D02*X164000D01*
X163000D02*Y143500D01*
X167000Y146000D02*X169000D01*
X167000Y145000D02*X169000D01*
X172000Y147500D02*Y144500D01*
X173000Y143500D01*
X174000Y144500D01*
Y147500D02*Y144500D01*
X175200Y147500D02*X176200D01*
X175700D02*Y143500D01*
X175200D02*X176200D01*
X177400Y147000D02*Y144000D01*
Y147000D02*X177900Y147500D01*
X178900D01*
X179400Y147000D01*
Y144000D01*
X178900Y143500D02*X179400Y144000D01*
X177900Y143500D02*X178900D01*
X177400Y144000D02*X177900Y143500D01*
X145000Y136500D02*X148000Y139500D01*
X149200Y140000D02*X150200D01*
X149700D02*Y136000D01*
X149200D02*X150200D01*
X151400Y139500D02*Y136500D01*
Y139500D02*X151900Y140000D01*
X152900D01*
X153400Y139500D01*
Y136500D01*
X152900Y136000D02*X153400Y136500D01*
X151900Y136000D02*X152900D01*
X151400Y136500D02*X151900Y136000D01*
X154600Y140000D02*X156600D01*
X157100Y139500D01*
Y138500D01*
X156600Y138000D02*X157100Y138500D01*
X155100Y138000D02*X156600D01*
X155100Y140000D02*Y136000D01*
Y138000D02*X157100Y136000D01*
X160300Y140000D02*X160800Y139500D01*
X158800Y140000D02*X160300D01*
X158300Y139500D02*X158800Y140000D01*
X158300Y139500D02*Y138500D01*
X158800Y138000D01*
X160300D01*
X160800Y137500D01*
Y136500D01*
X160300Y136000D02*X160800Y136500D01*
X158800Y136000D02*X160300D01*
X158300Y136500D02*X158800Y136000D01*
X162000Y140000D02*X164000D01*
X163000D02*Y136000D01*
X167000Y138500D02*X169000D01*
X167000Y137500D02*X169000D01*
X172500Y140000D02*Y136000D01*
X174000Y140000D02*X174500Y139500D01*
Y136500D01*
X174000Y136000D02*X174500Y136500D01*
X172000Y136000D02*X174000D01*
X172000Y140000D02*X174000D01*
X175700Y136000D02*X178200Y138500D01*
Y140000D02*Y138500D01*
X175700Y140000D02*X178200D01*
X147000Y132500D02*Y128500D01*
X148500Y132500D02*X149000Y132000D01*
Y129000D01*
X148500Y128500D02*X149000Y129000D01*
X146500Y128500D02*X148500D01*
X146500Y132500D02*X148500D01*
X150700Y128500D02*X152200D01*
X150200Y129000D02*X150700Y128500D01*
X150200Y132000D02*Y129000D01*
Y132000D02*X150700Y132500D01*
X152200D01*
X153900Y128500D02*X155400D01*
X153400Y129000D02*X153900Y128500D01*
X153400Y132000D02*Y129000D01*
Y132000D02*X153900Y132500D01*
X155400D01*
X158400Y130000D02*Y129000D01*
Y130000D02*X158900Y130500D01*
X159900D01*
X160400Y130000D01*
Y129000D01*
X159900Y128500D02*X160400Y129000D01*
X158900Y128500D02*X159900D01*
X158400Y129000D02*X158900Y128500D01*
X162100Y130000D02*Y128500D01*
Y130000D02*X162600Y130500D01*
X163100D01*
X163600Y130000D01*
Y128500D01*
X161600Y130500D02*X162100Y130000D01*
X167100Y132500D02*Y128500D01*
X168600Y132500D02*X169100Y132000D01*
Y129000D01*
X168600Y128500D02*X169100Y129000D01*
X166600Y128500D02*X168600D01*
X166600Y132500D02*X168600D01*
X170300Y128500D02*X172800Y131000D01*
Y132500D02*Y131000D01*
X170300Y132500D02*X172800D01*
X127500Y155000D02*X129000D01*
Y151500D01*
X128500Y151000D02*X129000Y151500D01*
X128000Y151000D02*X128500D01*
X127500Y151500D02*X128000Y151000D01*
X130700Y155000D02*Y151000D01*
X130200Y155000D02*X132200D01*
X132700Y154500D01*
Y153500D01*
X132200Y153000D02*X132700Y153500D01*
X130700Y153000D02*X132200D01*
X133900Y154500D02*X134400Y155000D01*
X135900D01*
X136400Y154500D01*
Y153500D01*
X133900Y151000D02*X136400Y153500D01*
X133900Y151000D02*X136400D01*
X139900D02*X141400D01*
X139400Y151500D02*X139900Y151000D01*
X139400Y154500D02*Y151500D01*
Y154500D02*X139900Y155000D01*
X141400D01*
X142600Y152500D02*Y151500D01*
Y152500D02*X143100Y153000D01*
X144100D01*
X144600Y152500D01*
Y151500D01*
X144100Y151000D02*X144600Y151500D01*
X143100Y151000D02*X144100D01*
X142600Y151500D02*X143100Y151000D01*
X146300Y152500D02*Y151000D01*
Y152500D02*X146800Y153000D01*
X147300D01*
X147800Y152500D01*
Y151000D01*
X145800Y153000D02*X146300Y152500D01*
X149500Y154500D02*Y151000D01*
Y154500D02*X150000Y155000D01*
X150500D01*
X149000Y153000D02*X150000D01*
X151500Y154000D02*Y153500D01*
Y152500D02*Y151000D01*
X154000Y153000D02*X154500Y152500D01*
X153000Y153000D02*X154000D01*
X152500Y152500D02*X153000Y153000D01*
X152500Y152500D02*Y151500D01*
X153000Y151000D01*
X154000D01*
X154500Y151500D01*
X152500Y150000D02*X153000Y149500D01*
X154000D01*
X154500Y150000D01*
Y153000D02*Y150000D01*
X155700Y153000D02*Y151500D01*
X156200Y151000D01*
X157200D01*
X157700Y151500D01*
Y153000D02*Y151500D01*
X159400Y152500D02*Y151000D01*
Y152500D02*X159900Y153000D01*
X160900D01*
X158900D02*X159400Y152500D01*
X163600Y153000D02*X164100Y152500D01*
X162600Y153000D02*X163600D01*
X162100Y152500D02*X162600Y153000D01*
X162100Y152500D02*Y151500D01*
X162600Y151000D01*
X164100Y153000D02*Y151500D01*
X164600Y151000D01*
X162600D02*X163600D01*
X164100Y151500D01*
X166300Y155000D02*Y151500D01*
X166800Y151000D01*
X165800Y153500D02*X166800D01*
X167800Y154000D02*Y153500D01*
Y152500D02*Y151000D01*
X168800Y152500D02*Y151500D01*
Y152500D02*X169300Y153000D01*
X170300D01*
X170800Y152500D01*
Y151500D01*
X170300Y151000D02*X170800Y151500D01*
X169300Y151000D02*X170300D01*
X168800Y151500D02*X169300Y151000D01*
X172500Y152500D02*Y151000D01*
Y152500D02*X173000Y153000D01*
X173500D01*
X174000Y152500D01*
Y151000D01*
X172000Y153000D02*X172500Y152500D01*
X88000Y197000D02*Y193000D01*
X89500Y197000D02*X90000Y196500D01*
Y193500D01*
X89500Y193000D02*X90000Y193500D01*
X87500Y193000D02*X89500D01*
X87500Y197000D02*X89500D01*
X91200D02*X93200D01*
X91200D02*Y195000D01*
X91700Y195500D01*
X92700D01*
X93200Y195000D01*
Y193500D01*
X92700Y193000D02*X93200Y193500D01*
X91700Y193000D02*X92700D01*
X91200Y193500D02*X91700Y193000D01*
X94400Y195500D02*X96400D01*
X94400Y194500D02*X96400D01*
X97600Y193500D02*X100600Y196500D01*
X101800D02*Y193500D01*
Y196500D02*X102300Y197000D01*
X103300D01*
X103800Y196500D01*
Y193500D01*
X103300Y193000D02*X103800Y193500D01*
X102300Y193000D02*X103300D01*
X101800Y193500D02*X102300Y193000D01*
X105000Y195000D02*X106500D01*
X105000Y193000D02*X107000D01*
X105000Y197000D02*Y193000D01*
Y197000D02*X107000D01*
X113500Y195500D02*X114500D01*
X114000D02*Y191500D01*
X113500D02*X114500D01*
X115700Y195000D02*X116200Y195500D01*
X117700D01*
X118200Y195000D01*
Y194000D01*
X115700Y191500D02*X118200Y194000D01*
X115700Y191500D02*X118200D01*
X119900D02*X121400D01*
X119400Y192000D02*X119900Y191500D01*
X119400Y195000D02*Y192000D01*
Y195000D02*X119900Y195500D01*
X121400D01*
X124900D02*Y191500D01*
X124400Y195500D02*X126400D01*
X126900Y195000D01*
Y194000D01*
X126400Y193500D02*X126900Y194000D01*
X124900Y193500D02*X126400D01*
X128100Y192000D02*X131100Y195000D01*
X132300Y195500D02*Y192000D01*
X132800Y191500D01*
X133800D01*
X134300Y192000D01*
Y195500D02*Y192000D01*
X136000Y191500D02*X137500D01*
X138000Y192000D01*
X137500Y192500D02*X138000Y192000D01*
X136000Y192500D02*X137500D01*
X135500Y193000D02*X136000Y192500D01*
X135500Y193000D02*X136000Y193500D01*
X137500D01*
X138000Y193000D01*
X135500Y192000D02*X136000Y191500D01*
X76000Y171500D02*X77500D01*
X76000Y169500D02*X78000D01*
X76000Y173500D02*Y169500D01*
Y173500D02*X78000D01*
X79200D02*Y169500D01*
Y173500D02*Y173000D01*
X81700Y170500D01*
Y173500D02*Y169500D01*
X82900Y173000D02*Y169500D01*
Y173000D02*X83400Y173500D01*
X84900D01*
X85400Y173000D01*
Y169500D01*
X82900Y171500D02*X85400D01*
X86600Y169500D02*X88600D01*
X89100Y170000D01*
Y171000D02*Y170000D01*
X88600Y171500D02*X89100Y171000D01*
X87100Y171500D02*X88600D01*
X87100Y173500D02*Y169500D01*
X86600Y173500D02*X88600D01*
X89100Y173000D01*
Y172000D01*
X88600Y171500D02*X89100Y172000D01*
X90300Y173500D02*Y169500D01*
X92300D01*
X93500Y171500D02*X95000D01*
X93500Y169500D02*X95500D01*
X93500Y173500D02*Y169500D01*
Y173500D02*X95500D01*
X98500Y173000D02*Y169500D01*
Y173000D02*X99000Y173500D01*
X100500D01*
X101000Y173000D01*
Y169500D01*
X98500Y171500D02*X101000D01*
X102700Y169500D02*X104200D01*
X102200Y170000D02*X102700Y169500D01*
X102200Y173000D02*Y170000D01*
Y173000D02*X102700Y173500D01*
X104200D01*
X105400D02*Y169500D01*
Y171500D02*X107400Y173500D01*
X105400Y171500D02*X107400Y169500D01*
X68543Y189500D02*Y185500D01*
X70043Y189500D02*X70543Y189000D01*
Y186000D01*
X70043Y185500D02*X70543Y186000D01*
X68043Y185500D02*X70043D01*
X68043Y189500D02*X70043D01*
X73243D02*X73743Y189000D01*
X72243Y189500D02*X73243D01*
X71743Y189000D02*X72243Y189500D01*
X71743Y189000D02*Y186000D01*
X72243Y185500D01*
X73243Y187500D02*X73743Y187000D01*
X71743Y187500D02*X73243D01*
X72243Y185500D02*X73243D01*
X73743Y186000D01*
Y187000D02*Y186000D01*
X74943Y188000D02*X76943D01*
X74943Y187000D02*X76943D01*
X78143Y186000D02*X81143Y189000D01*
X82343Y189500D02*X83343D01*
X82843D02*Y185500D01*
X82343D02*X83343D01*
X84543Y189500D02*Y185500D01*
Y189500D02*Y189000D01*
X87043Y186500D01*
Y189500D02*Y185500D01*
X88243Y189500D02*X90243D01*
X89243D02*Y185500D01*
X109575Y266250D02*Y262850D01*
X108300D02*X107875Y263275D01*
Y265825D02*Y263275D01*
X108300Y266250D02*X107875Y265825D01*
X108300Y266250D02*X110000D01*
X108300Y262850D02*X110000D01*
X105580Y266250D02*X106430D01*
X106005D02*Y262850D01*
X106855Y263700D02*X106005Y262850D01*
X104560Y264550D02*X102860Y262850D01*
X102435Y264550D02*X104560D01*
X102860Y266250D02*Y262850D01*
X99075Y266250D02*Y262850D01*
X97800D02*X97375Y263275D01*
Y265825D02*Y263275D01*
X97800Y266250D02*X97375Y265825D01*
X97800Y266250D02*X99500D01*
X97800Y262850D02*X99500D01*
X95080Y266250D02*X95930D01*
X95505D02*Y262850D01*
X96355Y263700D02*X95505Y262850D01*
X94060Y263275D02*X93635Y262850D01*
X92785D02*X93635D01*
X92785D02*X92360Y263275D01*
Y265825D02*Y263275D01*
X92785Y266250D02*X92360Y265825D01*
X92785Y266250D02*X93635D01*
X94060Y265825D02*X93635Y266250D01*
X92360Y264550D02*X93635D01*
X89075Y266250D02*Y262850D01*
X87800D02*X87375Y263275D01*
Y265825D02*Y263275D01*
X87800Y266250D02*X87375Y265825D01*
X87800Y266250D02*X89500D01*
X87800Y262850D02*X89500D01*
X85080Y266250D02*X85930D01*
X85505D02*Y262850D01*
X86355Y263700D02*X85505Y262850D01*
X84060Y263275D02*X83635Y262850D01*
X82360D02*X83635D01*
X82360D02*X81935Y263275D01*
Y264125D02*Y263275D01*
X84060Y266250D02*X81935Y264125D01*
Y266250D02*X84060D01*
X78575D02*Y262850D01*
X77300D02*X76875Y263275D01*
Y265825D02*Y263275D01*
X77300Y266250D02*X76875Y265825D01*
X77300Y266250D02*X79000D01*
X77300Y262850D02*X79000D01*
X74580Y266250D02*X75430D01*
X75005D02*Y262850D01*
X75855Y263700D02*X75005Y262850D01*
X72285Y266250D02*X73135D01*
X72710D02*Y262850D01*
X73560Y263700D02*X72710Y262850D01*
X69050Y266500D02*Y262900D01*
X67700D02*X67250Y263350D01*
Y266050D02*Y263350D01*
X67700Y266500D02*X67250Y266050D01*
X67700Y266500D02*X69500D01*
X67700Y262900D02*X69500D01*
X64820Y266500D02*X65720D01*
X65270D02*Y262900D01*
X66170Y263800D02*X65270Y262900D01*
X63740Y266050D02*X63290Y266500D01*
X63740Y266050D02*Y263350D01*
X63290Y262900D01*
X62390D02*X63290D01*
X62390D02*X61940Y263350D01*
Y266050D02*Y263350D01*
X62390Y266500D02*X61940Y266050D01*
X62390Y266500D02*X63290D01*
X63740Y265600D02*X61940Y263800D01*
X57550Y266500D02*Y262900D01*
X56200D02*X55750Y263350D01*
Y266050D02*Y263350D01*
X56200Y266500D02*X55750Y266050D01*
X56200Y266500D02*X58000D01*
X56200Y262900D02*X58000D01*
X54670Y266500D02*X52870Y264700D01*
Y263350D01*
X53320Y262900D02*X52870Y263350D01*
X53320Y262900D02*X54220D01*
X54670Y263350D02*X54220Y262900D01*
X54670Y264250D02*Y263350D01*
Y264250D02*X54220Y264700D01*
X52870D02*X54220D01*
X185040Y258730D02*X184675Y259095D01*
X185040Y258730D02*X186135D01*
X186500Y259095D02*X186135Y258730D01*
X186500Y259825D02*Y259095D01*
Y259825D02*X186135Y260190D01*
X185040D02*X186135D01*
X185040D02*X184675Y260555D01*
Y261285D02*Y260555D01*
X185040Y261650D02*X184675Y261285D01*
X185040Y261650D02*X186135D01*
X186500Y261285D02*X186135Y261650D01*
X182339D02*X183434D01*
X183799Y261285D02*X183434Y261650D01*
X183799Y261285D02*Y259095D01*
X183434Y258730D01*
X182339D02*X183434D01*
X181463Y261650D02*Y258730D01*
X180003Y261650D02*X181463D01*
X184960Y228270D02*X184575Y228655D01*
X184960Y228270D02*X186115D01*
X186500Y228655D02*X186115Y228270D01*
X186500Y230965D02*Y228655D01*
Y230965D02*X186115Y231350D01*
X184960D02*X186115D01*
X184960D02*X184575Y230965D01*
Y230195D01*
X184960Y229810D02*X184575Y230195D01*
X184960Y229810D02*X185730D01*
X183651Y231350D02*Y228270D01*
Y228655D02*Y228270D01*
Y228655D02*X181726Y230580D01*
Y231350D02*Y228270D01*
X180417Y231350D02*Y228270D01*
X179262D02*X178877Y228655D01*
Y230965D02*Y228655D01*
X179262Y231350D02*X178877Y230965D01*
X179262Y231350D02*X180802D01*
X179262Y228270D02*X180802D01*
X183960Y238770D02*X185500D01*
Y240310D02*Y238770D01*
Y240310D02*X185115Y239925D01*
X184345D02*X185115D01*
X184345D02*X183960Y240310D01*
Y241465D02*Y240310D01*
X184345Y241850D02*X183960Y241465D01*
X184345Y241850D02*X185115D01*
X185500Y241465D02*X185115Y241850D01*
X183036Y241080D02*Y238770D01*
Y241080D02*X182266Y241850D01*
X181496Y241080D01*
Y238770D01*
X184960Y248270D02*X184575Y248655D01*
X184960Y248270D02*X186115D01*
X186500Y248655D02*X186115Y248270D01*
X186500Y249425D02*Y248655D01*
Y249425D02*X186115Y249810D01*
X184960D02*X186115D01*
X184960D02*X184575Y250195D01*
Y250965D02*Y250195D01*
X184960Y251350D02*X184575Y250965D01*
X184960Y251350D02*X186115D01*
X186500Y250965D02*X186115Y251350D01*
X183266D02*Y248270D01*
X182111D02*X181726Y248655D01*
Y250965D02*Y248655D01*
X182111Y251350D02*X181726Y250965D01*
X182111Y251350D02*X183651D01*
X182111Y248270D02*X183651D01*
X180802Y251350D02*Y248655D01*
X180417Y248270D01*
X179262D02*X180417D01*
X179262D02*X178877Y248655D01*
Y251350D02*Y248655D01*
Y249810D02*X180802D01*
X201000Y234500D02*Y233500D01*
Y234000D02*X205000D01*
Y234500D02*Y233500D01*
X201500Y235700D02*X201000Y236200D01*
Y237700D02*Y236200D01*
Y237700D02*X201500Y238200D01*
X202500D01*
X205000Y235700D02*X202500Y238200D01*
X205000D02*Y235700D01*
Y241400D02*Y239900D01*
X204500Y239400D02*X205000Y239900D01*
X201500Y239400D02*X204500D01*
X201500D02*X201000Y239900D01*
Y241400D02*Y239900D01*
X205000Y246400D02*Y244400D01*
Y246400D02*X204500Y246900D01*
X203500D02*X204500D01*
X203000Y246400D02*X203500Y246900D01*
X203000Y246400D02*Y244900D01*
X201000D02*X205000D01*
X201000Y246400D02*Y244400D01*
Y246400D02*X201500Y246900D01*
X202500D01*
X203000Y246400D02*X202500Y246900D01*
X203000Y248100D02*X204500D01*
X205000Y248600D01*
Y249600D02*Y248600D01*
Y249600D02*X204500Y250100D01*
X203000D02*X204500D01*
X205000Y253300D02*Y251800D01*
Y253300D02*X204500Y253800D01*
X204000Y253300D02*X204500Y253800D01*
X204000Y253300D02*Y251800D01*
X203500Y251300D02*X204000Y251800D01*
X203500Y251300D02*X203000Y251800D01*
Y253300D02*Y251800D01*
Y253300D02*X203500Y253800D01*
X204500Y251300D02*X205000Y251800D01*
G54D84*X114607Y206255D02*X115393D01*
X114607Y200745D02*X115393D01*
X111500Y260300D02*Y234800D01*
X29500Y260300D02*Y234800D01*
X111500D01*
X29500Y236800D02*X111500D01*
X29500Y260300D02*X111500D01*
X65000Y223500D02*Y213500D01*
X105000Y223500D02*Y213500D01*
X65000Y223500D02*X66000D01*
X74000D02*X86000D01*
X94000D02*X105000D01*
X104000Y213500D02*X105000D01*
X84000D02*X96000D01*
X65000D02*X76000D01*
X63500Y211500D02*G75*G03X63500Y211500I0J500D01*G01*
G54D86*X124900Y270000D02*Y198700D01*
X176900Y270000D02*Y198700D01*
X124900D02*X176900D01*
Y270000D02*X124900Y270020D01*
G54D84*X188000Y265000D02*Y225000D01*
X198000D01*
Y265000D01*
X188000D01*
Y255000D02*X198000D01*
Y265000D01*
X205500Y95500D02*Y15500D01*
X195500Y95500D02*X205500D01*
X195500D02*Y15500D01*
X205500D01*
X195500Y25500D02*X205500D01*
X195500D02*Y15500D01*
X205500Y201500D02*Y101500D01*
X195500Y201500D02*X205500D01*
X195500D02*Y101500D01*
X205500D01*
X195500Y111500D02*X205500D01*
X195500D02*Y101500D01*
X135107Y73245D02*X135893D01*
X135107Y78755D02*X135893D01*
X141500Y118000D02*Y108000D01*
X181500Y118000D02*Y108000D01*
X141500Y118000D02*X142500D01*
X150500D02*X162500D01*
X170500D02*X181500D01*
X180500Y108000D02*X181500D01*
X160500D02*X172500D01*
X141500D02*X152500D01*
X140000Y106000D02*G75*G03X140000Y106000I0J500D01*G01*
X141500Y92000D02*Y82000D01*
X181500Y92000D02*Y82000D01*
X141500Y92000D02*X142500D01*
X150500D02*X162500D01*
X170500D02*X181500D01*
X180500Y82000D02*X181500D01*
X160500D02*X172500D01*
X141500D02*X152500D01*
X140000Y80000D02*G75*G03X140000Y80000I0J500D01*G01*
X136000Y181500D02*Y171500D01*
X176000Y181500D02*Y171500D01*
X136000Y181500D02*X137000D01*
X145000D02*X157000D01*
X165000D02*X176000D01*
X175000Y171500D02*X176000D01*
X155000D02*X167000D01*
X136000D02*X147000D01*
X134500Y169500D02*G75*G03X134500Y169500I0J500D01*G01*
X93755Y53436D02*Y52650D01*
X88245Y53436D02*Y52650D01*
X76300Y126300D02*X107700D01*
X76300D02*Y106700D01*
X107700Y126300D02*Y106700D01*
X76300D02*X107700D01*
X109000Y112500D02*Y110500D01*
X79627Y75314D02*X83563D01*
X79627Y64686D02*X83563D01*
X71500Y154000D02*Y144000D01*
X111500Y154000D02*Y144000D01*
X71500Y154000D02*X72500D01*
X80500D02*X92500D01*
X100500D02*X111500D01*
X110500Y144000D02*X111500D01*
X90500D02*X102500D01*
X71500D02*X82500D01*
X70000Y142000D02*G75*G03X70000Y142000I0J500D01*G01*
X103755Y53393D02*Y52607D01*
X98245Y53393D02*Y52607D01*
X95300Y25000D02*X125300D01*
X95300D02*Y5000D01*
X125300D01*
Y25000D02*Y5000D01*
X115300Y25000D02*Y15000D01*
X125300D01*
X170755Y50893D02*Y50107D01*
X165245Y50893D02*Y50107D01*
X145500Y34000D02*X125500D01*
X145500D02*Y70000D01*
X125500D02*Y34000D01*
Y70000D02*X145500D01*
X135500Y68000D01*
X125500Y70000D02*X135500Y68000D01*
X134107Y159745D02*X134893D01*
X134107Y165255D02*X134893D01*
X131255Y182393D02*Y181607D01*
X125745Y182393D02*Y181607D01*
X117255Y117893D02*Y117107D01*
X111745Y117893D02*Y117107D01*
X5500Y165500D02*Y85500D01*
X15500D01*
Y165500D01*
X5500D01*
Y155500D02*X15500D01*
Y165500D01*
X5500Y75500D02*Y15500D01*
X15500D01*
Y75500D01*
X5500D01*
Y65500D02*X15500D01*
Y75500D01*
X14107Y258755D02*X14893D01*
X14107Y253245D02*X14893D01*
X59532Y117814D02*X63468D01*
X59532Y107186D02*X63468D01*
X67755Y197393D02*Y196607D01*
X62245Y197393D02*Y196607D01*
X36032Y107186D02*X39968D01*
X36032Y117814D02*X39968D01*
X22565Y122526D02*X68235D01*
X22565Y155990D02*X68235D01*
X22565D02*Y122526D01*
X68235Y155990D02*Y122526D01*
X68514Y94186D02*Y84186D01*
X28514Y94186D02*Y84186D01*
X67514D02*X68514D01*
X47514D02*X59514D01*
X28514D02*X39514D01*
X28514Y94186D02*X29514D01*
X37514D02*X49514D01*
X57514D02*X68514D01*
X70014Y96186D02*G75*G03X70014Y96186I0J-500D01*G01*
X49300Y71700D02*Y42300D01*
Y71700D02*X29700D01*
X49300Y42300D02*X29700D01*
Y71700D02*Y42300D01*
X27500Y42000D02*Y46000D01*
X24755Y237393D02*Y236607D01*
X19245Y237393D02*Y236607D01*
X28700Y230500D02*Y170500D01*
X58700Y230500D02*Y170500D01*
X54300Y230500D02*Y170500D01*
X28700Y230500D02*X58700D01*
X28700Y170500D02*X58700D01*
X46600Y8900D02*X86600D01*
X46600Y38900D02*X86600D01*
X46600Y34500D02*X86600D01*
X46600Y38900D02*Y8900D01*
X86600Y38900D02*Y8900D01*
X84255Y53393D02*Y52607D01*
X78745Y53393D02*Y52607D01*
X72250Y57901D02*Y47271D01*
X53750Y57901D02*Y47271D01*
X69000D02*X72250D01*
X53750D02*X57000D01*
X72071Y57901D02*X72250D01*
X53750D02*X53929D01*
G54D85*X60400Y211000D02*X62400D01*
X62900Y210500D01*
Y209500D01*
X62400Y209000D02*X62900Y209500D01*
X60900Y209000D02*X62400D01*
X60900Y211000D02*Y207000D01*
Y209000D02*X62900Y207000D01*
X64100Y209000D02*X66100Y211000D01*
X64100Y209000D02*X66600D01*
X66100Y211000D02*Y207000D01*
X11264Y239150D02*X13264D01*
X13764Y238650D01*
Y237650D01*
X13264Y237150D02*X13764Y237650D01*
X11764Y237150D02*X13264D01*
X11764Y239150D02*Y235150D01*
Y237150D02*X13764Y235150D01*
X14964Y238650D02*X15464Y239150D01*
X16464D01*
X16964Y238650D01*
Y235650D01*
X16464Y235150D02*X16964Y235650D01*
X15464Y235150D02*X16464D01*
X14964Y235650D02*X15464Y235150D01*
Y237150D02*X16964D01*
X9393Y250150D02*Y246150D01*
X10893Y250150D02*X11393Y249650D01*
Y246650D01*
X10893Y246150D02*X11393Y246650D01*
X8893Y246150D02*X10893D01*
X8893Y250150D02*X10893D01*
X12593Y249650D02*X13093Y250150D01*
X14593D01*
X15093Y249650D01*
Y248650D01*
X12593Y246150D02*X15093Y248650D01*
X12593Y246150D02*X15093D01*
X145350Y74150D02*X146850D01*
X144850Y74650D02*X145350Y74150D01*
X144850Y77650D02*Y74650D01*
Y77650D02*X145350Y78150D01*
X146850D01*
X148550Y74150D02*X149550D01*
X149050Y78150D02*Y74150D01*
X148050Y77150D02*X149050Y78150D01*
X130000Y115000D02*X131500D01*
Y111500D01*
X131000Y111000D02*X131500Y111500D01*
X130500Y111000D02*X131000D01*
X130000Y111500D02*X130500Y111000D01*
X133200Y115000D02*Y111000D01*
X132700Y115000D02*X134700D01*
X135200Y114500D01*
Y113500D01*
X134700Y113000D02*X135200Y113500D01*
X133200Y113000D02*X134700D01*
X136400Y114500D02*X136900Y115000D01*
X138400D01*
X138900Y114500D01*
Y113500D01*
X136400Y111000D02*X138900Y113500D01*
X136400Y111000D02*X138900D01*
X119902Y123650D02*X121902D01*
X122402Y123150D01*
Y122150D01*
X121902Y121650D02*X122402Y122150D01*
X120402Y121650D02*X121902D01*
X120402Y123650D02*Y119650D01*
Y121650D02*X122402Y119650D01*
X123602D02*X125602Y121650D01*
Y123150D02*Y121650D01*
X125102Y123650D02*X125602Y123150D01*
X124102Y123650D02*X125102D01*
X123602Y123150D02*X124102Y123650D01*
X123602Y123150D02*Y122150D01*
X124102Y121650D01*
X125602D01*
X94500Y132500D02*Y129000D01*
X95000Y128500D01*
X96000D01*
X96500Y129000D01*
Y132500D02*Y129000D01*
X97700Y132500D02*X99700D01*
X97700D02*Y130500D01*
X98200Y131000D01*
X99200D01*
X99700Y130500D01*
Y129000D01*
X99200Y128500D02*X99700Y129000D01*
X98200Y128500D02*X99200D01*
X97700Y129000D02*X98200Y128500D01*
X70445Y81150D02*X72445D01*
X72945Y80650D01*
Y79650D01*
X72445Y79150D02*X72945Y79650D01*
X70945Y79150D02*X72445D01*
X70945Y81150D02*Y77150D01*
Y79150D02*X72945Y77150D01*
X74145Y77650D02*X74645Y77150D01*
X74145Y78650D02*Y77650D01*
Y78650D02*X74645Y79150D01*
X75645D01*
X76145Y78650D01*
Y77650D01*
X75645Y77150D02*X76145Y77650D01*
X74645Y77150D02*X75645D01*
X74145Y79650D02*X74645Y79150D01*
X74145Y80650D02*Y79650D01*
Y80650D02*X74645Y81150D01*
X75645D01*
X76145Y80650D01*
Y79650D01*
X75645Y79150D02*X76145Y79650D01*
X112807Y214693D02*X114807D01*
X115307Y214193D01*
Y213193D01*
X114807Y212693D02*X115307Y213193D01*
X113307Y212693D02*X114807D01*
X113307Y214693D02*Y210693D01*
Y212693D02*X115307Y210693D01*
X116507Y214693D02*X118507D01*
X116507D02*Y212693D01*
X117007Y213193D01*
X118007D01*
X118507Y212693D01*
Y211193D01*
X118007Y210693D02*X118507Y211193D01*
X117007Y210693D02*X118007D01*
X116507Y211193D02*X117007Y210693D01*
X190500Y222500D02*X192000D01*
Y219000D01*
X191500Y218500D02*X192000Y219000D01*
X191000Y218500D02*X191500D01*
X190500Y219000D02*X191000Y218500D01*
X193200Y219000D02*X193700Y218500D01*
X193200Y220000D02*Y219000D01*
Y220000D02*X193700Y220500D01*
X194700D01*
X195200Y220000D01*
Y219000D01*
X194700Y218500D02*X195200Y219000D01*
X193700Y218500D02*X194700D01*
X193200Y221000D02*X193700Y220500D01*
X193200Y222000D02*Y221000D01*
Y222000D02*X193700Y222500D01*
X194700D01*
X195200Y222000D01*
Y221000D01*
X194700Y220500D02*X195200Y221000D01*
X113000Y237500D02*X114500D01*
Y234000D01*
X114000Y233500D02*X114500Y234000D01*
X113500Y233500D02*X114000D01*
X113000Y234000D02*X113500Y233500D01*
X115700Y235500D02*X117700Y237500D01*
X115700Y235500D02*X118200D01*
X117700Y237500D02*Y233500D01*
X76000Y230500D02*X77500D01*
Y227000D01*
X77000Y226500D02*X77500Y227000D01*
X76500Y226500D02*X77000D01*
X76000Y227000D02*X76500Y226500D01*
X79200Y230500D02*Y226500D01*
X78700Y230500D02*X80700D01*
X81200Y230000D01*
Y229000D01*
X80700Y228500D02*X81200Y229000D01*
X79200Y228500D02*X80700D01*
X82400Y230000D02*X82900Y230500D01*
X83900D01*
X84400Y230000D01*
Y227000D01*
X83900Y226500D02*X84400Y227000D01*
X82900Y226500D02*X83900D01*
X82400Y227000D02*X82900Y226500D01*
Y228500D02*X84400D01*
X117500Y261000D02*X119000D01*
Y257500D01*
X118500Y257000D02*X119000Y257500D01*
X118000Y257000D02*X118500D01*
X117500Y257500D02*X118000Y257000D01*
X121700Y261000D02*X122200Y260500D01*
X120700Y261000D02*X121700D01*
X120200Y260500D02*X120700Y261000D01*
X120200Y260500D02*Y257500D01*
X120700Y257000D01*
X121700Y259000D02*X122200Y258500D01*
X120200Y259000D02*X121700D01*
X120700Y257000D02*X121700D01*
X122200Y257500D01*
Y258500D02*Y257500D01*
X32900Y162100D02*Y158600D01*
X33400Y158100D01*
X34400D01*
X34900Y158600D01*
Y162100D02*Y158600D01*
X36100Y161600D02*X36600Y162100D01*
X37600D01*
X38100Y161600D01*
Y158600D01*
X37600Y158100D02*X38100Y158600D01*
X36600Y158100D02*X37600D01*
X36100Y158600D02*X36600Y158100D01*
Y160100D02*X38100D01*
X22000Y169500D02*X23500D01*
Y166000D01*
X23000Y165500D02*X23500Y166000D01*
X22500Y165500D02*X23000D01*
X22000Y166000D02*X22500Y165500D01*
X24700Y169500D02*X26700D01*
X24700D02*Y167500D01*
X25200Y168000D01*
X26200D01*
X26700Y167500D01*
Y166000D01*
X26200Y165500D02*X26700Y166000D01*
X25200Y165500D02*X26200D01*
X24700Y166000D02*X25200Y165500D01*
X157000Y167000D02*X158500D01*
Y163500D01*
X158000Y163000D02*X158500Y163500D01*
X157500Y163000D02*X158000D01*
X157000Y163500D02*X157500Y163000D01*
X160200Y167000D02*Y163000D01*
X159700Y167000D02*X161700D01*
X162200Y166500D01*
Y165500D01*
X161700Y165000D02*X162200Y165500D01*
X160200Y165000D02*X161700D01*
X163900Y163000D02*X164900D01*
X164400Y167000D02*Y163000D01*
X163400Y166000D02*X164400Y167000D01*
X120807Y163150D02*X122807D01*
X123307Y162650D01*
Y161650D01*
X122807Y161150D02*X123307Y161650D01*
X121307Y161150D02*X122807D01*
X121307Y163150D02*Y159150D01*
Y161150D02*X123307Y159150D01*
X124507D02*X127007Y161650D01*
Y163150D02*Y161650D01*
X124507Y163150D02*X127007D01*
X124307Y174193D02*X126307D01*
X126807Y173693D01*
Y172693D01*
X126307Y172193D02*X126807Y172693D01*
X124807Y172193D02*X126307D01*
X124807Y174193D02*Y170193D01*
Y172193D02*X126807Y170193D01*
X129507Y174193D02*X130007Y173693D01*
X128507Y174193D02*X129507D01*
X128007Y173693D02*X128507Y174193D01*
X128007Y173693D02*Y170693D01*
X128507Y170193D01*
X129507Y172193D02*X130007Y171693D01*
X128007Y172193D02*X129507D01*
X128507Y170193D02*X129507D01*
X130007Y170693D01*
Y171693D02*Y170693D01*
X59000Y169000D02*X60500D01*
Y165500D01*
X60000Y165000D02*X60500Y165500D01*
X59500Y165000D02*X60000D01*
X59000Y165500D02*X59500Y165000D01*
X62200Y169000D02*Y165000D01*
X61700Y169000D02*X63700D01*
X64200Y168500D01*
Y167500D01*
X63700Y167000D02*X64200Y167500D01*
X62200Y167000D02*X63700D01*
X66900Y169000D02*X67400Y168500D01*
X65900Y169000D02*X66900D01*
X65400Y168500D02*X65900Y169000D01*
X65400Y168500D02*Y165500D01*
X65900Y165000D01*
X66900Y167000D02*X67400Y166500D01*
X65400Y167000D02*X66900D01*
X65900Y165000D02*X66900D01*
X67400Y165500D01*
Y166500D02*Y165500D01*
X102500Y162500D02*X104000D01*
Y159000D01*
X103500Y158500D02*X104000Y159000D01*
X103000Y158500D02*X103500D01*
X102500Y159000D02*X103000Y158500D01*
X105700Y162500D02*Y158500D01*
X105200Y162500D02*X107200D01*
X107700Y162000D01*
Y161000D01*
X107200Y160500D02*X107700Y161000D01*
X105700Y160500D02*X107200D01*
X108900Y158500D02*X111400Y161000D01*
Y162500D02*Y161000D01*
X108900Y162500D02*X111400D01*
X96200Y31700D02*X97700D01*
Y28200D01*
X97200Y27700D02*X97700Y28200D01*
X96700Y27700D02*X97200D01*
X96200Y28200D02*X96700Y27700D01*
X98900Y31200D02*X99400Y31700D01*
X100400D01*
X100900Y31200D01*
Y28200D01*
X100400Y27700D02*X100900Y28200D01*
X99400Y27700D02*X100400D01*
X98900Y28200D02*X99400Y27700D01*
Y29700D02*X100900D01*
X133500Y31000D02*Y27500D01*
X134000Y27000D01*
X135000D01*
X135500Y27500D01*
Y31000D02*Y27500D01*
X137200Y27000D02*X138200D01*
X137700Y31000D02*Y27000D01*
X136700Y30000D02*X137700Y31000D01*
X62350Y100650D02*X63850D01*
X61850Y101150D02*X62350Y100650D01*
X61850Y104150D02*Y101150D01*
Y104150D02*X62350Y104650D01*
X63850D01*
X65050Y102650D02*X67050Y104650D01*
X65050Y102650D02*X67550D01*
X67050Y104650D02*Y100650D01*
X82700Y102500D02*X84200D01*
Y99000D01*
X83700Y98500D02*X84200Y99000D01*
X83200Y98500D02*X83700D01*
X82700Y99000D02*X83200Y98500D01*
X85900Y102500D02*Y98500D01*
X85400Y102500D02*X87400D01*
X87900Y102000D01*
Y101000D01*
X87400Y100500D02*X87900Y101000D01*
X85900Y100500D02*X87400D01*
X89100D02*X91100Y102500D01*
X89100Y100500D02*X91600D01*
X91100Y102500D02*Y98500D01*
X40350Y100650D02*X41850D01*
X39850Y101150D02*X40350Y100650D01*
X39850Y104150D02*Y101150D01*
Y104150D02*X40350Y104650D01*
X41850D01*
X43050Y104150D02*X43550Y104650D01*
X44550D01*
X45050Y104150D01*
Y101150D01*
X44550Y100650D02*X45050Y101150D01*
X43550Y100650D02*X44550D01*
X43050Y101150D02*X43550Y100650D01*
Y102650D02*X45050D01*
X28014Y81486D02*X29514D01*
Y77986D01*
X29014Y77486D02*X29514Y77986D01*
X28514Y77486D02*X29014D01*
X28014Y77986D02*X28514Y77486D01*
X31214Y81486D02*Y77486D01*
X30714Y81486D02*X32714D01*
X33214Y80986D01*
Y79986D01*
X32714Y79486D02*X33214Y79986D01*
X31214Y79486D02*X32714D01*
X34414Y81486D02*X36414D01*
X34414D02*Y79486D01*
X34914Y79986D01*
X35914D01*
X36414Y79486D01*
Y77986D01*
X35914Y77486D02*X36414Y77986D01*
X34914Y77486D02*X35914D01*
X34414Y77986D02*X34914Y77486D01*
X88764Y41150D02*X90264D01*
X88264Y41650D02*X88764Y41150D01*
X88264Y44650D02*Y41650D01*
Y44650D02*X88764Y45150D01*
X90264D01*
X91464Y44650D02*X91964Y45150D01*
X93464D01*
X93964Y44650D01*
Y43650D01*
X91464Y41150D02*X93964Y43650D01*
X91464Y41150D02*X93964D01*
X165400Y42000D02*X167400D01*
X167900Y41500D01*
Y40500D01*
X167400Y40000D02*X167900Y40500D01*
X165900Y40000D02*X167400D01*
X165900Y42000D02*Y38000D01*
Y40000D02*X167900Y38000D01*
X169100Y41500D02*X169600Y42000D01*
X171100D01*
X171600Y41500D01*
Y40500D01*
X169100Y38000D02*X171600Y40500D01*
X169100Y38000D02*X171600D01*
X98850Y45150D02*Y41150D01*
X100350Y45150D02*X100850Y44650D01*
Y41650D01*
X100350Y41150D02*X100850Y41650D01*
X98350Y41150D02*X100350D01*
X98350Y45150D02*X100350D01*
X102550Y41150D02*X103550D01*
X103050Y45150D02*Y41150D01*
X102050Y44150D02*X103050Y45150D01*
X61995Y69500D02*Y66000D01*
X62495Y65500D01*
X63495D01*
X63995Y66000D01*
Y69500D02*Y66000D01*
X65195Y67500D02*X67195Y69500D01*
X65195Y67500D02*X67695D01*
X67195Y69500D02*Y65500D01*
X48500Y77500D02*Y74000D01*
X49000Y73500D01*
X50000D01*
X50500Y74000D01*
Y77500D02*Y74000D01*
X51700Y77000D02*X52200Y77500D01*
X53700D01*
X54200Y77000D01*
Y76000D01*
X51700Y73500D02*X54200Y76000D01*
X51700Y73500D02*X54200D01*
X79000Y45000D02*X81000D01*
X81500Y44500D01*
Y43500D01*
X81000Y43000D02*X81500Y43500D01*
X79500Y43000D02*X81000D01*
X79500Y45000D02*Y41000D01*
Y43000D02*X81500Y41000D01*
X83200D02*X84200D01*
X83700Y45000D02*Y41000D01*
X82700Y44000D02*X83700Y45000D01*
M02*
