G04 start of page 10 for group -4015 idx -4015 *
G04 Title: (unknown), toppaste *
G04 Creator: pcb 20140316 *
G04 CreationDate: Tue 01 Nov 2016 05:58:47 PM GMT UTC *
G04 For: ndholmes *
G04 Format: Gerber/RS-274X *
G04 PCB-Dimensions (mil): 2110.00 2710.00 *
G04 PCB-Coordinate-Origin: lower left *
%MOIN*%
%FSLAX25Y25*%
%LNTOPPASTE*%
%ADD100R,0.0167X0.0167*%
%ADD99R,0.0310X0.0310*%
%ADD98C,0.0001*%
%ADD97R,0.0945X0.0945*%
%ADD96R,0.0378X0.0378*%
%ADD95R,0.0300X0.0300*%
%ADD94C,0.0600*%
%ADD93R,0.0600X0.0600*%
%ADD92R,0.0500X0.0500*%
%ADD91R,0.0512X0.0512*%
G54D91*X55595Y115255D02*Y109745D01*
X67405Y115255D02*Y109745D01*
X43905Y115255D02*Y109745D01*
X32095Y115255D02*Y109745D01*
X90607Y56586D02*X91393D01*
X90607Y49500D02*X91393D01*
X139043Y76393D02*Y75607D01*
X131957Y76393D02*Y75607D01*
G54D92*X63514Y85426D02*Y78773D01*
X53514Y99599D02*Y92946D01*
X43514Y85426D02*Y78773D01*
X33514Y99599D02*Y92946D01*
X146500Y123413D02*Y116760D01*
X156500Y109240D02*Y102587D01*
X166500Y123413D02*Y116760D01*
X176500Y109240D02*Y102587D01*
X146500Y97413D02*Y90760D01*
X156500Y83240D02*Y76587D01*
X166500Y97413D02*Y90760D01*
X176500Y83240D02*Y76587D01*
G54D93*X112500Y67000D02*X120500D01*
X150500D02*X158500D01*
X112500Y57000D02*X120500D01*
X150500D02*X158500D01*
X112500Y47000D02*X120500D01*
G54D92*X150500D02*X158500D01*
G54D93*X112500Y37000D02*X120500D01*
X150500D02*X158500D01*
G54D91*X21607Y240543D02*X22393D01*
X21607Y233457D02*X22393D01*
X81107Y56543D02*X81893D01*
X81107Y49457D02*X81893D01*
G54D92*X141000Y186913D02*Y180260D01*
X151000Y172740D02*Y166087D01*
X161000Y186913D02*Y180260D01*
X171000Y172740D02*Y166087D01*
X70000Y228913D02*Y222260D01*
X80000Y214740D02*Y208087D01*
X90000Y228913D02*Y222260D01*
X100000Y214740D02*Y208087D01*
G54D94*X67000Y180900D03*
G54D95*X65500Y179400D02*X68500D01*
G54D94*X67000Y174100D03*
G54D95*X65500Y175600D02*X68500D01*
G54D96*X68906Y61405D02*Y57311D01*
X63000Y61405D02*Y49595D01*
G54D97*Y47861D02*Y45971D01*
G54D98*G36*
X64885Y55426D02*X67725Y52586D01*
X66305Y51166D01*
X63465Y54006D01*
X64885Y55426D01*
G37*
G36*
X58275Y52586D02*X61115Y55426D01*
X62535Y54006D01*
X59695Y51166D01*
X58275Y52586D01*
G37*
G54D96*X57094Y61405D02*Y57311D01*
G54D99*X104300Y111500D02*X105200D01*
X78800D02*X79700D01*
X104300Y121500D02*X105200D01*
X78800D02*X79700D01*
G54D92*X76500Y159413D02*Y152760D01*
X86500Y145240D02*Y138587D01*
X96500Y159413D02*Y152760D01*
X106500Y145240D02*Y138587D01*
G54D91*X100607Y56543D02*X101393D01*
X100607Y49457D02*X101393D01*
X10957Y256393D02*Y255607D01*
X18043Y256393D02*Y255607D01*
G54D99*X34500Y46950D02*Y44550D01*
X44500Y46950D02*Y44550D01*
Y69450D02*Y67050D01*
X34500Y69450D02*Y67050D01*
G54D100*X97776Y181587D02*Y179717D01*
X100925Y181587D02*Y179717D01*
X104075Y181587D02*Y179717D01*
X107224Y181587D02*Y179717D01*
Y188283D02*Y186413D01*
X104075Y188283D02*Y186413D01*
X100925Y188283D02*Y186413D01*
X97776Y188283D02*Y186413D01*
X129075Y170283D02*Y168413D01*
X125925Y170283D02*Y168413D01*
Y163587D02*Y161717D01*
X129075Y163587D02*Y161717D01*
G54D91*X114107Y121043D02*X114893D01*
X114107Y113957D02*X114893D01*
X75500Y74755D02*Y69245D01*
X87310Y74755D02*Y69245D01*
M02*
