M48
INCH
T60C0.020
T59C0.128
T58C0.030
T57C0.048
T56C0.045
T55C0.129
T54C0.038
%
T60
X000700Y020200
X000700Y019700
X001200Y020200
X001200Y019700
X001700Y020200
X001700Y019700
X005200Y016550
X005200Y016050
X005700Y016550
X005700Y016050
X006550Y012800
X006550Y012300
X007050Y020800
X007050Y012800
X007050Y012300
X007500Y020250
X007550Y012800
X011000Y022550
X011000Y022050
X011050Y013150
X011500Y022550
X011500Y022050
X011650Y025200
X011650Y024700
X012000Y013150
X012150Y025200
X012150Y024700
X012400Y007400
X013200Y005450
X013200Y004950
X013700Y005450
X013700Y004950
X013800Y012400
X014200Y005450
X014200Y004950
X015450Y012100
X015950Y012100
X016700Y022600
X016700Y022100
X017200Y022600
X017200Y022100
T58
X013840Y021400
X014340Y020400
X014840Y021400
X015340Y020400
X015840Y021400
X016340Y020400
T54
X001050Y016050
X001050Y015050
X001050Y014050
X001050Y013050
X001050Y012050
X001050Y011050
X001050Y010050
X001050Y009050
X001050Y007050
X001050Y006050
X001050Y005050
X001050Y004050
X001050Y003050
X001050Y002050
X010030Y002000
X010030Y001000
X011030Y002000
X011030Y001000
X012030Y002000
X012030Y001000
X019300Y026000
X019300Y025000
X019300Y024000
X019300Y023000
X020050Y019650
X020050Y018650
X020050Y017650
X020050Y016650
X020050Y015650
X020050Y014650
X020050Y013650
X020050Y012650
X020050Y011650
X020050Y010650
X020050Y009050
X020050Y008050
X020050Y007050
X020050Y006050
X020050Y005050
X020050Y004050
X020050Y003050
X020050Y002050
T56
X003540Y013040
X004540Y013040
X005540Y013040
T57
X003550Y024780
X004150Y022050
X004150Y020050
X004150Y018050
X004550Y024780
X005550Y024780
X005660Y002170
X006550Y024780
X007550Y024780
X007660Y002170
X008550Y024780
X009550Y024780
X010550Y024780
T59
X013090Y023900
X017090Y023900
T55
X001050Y021550
X003050Y001050
X014050Y001050
X020050Y021050
M30
